<svg xmlns="http://www.w3.org/2000/svg" width="61.643" height="42.764" viewBox="0 0 61.643 42.764">
  <g id="_466_lap_top_outline" data-name="#466_lap_top_outline" transform="translate(0 0)">
    <path id="Path_1441" data-name="Path 1441" d="M118.849,70.13h41.364a1.058,1.058,0,0,1,1.058,1.058V98.172H117.78V71.188a1.058,1.058,0,0,1,1.069-1.058Z" transform="translate(-108.709 -69.889)" fill="#fff"/>
    <path id="Path_1442" data-name="Path 1442" d="M160.546,97.791h-43.5a.265.265,0,0,1-.265-.265V70.543A1.323,1.323,0,0,1,118.1,69.22h41.375a1.323,1.323,0,0,1,1.323,1.323V97.526A.265.265,0,0,1,160.546,97.791Zm-43.237-.529h42.973V70.543a.807.807,0,0,0-.794-.794H118.113a.807.807,0,0,0-.794.794Z" transform="translate(-107.973 -69.22)" fill="#093f68"/>
    <path id="Path_1443" data-name="Path 1443" d="M136.8,176.22H93.3l-8.807,11.2h61.115Z" transform="translate(-84.225 -147.914)" fill="#68bcfd"/>
    <path id="Path_1444" data-name="Path 1444" d="M144.888,186.953H83.778a.265.265,0,0,1-.206-.429l8.8-11.2a.265.265,0,0,1,.209-.1h43.5a.265.265,0,0,1,.209.1l8.8,11.217a.265.265,0,0,1-.206.429Zm-60.581-.529h60.025l-8.391-10.674H92.709Z" transform="translate(-83.508 -147.178)" fill="#093f68"/>
    <rect id="Rectangle_44" data-name="Rectangle 44" width="38.073" height="22.97" rx="3.35" transform="translate(11.786 2.775)" fill="#fff"/>
    <path id="Path_1445" data-name="Path 1445" d="M164.462,102.212h-36.3A1.151,1.151,0,0,1,127,101.061v-21.2a1.151,1.151,0,0,1,1.151-1.151h36.312a1.151,1.151,0,0,1,1.161,1.151v21.2a1.151,1.151,0,0,1-1.161,1.151Zm-36.3-22.973a.622.622,0,0,0-.632.622v21.2a.622.622,0,0,0,.622.622h36.312a.622.622,0,0,0,.632-.622v-21.2a.622.622,0,0,0-.622-.622Z" transform="translate(-115.49 -76.199)" fill="#093f68"/>
    <path id="Path_1446" data-name="Path 1446" d="M84.49,218.57H145.6v1.587a1.4,1.4,0,0,1-1.4,1.4H85.887a1.4,1.4,0,0,1-1.4-1.4Z" transform="translate(-84.225 -179.06)" fill="#093f68"/>
    <path id="Path_1447" data-name="Path 1447" d="M143.473,221.1H85.151a1.664,1.664,0,0,1-1.661-1.661v-1.587a.265.265,0,0,1,.265-.265h61.11a.265.265,0,0,1,.265.265v1.587A1.664,1.664,0,0,1,143.473,221.1Zm-59.454-2.989v1.323a1.132,1.132,0,0,0,1.132,1.132h58.322a1.132,1.132,0,0,0,1.132-1.132v-1.323Z" transform="translate(-83.49 -178.339)" fill="#093f68"/>
    <path id="Path_1448" data-name="Path 1448" d="M176.39,201.89h10.1l1.63,3.251H174.76Z" transform="translate(-150.615 -166.793)" fill="#68bcfd"/>
    <path id="Path_1449" data-name="Path 1449" d="M187.381,204.67H174.027a.265.265,0,0,1-.235-.384l1.622-3.251a.265.265,0,0,1,.235-.146h10.1a.265.265,0,0,1,.235.146l1.63,3.251a.265.265,0,0,1-.235.384Zm-12.926-.529h12.5l-1.365-2.722H175.82Z" transform="translate(-149.882 -166.057)" fill="#093f68"/>
    <path id="Path_1450" data-name="Path 1450" d="M115.621,182.14l-3.071,4.27h46.269l-3.071-4.27Z" transform="translate(-104.862 -152.268)" fill="#68bcfd"/>
    <path id="Path_1451" data-name="Path 1451" d="M158.093,185.968H111.824a.258.258,0,0,1-.214-.407l3.071-4.27a.265.265,0,0,1,.214-.111h40.126a.265.265,0,0,1,.214.111l3.071,4.27a.258.258,0,0,1-.214.407Zm-45.753-.529h45.237l-2.69-3.741H115.03Z" transform="translate(-104.136 -151.561)" fill="#093f68"/>
    <path id="Path_1452" data-name="Path 1452" d="M198.756,74.409h-.571a.265.265,0,1,1,0-.529h.571a.265.265,0,1,1,0,.529Z" transform="translate(-167.648 -72.647)" fill="#093f68"/>
    <path id="Path_1453" data-name="Path 1453" d="M143.492,104.138a.263.263,0,0,1-.161-.474l21.428-16.336a.265.265,0,0,1,.32.421l-21.428,16.333A.264.264,0,0,1,143.492,104.138Z" transform="translate(-127.423 -82.504)" fill="#dfeaef"/>
    <path id="Path_1454" data-name="Path 1454" d="M139.792,102.823a.266.266,0,0,1-.161-.476l7.463-5.688a.265.265,0,1,1,.32.421l-7.46,5.688A.264.264,0,0,1,139.792,102.823Z" transform="translate(-124.702 -89.355)" fill="#dfeaef"/>
    <path id="Path_1455" data-name="Path 1455" d="M194.667,109.622a.265.265,0,0,1-.161-.474L210.838,96.7a.265.265,0,0,1,.32.421l-16.333,12.45A.264.264,0,0,1,194.667,109.622Z" transform="translate(-165.062 -89.395)" fill="#dfeaef"/>
    <path id="Path_1456" data-name="Path 1456" d="M219.662,143.793a.263.263,0,0,1-.161-.474l7.029-5.36a.264.264,0,1,1,.32.421l-7.029,5.37A.265.265,0,0,1,219.662,143.793Z" transform="translate(-183.443 -119.736)" fill="#dfeaef"/>
  </g>
</svg>
