<svg xmlns="http://www.w3.org/2000/svg" width="62.291" height="43.764" viewBox="0 0 62.291 43.764">
  <g id="_485_settings_storage_outline" data-name="#485_settings_storage_outline" transform="translate(0 0)">
    <rect id="Rectangle_39" data-name="Rectangle 39" width="54.909" height="37.523" transform="translate(0.289 0.289)" fill="#fff"/>
    <path id="Path_1430" data-name="Path 1430" d="M159.848,122.7H104.939a.289.289,0,0,1-.289-.289V84.889a.289.289,0,0,1,.289-.289h54.909a.289.289,0,0,1,.289.289v37.523A.289.289,0,0,1,159.848,122.7Zm-54.619-.578h54.33V85.178h-54.33Z" transform="translate(-104.65 -84.6)" fill="#093f68"/>
    <rect id="Rectangle_40" data-name="Rectangle 40" width="54.909" height="4.93" transform="translate(0.289 0.289)" fill="#68bcfd"/>
    <path id="Path_1431" data-name="Path 1431" d="M159.848,90.134H104.939a.289.289,0,0,1-.289-.289V84.929a.289.289,0,0,1,.289-.289h54.909a.289.289,0,0,1,.289.289v4.916A.289.289,0,0,1,159.848,90.134Zm-54.619-.578h54.33V85.218h-54.33Z" transform="translate(-104.65 -84.628)" fill="#093f68"/>
    <circle id="Ellipse_19" data-name="Ellipse 19" cx="0.815" cy="0.815" r="0.815" transform="translate(3.959 1.937)" fill="#f56132"/>
    <path id="Path_1432" data-name="Path 1432" d="M118.459,92.509a1.1,1.1,0,1,1,.785-.321A1.1,1.1,0,0,1,118.459,92.509Zm0-1.631a.526.526,0,1,0,.532.526A.526.526,0,0,0,118.459,90.878Z" transform="translate(-113.685 -88.652)" fill="#093f68"/>
    <circle id="Ellipse_20" data-name="Ellipse 20" cx="0.815" cy="0.815" r="0.815" transform="translate(7.047 1.937)" fill="#ffbc0e"/>
    <path id="Path_1433" data-name="Path 1433" d="M129.125,92.509a1.1,1.1,0,1,1,1.1-1.1,1.1,1.1,0,0,1-1.1,1.1Zm0-1.631a.526.526,0,1,0,.526.526A.526.526,0,0,0,129.125,90.878Z" transform="translate(-121.262 -88.652)" fill="#093f68"/>
    <circle id="Ellipse_21" data-name="Ellipse 21" cx="0.815" cy="0.815" r="0.815" transform="translate(10.136 1.937)" fill="#70cc40"/>
    <path id="Path_1434" data-name="Path 1434" d="M139.8,92.509a1.1,1.1,0,1,1,1.1-1.1A1.1,1.1,0,0,1,139.8,92.509Zm0-1.631a.526.526,0,1,0,.526.526A.526.526,0,0,0,139.8,90.878Z" transform="translate(-128.854 -88.652)" fill="#093f68"/>
    <rect id="Rectangle_41" data-name="Rectangle 41" width="20.873" height="1.9" transform="translate(4.774 8.788)" fill="#093f68"/>
    <path id="Path_1435" data-name="Path 1435" d="M141.322,116.475H120.449a.289.289,0,0,1-.289-.289v-1.9a.289.289,0,0,1,.289-.289h20.873a.289.289,0,0,1,.289.289v1.9A.289.289,0,0,1,141.322,116.475Zm-20.583-.578h20.294v-1.319H120.738Z" transform="translate(-115.675 -105.498)" fill="#093f68"/>
    <rect id="Rectangle_42" data-name="Rectangle 42" width="20.873" height="1.9" transform="translate(4.774 13.38)" fill="#093f68"/>
    <path id="Path_1436" data-name="Path 1436" d="M141.322,132.348H120.449a.289.289,0,0,1-.289-.289v-1.9a.289.289,0,0,1,.289-.289h20.873a.289.289,0,0,1,.289.289v1.9A.289.289,0,0,1,141.322,132.348Zm-20.583-.578h20.294v-1.322H120.738Z" transform="translate(-115.675 -116.779)" fill="#093f68"/>
    <rect id="Rectangle_43" data-name="Rectangle 43" width="8.753" height="1.9" transform="translate(4.774 17.972)" fill="#093f68"/>
    <path id="Path_1437" data-name="Path 1437" d="M129.2,148.231h-8.753a.289.289,0,0,1-.289-.289v-1.9a.289.289,0,0,1,.289-.289H129.2a.289.289,0,0,1,.289.289v1.9A.289.289,0,0,1,129.2,148.231Zm-8.464-.578h8.175v-1.324h-8.175Z" transform="translate(-115.675 -128.067)" fill="#093f68"/>
    <g id="ahcQ9Z" transform="translate(10.945 19.888)">
      <path id="Path_1438" data-name="Path 1438" d="M163.542,165.544a1.241,1.241,0,0,0-.639-1.362c-.422-.211-.868-.4-1.293-.578a.312.312,0,0,1-.211-.289c-.043-.393-.1-.789-.168-1.183a.24.24,0,0,1,.1-.263c.37-.307.743-.607,1.1-.931a1.226,1.226,0,0,0,.272-1.478c-.289-.578-.63-1.1-.954-1.654a1.313,1.313,0,0,0-1.692-.607c-.4.15-.8.289-1.2.46a.249.249,0,0,1-.289-.04q-.509-.4-1.038-.781a.243.243,0,0,1-.119-.254c.041-.431.081-.868.113-1.3a1.293,1.293,0,0,0-.92-1.385q-.954-.269-1.917-.495a1.252,1.252,0,0,0-1.4.648c-.223.44-.416.891-.616,1.339a.246.246,0,0,1-.228.168c-.411.049-.821.113-1.232.182a.226.226,0,0,1-.252-.087c-.289-.367-.6-.737-.914-1.09a1.235,1.235,0,0,0-1.489-.289c-.6.321-1.194.662-1.77,1.029a1.269,1.269,0,0,0-.5,1.611c.159.422.327.842.48,1.264a.246.246,0,0,1-.029.2c-.257.361-.523.72-.792,1.073a.252.252,0,0,1-.185.084c-.431-.029-.868-.069-1.3-.11a1.293,1.293,0,0,0-1.411.868c-.194.659-.364,1.327-.518,2a1.235,1.235,0,0,0,.633,1.348c.448.231.911.428,1.371.633a.234.234,0,0,1,.156.214c.052.419.116.836.185,1.252a.211.211,0,0,1-.084.234c-.341.289-.68.555-1.012.844a1.3,1.3,0,0,0-.289,1.721q.437.769.9,1.524a1.3,1.3,0,0,0,1.689.578c.411-.153.821-.309,1.229-.471a.2.2,0,0,1,.231.041c.315.243.63.489.957.714a.289.289,0,0,1,.133.289c-.043.425-.081.868-.116,1.278a1.278,1.278,0,0,0,.868,1.368q1,.295,2.024.523a1.246,1.246,0,0,0,1.359-.651c.214-.428.4-.868.6-1.307a.289.289,0,0,1,.252-.191c.414-.046.824-.1,1.235-.174a.226.226,0,0,1,.237.09c.289.338.564.671.844,1.009a1.365,1.365,0,0,0,.769.471,1.131,1.131,0,0,0,.824-.113c.547-.289,1.082-.622,1.622-.937a1.319,1.319,0,0,0,.61-1.735c-.147-.4-.289-.8-.46-1.2a.223.223,0,0,1,.038-.249q.39-.494.761-1.009a.252.252,0,0,1,.26-.116c.431.046.868.084,1.3.119a1.293,1.293,0,0,0,1.394-.905Q163.313,166.536,163.542,165.544ZM151.9,168.3a4.566,4.566,0,1,1,5.572-3.271A4.566,4.566,0,0,1,151.9,168.3Z" transform="translate(-142.498 -153.373)" fill="#68bcfd" stroke="#093f68" stroke-linecap="round" stroke-linejoin="round" stroke-width="2"/>
    </g>
    <g id="ahcQ9Z-2" data-name="ahcQ9Z" transform="translate(32.827 14.31)">
      <path id="Path_1439" data-name="Path 1439" d="M246.607,146.949a1.66,1.66,0,0,0-1.287-1.556c-.622-.133-1.252-.234-1.88-.333a.416.416,0,0,1-.373-.307c-.188-.5-.4-.995-.613-1.483a.321.321,0,0,1,.032-.376c.379-.521.766-1.038,1.116-1.582a1.648,1.648,0,0,0-.148-2.024c-.578-.63-1.191-1.223-1.793-1.828a1.758,1.758,0,0,0-2.4-.22q-.711.489-1.405,1a.321.321,0,0,1-.376.04q-.8-.353-1.614-.665a.33.33,0,0,1-.243-.289q-.13-.868-.289-1.735a1.735,1.735,0,0,0-1.663-1.489q-1.33-.032-2.658,0a1.677,1.677,0,0,0-1.608,1.316c-.145.642-.243,1.3-.35,1.946a.33.33,0,0,1-.243.289c-.518.205-1.032.425-1.541.654a.289.289,0,0,1-.356-.029c-.512-.379-1.024-.758-1.553-1.11a1.66,1.66,0,0,0-2.024.133c-.674.619-1.33,1.261-1.952,1.932a1.7,1.7,0,0,0-.113,2.264c.344.5.706.983,1.047,1.483a.341.341,0,0,1,.029.266c-.214.555-.44,1.11-.674,1.657a.336.336,0,0,1-.208.173c-.578.107-1.157.2-1.735.289a1.735,1.735,0,0,0-1.541,1.616c-.029.922-.026,1.848,0,2.773a1.66,1.66,0,0,0,1.278,1.541c.659.147,1.327.249,1.992.361a.318.318,0,0,1,.289.228c.205.526.431,1.047.662,1.562a.289.289,0,0,1-.032.335c-.35.474-.7.951-1.032,1.446a1.735,1.735,0,0,0,.2,2.334q.827.85,1.68,1.68a1.735,1.735,0,0,0,2.389.182c.483-.338.966-.677,1.446-1.027a.289.289,0,0,1,.315-.026c.492.211.983.425,1.483.61a.373.373,0,0,1,.275.347c.087.578.182,1.134.289,1.7a1.718,1.718,0,0,0,1.588,1.486c.931.035,1.865.029,2.8,0a1.671,1.671,0,0,0,1.547-1.3c.139-.628.234-1.267.338-1.9a.367.367,0,0,1,.263-.33c.521-.2,1.035-.416,1.547-.639a.289.289,0,0,1,.335.032c.477.35.96.688,1.446,1.032a1.839,1.839,0,0,0,1.157.353,1.506,1.506,0,0,0,1.032-.422c.61-.578,1.2-1.174,1.793-1.764a1.77,1.77,0,0,0,.217-2.444c-.327-.471-.662-.94-1-1.405a.289.289,0,0,1-.032-.335c.226-.518.445-1.038.648-1.567a.333.333,0,0,1,.289-.237q.868-.13,1.735-.289a1.735,1.735,0,0,0,1.507-1.648C246.633,148.765,246.63,147.857,246.607,146.949Zm-14.216,7.519a6.118,6.118,0,1,0,0-.009Z" transform="translate(-218.169 -134.085)" fill="#68bcfd" stroke="#093f68" stroke-linecap="round" stroke-linejoin="round" stroke-width="2"/>
    </g>
    <path id="Path_1440" data-name="Path 1440" d="M227.044,117.589H205.789a.289.289,0,0,1-.289-.289v-3.01a.289.289,0,0,1,.289-.289h21.254a.289.289,0,0,1,.289.289V117.3A.289.289,0,0,1,227.044,117.589Zm-20.959-.578h20.67v-2.432H206.078Z" transform="translate(-176.337 -105.498)" fill="#dfeaef"/>
  </g>
</svg>
