<svg xmlns="http://www.w3.org/2000/svg" xmlns:xlink="http://www.w3.org/1999/xlink" width="417.001" height="295.572" viewBox="0 0 417.001 295.572">
  <defs>
    <linearGradient id="linear-gradient" x1="0.537" y1="0.657" x2="0.383" y2="0.138" gradientUnits="objectBoundingBox">
      <stop offset="0" stop-color="#fff" stop-opacity="0.031"/>
      <stop offset="0.99" stop-color="#2a1700"/>
    </linearGradient>
    <linearGradient id="linear-gradient-2" x1="0.601" y1="0.733" x2="0.462" y2="0.453" xlink:href="#linear-gradient"/>
    <linearGradient id="linear-gradient-3" x1="0.555" y1="0.585" x2="0.279" y2="0.068" xlink:href="#linear-gradient"/>
    <linearGradient id="linear-gradient-4" x1="0.675" y1="0.733" x2="-0.073" y2="0.134" xlink:href="#linear-gradient"/>
    <linearGradient id="linear-gradient-5" x1="1.524" y1="0.66" x2="1.961" y2="-0.21" xlink:href="#linear-gradient"/>
  </defs>
  <g id="Accountant_Isometric" transform="translate(-19.208 -24.33)">
    <path id="Path_4003" data-name="Path 4003" d="M221.53,310.99,27.317,196.241c-6.181-3.468-11.484-9.176-5.46-12.9L216.779,70.976c2.927-1.813,7.363-2.995,10.336-1.272L430.977,188.022c6.181,3.592,7.3,13.623,1.126,17.215L247.132,310.81a25.827,25.827,0,0,1-25.6.18Z" transform="translate(0 5.606)" fill="#7390c6"/>
    <path id="Path_4004" data-name="Path 4004" d="M90.89,195.1l38.257,23.52,138.843-72.5L227.9,116.25Z" transform="translate(9.023 11.57)" opacity="0.32" fill="url(#linear-gradient)"/>
    <path id="Path_4005" data-name="Path 4005" d="M278.02,211.931l42.9,25.422,72.765-43.4-47.568-29.7Z" transform="translate(32.578 17.612)" opacity="0.32" fill="url(#linear-gradient-2)"/>
    <path id="Path_4006" data-name="Path 4006" d="M222.36,234.544l40.948,27.573,25.906-17.3-46.4-26.041Z" transform="translate(25.572 24.475)" opacity="0.32" fill="url(#linear-gradient-3)"/>
    <path id="Path_4007" data-name="Path 4007" d="M249.09,184.971v4.5a4.312,4.312,0,0,0,2.128,3.715l49.539,28.991a5.269,5.269,0,0,0,4.695-.259L353.7,194.384a5.416,5.416,0,0,0,1.5-1.261l10.482-12.463c.5-.6,2.454-2.522,2.252-4.5l-.957-4.346" transform="translate(28.936 18.564)" fill="#68e1fd"/>
    <path id="Path_4008" data-name="Path 4008" d="M249.09,184.971v4.5a4.312,4.312,0,0,0,2.128,3.715l49.539,28.991a5.269,5.269,0,0,0,4.695-.259L353.7,194.384a5.416,5.416,0,0,0,1.5-1.261l10.482-12.463c.5-.6,2.454-2.522,2.252-4.5l-.957-4.346" transform="translate(28.936 18.564)" fill="#205150" opacity="0.43"/>
    <path id="Path_4009" data-name="Path 4009" d="M250.341,190.317l49.888,29.093a6.406,6.406,0,0,0,6.44,0l47.793-27.7L366.5,177.076a2.038,2.038,0,0,0-.552-3.062l-53.119-30.928a2.252,2.252,0,0,0-2.916.518L296.9,159.22l-46.544,26.751a2.5,2.5,0,0,0-.011,4.346Z" transform="translate(28.935 14.908)" fill="#68e1fd"/>
    <path id="Path_4010" data-name="Path 4010" d="M295.051,157.064l10-11.259a1.723,1.723,0,0,1,2.15-.349l50.9,29.307a1.723,1.723,0,0,1,.439,2.623l-9.705,11.259a1.723,1.723,0,0,1-2.162.372L295.49,159.743a1.723,1.723,0,0,1-.439-2.68Z" transform="translate(34.664 15.218)" fill="#7ba9a9"/>
    <path id="Path_4011" data-name="Path 4011" d="M296.8,157.547l6.294-7.037,50.045,29.014-5.922,7.318Z" transform="translate(34.942 15.883)" fill="#fff"/>
    <path id="Path_4012" data-name="Path 4012" d="M324.055,186.321l7.082,4a.968.968,0,0,0,.968,0l4.064-2.4a.968.968,0,0,0,0-1.689l-7.048-4a.968.968,0,0,0-.968,0l-4.1,2.4a.968.968,0,0,0,0,1.689Z" transform="translate(38.31 19.86)" fill="#fd7675"/>
    <path id="Path_4013" data-name="Path 4013" d="M315.872,191.158l7.082,4a.968.968,0,0,0,.968,0l4.064-2.4a.968.968,0,0,0,0-1.689l-7.059-4.053a.968.968,0,0,0-.968,0l-4.1,2.4a.968.968,0,0,0,.011,1.745Z" transform="translate(37.273 20.462)" fill="#66b7ef"/>
    <path id="Path_4014" data-name="Path 4014" d="M307.785,195.641l7.082,4a.968.968,0,0,0,.968,0l4.064-2.4a.968.968,0,0,0,0-1.689l-7.048-4a.968.968,0,0,0-.968,0l-4.1,2.4a.968.968,0,0,0,0,1.689Z" transform="translate(36.262 21.033)" fill="#66b7ef"/>
    <path id="Path_4015" data-name="Path 4015" d="M299.609,200.831l7.082,4a.968.968,0,0,0,.968,0l4.064-2.4a.968.968,0,0,0,0-1.689l-7.1-4a.968.968,0,0,0-.968,0l-4.1,2.4a.968.968,0,0,0,.056,1.689Z" transform="translate(35.23 21.686)" fill="#66b7ef"/>
    <path id="Path_4016" data-name="Path 4016" d="M291.485,205.661l7.082,4a.968.968,0,0,0,.968,0l4.064-2.4a.968.968,0,0,0,0-1.689l-7.048-4a.968.968,0,0,0-.968,0l-4.1,2.4a.968.968,0,0,0,0,1.689Z" transform="translate(34.211 22.294)" fill="#66b7ef"/>
    <path id="Path_4017" data-name="Path 4017" d="M286.225,164.271l7.082,4a.968.968,0,0,0,.968,0l4.064-2.4a.968.968,0,0,0,0-1.689l-7.048-4a.968.968,0,0,0-.968,0l-4.1,2.4a.968.968,0,0,0,0,1.689Z" transform="translate(33.549 17.084)" fill="#fd7675"/>
    <path id="Path_4018" data-name="Path 4018" d="M304.245,175.211l7.082,4a.968.968,0,0,0,.968,0l4.064-2.4a.968.968,0,0,0,0-1.689l-7.048-4a.968.968,0,0,0-.968,0l-4.1,2.4a.968.968,0,0,0,0,1.689Z" transform="translate(35.817 18.461)" fill="#66b7ef"/>
    <path id="Path_4019" data-name="Path 4019" d="M295.515,169.721l7.082,4a.968.968,0,0,0,.968,0l4.064-2.4a.968.968,0,0,0,0-1.689l-7.048-4a.968.968,0,0,0-.968,0l-4.1,2.4a.968.968,0,0,0,0,1.689Z" transform="translate(34.718 17.77)" fill="#66b7ef"/>
    <path id="Path_4020" data-name="Path 4020" d="M313.6,180.475l7.082,4a.968.968,0,0,0,.968,0l4.064-2.4a.968.968,0,0,0,0-1.689l-7.093-4.031a.968.968,0,0,0-.968,0l-4.1,2.4a.968.968,0,0,0,.045,1.723Z" transform="translate(36.988 19.12)" fill="#66b7ef"/>
    <path id="Path_4021" data-name="Path 4021" d="M298.432,190.021l7.082,4a.968.968,0,0,0,.968,0l4.064-2.4a.968.968,0,0,0,0-1.689l-7.048-4a.968.968,0,0,0-.968,0l-4.109,2.342a.968.968,0,0,0,.011,1.745Z" transform="translate(35.078 20.326)" fill="#66b7ef"/>
    <path id="Path_4022" data-name="Path 4022" d="M306.325,185.471l7.082,4a.968.968,0,0,0,.968,0l4.064-2.4a.968.968,0,0,0,0-1.689l-7.048-4a.968.968,0,0,0-.968,0l-4.1,2.4a.968.968,0,0,0,0,1.689Z" transform="translate(36.079 19.753)" fill="#66b7ef"/>
    <path id="Path_4023" data-name="Path 4023" d="M281.253,199.289a.619.619,0,0,0,0,1.058c1.678.957,5.359,2.95,7.037,3.85a1.757,1.757,0,0,0,1.723,0l13.51-7.746a.856.856,0,0,0,0-1.509l-7.284-3.918a1.678,1.678,0,0,0-1.678,0Z" transform="translate(32.948 20.955)" fill="#fd7675"/>
    <path id="Path_4024" data-name="Path 4024" d="M278.514,168.951l7.082,4a.968.968,0,0,0,.968,0l4.064-2.4a.968.968,0,0,0,0-1.689l-7.048-4a.968.968,0,0,0-.968,0l-4.109,2.421a.968.968,0,0,0,.011,1.666Z" transform="translate(32.58 17.673)" fill="#7ba9a9"/>
    <path id="Path_4025" data-name="Path 4025" d="M270.62,184.413l7.082,4a.968.968,0,0,0,.968,0l4.064-2.4a.968.968,0,0,0,0-1.689l-7.116-4.008a.968.968,0,0,0-.968,0l-4.1,2.4a.968.968,0,0,0,.068,1.7Z" transform="translate(31.579 19.618)" fill="#7ba9a9"/>
    <path id="Path_4026" data-name="Path 4026" d="M278.865,178.921l7.082,4a.968.968,0,0,0,.968,0l4.064-2.4a.968.968,0,0,0,0-1.689l-7.048-4a.968.968,0,0,0-.968,0l-4.1,2.4a.968.968,0,0,0,0,1.689Z" transform="translate(32.622 18.928)" fill="#7ba9a9"/>
    <path id="Path_4027" data-name="Path 4027" d="M269.825,173.731l7.082,4a.968.968,0,0,0,.968,0l4.064-2.4a.968.968,0,0,0,0-1.689l-7.048-4a.968.968,0,0,0-.968,0l-4.1,2.4a.968.968,0,0,0,0,1.689Z" transform="translate(31.484 18.275)" fill="#7ba9a9"/>
    <path id="Path_4028" data-name="Path 4028" d="M296.685,179.871l7.082,4a.968.968,0,0,0,.968,0l4.064-2.4a.968.968,0,0,0,0-1.689l-7.048-4a.968.968,0,0,0-.968,0l-4.1,2.4a.968.968,0,0,0,0,1.689Z" transform="translate(34.865 19.048)" fill="#7ba9a9"/>
    <path id="Path_4029" data-name="Path 4029" d="M287.2,174.661l7.082,4a.968.968,0,0,0,.968,0l4.064-2.4a.968.968,0,0,0,0-1.689l-7.048-4a.968.968,0,0,0-.968,0l-4.1,2.4a.968.968,0,0,0,0,1.689Z" transform="translate(33.671 18.392)" fill="#7ba9a9"/>
    <path id="Path_4030" data-name="Path 4030" d="M288.588,184.793l7.082,4a.968.968,0,0,0,.968,0l4.064-2.4a.968.968,0,0,0,0-1.689l-7.082-4.008a.968.968,0,0,0-.968,0l-4.1,2.4a.968.968,0,0,0,.034,1.7Z" transform="translate(33.843 19.666)" fill="#7ba9a9"/>
    <path id="Path_4031" data-name="Path 4031" d="M261.588,178.923l7.082,4a.968.968,0,0,0,.968,0l4.064-2.4a.968.968,0,0,0,0-1.689l-7.082-4.008a.968.968,0,0,0-.968,0l-4.1,2.4a.968.968,0,0,0,.034,1.7Z" transform="translate(30.444 18.927)" fill="#7ba9a9"/>
    <path id="Path_4032" data-name="Path 4032" d="M280.415,189.7l7.082,4a.968.968,0,0,0,.968,0l4.064-2.4a.968.968,0,0,0,0-1.689l-7.048-4a.968.968,0,0,0-.968,0l-4.1,2.4a.968.968,0,0,0,0,1.689Z" transform="translate(32.817 20.285)" fill="#7ba9a9"/>
    <path id="Path_4033" data-name="Path 4033" d="M253.415,183.571l7.082,4a.968.968,0,0,0,.968,0l4.064-2.4a.968.968,0,0,0,0-1.689l-7.048-4a.968.968,0,0,0-.968,0l-4.1,2.4a.968.968,0,0,0,0,1.689Z" transform="translate(29.419 19.514)" fill="#7ba9a9"/>
    <path id="Path_4034" data-name="Path 4034" d="M263.054,188.961l7.082,4a.968.968,0,0,0,.968,0l4.064-2.4a.968.968,0,0,0,0-1.689l-7.048-4a.968.968,0,0,0-.968,0l-4.1,2.409a.968.968,0,0,0,0,1.678Z" transform="translate(30.633 20.192)" fill="#7ba9a9"/>
    <path id="Path_4035" data-name="Path 4035" d="M272.711,194.146l7.082,4a.968.968,0,0,0,.968,0l4.064-2.4a.968.968,0,0,0,0-1.689l-7.059-4.042a.968.968,0,0,0-.968,0l-4.1,2.4a.968.968,0,0,0,.011,1.734Z" transform="translate(31.841 20.839)" fill="#7ba9a9"/>
    <path id="Path_4036" data-name="Path 4036" d="M293.566,52.52a38.279,38.279,0,0,0-10.707,8.838c-4.729,5.765,15.942,1.756,15.942,1.756" transform="translate(33.099 3.548)" fill="#f2ae16"/>
    <ellipse id="Ellipse_148" data-name="Ellipse 148" cx="21.099" cy="23.114" rx="21.099" ry="23.114" transform="matrix(0.703, -0.711, 0.711, 0.703, 307.526, 74.345)" fill="#ea8b24"/>
    <ellipse id="Ellipse_149" data-name="Ellipse 149" cx="21.099" cy="23.114" rx="21.099" ry="23.114" transform="matrix(0.703, -0.711, 0.711, 0.703, 302.478, 78.379)" fill="#ffd008"/>
    <ellipse id="Ellipse_150" data-name="Ellipse 150" cx="18.498" cy="20.254" rx="18.498" ry="20.254" transform="matrix(0.703, -0.711, 0.711, 0.703, 306.341, 78.539)" fill="none" stroke="#f7931e" stroke-miterlimit="10" stroke-width="1"/>
    <path id="Path_4038" data-name="Path 4038" d="M179.948,211.6l49.865,32.02-15.289,14.67L176.48,234.951" transform="translate(19.797 23.573)" opacity="0.32" fill="url(#linear-gradient-4)"/>
    <path id="Path_4039" data-name="Path 4039" d="M161.626,241.9c6.755-4.627,8.174-1.7,14.13-7.4l48.683,26.728-23.643,15.1L138.14,240.8C140.853,238.643,158.834,243.811,161.626,241.9Z" transform="translate(14.971 26.455)" opacity="0.32" fill="url(#linear-gradient-5)"/>
    <path id="Path_4040" data-name="Path 4040" d="M182.824,219.944l-51.948-4.5s-4.684,4.154-3.783,5.539l55.731,4.729S184.783,221.1,182.824,219.944Z" transform="translate(13.565 24.056)" fill="#fff" opacity="0.53"/>
    <path id="Path_4041" data-name="Path 4041" d="M180.963,228.86l-54.673-4.29,1.587,2.139,51.25,4.346Z" transform="translate(13.479 25.205)" fill="#fff" opacity="0.53"/>
    <path id="Path_4042" data-name="Path 4042" d="M121.44,224.047c0-12.914,15.267-23.047,34.812-23.047s34.812,10.133,34.812,23-15.289,23.047-34.812,23.047S121.44,236.938,121.44,224.047Zm7.881,0c0,8.2,12.385,15.12,26.931,15.12s26.931-6.924,26.931-15.12-12.328-15.166-26.931-15.166S129.321,215.839,129.321,224.047Z" transform="translate(12.868 22.238)" fill="#68e1fd"/>
    <path id="Path_4043" data-name="Path 4043" d="M177.816,229.243l42.918,25.512c6.226,3.693.563,13.432-5.629,9.716l-42.963-25.512c-6.226-3.693-.563-13.432,5.629-9.716Z" transform="translate(18.911 25.689)" fill="#68e1fd"/>
    <path id="Path_4044" data-name="Path 4044" d="M354.708,96.349a38.279,38.279,0,0,0-13.15-4.5c-7.4-.991,6.89,14.479,6.89,14.479" transform="translate(40.308 8.493)" fill="#f2ae16"/>
    <ellipse id="Ellipse_151" data-name="Ellipse 151" cx="23.114" cy="21.099" rx="23.114" ry="21.099" transform="matrix(0.223, -0.975, 0.975, 0.223, 359.138, 143.269)" fill="#ea8b24"/>
    <ellipse id="Ellipse_152" data-name="Ellipse 152" cx="23.114" cy="21.099" rx="23.114" ry="21.099" transform="matrix(0.223, -0.975, 0.975, 0.223, 353.061, 141.098)" fill="#ffd008"/>
    <ellipse id="Ellipse_153" data-name="Ellipse 153" cx="20.254" cy="18.498" rx="20.254" ry="18.498" transform="matrix(0.223, -0.975, 0.975, 0.223, 356.235, 138.892)" fill="none" stroke="#f7931e" stroke-miterlimit="10" stroke-width="1"/>
    <path id="Path_4046" data-name="Path 4046" d="M90.89,101.047,227.9,24.33V127.82L90.89,206.666Z" transform="translate(9.023)" fill="#68e1fd"/>
    <path id="Path_4047" data-name="Path 4047" d="M196.7,29.97V50.6L118.9,92.94V74.172Z" transform="translate(12.549 0.71)" fill="#ffc3ca"/>
    <path id="Path_4048" data-name="Path 4048" d="M122,177.579V101.289l6.755-4.019v76.391Z" transform="translate(12.939 9.181)" fill="#7f252b"/>
    <path id="Path_4049" data-name="Path 4049" d="M143.1,163.289V106.319l6.755-4.019v57.082Z" transform="translate(15.595 9.815)" fill="#7f252b"/>
    <path id="Path_4050" data-name="Path 4050" d="M163.93,152.844V79.1l6.755-4.019v73.846Z" transform="translate(18.217 6.388)" fill="#7f252b"/>
    <path id="Path_4051" data-name="Path 4051" d="M189.73,135.069V90.529l6.755-4.019v44.641Z" transform="translate(21.464 7.827)" fill="#7f252b"/>
    <path id="Path_4052" data-name="Path 4052" d="M124.4,89c-3.378,0-3.378,5.2,0,5.2S127.758,89,124.4,89Z" transform="translate(12.923 8.14)" fill="#fd7675"/>
    <path id="Path_4053" data-name="Path 4053" d="M144.643,95.93c-3.378,0-3.378,5.2,0,5.2S148,95.93,144.643,95.93Z" transform="translate(15.47 9.013)" fill="#fd7675"/>
    <path id="Path_4054" data-name="Path 4054" d="M165.133,67.74c-3.378,0-3.378,5.2,0,5.2S168.488,67.74,165.133,67.74Z" transform="translate(18.049 5.464)" fill="#fd7675"/>
    <path id="Path_4055" data-name="Path 4055" d="M192.083,78.7c-3.378,0-3.378,5.2,0,5.2S195.438,78.7,192.083,78.7Z" transform="translate(21.442 6.844)" fill="#fd7675"/>
    <path id="Path_4056" data-name="Path 4056" d="M124.59,93.9c.349-.563,22.259,7.825,22.259,7.825L169.918,70.52,200.26,82.162" transform="translate(13.265 5.814)" fill="none" stroke="#fd7675" stroke-miterlimit="10" stroke-width="1"/>
    <path id="Path_4057" data-name="Path 4057" d="M105.942,111.8l8.681-4.853c1.891-1.058.191-3.986-1.7-2.916l-8.68,4.853C102.351,109.947,104.051,112.874,105.942,111.8Z" transform="translate(10.6 10.004)" fill="#fd7675"/>
    <path id="Path_4058" data-name="Path 4058" d="M105.942,126.564l8.681-4.853c1.891-1.058.191-3.986-1.7-2.916l-8.68,4.853C102.351,124.707,104.051,127.634,105.942,126.564Z" transform="translate(10.6 11.862)" fill="#fd7675"/>
    <path id="Path_4059" data-name="Path 4059" d="M105.942,141.324l8.681-4.853c1.891-1.058.191-3.986-1.7-2.916l-8.68,4.853C102.351,139.467,104.051,142.394,105.942,141.324Z" transform="translate(10.6 13.72)" fill="#fd7675"/>
    <path id="Path_4060" data-name="Path 4060" d="M105.942,156.084l8.681-4.853c1.891-1.058.191-3.986-1.7-2.916l-8.68,4.853C102.351,154.227,104.051,157.154,105.942,156.084Z" transform="translate(10.6 15.578)" fill="#fd7675"/>
    <path id="Path_4061" data-name="Path 4061" d="M105.942,170.844l8.681-4.853c1.891-1.058.191-3.986-1.7-2.916l-8.68,4.853C102.351,168.987,104.051,171.914,105.942,170.844Z" transform="translate(10.6 17.436)" fill="#fd7675"/>
    <path id="Path_4062" data-name="Path 4062" d="M212.754,82.618s-13.128-8.568-14.085-10.133-2.522.349-.9,1.88,2.815,2.871,2.815,2.871-2.128,3.175-1.621,4.965a4.391,4.391,0,0,0,2.387,3.378,5.28,5.28,0,0,0,4.639.428c1.666-.428,3.546,2.049,3.546,2.049l4.132,4.346,5-7.42Z" transform="translate(22.388 5.988)" fill="#fe6162"/>
    <path id="Path_4063" data-name="Path 4063" d="M237.638,87.989,213.319,80.22s-5.292,6.834-3.592,11.135l10.64,5.8" transform="translate(23.939 7.035)" fill="#f2a7b1"/>
    <path id="Path_4064" data-name="Path 4064" d="M238.171,225.265l5.292-1.464-.833-6.451S236.876,218.307,238.171,225.265Z" transform="translate(27.538 24.296)" fill="#42210b"/>
    <path id="Path_4065" data-name="Path 4065" d="M246.2,207.993s1.869,21.808,1.362,22.056-5.629.687-5.629.315-.3-9.919-.3-9.919-2.544,4.211-2.68,6.316c0,0-6.08-3.468-7.217-6.249s2.6-14.422,4.019-15.053" transform="translate(26.725 22.8)" fill="#7f252b"/>
    <path id="Path_4066" data-name="Path 4066" d="M226.554,235.8l5.99-6.361-3.907-4.954S224.989,232.519,226.554,235.8Z" transform="translate(26.051 25.194)" fill="#42210b"/>
    <path id="Path_4067" data-name="Path 4067" d="M237.072,212.13l2.8,26.165s-4.5,1.531-5.348,1.419a16.967,16.967,0,0,1-3.243-1.531l-1-8.725s-2.6,2.6-2.128,7.881c0-.36-4.132-1.734-4.672-1.97a30.977,30.977,0,0,1-4.785-2.612c-1.587-1.126-7.51-5.978-4.335-7.881,2.7-1.655,11.461-.856,11.461-.856l.124-10.8" transform="translate(24.449 23.639)" fill="#7f252b"/>
    <path id="Path_4068" data-name="Path 4068" d="M247.613,130.017a.619.619,0,0,1,.63-.754,20.12,20.12,0,0,0-2.939-6.429l-25.332-2.984s-5.089,18.1-7.048,49.291c-1.52,24.184,10.347,60.088,10.347,60.088s12.283,3.119,18.183-2.95l-.236-5.213a61.924,61.924,0,0,0,9.131-.743C253.389,190.341,251.081,159.9,247.613,130.017Z" transform="translate(24.367 12.024)" fill="#8cc63f"/>
    <path id="Path_4069" data-name="Path 4069" d="M239.767,222.817l-3.175-22.4c-1.013-7.138-2.567-14.479-2.6-21.718s2.443-13.724,3.648-20.626a80.759,80.759,0,0,0,.867-20.266c-.124-1.576-2.387-1.587-2.252,0a78.529,78.529,0,0,1-1.374,22.6c-1.419,6.631-3.378,12.925-3.107,19.827s1.666,13.95,2.646,20.829l3.175,22.4C237.808,225.047,239.992,224.382,239.767,222.817Z" transform="translate(26.753 14.134)" fill="#42210b"/>
    <path id="Path_4070" data-name="Path 4070" d="M208.257,117.573a1.239,1.239,0,0,0,0-.777h.158a1.126,1.126,0,0,0,.788-.158l.248.068c1.4.439,1.97-1.756.574-2.252-1.126-.349-2.252-.664-3.378-.968h-.1a71.121,71.121,0,0,0-9.75-2.848l-6.361-4.391a1.058,1.058,0,0,0-1.711.63c-.36,1.058,1.858,3.378,2.612,3.974h0l.225.191c.146.124.721.732.9.709-3.1.349-5.821,1.925-8.478,3.378a4.278,4.278,0,0,0-.676.394,3.9,3.9,0,0,0-.754.788c-.484.63-.214,1.272.552,1.272,0,0-1.689,1.25-1.2,2.162s2.646.484,2.646.484a.8.8,0,0,0-.574,1.227c.518.991,1.891.068,1.891.068s-.45,1.542.417,1.824a3.1,3.1,0,0,0,1.385-.146c.844-.169,1.678-.383,2.5-.608a21.327,21.327,0,0,1,2.7-.619,12.047,12.047,0,0,0,3.186-.709c.439-.191.889-.405,1.34-.585l.788-.315c.124,0,.608-.327.721-.281l4.5,1.768c1.227.473,3.378,1.9,4.74,1.43s.8-2.691-.585-2.252c.293-.1-.315-.158-.484-.225l-1.25-.484a10.054,10.054,0,0,0,3.592.721,1.126,1.126,0,0,0,.8-1.948,15.1,15.1,0,0,0-1.959-1.52Z" transform="translate(20.468 10.281)" fill="#fe6162"/>
    <path id="Path_4071" data-name="Path 4071" d="M239.2,87.12s-14.051,0-18.96,8.872c-4.087,7.442-3.321,19.872-3.321,19.872l-16.235-1.283s-4.661,1.948-3.5,7.8c.63,3.186,16.742,4.661,25.636,6.868s24.949,2.848,27.471-2.522,2.252-27.021-.732-33.2S239.2,87.12,239.2,87.12Z" transform="translate(22.379 7.904)" fill="#ffc3ca"/>
    <path id="Path_4072" data-name="Path 4072" d="M234.428,87.695s-5.629,4.312-9.131,1.7-2.657-13.882-2.657-13.882,1.79-3.378,8.433.856S234.428,87.695,234.428,87.695Z" transform="translate(25.596 6.282)" fill="#fe6162"/>
    <path id="Path_4073" data-name="Path 4073" d="M235.594,87.57l-.191-.27-3.535,1.126-.068.18C233.084,88.223,234.333,87.874,235.594,87.57Z" transform="translate(26.76 7.926)" fill="#7f252b"/>
    <path id="Path_4074" data-name="Path 4074" d="M242.687,76.218a13.387,13.387,0,0,0-3.682-7.138c-2.871-2.668-7.3-2.646-10.831-1.52a9.75,9.75,0,0,0-7.025,8.129c-.777,4.256,4.2,1.633,5.3,4.064a7.881,7.881,0,0,1,.585,4.5c-.372,2.533-1.88,4.976-1.655,7.588a3.805,3.805,0,0,0,1.824,3.141,42.411,42.411,0,0,0,9.21-.158c2.387-.18,7.206-.383,8.061-3.288C245.491,88.085,242.7,76.218,242.687,76.218Z" transform="translate(25.409 5.351)" fill="#7f252b"/>
    <text id="Rp" transform="translate(324.491 86.049) rotate(-11)" fill="#ea8b24" font-size="16" font-family="Poppins-Bold, Poppins" font-weight="700"><tspan x="0" y="0">Rp</tspan></text>
    <text id="Rp-2" data-name="Rp" transform="translate(369.691 130.839) rotate(-11)" fill="#ea8b24" font-size="16" font-family="Poppins-Bold, Poppins" font-weight="700"><tspan x="0" y="0">Rp</tspan></text>
  </g>
</svg>
