<svg xmlns="http://www.w3.org/2000/svg" xmlns:xlink="http://www.w3.org/1999/xlink" width="176" height="179" viewBox="0 0 176 179">
  <defs>
    <filter id="Ellipse_77" x="0" y="3" width="176" height="176" filterUnits="userSpaceOnUse">
      <feOffset dy="3" input="SourceAlpha"/>
      <feGaussianBlur stdDeviation="3" result="blur"/>
      <feFlood flood-opacity="0.161"/>
      <feComposite operator="in" in2="blur"/>
      <feComposite in="SourceGraphic"/>
    </filter>
    <filter id="Ellipse_76" x="0" y="3" width="176" height="176" filterUnits="userSpaceOnUse">
      <feOffset dy="3" input="SourceAlpha"/>
      <feGaussianBlur stdDeviation="3" result="blur-2"/>
      <feFlood flood-opacity="0.161"/>
      <feComposite operator="in" in2="blur-2"/>
      <feComposite in="SourceGraphic"/>
    </filter>
    <clipPath id="clip-path">
      <g transform="matrix(1, 0, 0, 1, 0, 0)" filter="url(#Ellipse_77)">
        <circle id="Ellipse_77-2" data-name="Ellipse 77" cx="79" cy="79" r="79" transform="translate(1119 1276)" fill="#ba70a3"/>
      </g>
    </clipPath>
    <linearGradient id="linear-gradient" x1="0.5" y1="1" x2="0.5" gradientUnits="objectBoundingBox">
      <stop offset="0" stop-color="gray" stop-opacity="0.251"/>
      <stop offset="0.54" stop-color="gray" stop-opacity="0.122"/>
      <stop offset="1" stop-color="gray" stop-opacity="0.102"/>
    </linearGradient>
  </defs>
  <g id="Group_191" data-name="Group 191" transform="translate(-827.75 -1490)">
    <g transform="matrix(1, 0, 0, 1, 827.75, 1490)" filter="url(#Ellipse_76)">
      <circle id="Ellipse_76-2" data-name="Ellipse 76" cx="79" cy="79" r="79" transform="translate(9 9)" fill="#ba70a3"/>
    </g>
    <g id="Mask_Group_10" data-name="Mask Group 10" transform="translate(-282.25 223)" clip-path="url(#clip-path)">
      <g id="undraw_printing_invoices_5r4r" transform="translate(1098.694 1278.139)">
        <path id="Path_3073" data-name="Path 3073" d="M128.338,52.68s-1.944-.788-8.129,2.047-6.957,2.477-8.557,2.051-2.493-.537-4.21-2.905c0,0-1.211-6.562-2.389-7.58s-6.15.581-6.15.581-5.97,1.369-7.107-6.615c0,0,.807-6.012-.292-7.857,0,0,2.22.955,5.88-.588s6.591,1.663,6.591,1.663a12.141,12.141,0,0,1,.827,3.815c-.092,1.426.489,1.961,2.234,1.272,0,0,.858-1.22-.356-3.238s-2.082-3.519-1.744-5.084a6.315,6.315,0,0,1,4.447-4.825c3.133-1.086,7.387-1.286,9.428-2.144a8.177,8.177,0,0,0,2.545-1.406s-1.257,1.259,1.7,6.6,1.073,7.653,1.073,7.653-1.575,3.754-8.528,3.449c0,0-6.7.244-3.047,3.085,0,0,2.339-.476,5.836-1.588s6.021,3.477,6.648,6.668A8.4,8.4,0,0,0,128.338,52.68Z" transform="translate(26.139 -11.727)" fill="#68e1fd"/>
        <path id="Path_3074" data-name="Path 3074" d="M113.244,24.82l.037-.011c.268,1.018-2.725,5.112-5.285,8.366l-.029-.024C111.576,28.568,113.452,25.608,113.244,24.82Z" transform="translate(32.227 -10.639)" fill="#444053"/>
        <path id="Path_3075" data-name="Path 3075" d="M109.974,30.853l.017.04c-2.045,2.6-4.616,5.7-6.674,8-.2.219-.391.448-.579.684l-.059-.048c.184-.235.384-.467.581-.685C105.316,36.549,107.927,33.453,109.974,30.853Z" transform="translate(30.272 -8.403)" fill="#444053"/>
        <path id="Path_3076" data-name="Path 3076" d="M104,37.143l.04.07c-3.745,4.676-3.993,11.944-4,12l-.79-.919A26.521,26.521,0,0,1,104,37.143Z" transform="translate(29.002 -6.077)" fill="#444053"/>
        <path id="Path_3077" data-name="Path 3077" d="M123.1,46.649s-4.41-2.3-7.857-1.47-11.2-2.922-11.2-2.922-3.289-1.336-3.951-2.859c0,0-2.258-2.389-2.389-3.622s-2.326-4.34-3.76-4.46" transform="translate(27.042 -8.232)" fill="none" stroke="#444053" stroke-miterlimit="10" stroke-width="0.134"/>
        <path id="Path_3078" data-name="Path 3078" d="M115.292,45s-2.223-1.5-1.964-3.245" transform="translate(34.202 -4.372)" fill="none" stroke="#444053" stroke-miterlimit="10" stroke-width="0.134"/>
        <path id="Path_3079" data-name="Path 3079" d="M113.209,47.07s-3.181-1.154-3.491-5.682" transform="translate(32.874 -4.507)" fill="none" stroke="#444053" stroke-miterlimit="10" stroke-width="0.134"/>
        <path id="Path_3080" data-name="Path 3080" d="M109.126,48.262a7.117,7.117,0,0,1-2.03-6.927" transform="translate(31.829 -4.527)" fill="none" stroke="#444053" stroke-miterlimit="10" stroke-width="0.134"/>
        <path id="Path_3081" data-name="Path 3081" d="M104.278,47.385s-2.021-4.245-.222-7.006" transform="translate(30.505 -4.881)" fill="none" stroke="#444053" stroke-miterlimit="10" stroke-width="0.134"/>
        <path id="Path_3082" data-name="Path 3082" d="M115.767,40.467s-2.3.735-1.806,1.94" transform="translate(34.418 -4.848)" fill="none" stroke="#444053" stroke-miterlimit="10" stroke-width="0.134"/>
        <path id="Path_3083" data-name="Path 3083" d="M114.085,37.426s-3.078.976-3.149,5.329" transform="translate(33.325 -5.973)" fill="none" stroke="#444053" stroke-miterlimit="10" stroke-width="0.134"/>
        <path id="Path_3084" data-name="Path 3084" d="M110.805,36.686s-2.8,3.458-2.6,6.6" transform="translate(32.312 -6.247)" fill="none" stroke="#444053" stroke-miterlimit="10" stroke-width="0.134"/>
        <path id="Path_3085" data-name="Path 3085" d="M107.183,37.676s-2.782,2.661-2.427,4.14" transform="translate(31.028 -5.88)" fill="none" stroke="#444053" stroke-miterlimit="10" stroke-width="0.134"/>
        <path id="Path_3086" data-name="Path 3086" d="M106.1,37.1s-2.609.467-2.975-.39" transform="translate(30.436 -6.239)" fill="none" stroke="#444053" stroke-miterlimit="10" stroke-width="0.134"/>
        <path id="Path_3087" data-name="Path 3087" d="M102.82,34.691s1.317,1.746,1.654,1.354" transform="translate(30.324 -6.984)" fill="none" stroke="#444053" stroke-miterlimit="10" stroke-width="0.134"/>
        <path id="Path_3088" data-name="Path 3088" d="M114.538,34.291s-6.578.478-8.067-1.507" transform="translate(31.674 -7.689)" fill="none" stroke="#444053" stroke-miterlimit="10" stroke-width="0.134"/>
        <path id="Path_3089" data-name="Path 3089" d="M101.815,28.268s3.085,6.624,5.329,7.468" transform="translate(29.952 -9.359)" fill="none" stroke="#444053" stroke-miterlimit="10" stroke-width="0.134"/>
        <path id="Path_3090" data-name="Path 3090" d="M104.173,25.965s1.894,6.093,4.243,7.995" transform="translate(30.824 -10.211)" fill="none" stroke="#444053" stroke-miterlimit="10" stroke-width="0.134"/>
        <path id="Path_3091" data-name="Path 3091" d="M116.541,30.22s-5,2.146-8-.026" transform="translate(32.438 -8.647)" fill="none" stroke="#444053" stroke-miterlimit="10" stroke-width="0.101"/>
        <path id="Path_3092" data-name="Path 3092" d="M107.425,25.016s1.143,4.478,2.683,5.56" transform="translate(32.027 -10.562)" fill="none" stroke="#444053" stroke-miterlimit="10" stroke-width="0.101"/>
        <path id="Path_3093" data-name="Path 3093" d="M114.871,26.55s-2.811,1.066-3.859.25" transform="translate(33.353 -9.995)" fill="none" stroke="#444053" stroke-miterlimit="10" stroke-width="0.101"/>
        <path id="Path_3094" data-name="Path 3094" d="M101.348,35.759s0,3.9-1.062,4.182" transform="translate(29.387 -6.589)" fill="none" stroke="#444053" stroke-miterlimit="10" stroke-width="0.134"/>
        <path id="Path_3095" data-name="Path 3095" d="M94.718,39.942s4.226.367,6.168-1.817" transform="translate(27.328 -5.714)" fill="none" stroke="#444053" stroke-miterlimit="10" stroke-width="0.134"/>
        <path id="Path_3096" data-name="Path 3096" d="M101.3,32.392s-1.022,3.96-3.84,5.027" transform="translate(28.343 -7.834)" fill="none" stroke="#444053" stroke-miterlimit="10" stroke-width="0.134"/>
        <path id="Path_3097" data-name="Path 3097" d="M92.869,36.84a5.53,5.53,0,0,0,5.558-1.606" transform="translate(26.644 -6.783)" fill="none" stroke="#444053" stroke-miterlimit="10" stroke-width="0.134"/>
        <path id="Path_3098" data-name="Path 3098" d="M98.41,29.906s-.281,3.363-2.109,4.937" transform="translate(27.913 -8.754)" fill="none" stroke="#444053" stroke-miterlimit="10" stroke-width="0.134"/>
        <path id="Path_3099" data-name="Path 3099" d="M92.952,32.879s2.479.017,3.059-.792" transform="translate(26.675 -7.947)" fill="none" stroke="#444053" stroke-miterlimit="10" stroke-width="0.134"/>
        <rect id="Rectangle_212" data-name="Rectangle 212" width="70.596" height="35.636" transform="translate(66.959 37.701)" fill="#33323d"/>
        <rect id="Rectangle_213" data-name="Rectangle 213" width="114.802" height="23.457" transform="translate(44.968 84.163)" fill="#33323d"/>
        <path id="Path_3100" data-name="Path 3100" d="M60.316,68.46h58.867l11.729,39.471h-83Z" transform="translate(12.057 21.567)" fill="#fff" stroke="#33323d" stroke-width="2"/>
        <path id="Path_3101" data-name="Path 3101" d="M34.573,53.97V91.411H56.564V69.76h77.362V91.411h21.991V53.97Z" transform="translate(7.125 16.208)" fill="#504f60"/>
        <rect id="Rectangle_214" data-name="Rectangle 214" width="121.344" height="12.179" transform="translate(41.698 70.178)" fill="#33323d" opacity="0.1"/>
        <circle id="Ellipse_80" data-name="Ellipse 80" cx="1.804" cy="1.804" r="1.804" transform="translate(154.697 74.465)" fill="#8ccf4d" opacity="0.8"/>
        <circle id="Ellipse_81" data-name="Ellipse 81" cx="1.804" cy="1.804" r="1.804" transform="translate(146.577 74.465)" fill="#fa5959" opacity="0.8"/>
        <rect id="Rectangle_215" data-name="Rectangle 215" width="65.409" height="38.793" transform="translate(69.554 29.129)" fill="#fff" stroke="#33323d" stroke-width="2"/>
        <path id="Path_3102" data-name="Path 3102" d="M114.495,77.742c.138,1.5-1,2.958-.665,4.428.07.314.206.612.255.919a3.58,3.58,0,0,1-.882,2.431L108.935,91.8a3.9,3.9,0,0,1-.61.753c-.818.735-2.041.65-3.113.867a5.343,5.343,0,0,0-2.086.919.136.136,0,0,0-.028.184,1.8,1.8,0,0,0,1.551.735c.112.147,0,.367-.154.47-.23.158-.551.2-.59.59a.647.647,0,0,0,.077.391,1.215,1.215,0,0,0,.748.518,4.437,4.437,0,0,0,4.18-1.422c1.106-1.08,1.9-2.444,2.986-3.545.6-.608,1.286-1.13,1.9-1.72a21.373,21.373,0,0,0,3.124-4.042,4.446,4.446,0,0,0,.676-1.376c.114-.489.062-1.005.195-1.49a5.505,5.505,0,0,1,1.023-1.672,5.524,5.524,0,0,0,1.163-3.605,3.453,3.453,0,0,0-2.108-2.99,1.891,1.891,0,0,0-1.182-.072,2.8,2.8,0,0,0-1.2.957l-.81.935a2.258,2.258,0,0,0-.472.718.748.748,0,0,0,.167.8" transform="translate(30.418 8.007)" fill="#fbbebe"/>
        <path id="Path_3103" data-name="Path 3103" d="M114.495,77.742c.138,1.5-1,2.958-.665,4.428.07.314.206.612.255.919a3.58,3.58,0,0,1-.882,2.431L108.935,91.8a3.9,3.9,0,0,1-.61.753c-.818.735-2.041.65-3.113.867a5.343,5.343,0,0,0-2.086.919.136.136,0,0,0-.028.184,1.8,1.8,0,0,0,1.551.735c.112.147,0,.367-.154.47-.23.158-.551.2-.59.59a.647.647,0,0,0,.077.391,1.215,1.215,0,0,0,.748.518,4.437,4.437,0,0,0,4.18-1.422c1.106-1.08,1.9-2.444,2.986-3.545.6-.608,1.286-1.13,1.9-1.72a21.373,21.373,0,0,0,3.124-4.042,4.446,4.446,0,0,0,.676-1.376c.114-.489.062-1.005.195-1.49a5.505,5.505,0,0,1,1.023-1.672,5.524,5.524,0,0,0,1.163-3.605,3.453,3.453,0,0,0-2.108-2.99,1.891,1.891,0,0,0-1.182-.072,2.8,2.8,0,0,0-1.2.957l-.81.935a2.258,2.258,0,0,0-.472.718.748.748,0,0,0,.167.8" transform="translate(30.418 8.007)" opacity="0.05"/>
        <path id="Path_3104" data-name="Path 3104" d="M114.779,105.744a4.938,4.938,0,0,1-3.179.47c-.184-.02-.38-.033-.492.1-.162.2.029.483.226.641a4.73,4.73,0,0,0,2.185.9,14.782,14.782,0,0,0,2.135.141,36.182,36.182,0,0,0,5.836-.215.788.788,0,0,0,.318-.094.59.59,0,0,0,.241-.368,1.449,1.449,0,0,0-.505-1.387,4.4,4.4,0,0,0-1.362-.735l-1.694-.66a4.371,4.371,0,0,0-1.47-.535C116.225,104.068,115.451,105.35,114.779,105.744Z" transform="translate(33.366 18.646)" fill="#3f3d56"/>
        <path id="Path_3105" data-name="Path 3105" d="M114.779,105.744a4.938,4.938,0,0,1-3.179.47c-.184-.02-.38-.033-.492.1-.162.2.029.483.226.641a4.73,4.73,0,0,0,2.185.9,14.782,14.782,0,0,0,2.135.141,36.182,36.182,0,0,0,5.836-.215.788.788,0,0,0,.318-.094.59.59,0,0,0,.241-.368,1.449,1.449,0,0,0-.505-1.387,4.4,4.4,0,0,0-1.362-.735l-1.694-.66a4.371,4.371,0,0,0-1.47-.535C116.225,104.068,115.451,105.35,114.779,105.744Z" transform="translate(33.366 18.646)" opacity="0.05"/>
        <path id="Path_3106" data-name="Path 3106" d="M114.981,91.447a4.514,4.514,0,0,0-1.261,3.184,7.079,7.079,0,0,0,.7,1.758,12.386,12.386,0,0,1,.711,2.47c.265,1.229.529,2.462.691,3.71.184,1.409-.68,5.487-.761,6.907a1.462,1.462,0,0,1-.3.959c-.094.1-.219.184-.259.3a.509.509,0,0,0,.055.356,3.955,3.955,0,0,0,2.117,1.948,16.793,16.793,0,0,0,4.085,1.073.774.774,0,0,0,.384-.051.735.735,0,0,0,.3-.34c.709-1.354.028-6.176.039-7.706,0-1.286.311-2.543.255-3.818-.046-1.023-.32-2.021-.419-3.043a17.933,17.933,0,0,1,.452-5.007c.235-1.266.47-2.534.772-3.787a7.3,7.3,0,0,1,.818-2.2c.333-.527.785-.967,1.165-1.47a6.615,6.615,0,0,0,1.3-4.847,12.379,12.379,0,0,0-2.659.707,8.326,8.326,0,0,0-2.369,1.525,21.55,21.55,0,0,0-1.494,1.847q-1.042,1.268-2.056,2.556Q116.1,89.955,114.981,91.447Z" transform="translate(34.345 10.442)" fill="#464353"/>
        <path id="Path_3107" data-name="Path 3107" d="M114.981,91.4a4.515,4.515,0,0,0-1.261,3.186,7.094,7.094,0,0,0,.7,1.757,12.421,12.421,0,0,1,.711,2.47c.265,1.229.529,2.462.691,3.71.184,1.409-.68,5.489-.761,6.909a1.457,1.457,0,0,1-.3.957c-.094.1-.219.184-.259.3a.516.516,0,0,0,.055.367A3.952,3.952,0,0,0,116.679,113a16.177,16.177,0,0,0,4.085.766.774.774,0,0,0,.384-.051.735.735,0,0,0,.3-.34c.709-1.354.028-5.869.039-7.4,0-1.286.311-2.545.255-3.82-.046-1.023-.32-2.021-.419-3.043a17.914,17.914,0,0,1,.452-5.005c.235-1.268.47-2.536.772-3.789a7.3,7.3,0,0,1,.818-2.2c.333-.526.785-.967,1.165-1.459a6.628,6.628,0,0,0,1.3-4.847,12.169,12.169,0,0,0-2.659.707,8.279,8.279,0,0,0-2.369,1.529,23.259,23.259,0,0,0-1.494,1.837q-1.042,1.268-2.056,2.558Q116.1,89.913,114.981,91.4Z" transform="translate(34.345 10.431)" opacity="0.05"/>
        <circle id="Ellipse_82" data-name="Ellipse 82" cx="3.956" cy="3.956" r="3.956" transform="translate(137.526 73.304)" fill="#fbbebe"/>
        <path id="Path_3108" data-name="Path 3108" d="M112.527,70.95a5.134,5.134,0,0,0,3.284,2.3l-.3,1.079c-.514,1.861-1.1,3.829-2.53,5.119a2.4,2.4,0,0,0-.4-1.85,7.1,7.1,0,0,0-1.343-1.4l-2.277-1.981a.68.68,0,0,1-.171-.184.59.59,0,0,1,0-.434,5.294,5.294,0,0,1,1.79-2.076,6.362,6.362,0,0,0,.9-1.049C111.947,69.818,112.228,70.467,112.527,70.95Z" transform="translate(32.516 6.144)" fill="#fbbebe"/>
        <path id="Path_3109" data-name="Path 3109" d="M105.371,68.819l-.088-.735c.625.162,1.216-.367,1.615-.919s.77-1.2,1.378-1.426a2.865,2.865,0,0,1,2.227.535,7.054,7.054,0,0,0,2.558.836,1.654,1.654,0,0,1,.423.07,1.461,1.461,0,0,1,.744,1.262,4.867,4.867,0,0,0,.276,1.545c.171.353.467.616.647.963.483.937.017,2.216.527,3.135l-1.268-1.163c-.118-.107-.281-.217-.408-.127s-.108.226-.151.349a.663.663,0,0,1-.9.329,2.47,2.47,0,0,1-.807-.735,4.91,4.91,0,0,0-2.021-1.525,2.584,2.584,0,0,0-2.13.127c-.592.334-1.025,1.114-1.749,1.141-.994.037-1.408-1.814-1.869-2.545a.9.9,0,0,0,.261-1.123C104.715,68.782,105.358,68.7,105.371,68.819Z" transform="translate(30.898 4.465)" fill="#464353"/>
        <path id="Path_3110" data-name="Path 3110" d="M118.08,105.867a4.182,4.182,0,0,1-2.844,1.06c-.266,0-.636.051-.638.318a.426.426,0,0,0,.077.22,2.615,2.615,0,0,0,1.47,1.15,5.224,5.224,0,0,0,1.775.114l1.736-.09c.327-.018.656-.035.983-.075s.68-.108,1.022-.158a13.369,13.369,0,0,1,2.528-.119.751.751,0,0,0,.623-.169c.14-.169.064-.474.013-.718-.1-.5,0-1.031-.1-1.536a2.7,2.7,0,0,0-1.771-1.887c-.781-.3-2.166-.638-2.907-.143A19.46,19.46,0,0,0,118.08,105.867Z" transform="translate(34.679 18.491)" fill="#3f3d56"/>
        <path id="Path_3111" data-name="Path 3111" d="M119.34,84.549c.154.735.858,1.286.88,2.021a3.184,3.184,0,0,1-.715,1.608,10.658,10.658,0,0,0-.735,1.654,25.284,25.284,0,0,1-2.146,4.254,3.378,3.378,0,0,0-.77,2.106,3.155,3.155,0,0,0,.368,1.007l1.222,2.427a6.984,6.984,0,0,1,.625,1.534c.1.461.116.939.184,1.409.193,1.488.891,2.988.48,4.43-.037.125-.165.276-.263.184a4.583,4.583,0,0,1,.7,2.369,3.257,3.257,0,0,0,.013,1.334,1.449,1.449,0,0,1,.184.526c0,.121-.057.237-.07.367a.786.786,0,0,0,.61.735c.329.1.684.1,1.014.2a6.1,6.1,0,0,1,1.635,1.117,3.438,3.438,0,0,0,1.878.612.47.47,0,0,0,.276-.055.448.448,0,0,0,.154-.336,1.863,1.863,0,0,0-.673-1.619.748.748,0,0,1-.248-.261.625.625,0,0,1-.024-.292,21.811,21.811,0,0,0-.072-4.009,6.064,6.064,0,0,1-.064-1.275,4.955,4.955,0,0,0,.1-1.062,5.683,5.683,0,0,0-.325-1.016,7.3,7.3,0,0,1-.156-1.893,16.5,16.5,0,0,0-.537-3.256,2.435,2.435,0,0,0-.507-1.176c-.254-.265-.663-.52-.568-.873a1.011,1.011,0,0,1,.232-.347,1.4,1.4,0,0,0,.292-1.064.474.474,0,0,0,.551-.257,8.555,8.555,0,0,0,4.3-4.89,1.625,1.625,0,0,1,.184-.435,1.987,1.987,0,0,1,.786-.511,5.97,5.97,0,0,0,2.069-2.108,4.9,4.9,0,0,0,.8-1.531,5.018,5.018,0,0,0,.11-1.1l.05-1.915a1.031,1.031,0,0,0-.037-.368.887.887,0,0,0-.206-.3,3.688,3.688,0,0,0-2.021-1.1c-.522-.094-1.055-.075-1.582-.119a20.091,20.091,0,0,0-3.058-.327,4.891,4.891,0,0,0-3.8,2.657C120.19,84.106,119.911,84.549,119.34,84.549Z" transform="translate(35.139 10.114)" fill="#464353"/>
        <path id="Path_3112" data-name="Path 3112" d="M112.355,75.631a2.1,2.1,0,0,1-.116.871.609.609,0,0,1-.715.368c.083-.184-.138-.4-.342-.379a.636.636,0,0,0-.452.384,1.426,1.426,0,0,0-.13.884,3.571,3.571,0,0,1,.224,1.1c-.046.312-.276.625-.153.919a1.488,1.488,0,0,0,.294.353,1,1,0,0,1-.1,1.369l3.083.061a2.178,2.178,0,0,0,.382,1.5,9.456,9.456,0,0,0,7.047,4.594.616.616,0,0,0-.147.939.869.869,0,0,0,.989.055,7.232,7.232,0,0,0,.849-.634,2.593,2.593,0,0,1,1.742-.47c.386.037.761.162,1.148.184,1.143.061,2.124-.761,3.217-1.1a7.57,7.57,0,0,0,2.389-.746.948.948,0,0,0,.443-.919,1.523,1.523,0,0,0-.333-.54,9.153,9.153,0,0,1-.891-1.67,10.01,10.01,0,0,0-2.229-2.984,20.014,20.014,0,0,0-2.2-1.678,3.886,3.886,0,0,0-.6-.368,6.27,6.27,0,0,1-.82-.333,4.149,4.149,0,0,1-.849-.955,12.785,12.785,0,0,0-2.3-1.6,5.653,5.653,0,0,0-1.555-1.053c-.292-.088-.6-.1-.9-.184-.665-.2-1.15-.794-1.8-1.033a7.662,7.662,0,0,0-1.635-.208,3.778,3.778,0,0,1-1.678-.638,2.021,2.021,0,0,0-.551-.316c-.825-.252-.893,1.286-.97,1.821A16.417,16.417,0,0,0,112.355,75.631Z" transform="translate(33.193 6.581)" fill="#68e1fd"/>
        <path id="Path_3113" data-name="Path 3113" d="M115.546,78.933c.138,1.5-1,2.957-.665,4.428.07.314.206.612.255.919a3.563,3.563,0,0,1-.882,2.429l-4.268,6.266a3.9,3.9,0,0,1-.61.753c-.818.735-2.041.65-3.113.867a5.356,5.356,0,0,0-2.086.919.136.136,0,0,0-.028.184,1.79,1.79,0,0,0,1.551.735c.112.149,0,.368-.154.47-.23.16-.551.2-.59.592a.647.647,0,0,0,.077.391,1.222,1.222,0,0,0,.748.518,4.437,4.437,0,0,0,4.18-1.422c1.106-1.08,1.9-2.444,2.988-3.545.6-.608,1.286-1.13,1.9-1.72a21.68,21.68,0,0,0,3.124-4.042,4.467,4.467,0,0,0,.676-1.376c.114-.489.062-1.005.195-1.49a5.483,5.483,0,0,1,1.023-1.672,5.524,5.524,0,0,0,1.163-3.605,3.453,3.453,0,0,0-2.108-2.99,1.878,1.878,0,0,0-1.182-.072,2.813,2.813,0,0,0-1.2.957l-.81.935a2.221,2.221,0,0,0-.47.718.744.744,0,0,0,.165.8" transform="translate(30.807 8.442)" fill="#fbbebe"/>
        <path id="Path_3114" data-name="Path 3114" d="M114.787,73.761a2.344,2.344,0,0,0-1.577.489,2.266,2.266,0,0,0-.4.621,6.212,6.212,0,0,0-.786,2.477,11.7,11.7,0,0,0,.285,2.071,7.6,7.6,0,0,1-.184,1.738,12.084,12.084,0,0,0,2.247-.864,7.438,7.438,0,0,1,1.314-.684,3.922,3.922,0,0,1,2.429.474c.035-.448-.3-1.226-.265-1.674a1.894,1.894,0,0,1,.1-.551,3.39,3.39,0,0,1,.336-.535,2.19,2.19,0,0,0-.2-2.572,3.532,3.532,0,0,0-2.293-.972,9.943,9.943,0,0,0-1.6-.057" transform="translate(33.728 7.446)" fill="#68e1fd"/>
        <path id="Path_3115" data-name="Path 3115" d="M61.226,72.212,57.6,66.957a4.953,4.953,0,0,0-.305-1.6c-.237-.3-.051-.979-.051-.979s.255-.368.035-.406-.035-.862-.035-.862l-.017-1.317a4.622,4.622,0,0,0,.035-1.571.5.5,0,0,1,.017-.542s.2-.726,0-.919a5.508,5.508,0,0,1-.1-2.214,3.364,3.364,0,0,0-.355-1.536c0-.134-1.338-1.453-1.338-1.573a3.246,3.246,0,0,0-1.356-.735c-.509-.127-.761-.237-.744-.305s-.8-.336-.8-.336a1.607,1.607,0,0,1-.983-.406c-.272-.355-1.1-.458-1.123-.461l-.017-.07a.381.381,0,0,0-.015-.077,3.559,3.559,0,0,0,.184-.331l.048-.1a1.437,1.437,0,0,0,.832-.259,1.126,1.126,0,0,0,.406-.81,1.771,1.771,0,0,0-.2-.9,1.508,1.508,0,0,1-.29-.95c.033-.141.118-.266.162-.406a1.073,1.073,0,0,0-.121-.8c-.129-.244-.307-.461-.45-.7a2.756,2.756,0,0,1-.358-.989,1.523,1.523,0,0,0-.13-.538,1,1,0,0,0-.3-.3,2.973,2.973,0,0,0-1.821-.551,8.909,8.909,0,0,1-1.378.083,4.938,4.938,0,0,1-.8-.209,2.076,2.076,0,0,0-1.718.088c-.494.325-.691.965-1.027,1.47a10.685,10.685,0,0,0-.955,1.286V46.1a1.54,1.54,0,0,0-.127.34,2.422,2.422,0,0,0,.075,1.121.779.779,0,0,0,.274.5,1.58,1.58,0,0,0,.592.118l-.022.1a3.868,3.868,0,0,0,2.685,4.5c0,.035,0,.068,0,.1a2.461,2.461,0,0,1-.018.29h0a5.894,5.894,0,0,0-2.161-.114c-.458.237-1.354.423-1.49.551s-.474.035-.779.829-.338,1.6-.735,1.977-.592.625-.61.895.051.338-.1.423-.367.439-.305.575a.48.48,0,0,1-.184.505.562.562,0,0,0-.237.507s-.1.367-.34.458-.39.641-.39.641l-.768.882L36.37,59.609a.643.643,0,0,0-.906-.046l-.748.673a1.481,1.481,0,0,0-.748.445,1.992,1.992,0,0,0-.388.577l-.408.368a1.042,1.042,0,0,0-.107,1.148l.976,1.079v.009a1.727,1.727,0,0,0-.943.384c-1.455,1.286-1.47,2.468-1.253,3.008a22.235,22.235,0,0,0,2.065,2.618,8.244,8.244,0,0,0,2.622,2.135h0l-.011.013a1.28,1.28,0,0,0-.09.1l-.026.033-.024.033-.028.04a.319.319,0,0,0-.02.033l-.029.048a.3.3,0,0,0-.018.033c-.013.022-.024.044-.035.066l-.011.022c-.015.029-.029.059-.042.092l-.015.033c-.009.022-.017.044-.026.068a.412.412,0,0,0-.015.044l-.022.066a.368.368,0,0,0-.015.048.4.4,0,0,1-.02.073c-.006.026-.009.029-.013.046s-.018.079-.026.121a.092.092,0,0,1-.009.048.439.439,0,0,0-.015.086.235.235,0,0,0,0,.062l-.011.083v.066a.344.344,0,0,1-.009.1c-.009.033,0,.039,0,.059v.164a9.357,9.357,0,0,0,.083,2.264,1.1,1.1,0,0,0,.9.674,1.121,1.121,0,0,0,.288-.015,16.5,16.5,0,0,1,3.675-.368,6.317,6.317,0,0,0,1.826-.149l.153-.029.1.336.334-.092.285.164.184.1c.334,1.132,1.69.746,1.69.746l.322.184,3.269.085a6.559,6.559,0,0,0,1.158.551.891.891,0,0,0,.164.037,7.268,7.268,0,0,0,.919.017c.25,0,.443-.017.443-.017s-.033-.888-.081-1.882a26.671,26.671,0,0,0,3.028-.248,3.725,3.725,0,0,0,2.742-2.742,8.012,8.012,0,0,1,.171,1.053,7.637,7.637,0,0,0,.272.919,3.062,3.062,0,0,0,.368.676c1.286-.439.507-1.1.237-1.385s.184-.524.184-.524.356-.237.322-.456-.051-.456,1.1-.439S61.226,72.212,61.226,72.212ZM43.343,61.425a8.766,8.766,0,0,0,.32,1.411,1.837,1.837,0,0,1,.039.551c-.682-.055-1.393-.085-1.393-.085a.173.173,0,0,1,.037.086l-.108-.024-.154-.037,1.257-1.913Zm-2.492,3.962,1.182.184.1.015a3.86,3.86,0,0,0-.061.551c0,.018.026.039.064.062a1.455,1.455,0,0,0-.022.281,3.277,3.277,0,0,0,1.2.461c-.009.035-.017.068-.026.1h0c-.56-.294-1.441-.432-1.542-.65a22.753,22.753,0,0,0-3.1-1.266l-.3-.149.788.149.217-.022a11.713,11.713,0,0,0,1.494.287Z" transform="translate(4.041 -3.861)" fill="url(#linear-gradient)"/>
        <path id="Path_3116" data-name="Path 3116" d="M56.212,66.613s-.469,2.837-2.852,3.256a101.448,101.448,0,0,1-10.34.336s-4.55-.656-6.194-4.5-2.7-5.373-1.286-5.439,9.015,2.572,9.45,2.6S56.633,57.029,56.212,66.613Z" transform="translate(5.2 2.474)" fill="#65617d"/>
        <path id="Path_3117" data-name="Path 3117" d="M56.212,66.613s-.469,2.837-2.852,3.256a101.448,101.448,0,0,1-10.34.336s-4.55-.656-6.194-4.5-2.7-5.373-1.286-5.439,9.015,2.572,9.45,2.6S56.633,57.029,56.212,66.613Z" transform="translate(5.2 2.474)" opacity="0.05"/>
        <path id="Path_3118" data-name="Path 3118" d="M34.9,68.368a1.086,1.086,0,0,0,.889.671,1.218,1.218,0,0,0,.288-.017,16.566,16.566,0,0,1,3.642-.367,6.319,6.319,0,0,0,1.808-.147c.38-.072.66-.14.66-.14s-.673-2.233-.755-2.3-3.023-1.837-3.023-1.837l-2.326-.167h0a1.229,1.229,0,0,0-.79.463,2.491,2.491,0,0,0-.47,1.584A9.26,9.26,0,0,0,34.9,68.368Z" transform="translate(5.177 3.878)" fill="#3f3d56"/>
        <path id="Path_3119" data-name="Path 3119" d="M34.9,68.365a1.086,1.086,0,0,0,.889.671,9.879,9.879,0,0,1-.632-.919l.013-1.628a2.874,2.874,0,0,1,.919-2.416h0s-1.226.083-1.261,2.047A9.891,9.891,0,0,0,34.9,68.365Z" transform="translate(5.178 3.881)" opacity="0.05"/>
        <path id="Path_3120" data-name="Path 3120" d="M42.607,65.982l2.166-1.7,3.407-3.357-.919-.042c-.138.088-.524.368-.538.7-.017.41-.919.029-1.391.263s-2.769,3.179-3.171,3.159-.722-.2-.891.083l-.011.018Z" transform="translate(7.559 2.703)" opacity="0.1"/>
        <path id="Path_3121" data-name="Path 3121" d="M35.16,64.532c.077.037.156.074.235.107a14.915,14.915,0,0,1,3.827,2.451A15.968,15.968,0,0,0,41.4,68.5c.38-.072.66-.14.66-.14s-.673-2.233-.755-2.3-3.023-1.837-3.023-1.837l-2.326-.167h0a1.229,1.229,0,0,0-.8.47Z" transform="translate(5.304 3.877)" opacity="0.1"/>
        <path id="Path_3122" data-name="Path 3122" d="M31.856,61.81a22.314,22.314,0,0,0,2.047,2.6,7.925,7.925,0,0,0,2.8,2.2,14.528,14.528,0,0,1,3.826,2.451,17.669,17.669,0,0,0,2.332,1.5l.208.121.458.266.243.138s.562-.45,1.123-.9,1.1-.9,1.1-.919.235-.621.184-.654-.141-.25-.355-.52a2.367,2.367,0,0,0-.854-.706,2.435,2.435,0,0,1-1.1-1.156s-.073-.053-.184-.125a2.275,2.275,0,0,0-.753-.336c-.368-.046-1.058-.8-1.058-.8a2.054,2.054,0,0,1-.654-.687A24.856,24.856,0,0,0,38.2,61.968l6.31,4.053,1.51.97L48.185,65.3l3.407-3.357-1.125-.051c-1.654-.072-4.594-.184-4.961-.1a2.883,2.883,0,0,1-.919.061,3.253,3.253,0,0,1-1.393-.255c-.555-.292-1.428-.43-1.529-.647a22.591,22.591,0,0,0-3.07-1.257s-4.042-2.148-5.489-.873S31.637,61.27,31.856,61.81Z" transform="translate(4.045 1.788)" fill="#65617d"/>
        <path id="Path_3123" data-name="Path 3123" d="M41.348,53.242l.52,1.729.673,3.894,2.468.167.706-1.176.713-1.183s.445-1.573.764-3.094c.281-1.347.467-2.655.16-2.8-.274-.125-.452-.579-.57-1.068-.015-.059-.028-.121-.039-.184a9.675,9.675,0,0,1-.165-1.251s-5.169-.268-4.447,1.863a3.4,3.4,0,0,1,.195,1.134,1.484,1.484,0,0,1-.018.288,2.416,2.416,0,0,1-.959,1.678Z" transform="translate(7.592 -1.964)" fill="#ee8e9e"/>
        <path id="Path_3124" data-name="Path 3124" d="M40.565,52.067l.184,2.94.419,2.5.47,1.159L42.059,65s4.042.469,5.031-.009a.419.419,0,0,0,.184-.138c1.189-1.8.8-7,.8-7l.452-3.357-.3-1.742-.735-.077-.562-.061s-.127.156-.311.4c-.5.656-1.413,1.95-1.351,2.488.083.735-.1,1.494-.388,1.611s-.52.32-.57.118a.9.9,0,0,1-.051-.537,4.363,4.363,0,0,0-.219-1.159,4.877,4.877,0,0,1-.419-1.459,1.731,1.731,0,0,0-.184-1.058c-.134-.118-.32-.235-.169-.772s-.661-1.582-.661-1.582Z" transform="translate(7.303 -1.074)" fill="#e3e8f4"/>
        <path id="Path_3125" data-name="Path 3125" d="M44.469,59.912l.169,5.018.968.538a.436.436,0,0,0,.184-.14c1.189-1.8.8-7,.8-7l.454-3.357-.3-1.742-.735-.077c.283-1.347.467-2.653.16-2.8-.274-.125-.452-.579-.568-1.066h0l-.524,3.55s.044.32.059.65a1.837,1.837,0,0,1-.042.625,2.086,2.086,0,0,0-.033.84,6.816,6.816,0,0,0-.527,2.475C44.431,58.7,44.469,59.912,44.469,59.912Z" transform="translate(8.744 -1.584)" opacity="0.1"/>
        <path id="Path_3126" data-name="Path 3126" d="M45.587,49.231s.847.1,1.115.458a1.587,1.587,0,0,0,.974.4s.8.268.788.334.235.169.735.3a3.393,3.393,0,0,1,1.343.735c0,.114,1.325,1.426,1.325,1.56a3.35,3.35,0,0,1,.353,1.527,5.465,5.465,0,0,0,.1,2.2c.2.184,0,.906,0,.906a.5.5,0,0,0-.017.538,4.605,4.605,0,0,1-.035,1.56l.018,1.31s-.184.821.033.856-.033.4-.033.4-.184.671.05.974a4.975,4.975,0,0,1,.3,1.593l3.592,5.22s.051.957-1.09.941-1.126.219-1.091.435-.32.454-.32.454-.452.235-.184.52,1.04.941-.235,1.376a3.039,3.039,0,0,1-.368-.671,7.617,7.617,0,0,1-.268-.906s-.118-1.277-.353-1.444-.2-.974-.2-.974.336-.654-.134-.919S44.7,64.888,44.7,64.888l-.165-5.02s-.118-3.71.588-4.952a2.086,2.086,0,0,1,.033-.84,4.348,4.348,0,0,0-.017-1.275Z" transform="translate(8.769 -1.608)" fill="#3f3d56"/>
        <path id="Path_3127" data-name="Path 3127" d="M43.743,50.759a5.833,5.833,0,0,0-2.141-.112c-.454.235-1.341.419-1.47.551s-.469.035-.772.823-.334,1.595-.722,1.964-.586.621-.6.889.05.336-.1.419-.367.437-.3.571,3.491,3.089,3.491,3.089a8.1,8.1,0,0,0,.32,1.409c.151.285-.167,4.213-.5,4.482s2.258.246,2.258.246.118-2.572.219-2.712a26.628,26.628,0,0,0-.068-2.887,16.4,16.4,0,0,1,.2-2.971,13.356,13.356,0,0,0,.184-2.686,5.524,5.524,0,0,1,.428-1.527C44.4,52.019,43.743,50.759,43.743,50.759Z" transform="translate(6.214 -1.114)" opacity="0.1"/>
        <path id="Path_3128" data-name="Path 3128" d="M43.707,50.723a5.866,5.866,0,0,0-2.141-.114c-.454.233-1.343.421-1.47.551s-.47.033-.772.823-.336,1.593-.722,1.962-.588.621-.6.889.051.336-.1.421-.367.435-.3.57,3.491,3.089,3.491,3.089a7.926,7.926,0,0,0,.32,1.409c.153.285-.169,4.213-.505,4.482s2.267.244,2.267.244.118-2.572.217-2.71a27.174,27.174,0,0,0-.066-2.889,16.384,16.384,0,0,1,.2-2.969,13.527,13.527,0,0,0,.193-2.686,5.524,5.524,0,0,1,.428-1.527C44.378,51.98,43.707,50.723,43.707,50.723Z" transform="translate(6.2 -1.128)" fill="#3f3d56"/>
        <path id="Path_3129" data-name="Path 3129" d="M41.944,50.139a3.4,3.4,0,0,1,.195,1.134,3.859,3.859,0,0,0,4.41-1.746,9.676,9.676,0,0,1-.165-1.251S41.222,48.006,41.944,50.139Z" transform="translate(7.787 -1.965)" opacity="0.1"/>
        <path id="Path_3130" data-name="Path 3130" d="M40.062,48.734a3.846,3.846,0,1,0,.085-.8,3.805,3.805,0,0,0-.085.8Z" transform="translate(7.117 -3.213)" fill="#ee8e9e"/>
        <path id="Path_3131" data-name="Path 3131" d="M39.17,54.194l-.919.285a.476.476,0,0,1-.184.5.551.551,0,0,0-.233.5s-.1.367-.336.454-.386.638-.386.638l-.772.889s-.287.235-.235.353-.3.151-.3.151l.184,2.988,1.595.3.99-.1.8-.3.706-.421.318-.821,1.411-2.15Z" transform="translate(5.541 0.228)" fill="#3f3d56"/>
        <path id="Path_3132" data-name="Path 3132" d="M37.08,57.613s-2.047-2.953-3.576-1.36.621,4.18,1.125,4.1,2.905-.219,2.905-.219Z" transform="translate(4.492 0.815)" fill="#ee8e9e"/>
        <rect id="Rectangle_216" data-name="Rectangle 216" width="10.718" height="8.322" rx="0.207" transform="translate(37.101 52.407) rotate(27.04)" fill="#3f3d56"/>
        <rect id="Rectangle_217" data-name="Rectangle 217" width="9.009" height="6.789" transform="translate(37.53 53.465) rotate(27.04)" fill="#68e1fd"/>
        <circle id="Ellipse_83" data-name="Ellipse 83" cx="0.147" cy="0.147" r="0.147" transform="translate(35.531 56.182)" fill="#e6e8ec"/>
        <circle id="Ellipse_84" data-name="Ellipse 84" cx="0.244" cy="0.244" r="0.244" transform="translate(44.119 60.535)" fill="#e6e8ec"/>
        <path id="Path_3133" data-name="Path 3133" d="M35,57.853c-.018,2.216,4.564,2.686,4.564,2.686l1.17.184.526.083.219-2.165s-.241-.037-.54-.107c-.445-.1-1.02-.281-1.139-.533C39.609,57.585,35.015,55.637,35,57.853Z" transform="translate(5.246 1.196)" fill="#ee8e9e"/>
        <path id="Path_3134" data-name="Path 3134" d="M40.124,47.934a.456.456,0,0,1,.281.125c.129.138.136.382.305.467a.353.353,0,0,0,.2.022c.447-.062.7-.566,1.134-.706a1.137,1.137,0,0,1,.75.064.586.586,0,0,1,.25.16c.143.184.042.459.108.684.092.312.465.435.786.476a1.378,1.378,0,0,1,.9.307.816.816,0,0,1,.16.65.507.507,0,0,0,0,.241c.088.252.524.213.638.015.085-.145.059-.265.255-.305a.832.832,0,0,1,.41.072,3.039,3.039,0,0,0,1.064.164,3.844,3.844,0,1,0-7.24-2.435Z" transform="translate(7.14 -3.212)" opacity="0.1"/>
        <path id="Path_3135" data-name="Path 3135" d="M45.25,50.876a.509.509,0,0,1,0-.241.81.81,0,0,0-.16-.649,1.376,1.376,0,0,0-.9-.309c-.323-.042-.695-.164-.786-.476-.066-.224.035-.5-.108-.682a.551.551,0,0,0-.25-.16,1.139,1.139,0,0,0-.75-.066c-.43.14-.687.643-1.134.706a.338.338,0,0,1-.2-.022c-.169-.085-.184-.329-.305-.467-.2-.215-.592-.075-.84-.235a.774.774,0,0,1-.272-.5,2.414,2.414,0,0,1-.074-1.114c.145-.623.7-1.051,1.058-1.586.333-.5.52-1.125,1.018-1.453a2.037,2.037,0,0,1,1.7-.088,4.806,4.806,0,0,0,.8.209,8.974,8.974,0,0,0,1.365-.083,2.922,2.922,0,0,1,1.8.551.987.987,0,0,1,.294.3,1.545,1.545,0,0,1,.132.535,2.716,2.716,0,0,0,.355.981c.14.237.318.45.445.695a1.077,1.077,0,0,1,.121.8c-.044.138-.129.263-.162.4a1.523,1.523,0,0,0,.288.943,1.768,1.768,0,0,1,.2.895,1.121,1.121,0,0,1-.4.8,1.453,1.453,0,0,1-.851.259,3.059,3.059,0,0,1-1.084-.164.855.855,0,0,0-.41-.072c-.2.04-.171.16-.255.305C45.774,51.089,45.34,51.128,45.25,50.876Z" transform="translate(6.886 -3.765)" fill="#3f3d56"/>
        <path id="Path_3136" data-name="Path 3136" d="M42.577,66.056l2.166-1.694,3.407-3.357-1.125-.051a.735.735,0,0,0-.237.459c-.017.41-.919.028-1.391.263s-2.769,3.179-3.171,3.159-.722-.2-.891.081l-.011.018a.474.474,0,0,1-.257.153Z" transform="translate(7.488 2.727)" opacity="0.1"/>
        <path id="Path_3137" data-name="Path 3137" d="M38.984,66.25l1.088,3.475.171.551.518-.141L41.9,69.82l5.086-1.4a4.423,4.423,0,0,0,1.837-.489,5.544,5.544,0,0,1,3.16-.689c.673.062,1.42-.228,2.041-1.374,0,0,1.409-4.162-2.148-5.354s-3.728.634-3.728.634l-.05.029c-.138.088-.524.368-.538.7-.017.41-.919.029-1.391.263S43.4,65.324,43,65.3s-.722-.2-.891.083L42.1,65.4c-.125.171-.5.211-.746.217a2.2,2.2,0,0,1-.232,0l-.033.009-.257.077Z" transform="translate(6.718 2.416)" fill="#65617d"/>
        <path id="Path_3138" data-name="Path 3138" d="M39.189,60.259l.526.083.219-2.165s-.241-.037-.54-.107A11.077,11.077,0,0,1,39.189,60.259Z" transform="translate(6.794 1.661)" opacity="0.1"/>
        <path id="Path_3139" data-name="Path 3139" d="M52.894,52.3s1.56-.454,1.174,3.978A12.392,12.392,0,0,1,50.8,63.509s-3.324,1.459-4.818,1.224-2.583-.285-2.583-.285a3.8,3.8,0,0,0-1.512-.4,6.983,6.983,0,0,1-2.635-.722c-.035-.171.437-2.635.235-2.819a15.555,15.555,0,0,1,2.585.265c.235.169.571.05.823,0a2.855,2.855,0,0,1,2.55-.13,1.549,1.549,0,0,0,.722-.085.722.722,0,0,1,.526-.033,1.443,1.443,0,0,0,.368-.184c.05-.066.454,0,.454,0a.184.184,0,0,0,.252-.118A1.1,1.1,0,0,1,48,59.852a9.513,9.513,0,0,1,1.308-3.508.551.551,0,0,0,.184-.487C49.419,55.586,50.88,51.758,52.894,52.3Z" transform="translate(6.815 -0.493)" opacity="0.1"/>
        <path id="Path_3140" data-name="Path 3140" d="M52.863,52.047s1.562-.452,1.176,3.978a12.383,12.383,0,0,1-3.273,7.234s-3.324,1.461-4.818,1.226-2.585-.29-2.585-.29a3.784,3.784,0,0,0-1.51-.4,7,7,0,0,1-2.635-.722c-.033-.171.435-2.635.235-2.821a15.577,15.577,0,0,1,2.585.266c.235.169.57.048.821,0a2.869,2.869,0,0,1,2.552-.132,1.532,1.532,0,0,0,.72-.083.735.735,0,0,1,.526-.035,1.526,1.526,0,0,0,.367-.184c.05-.068.452,0,.452,0a.184.184,0,0,0,.252-.118,1.1,1.1,0,0,1,.235-.367,9.527,9.527,0,0,1,1.31-3.508.551.551,0,0,0,.184-.487C49.39,55.338,50.849,51.516,52.863,52.047Z" transform="translate(6.804 -0.585)" fill="#3f3d56"/>
        <path id="Path_3141" data-name="Path 3141" d="M40.329,64.211l2.216,2.683.015-.015c.017-.051.235-.621.184-.656A3.121,3.121,0,0,0,41.536,65a2.289,2.289,0,0,1-.95-.864Z" transform="translate(7.215 3.904)" opacity="0.1"/>
        <path id="Path_3142" data-name="Path 3142" d="M40.365,68.379l.243.138s.562-.45,1.123-.9,1.1-.9,1.1-.919.235-.621.184-.654-.141-.25-.355-.52c-1.5-.421-.551.623-.419.671a1.53,1.53,0,0,0-1.929,1.573A2.466,2.466,0,0,0,40.365,68.379Z" transform="translate(7.209 4.379)" opacity="0.1"/>
        <path id="Path_3143" data-name="Path 3143" d="M42.176,69.225l.32.184,3.239.083a6.489,6.489,0,0,0,1.147.551,1.077,1.077,0,0,0,.162.035,7.163,7.163,0,0,0,.9.017c.248,0,.439-.017.439-.017s-.153-4.085-.268-4.515c-.055-.206-.327-.162-.6-.059a4.059,4.059,0,0,0-.581.294,10.461,10.461,0,0,0-1.593.252c-.219.118-.84-.068-1.226,0s-1.075-.454-1.075-.454c-1.88-.621-.821.537-.687.588a1.53,1.53,0,0,0-1.931,1.573A1.3,1.3,0,0,0,42.176,69.225Z" transform="translate(7.252 4.377)" fill="#3f3d56"/>
        <path id="Path_3144" data-name="Path 3144" d="M45.124,67.646A5.454,5.454,0,0,0,46.212,70.1c.248,0,.439-.017.439-.017s-.153-4.085-.268-4.515c-.055-.206-.327-.162-.6-.059A4.711,4.711,0,0,0,45.124,67.646Z" transform="translate(8.988 4.379)" fill="#565387"/>
        <path id="Path_3145" data-name="Path 3145" d="M45.124,67.646A5.454,5.454,0,0,0,46.212,70.1c.248,0,.439-.017.439-.017s-.153-4.085-.268-4.515c-.055-.206-.327-.162-.6-.059A4.711,4.711,0,0,0,45.124,67.646Z" transform="translate(8.988 4.379)" opacity="0.1"/>
        <path id="Path_3146" data-name="Path 3146" d="M44.733,67.758a9.631,9.631,0,0,0,.577,2.286,1.074,1.074,0,0,0,.162.035,7.161,7.161,0,0,0,.9.017c.248,0,.439-.017.439-.017s-.153-4.085-.268-4.515c-.055-.206-.327-.162-.6-.059a4.057,4.057,0,0,0-.581.294A2.258,2.258,0,0,0,44.733,67.758Z" transform="translate(8.824 4.379)" opacity="0.05"/>
        <path id="Path_3147" data-name="Path 3147" d="M36.56,61.081a6.694,6.694,0,0,1,2.973,2.378Z" transform="translate(5.822 2.775)" opacity="0.1"/>
        <g id="Group_119" data-name="Group 119" transform="translate(46.318 42.561)" opacity="0.1">
          <path id="Path_3148" data-name="Path 3148" d="M46.123,46.376a.055.055,0,0,1-.009.037,1.011,1.011,0,0,1-.057.14A1.285,1.285,0,0,1,46.123,46.376Z" transform="translate(-36.985 -45.224)"/>
          <path id="Path_3149" data-name="Path 3149" d="M39.469,45.873a1.435,1.435,0,0,1,.125-.338.415.415,0,0,1-.026.086,2.44,2.44,0,0,0,.075,1.114.779.779,0,0,0,.27.5c.25.16.638.02.842.235.129.138.136.382.305.467a.338.338,0,0,0,.2.022c.447-.062.7-.566,1.134-.706a1.128,1.128,0,0,1,.75.066.551.551,0,0,1,.25.16c.143.184.042.458.108.682.092.312.465.435.786.476a1.369,1.369,0,0,1,.9.309.81.81,0,0,1,.16.649.509.509,0,0,0,0,.241c.088.252.524.213.638.015.085-.145.059-.265.255-.305a.854.854,0,0,1,.41.072,3.059,3.059,0,0,0,1.084.164,1.453,1.453,0,0,0,.851-.259.952.952,0,0,0,.261-.318,1.058,1.058,0,0,1-.367.57,1.453,1.453,0,0,1-.851.259,3.06,3.06,0,0,1-1.084-.164.854.854,0,0,0-.41-.072c-.2.04-.171.16-.254.305-.116.2-.551.237-.639-.015a.533.533,0,0,1,0-.241.81.81,0,0,0-.16-.649,1.376,1.376,0,0,0-.9-.309c-.323-.042-.695-.164-.786-.476-.066-.224.035-.5-.108-.682a.551.551,0,0,0-.248-.16,1.145,1.145,0,0,0-.752-.066c-.428.14-.687.643-1.134.706a.338.338,0,0,1-.2-.022c-.169-.085-.184-.329-.305-.467-.2-.215-.59-.075-.84-.235a.774.774,0,0,1-.272-.5A2.414,2.414,0,0,1,39.469,45.873Z" transform="translate(-39.434 -45.535)"/>
        </g>
        <path id="Path_3150" data-name="Path 3150" d="M46.658,55.807c-.309.415-.66.8-.932,1.237a2.354,2.354,0,0,0-.408,1.47,3.822,3.822,0,0,0,.588-1.051,14.7,14.7,0,0,1,1.13-1.7c.072-.108.535-.735.3-.761C47.144,54.978,46.763,55.666,46.658,55.807Z" transform="translate(9.059 0.528)" opacity="0.1"/>
        <path id="Path_3151" data-name="Path 3151" d="M48.072,86.756c.222.713.447,1.428.724,2.12a18.034,18.034,0,0,0,1.876,3.42,24.818,24.818,0,0,0,1.551,2.032A6.721,6.721,0,0,1,53.929,97a13.64,13.64,0,0,1,.153,1.837,2.248,2.248,0,0,0,.757,1.632,2.758,2.758,0,0,0,1.244.41c.312.05.7.066.864-.2a.785.785,0,0,0,.086-.356l.075-.9c.015-.195.085-.443.279-.452s.292.25.458.368a.5.5,0,0,0,.673-.233,1.134,1.134,0,0,0,.018-.79,3.743,3.743,0,0,0-1.924-2.389,5.512,5.512,0,0,1-.937-.487,3.2,3.2,0,0,1-.735-.93,57.8,57.8,0,0,1-4.623-8.686,6.432,6.432,0,0,1-.476-1.713,11.244,11.244,0,0,1,.073-1.808,10.29,10.29,0,0,0-.3-3.221,2.572,2.572,0,0,0-.307-.783,1.746,1.746,0,0,0-2.389-.345,2.462,2.462,0,0,0-.952,1.74,5.019,5.019,0,0,0,.476,1.81Q47.255,84.132,48.072,86.756Z" transform="translate(9.299 8.895)" fill="#a1616a"/>
        <path id="Path_3152" data-name="Path 3152" d="M48.072,86.756c.222.713.447,1.428.724,2.12a18.034,18.034,0,0,0,1.876,3.42,24.818,24.818,0,0,0,1.551,2.032A6.721,6.721,0,0,1,53.929,97a13.64,13.64,0,0,1,.153,1.837,2.248,2.248,0,0,0,.757,1.632,2.758,2.758,0,0,0,1.244.41c.312.05.7.066.864-.2a.785.785,0,0,0,.086-.356l.075-.9c.015-.195.085-.443.279-.452s.292.25.458.368a.5.5,0,0,0,.673-.233,1.134,1.134,0,0,0,.018-.79,3.743,3.743,0,0,0-1.924-2.389,5.512,5.512,0,0,1-.937-.487,3.2,3.2,0,0,1-.735-.93,57.8,57.8,0,0,1-4.623-8.686,6.432,6.432,0,0,1-.476-1.713,11.244,11.244,0,0,1,.073-1.808,10.29,10.29,0,0,0-.3-3.221,2.572,2.572,0,0,0-.307-.783,1.746,1.746,0,0,0-2.389-.345,2.462,2.462,0,0,0-.952,1.74,5.019,5.019,0,0,0,.476,1.81Q47.255,84.132,48.072,86.756Z" transform="translate(9.299 8.895)" opacity="0.05"/>
        <path id="Path_3153" data-name="Path 3153" d="M39.78,107.631a2.449,2.449,0,0,0,1.036.125c.026-.287.412-.351.7-.336a.8.8,0,0,1,.4.092c.072.046.127.112.2.16a.851.851,0,0,0,.406.1l1.492.125a4.491,4.491,0,0,0,1.981-.129.683.683,0,0,0,.318-.213c.169-.243,0-.59-.233-.766s-.535-.255-.77-.435c-.518-.4-.59-1.134-.864-1.725a5.092,5.092,0,0,0-.715-1.035,3.972,3.972,0,0,0-.7-.722,3.717,3.717,0,0,0-1.99-.485,1.333,1.333,0,0,0-1.319.368c-.441.551-.265,1.654-.237,2.3a16.623,16.623,0,0,0,.305,2.576Z" transform="translate(6.878 18.041)" fill="#514e7f"/>
        <path id="Path_3154" data-name="Path 3154" d="M39.78,107.631a2.449,2.449,0,0,0,1.036.125c.026-.287.412-.351.7-.336a.8.8,0,0,1,.4.092c.072.046.127.112.2.16a.851.851,0,0,0,.406.1l1.492.125a4.491,4.491,0,0,0,1.981-.129.683.683,0,0,0,.318-.213c.169-.243,0-.59-.233-.766s-.535-.255-.77-.435c-.518-.4-.59-1.134-.864-1.725a5.092,5.092,0,0,0-.715-1.035,3.972,3.972,0,0,0-.7-.722,3.717,3.717,0,0,0-1.99-.485,1.333,1.333,0,0,0-1.319.368c-.441.551-.265,1.654-.237,2.3a16.623,16.623,0,0,0,.305,2.576Z" transform="translate(6.878 18.041)" opacity="0.05"/>
        <path id="Path_3155" data-name="Path 3155" d="M41.065,85.346a1.037,1.037,0,0,0-.57,1.187,4.367,4.367,0,0,0,.6,1.3c.665,1.189.952,2.549,1.51,3.789.417.919.981,1.782,1.393,2.712a4.634,4.634,0,0,1,.417,2.966c-.121.48-.356.919-.513,1.391a7.718,7.718,0,0,0-.3,1.571,29.839,29.839,0,0,0-.108,5.45,1.628,1.628,0,0,0,.136.643c.094.184.255.367.184.551-.031.075-.1.13-.132.2-.1.206.1.424.27.571a.476.476,0,0,1-.292.226.691.691,0,0,1,.294.77c-.154.024-.164.261-.066.386s.252.2.322.344a.48.48,0,0,1-.265.6,1.259,1.259,0,0,1-.72.055,7.9,7.9,0,0,1-1.2-.265.871.871,0,0,1-.7-.9,13.378,13.378,0,0,1-.083-2.255c.064-3.646,0-7.295-.158-10.939A12.467,12.467,0,0,0,40,91.46a22.285,22.285,0,0,0-1.046-2.021,8.481,8.481,0,0,1-1.356-4.86c.02-.184.086-.4.268-.432a.389.389,0,0,1,.208.035,9.334,9.334,0,0,1,1.093.6A4.127,4.127,0,0,0,41.065,85.346Z" transform="translate(6.196 11.303)" fill="#464353"/>
        <path id="Path_3156" data-name="Path 3156" d="M41.065,85.346a1.037,1.037,0,0,0-.57,1.187,4.367,4.367,0,0,0,.6,1.3c.665,1.189.952,2.549,1.51,3.789.417.919.981,1.782,1.393,2.712a4.634,4.634,0,0,1,.417,2.966c-.121.48-.356.919-.513,1.391a7.718,7.718,0,0,0-.3,1.571,29.839,29.839,0,0,0-.108,5.45,1.628,1.628,0,0,0,.136.643c.094.184.255.367.184.551-.031.075-.1.13-.132.2-.1.206.1.424.27.571a.476.476,0,0,1-.292.226.691.691,0,0,1,.294.77c-.154.024-.164.261-.066.386s.252.2.322.344a.48.48,0,0,1-.265.6,1.259,1.259,0,0,1-.72.055,7.9,7.9,0,0,1-1.2-.265.871.871,0,0,1-.7-.9,13.378,13.378,0,0,1-.083-2.255c.064-3.646,0-7.295-.158-10.939A12.467,12.467,0,0,0,40,91.46a22.285,22.285,0,0,0-1.046-2.021,8.481,8.481,0,0,1-1.356-4.86c.02-.184.086-.4.268-.432a.389.389,0,0,1,.208.035,9.334,9.334,0,0,1,1.093.6A4.127,4.127,0,0,0,41.065,85.346Z" transform="translate(6.196 11.303)" opacity="0.05"/>
        <path id="Path_3157" data-name="Path 3157" d="M36.639,81.854a1.191,1.191,0,0,0-1.656.187,8.821,8.821,0,0,0-.86.753A4.583,4.583,0,0,0,33.1,87.329a8.933,8.933,0,0,0,1.253,2.225l.992,1.426c1.514,2.174,3.028,4.347,4.614,6.47a.246.246,0,0,0,.173.233c.057.015.129.013.164.061a.173.173,0,0,1,.02.1,1.406,1.406,0,0,1-.088.459.219.219,0,0,0-.018.158c.051.119.268.051.338.164.046.073-.011.169-.072.232s-.136.132-.125.219.162.184.156.29c0,.062-.055.11-.094.16a.41.41,0,0,0,.05.522c.1,1.036-.459,2.021-.571,3.054-.184,1.632.56,3.225.65,4.862a1.259,1.259,0,0,0,.1.537c.153.283.551.454.531.775a3.107,3.107,0,0,1-.112.39,2.96,2.96,0,0,0,.061.551c0,.184-.16.41-.333.336q.195.65.347,1.312l3.473.287a3.082,3.082,0,0,0-.031-.937c-.072-.336-.222-.649-.3-.981a1.161,1.161,0,0,1,.136-.983.384.384,0,0,1-.382-.314,1.527,1.527,0,0,1,.009-.54c.092-.906-.288-1.8-.277-2.708a13.224,13.224,0,0,1,.39-2.109c.272-1.507-.011-3.14.66-4.517.406-.829.968-1.747.513-2.55-.224-.4-.621-.669-.88-1.044a4.246,4.246,0,0,1-.47-1.137,38.414,38.414,0,0,0-2.159-4.763,4.961,4.961,0,0,1-.465-1.251,6.56,6.56,0,0,1-.059-1.156,17.037,17.037,0,0,0-.127-2.074,1.974,1.974,0,0,0-.252-.858,1.92,1.92,0,0,0-.551-.494A36.4,36.4,0,0,0,36.639,81.854Z" transform="translate(4.462 10.364)" fill="#464353"/>
        <path id="Path_3158" data-name="Path 3158" d="M38.76,108.561a2.49,2.49,0,0,0,1.038.123c.026-.287.41-.351.7-.336a.8.8,0,0,1,.4.092c.072.046.127.114.2.16a.831.831,0,0,0,.406.1l1.49.125a4.472,4.472,0,0,0,1.983-.129.665.665,0,0,0,.316-.213c.169-.243,0-.588-.233-.764s-.535-.257-.768-.437c-.52-.4-.59-1.132-.865-1.724a4.974,4.974,0,0,0-.713-1.036,3.968,3.968,0,0,0-.706-.72,3.7,3.7,0,0,0-1.988-.487,1.335,1.335,0,0,0-1.319.367c-.441.551-.265,1.654-.239,2.3A16.65,16.65,0,0,0,38.76,108.561Z" transform="translate(6.502 18.385)" fill="#514e7f"/>
        <circle id="Ellipse_85" data-name="Ellipse 85" cx="3.44" cy="3.44" r="3.44" transform="translate(57.215 79.324)" fill="#a1616a"/>
        <path id="Path_3159" data-name="Path 3159" d="M49.328,75.806a3.245,3.245,0,0,1-1.847.522,11.6,11.6,0,0,0-3.974,1.15,1.433,1.433,0,0,0-.459.316,1.3,1.3,0,0,0-.233.492,3.217,3.217,0,0,0-.13,1.2,3.409,3.409,0,0,0,.333,1.125,6.064,6.064,0,0,0,2.131,2.431,1.562,1.562,0,0,0,.54.259,3.03,3.03,0,0,0,1.336-.285,2.183,2.183,0,0,1,1.233.039c.368.125.77.353,1.134.2a1.163,1.163,0,0,0,.513-.584,19.88,19.88,0,0,0,.939-2.047,7.877,7.877,0,0,1,.34-.8c.4-.759,1.088-1.345,1.431-2.133a.469.469,0,0,0,.033-.4.551.551,0,0,0-.254-.193,6.028,6.028,0,0,1-1.374-1.079c-.226-.217-.641-.8-.967-.854C49.686,75.1,49.576,75.593,49.328,75.806Z" transform="translate(8.082 7.979)" fill="#a1616a"/>
        <path id="Path_3160" data-name="Path 3160" d="M52.107,82.158a2.109,2.109,0,0,1-1.3.015,14.849,14.849,0,0,1-3.271-.95,1.771,1.771,0,0,1-.8-.617,2.021,2.021,0,0,1-.224-.77l-.184-1.286a7.5,7.5,0,0,1,.059-1.312.38.38,0,0,0-.075-.285.311.311,0,0,0-.226-.072c-.516.009-.829.551-1.191.919a2.205,2.205,0,0,1-.735.492c-.331.136-.735.232-.873.562-.055.138-.048.294-.107.432-.232.551-1.218.367-1.47.919-.072.154-.066.347-.184.469s-.338.119-.52.149c-.718.118-1.066.946-1.679,1.338a13.578,13.578,0,0,1-1.738.581,6.606,6.606,0,0,1-.91.461,4.3,4.3,0,0,1-1.047.053.274.274,0,0,0-.208.068.277.277,0,0,0-.035.228,6.332,6.332,0,0,0,3.912,4.9,1.308,1.308,0,0,1,.334.162c.312.233.367.735.722.9a.735.735,0,0,0,.752-.162,6.742,6.742,0,0,0,.551-.6,2.159,2.159,0,0,1,1.211-.638,2.662,2.662,0,0,0,1.248-.281,3.867,3.867,0,0,0,.393-.419,2.47,2.47,0,0,1,.891-.533,9.11,9.11,0,0,1,2.835-.623A9.89,9.89,0,0,0,50.929,86a1.624,1.624,0,0,0,.6-.34,1.806,1.806,0,0,0,.4-.7,5.329,5.329,0,0,0,.176-2.806Z" transform="translate(5.384 8.617)" fill="#68e1fd"/>
        <path id="Path_3161" data-name="Path 3161" d="M44.87,77.052c.254-.024.509,0,.764,0,.3,0,.6-.074.895-.075a2.225,2.225,0,0,1,2.1,1.6.413.413,0,0,1,.013.226.16.16,0,0,1-.173.118,3.808,3.808,0,0,0-.388-.774,2.174,2.174,0,0,0-1.154-.8,2.988,2.988,0,0,0-1.419-.051c-.2.037-.388.088-.579.141l-.919.254c-.169.046-.34.092-.5.153-.127.048-.344.222-.469.23-.169,0-.033-.147.042-.246a1.222,1.222,0,0,1,.6-.437A5.2,5.2,0,0,1,44.87,77.052Z" transform="translate(8.187 8.653)" fill="#68e1fd"/>
        <path id="Path_3162" data-name="Path 3162" d="M46.617,87.038c.222.713.445,1.428.724,2.12a17.934,17.934,0,0,0,1.876,3.42,24.81,24.81,0,0,0,1.551,2.032,6.872,6.872,0,0,1,1.705,2.672,13.69,13.69,0,0,1,.153,1.837,2.257,2.257,0,0,0,.755,1.632,2.819,2.819,0,0,0,1.246.41c.311.05.7.066.864-.2a.816.816,0,0,0,.086-.356l.073-.9c.017-.195.086-.443.279-.452s.294.25.459.368a.5.5,0,0,0,.673-.233,1.143,1.143,0,0,0,.018-.79,3.754,3.754,0,0,0-1.924-2.389,5.607,5.607,0,0,1-.939-.487,3.181,3.181,0,0,1-.735-.932A57.29,57.29,0,0,1,48.859,86.1a6.48,6.48,0,0,1-.478-1.711,11.246,11.246,0,0,1,.075-1.808,10.29,10.29,0,0,0-.3-3.221,2.534,2.534,0,0,0-.309-.783,1.744,1.744,0,0,0-2.389-.345,2.464,2.464,0,0,0-.954,1.74,5.056,5.056,0,0,0,.476,1.81Q45.8,84.414,46.617,87.038Z" transform="translate(8.759 8.999)" fill="#a1616a"/>
        <path id="Path_3163" data-name="Path 3163" d="M56.835,73.9c.028-.287-.23-.551-.522-.735a6.912,6.912,0,0,1-.884-.54c-.261-.226-.4-.52-.665-.746a2.956,2.956,0,0,0-.992-.494,7.556,7.556,0,0,0-2.374-.424,4.12,4.12,0,0,0-2.269.6,1.344,1.344,0,0,0-.386.367,1.577,1.577,0,0,0-.184.57,11.242,11.242,0,0,1-.594,1.8,4.2,4.2,0,0,1-1.128,1.823c-.643.535-1.626.843-2.051,1.49a.478.478,0,0,0-.094.417c.061.164.255.276.435.379a5.9,5.9,0,0,1,2.407,2.3,2.674,2.674,0,0,1-.209,2.876c-.243.316-.577.691-.34,1.009.368.483,1.6.206,1.883.717a1.042,1.042,0,0,1,.037.527c0,.537.516,1.012,1.143,1.261a6.435,6.435,0,0,0,2.058.338,1.8,1.8,0,0,0,.051-1.332.537.537,0,0,1-.053-.3.735.735,0,0,1,.237-.29,2.1,2.1,0,0,0,.141-2.607,14.918,14.918,0,0,1-1.42-2.512,1.3,1.3,0,0,1,.221-1.308,4.419,4.419,0,0,1,.649-.472,2.451,2.451,0,0,0,.908-1.139c.211-.586.184-1.286.8-1.681.59-.367,1.419-.261,2.071-.513A2.216,2.216,0,0,0,56.835,73.9Z" transform="translate(8.824 6.428)" fill="#464353"/>
      </g>
      <text id="PROCESS" transform="translate(1205 1342)" fill="#231f20" font-size="11" font-family="Poppins-Regular, Poppins"><tspan x="-24.376" y="0">PROCESS</tspan></text>
      <text id="PRINT" transform="translate(1190 1328)" fill="#231f20" font-size="11" font-family="Poppins-Regular, Poppins"><tspan x="-14.723" y="0">PRINT</tspan></text>
    </g>
    <g id="Group_126" data-name="Group 126" transform="translate(630.758 768)">
      <path id="Subtraction_1" data-name="Subtraction 1" d="M-13047.155,41.891h0a20.948,20.948,0,0,1-13.393-6.773A20.954,20.954,0,0,1-13066,21a20.865,20.865,0,0,1,6.15-14.849A20.861,20.861,0,0,1-13045,0a20.885,20.885,0,0,1,14.673,5.976,20.882,20.882,0,0,1,6.32,14.489,78.93,78.93,0,0,0-23.146,21.425Z" transform="translate(13266 722)" fill="#483d7f"/>
      <text id="_5" data-name="5" transform="translate(221 749)" fill="#fff" font-size="17" font-family="Poppins-Regular, Poppins"><tspan x="-5.338" y="0">5</tspan></text>
    </g>
  </g>
</svg>
