<svg xmlns="http://www.w3.org/2000/svg" xmlns:xlink="http://www.w3.org/1999/xlink" width="176" height="179" viewBox="0 0 176 179">
  <defs>
    <filter id="Ellipse_103" x="0" y="3" width="176" height="176" filterUnits="userSpaceOnUse">
      <feOffset dy="3" input="SourceAlpha"/>
      <feGaussianBlur stdDeviation="3" result="blur"/>
      <feFlood flood-opacity="0.161"/>
      <feComposite operator="in" in2="blur"/>
      <feComposite in="SourceGraphic"/>
    </filter>
    <filter id="Ellipse_76" x="0" y="3" width="176" height="176" filterUnits="userSpaceOnUse">
      <feOffset dy="3" input="SourceAlpha"/>
      <feGaussianBlur stdDeviation="3" result="blur-2"/>
      <feFlood flood-opacity="0.161"/>
      <feComposite operator="in" in2="blur-2"/>
      <feComposite in="SourceGraphic"/>
    </filter>
    <clipPath id="clip-path">
      <g transform="matrix(1, 0, 0, 1, 0, 0)" filter="url(#Ellipse_103)">
        <circle id="Ellipse_103-2" data-name="Ellipse 103" cx="79" cy="79" r="79" transform="translate(883 1597)" fill="#ba70a3"/>
      </g>
    </clipPath>
  </defs>
  <g id="Group_182" data-name="Group 182" transform="translate(-827.75 -1472.5)">
    <g transform="matrix(1, 0, 0, 1, 827.75, 1472.5)" filter="url(#Ellipse_76)">
      <circle id="Ellipse_76-2" data-name="Ellipse 76" cx="79" cy="79" r="79" transform="translate(9 9)" fill="#ba70a3"/>
    </g>
    <g id="Group_126" data-name="Group 126" transform="translate(630.758 750.5)">
      <path id="Subtraction_1" data-name="Subtraction 1" d="M-13047.155,41.891h0a20.948,20.948,0,0,1-13.393-6.773A20.954,20.954,0,0,1-13066,21a20.865,20.865,0,0,1,6.15-14.849A20.861,20.861,0,0,1-13045,0a20.885,20.885,0,0,1,14.673,5.976,20.882,20.882,0,0,1,6.32,14.489,78.93,78.93,0,0,0-23.146,21.425Z" transform="translate(13266 722)" fill="#483d7f"/>
      <text id="_5" data-name="5" transform="translate(221 749)" fill="#fff" font-size="17" font-family="Poppins-Regular, Poppins"><tspan x="-5.338" y="0">5</tspan></text>
    </g>
    <g id="Mask_Group_17" data-name="Mask Group 17" transform="translate(-46.25 -115.5)" clip-path="url(#clip-path)">
      <g id="_117_online_team_meeting_flatline" data-name="#117_online_team_meeting_flatline" transform="translate(829.244 1576.599)">
        <path id="Path_3897" data-name="Path 3897" d="M54.039,166.273H211.446v3.544a3.319,3.319,0,0,1-3.319,3.319H57.365a3.319,3.319,0,0,1-3.319-3.319v-3.544Z"/>
        <path id="Path_3898" data-name="Path 3898" d="M208.751,169.247H56.761a2.655,2.655,0,0,1-2.549-3.551l13.659-40.314a8.827,8.827,0,0,1,8.369-5.973h113.03a8.827,8.827,0,0,1,8.369,5.973L211.3,165.7a2.655,2.655,0,0,1-2.549,3.551Z" fill="#fff"/>
        <path id="Path_3899" data-name="Path 3899" d="M208.751,169.532H56.761a2.987,2.987,0,0,1-2.834-3.982l13.653-40.314a9.146,9.146,0,0,1,8.628-6.206H189.271a9.146,9.146,0,0,1,8.662,6.207l13.652,40.313a2.987,2.987,0,0,1-2.834,3.982ZM76.214,119.661a8.529,8.529,0,0,0-8.084,5.781L54.471,165.769a2.389,2.389,0,0,0,2.263,3.153h151.99a2.389,2.389,0,0,0,2.263-3.153l-13.633-40.327a8.529,8.529,0,0,0-8.084-5.8Z" fill="#231f20"/>
        <path id="Path_3900" data-name="Path 3900" d="M195.47,145.552H70.028a.319.319,0,0,1-.265-.133.352.352,0,0,1-.053-.292l6.02-20.27a.332.332,0,0,1,.319-.239h113.4a.332.332,0,0,1,.319.239l6.027,20.27a.352.352,0,0,1-.053.292A.319.319,0,0,1,195.47,145.552Zm-125.01-.664H195.025L189.2,125.282H76.287Z" fill="#d1d3d4"/>
        <path id="Path_3901" data-name="Path 3901" d="M156.178,163.764H109.307a.352.352,0,0,1-.259-.119.325.325,0,0,1-.06-.279l3.1-14.1a.325.325,0,0,1,.319-.259h40.672a.325.325,0,0,1,.319.259l3.1,14.1a.325.325,0,0,1-.06.279A.352.352,0,0,1,156.178,163.764Zm-46.46-.664h46.035L152.8,149.674H112.678Z" fill="#d1d3d4"/>
        <rect id="Rectangle_235" data-name="Rectangle 235" width="125.84" height="93.391" rx="4.673" transform="translate(69.769 25.971)" fill="#fff"/>
        <path id="Path_3902" data-name="Path 3902" d="M190.937,119.661H74.435a4.978,4.978,0,0,1-4.971-4.971V30.644a4.978,4.978,0,0,1,4.971-4.978h116.5a4.984,4.984,0,0,1,4.978,4.978V114.69a4.984,4.984,0,0,1-4.978,4.971ZM74.435,26.276a4.374,4.374,0,0,0-4.367,4.367V114.69a4.374,4.374,0,0,0,4.367,4.367h116.5a4.374,4.374,0,0,0,4.367-4.367V30.644a4.374,4.374,0,0,0-4.367-4.367Z" fill="#231f20"/>
        <rect id="Rectangle_236" data-name="Rectangle 236" width="116.548" height="83.157" transform="translate(74.276 31.022)"/>
        <rect id="Rectangle_237" data-name="Rectangle 237" width="54" height="31.858" transform="translate(76.606 37.48)" fill="#fff"/>
        <rect id="Rectangle_238" data-name="Rectangle 238" width="54" height="31.858" transform="translate(134.468 37.48)" fill="#fff"/>
        <rect id="Rectangle_239" data-name="Rectangle 239" width="54" height="31.858" transform="translate(105.537 71.92)" fill="#fff"/>
        <path id="Path_3903" data-name="Path 3903" d="M190.751,107.183H74.336a.332.332,0,0,1,0-.664H190.751a.332.332,0,0,1,0,.664Z" fill="#d1d3d4"/>
        <circle id="Ellipse_128" data-name="Ellipse 128" cx="1.546" cy="1.546" r="1.546" transform="translate(78.285 108.882)" fill="#d1d3d4"/>
        <circle id="Ellipse_129" data-name="Ellipse 129" cx="1.546" cy="1.546" r="1.546" transform="translate(84.099 108.882)" fill="#d1d3d4"/>
        <circle id="Ellipse_130" data-name="Ellipse 130" cx="1.546" cy="1.546" r="1.546" transform="translate(89.92 108.882)" fill="#d1d3d4"/>
        <circle id="Ellipse_131" data-name="Ellipse 131" cx="1.546" cy="1.546" r="1.546" transform="translate(95.741 108.882)" fill="#d1d3d4"/>
        <path id="Path_3904" data-name="Path 3904" d="M135.8,108.922a.6.6,0,0,0-.571-.053l-.942.392a.591.591,0,0,0-.332.358v-.73a.564.564,0,0,0-.564-.564H129.61a.564.564,0,0,0-.564.564v2.827a.571.571,0,0,0,.564.571h3.8a.571.571,0,0,0,.564-.571v-.723a.591.591,0,0,0,.332.358l.942.392a.558.558,0,0,0,.232.046.611.611,0,0,0,.339-.1.564.564,0,0,0,.259-.478V109.4a.564.564,0,0,0-.272-.478Zm-2.509,2.7h-3.584v-2.655h3.584Zm2.1-.531-.8-.332v-.909l.8-.339Z" fill="#a3a3a3"/>
        <path id="Path_3905" data-name="Path 3905" d="M168.968,52.274c-.159-1.049.6-2.137.81-3.239.285-1.553-.551-2.954-1.221-4.281s-.737-2.761-1.586-3.856c-1.613-2.064-4.951-3.431-7.487-2.462a6.843,6.843,0,0,0-4.5,7.075,6.444,6.444,0,0,1,.153,2.164c-.319,1.513-2.2,2.615-1.845,4.122a10.114,10.114,0,0,0,.664,1.427c.664,1.546-.591,3.179-.909,4.819a8.665,8.665,0,0,0,.617,4.314,5.226,5.226,0,0,0,2.024,3.133,4.852,4.852,0,0,0,2.3.451c3.511.053,7.215-.631,9.856-2.94s3.8-6.584,1.8-9.438a4.647,4.647,0,0,1-.564-.889A1.791,1.791,0,0,1,168.968,52.274Z" fill="#fff"/>
        <path id="Path_3906" data-name="Path 3906" d="M158.408,66.245h-.385a5.111,5.111,0,0,1-2.449-.485,5.452,5.452,0,0,1-2.164-3.319,8.935,8.935,0,0,1-.631-4.467,10.618,10.618,0,0,1,.531-1.673,4.134,4.134,0,0,0,.4-2.967,3.633,3.633,0,0,0-.292-.544,3.6,3.6,0,0,1-.425-.929,3.223,3.223,0,0,1,.942-2.608,4.646,4.646,0,0,0,.9-1.653,3.9,3.9,0,0,0-.073-1.507,3.805,3.805,0,0,0-.086-.551,7.175,7.175,0,0,1,4.7-7.4c2.774-1.062,6.226.5,7.832,2.562a7.141,7.141,0,0,1,1.042,2.33,10.62,10.62,0,0,0,.577,1.573l.212.412a6.363,6.363,0,0,1,1.035,4.062,8.085,8.085,0,0,1-.411,1.327,3.71,3.71,0,0,0-.392,1.832,1.327,1.327,0,0,0,.086.332,2.814,2.814,0,0,0,.392.664l.139.2c2.217,3.166.783,7.573-1.812,9.843C165.815,65.2,162.477,66.245,158.408,66.245Zm2.874-27.823a4.759,4.759,0,0,0-1.679.292,6.551,6.551,0,0,0-4.294,6.757,3.667,3.667,0,0,0,.08.531,4.467,4.467,0,0,1,.073,1.732,5.157,5.157,0,0,1-1.015,1.885c-.538.737-1.009,1.381-.836,2.111a2.708,2.708,0,0,0,.358.757,4.646,4.646,0,0,1,.325.624c.471,1.142,0,2.3-.385,3.411a9.476,9.476,0,0,0-.5,1.58,8.434,8.434,0,0,0,.6,4.161,5.018,5.018,0,0,0,1.885,2.96,4.7,4.7,0,0,0,2.164.412c4.1.066,7.434-.923,9.65-2.861,2.409-2.1,3.67-6.239,1.712-9.04l-.133-.186a3.5,3.5,0,0,1-.465-.763,2.183,2.183,0,0,1-.126-.465h0a4.334,4.334,0,0,1,.425-2.137,7.076,7.076,0,0,0,.385-1.208,5.85,5.85,0,0,0-.982-3.67l-.206-.418a10.115,10.115,0,0,1-.617-1.666,6.517,6.517,0,0,0-.949-2.137A7.387,7.387,0,0,0,161.282,38.422Z" fill="#231f20"/>
        <path id="Path_3907" data-name="Path 3907" d="M155.893,69.4c1.327-1.885,2.35-3.5,2.35-3.5l-3.75-9.863-9.8,13.367h11.237Z" fill="#68e1fd"/>
        <path id="Path_3908" data-name="Path 3908" d="M172.386,69.4c.319-4.779.411-11.422-1.175-13.838-.982-2.23-3.591-2.23-9.551-1.991,0,0-6.259.577-7.739,3.126-.916,1.586-1.115,8.031-1.128,12.67Z" fill="#68e1fd"/>
        <path id="Path_3909" data-name="Path 3909" d="M165,69.411l.358-15.524L159.809,54.9l-.916,14.515Z" fill="#fff"/>
        <path id="Path_3910" data-name="Path 3910" d="M159.829,51.511v3.657a1.9,1.9,0,0,0,2.6,1.42,4.606,4.606,0,0,0,2.954-2.655l-.252-6.332a11.163,11.163,0,0,1-.365-3.392,8.091,8.091,0,0,1-4.832-2.084S159,43.52,158.6,43.964a5.157,5.157,0,0,0-.856,1.168,4.746,4.746,0,0,0-.345,2.356,15.311,15.311,0,0,0,.272,2.754A1.729,1.729,0,0,0,159.829,51.511Z" fill="#fff"/>
        <path id="Path_3911" data-name="Path 3911" d="M161.614,57.006a2.091,2.091,0,0,1-1.115-.3,2.4,2.4,0,0,1-.989-1.487V51.856a2.263,2.263,0,0,1-1.327-.305,1.9,1.9,0,0,1-.816-1.281,15.013,15.013,0,0,1-.285-2.808,5.13,5.13,0,0,1,.378-2.509,5.761,5.761,0,0,1,.9-1.148c.385-.418,1.294-1.785,1.327-1.8a.319.319,0,0,1,.219-.139.305.305,0,0,1,.246.086,7.626,7.626,0,0,0,4.646,1.991.3.3,0,0,1,.212.093.325.325,0,0,1,.086.219,10.468,10.468,0,0,0,.292,3.027,2.022,2.022,0,0,1,.073.345c0,.053.252,6.332.252,6.332a.312.312,0,0,1,0,.113,4.865,4.865,0,0,1-3.159,2.814A3.2,3.2,0,0,1,161.614,57.006Zm-1.5-1.838a1.586,1.586,0,0,0,2.21,1.128,4.361,4.361,0,0,0,2.728-2.383c-.252-6.272-.252-6.272-.252-6.279a.488.488,0,0,0-.046-.206,10.619,10.619,0,0,1-.319-2.9,8.25,8.25,0,0,1-4.48-1.918,18.925,18.925,0,0,1-1.168,1.586,5.522,5.522,0,0,0-.79,1.042,4.5,4.5,0,0,0-.305,2.21,14.509,14.509,0,0,0,.265,2.7,1.328,1.328,0,0,0,.551.889,1.825,1.825,0,0,0,1.241.173.325.325,0,0,1,.259.06.305.305,0,0,1,.113.239v3.657Z" fill="#231f20"/>
        <path id="Path_3912" data-name="Path 3912" d="M161.123,46.254s-1.175,1.759-.9,2.064,1.055.133,1.055.133" fill="#fff"/>
        <path id="Path_3913" data-name="Path 3913" d="M160.778,48.783a1.022,1.022,0,0,1-.763-.265c-.113-.119-.438-.478.869-2.423a.285.285,0,0,1,.4-.08.292.292,0,0,1,.08.4,6.233,6.233,0,0,0-.889,1.726,1.327,1.327,0,0,0,.737,0,.291.291,0,1,1,.146.564,2.144,2.144,0,0,1-.584.073Zm-.3-.6Z" fill="#231f20"/>
        <ellipse id="Ellipse_132" data-name="Ellipse 132" cx="0.378" cy="0.199" rx="0.378" ry="0.199" transform="translate(159.236 46.314) rotate(-87.75)" fill="#231f20"/>
        <ellipse id="Ellipse_133" data-name="Ellipse 133" cx="0.379" cy="0.199" rx="0.379" ry="0.199" transform="translate(162.175 45.873) rotate(-87.709)" fill="#231f20"/>
        <path id="Path_3914" data-name="Path 3914" d="M152.793,68.8h-.033a.292.292,0,0,1-.259-.325c.133-1.148.5-2.874.856-4.546s.717-3.378.843-4.5a.292.292,0,0,1,.325-.259.3.3,0,0,1,.259.325c-.133,1.148-.5,2.881-.856,4.553s-.717,3.378-.843,4.493a.292.292,0,0,1-.292.259Z" fill="#231f20"/>
        <path id="Path_3915" data-name="Path 3915" d="M163.884,45.8a3.438,3.438,0,0,1,.664-1.241,1.162,1.162,0,0,1,1.327-.312,1.434,1.434,0,0,1,.631,1.327,5.914,5.914,0,0,1-.319,1.759,2.117,2.117,0,0,1-.5.909.8.8,0,0,1-.962.139" fill="#fff"/>
        <path id="Path_3916" data-name="Path 3916" d="M165.065,48.776a.929.929,0,0,1-.531-.166.3.3,0,0,1,.339-.5.518.518,0,0,0,.591-.113,1.746,1.746,0,0,0,.418-.783,5.389,5.389,0,0,0,.305-1.659c0-.2,0-.869-.458-1.075a.889.889,0,0,0-.949.252,3.239,3.239,0,0,0-.611,1.135.306.306,0,0,1-.571-.219,3.7,3.7,0,0,1,.75-1.327,1.48,1.48,0,0,1,1.646-.372,1.666,1.666,0,0,1,.8,1.626,6.007,6.007,0,0,1-.332,1.845,2.369,2.369,0,0,1-.584,1.042A1.241,1.241,0,0,1,165.065,48.776Z" fill="#231f20"/>
        <path id="Path_3917" data-name="Path 3917" d="M177.563,69.4c-.664-3.445-1.838-8.741-2.6-10.254-1.155-2.31-4.646-4.746-4.646-4.746l-.451,15Z" fill="#68e1fd"/>
        <path id="Path_3918" data-name="Path 3918" d="M169.472,68.8a.292.292,0,0,1-.292-.272l-.7-9.046a.292.292,0,0,1,.272-.319.285.285,0,0,1,.312.272l.7,9.046a.3.3,0,0,1-.272.319Z" fill="#231f20"/>
        <path id="Path_3919" data-name="Path 3919" d="M159.225,49.433a2.715,2.715,0,0,0,3.458-.372" fill="#fff"/>
        <path id="Path_3920" data-name="Path 3920" d="M160.851,50.2a3.451,3.451,0,0,1-1.785-.524.3.3,0,0,1-.086-.4.285.285,0,0,1,.4-.086,2.409,2.409,0,0,0,3.08-.325.292.292,0,0,1,.418,0,.285.285,0,0,1,0,.412A2.655,2.655,0,0,1,160.851,50.2Z" fill="#231f20"/>
        <path id="Path_3921" data-name="Path 3921" d="M144.689,41.462h-5.137a.332.332,0,1,1,0-.664h5.137a.332.332,0,1,1,0,.664Z" fill="#d1d3d4"/>
        <path id="Path_3922" data-name="Path 3922" d="M84.378,41.462H79.241a.332.332,0,0,1,0-.664h5.137a.332.332,0,0,1,0,.664Z" fill="#d1d3d4"/>
        <path id="Path_3923" data-name="Path 3923" d="M115.161,76.46h-5.137a.332.332,0,0,1,0-.664h5.137a.332.332,0,0,1,0,.664Z" fill="#d1d3d4"/>
        <path id="Path_3924" data-name="Path 3924" d="M100.061,48.876a26.94,26.94,0,0,1-.71-3.524,5.31,5.31,0,0,1,.737-3.451,2.177,2.177,0,0,1,1.1-.889,1.2,1.2,0,0,1,1.327.378,3.086,3.086,0,0,1,1.327-1.009,7.248,7.248,0,0,1,3.85-.737,5.223,5.223,0,0,1,3.451,1.765,14.719,14.719,0,0,0,1.029,1.281,2.867,2.867,0,0,0,2.575.717,6.591,6.591,0,0,1-2.841,4.38,12.736,12.736,0,0,1-4.9,1.991,8.038,8.038,0,0,1-2.781.2,3.5,3.5,0,0,1-2.389-1.327" fill="#fff"/>
        <path id="Path_3925" data-name="Path 3925" d="M104.966,50.316a5.351,5.351,0,0,1-.8-.053,3.856,3.856,0,0,1-2.622-1.454.34.34,0,1,1,.551-.4,3.179,3.179,0,0,0,2.164,1.175,7.819,7.819,0,0,0,2.655-.2,12.1,12.1,0,0,0,4.772-1.911,6.345,6.345,0,0,0,2.588-3.67,3.153,3.153,0,0,1-2.4-.869,6.072,6.072,0,0,1-.664-.823c-.119-.166-.232-.332-.365-.485a4.838,4.838,0,0,0-3.226-1.639,6.81,6.81,0,0,0-3.67.7,2.874,2.874,0,0,0-1.175.889.352.352,0,0,1-.279.153.392.392,0,0,1-.285-.146.843.843,0,0,0-.916-.246,1.872,1.872,0,0,0-.916.757,4.991,4.991,0,0,0-.664,3.226,17.775,17.775,0,0,0,.484,2.549c.08.305.153.617.219.929a.34.34,0,0,1-.664.146c-.066-.305-.146-.611-.219-.916a18.3,18.3,0,0,1-.5-2.655,5.708,5.708,0,0,1,.8-3.677,2.476,2.476,0,0,1,1.281-1.022,1.58,1.58,0,0,1,1.367.2,3.849,3.849,0,0,1,1.195-.81,7.493,7.493,0,0,1,4.035-.77,5.569,5.569,0,0,1,3.677,1.878c.139.173.272.345.4.524a5.156,5.156,0,0,0,.6.737,2.562,2.562,0,0,0,2.27.624.345.345,0,0,1,.305.08.339.339,0,0,1,.106.3,6.909,6.909,0,0,1-2.934,4.586,12.869,12.869,0,0,1-5.031,1.991,10.368,10.368,0,0,1-2.137.3Z" fill="#231f20"/>
        <path id="Path_3926" data-name="Path 3926" d="M115.174,69.4c-1.327-6.139-4.58-13.314-5.164-13.58-1.414-.664-8.88-1.374-10.566,1.5-.531.9-.219,6.863.458,12.08Z" fill="#231f20"/>
        <path id="Path_3927" data-name="Path 3927" d="M102.557,69.4l-1.48-13.122,7.772,1.042,1.746,12.08h10.7a38.81,38.81,0,0,0-7.354-12.989c-3.319-3.6-12.272-3.319-12.272-3.319s-7.56,1.719-9.5,5.31c-.485.9-.982,7.168-1.042,11.044Z" fill="#68e1fd"/>
        <path id="Path_3928" data-name="Path 3928" d="M108.524,54.192l.352,3.133s-1.268,3.79-4.029,3.146-3.77-4.188-3.77-4.188l-.04-6.637s2.031-1.108,1.394-5.535a13.653,13.653,0,0,0,7.168.929s1.327,4.8.982,6.936a2.33,2.33,0,0,1-2.058,2.217Z" fill="#fff"/>
        <path id="Path_3929" data-name="Path 3929" d="M105.451,60.889a3.139,3.139,0,0,1-.664-.08c-2.927-.664-3.982-4.274-4.022-4.427a.518.518,0,0,1,0-.093l-.04-6.637a.358.358,0,0,1,.179-.305s1.812-1.088,1.221-5.19a.345.345,0,0,1,.086-.352.352.352,0,0,1,.352-.033,13.354,13.354,0,0,0,6.976.9.325.325,0,0,1,.372.246c.06.2,1.327,4.9,1,7.075a2.768,2.768,0,0,1-1.991,2.462l.312,2.8a.305.305,0,0,1,0,.153C108.769,58.705,107.482,60.889,105.451,60.889Zm-4.035-4.646c.126.385,1.135,3.319,3.5,3.9,2.23.518,3.425-2.369,3.6-2.854l-.338-3.053a.338.338,0,0,1,.325-.378,1.991,1.991,0,0,0,1.732-1.925c.252-1.752-.664-5.456-.9-6.511a14.217,14.217,0,0,1-6.465-.777c.338,3.445-.969,4.8-1.46,5.177Z" fill="#231f20"/>
        <path id="Path_3930" data-name="Path 3930" d="M106.606,47.708s1.327,2.409.909,2.768-1.381,0-1.381,0" fill="#fff"/>
        <path id="Path_3931" data-name="Path 3931" d="M106.964,50.973a2.894,2.894,0,0,1-.942-.179.332.332,0,1,1,.226-.624c.332.119.883.206,1.049.06a9.291,9.291,0,0,0-.982-2.363.332.332,0,1,1,.577-.319c.956,1.752,1.241,2.814.85,3.173a1.122,1.122,0,0,1-.777.252Z" fill="#231f20"/>
        <path id="Path_3932" data-name="Path 3932" d="M106.566,52.579h-.173a3.007,3.007,0,0,1-2.091-1.128.332.332,0,1,1,.5-.431,2.336,2.336,0,0,0,1.619.9,3.106,3.106,0,0,0,2.038-.763.334.334,0,1,1,.445.5A3.9,3.9,0,0,1,106.566,52.579Z" fill="#231f20"/>
        <ellipse id="Ellipse_134" data-name="Ellipse 134" cx="0.617" cy="0.272" rx="0.617" ry="0.272" transform="translate(104.598 47.896) rotate(-86.22)" fill="#231f20"/>
        <ellipse id="Ellipse_135" data-name="Ellipse 135" cx="0.617" cy="0.272" rx="0.617" ry="0.272" transform="translate(108.286 47.897) rotate(-86.22)" fill="#231f20"/>
        <path id="Path_3933" data-name="Path 3933" d="M102.809,48.511a3.81,3.81,0,0,0-.949-1.082,1.327,1.327,0,0,0-.71-.305,1.168,1.168,0,0,0-.6.179A2.25,2.25,0,0,0,99.484,48.8a1.726,1.726,0,0,0,.033.863,1.991,1.991,0,0,0,.856,1.035,5.933,5.933,0,0,0,1.261.544" fill="#fff"/>
        <path id="Path_3934" data-name="Path 3934" d="M101.628,51.57a.3.3,0,0,1-.106,0,5.834,5.834,0,0,1-1.327-.577,2.323,2.323,0,0,1-1.009-1.215,2.137,2.137,0,0,1-.04-1.029,2.562,2.562,0,0,1,1.228-1.719,1.327,1.327,0,0,1,.79-.226,1.639,1.639,0,0,1,.9.378,3.982,3.982,0,0,1,1.035,1.175.345.345,0,0,1-.119.471.352.352,0,0,1-.471-.119,3.4,3.4,0,0,0-.863-.982.936.936,0,0,0-.511-.239.783.783,0,0,0-.418.133,1.9,1.9,0,0,0-.9,1.261,1.44,1.44,0,0,0,0,.664,1.646,1.646,0,0,0,.717.843,5.529,5.529,0,0,0,1.181.511.338.338,0,0,1-.113.664Z" fill="#231f20"/>
        <path id="Path_3935" data-name="Path 3935" d="M116.813,69.026a.345.345,0,0,1-.332-.239c-.239-.8-.8-2.316-1.327-3.79s-1.122-3.02-1.367-3.836a.346.346,0,0,1,.664-.2c.239.8.81,2.323,1.327,3.8s1.122,3.013,1.367,3.823a.345.345,0,0,1-.226.431Z" fill="#231f20"/>
        <path id="Path_3936" data-name="Path 3936" d="M97.6,69.026a.338.338,0,0,1-.345-.338V60.059a.345.345,0,0,1,.664,0v8.628A.339.339,0,0,1,97.6,69.026Z" fill="#231f20"/>
        <path id="Path_3937" data-name="Path 3937" d="M88.878,63.053s-.969-3.8-.969-4.208a35.277,35.277,0,0,0,0-4.022c-.153-.664-1.122-.717-1.374.916,0,0-.558-3.617-1.069-3.717a3.336,3.336,0,0,0-2.29,1.473c-.358.717,1.832,10.487,1.832,10.487" fill="#fff"/>
        <path id="Path_3938" data-name="Path 3938" d="M85.008,64.314a.338.338,0,0,1-.332-.272c-.664-2.973-2.177-9.956-1.805-10.712a3.734,3.734,0,0,1,2.655-1.659c.179.04.624.126,1.128,2.774a1.029,1.029,0,0,1,.743-.412.823.823,0,0,1,.843.664,23.231,23.231,0,0,1,0,3.518V58.8c0,.272.564,2.575.956,4.122a.345.345,0,0,1-.664.166c-.232-.9-.976-3.869-.976-4.288v-.6a26.437,26.437,0,0,0,0-3.319.169.169,0,0,0-.146-.166c-.093-.013-.438.3-.558,1.062a.339.339,0,0,1-.339.285h0a.345.345,0,0,1-.338-.285,13.659,13.659,0,0,0-.85-3.438,3.319,3.319,0,0,0-1.865,1.327c-.153.564.843,5.715,1.858,10.261a.339.339,0,0,1-.259.411Z" fill="#231f20"/>
        <path id="Path_3939" data-name="Path 3939" d="M91.944,69.411l-2.827-7.467-4.991,1.088.5,6.378Z" fill="#68e1fd"/>
        <path id="Path_3940" data-name="Path 3940" d="M86.535,55.752s-1.261,1.142-.524,2.257" fill="#fff"/>
        <path id="Path_3941" data-name="Path 3941" d="M86.011,58.327a.352.352,0,0,1-.292-.153,2.168,2.168,0,0,1,.584-2.7.338.338,0,0,1,.485,0,.345.345,0,0,1,0,.485c-.04.04-1.035.962-.471,1.819a.352.352,0,0,1-.1.478.4.4,0,0,1-.206.073Z" fill="#231f20"/>
        <path id="Path_3942" data-name="Path 3942" d="M149.335,92.568s3.425-5.1,3.365-3.909a5.974,5.974,0,0,1-.571,2.177s3.936-1.746,4.181-.936-2.741,2.894-2.987,3.226-1.195,1.885-1.195,1.885" fill="#fff"/>
        <path id="Path_3943" data-name="Path 3943" d="M152.143,95.316a.318.318,0,0,1-.153-.046.305.305,0,0,1-.106-.418c.04-.066.962-1.573,1.215-1.912a5.973,5.973,0,0,1,.7-.6c1.958-1.606,2.3-2.157,2.25-2.343-.259-.166-2.031.345-3.777,1.122a.3.3,0,0,1-.392-.418,6.1,6.1,0,0,0,.5-1.659,35.221,35.221,0,0,0-2.774,3.7.305.305,0,0,1-.5-.338c2.98-4.434,3.431-4.281,3.65-4.208a.425.425,0,0,1,.272.478,5.9,5.9,0,0,1-.325,1.6c1.115-.458,2.947-1.108,3.611-.8a.544.544,0,0,1,.312.345c.226.737-.976,1.785-2.449,2.987-.252.212-.538.445-.591.511-.192.252-.916,1.427-1.181,1.858A.292.292,0,0,1,152.143,95.316Z" fill="#231f20"/>
        <path id="Path_3944" data-name="Path 3944" d="M149.236,91.453s-5.369,7.241-6.04,7.148-7.181-9.531-7.181-9.531v.186c-1.009-1.327-2.927-1.878-7.088-1.327,0,0-8.157.192-9.956,3.126a73.572,73.572,0,0,0-6.365,12.863h35.489a85.2,85.2,0,0,0,4.9-8.861Z" fill="#68e1fd"/>
        <path id="Path_3945" data-name="Path 3945" d="M124.114,75.663c1.885-3.8,7.208-3.9,10.195-1.268s3.159,7.6,3.153,11.237a14.768,14.768,0,0,1-15.551.259C122.249,83.96,123.5,76.918,124.114,75.663Z" fill="#fff"/>
        <path id="Path_3946" data-name="Path 3946" d="M129.47,88.274a14.721,14.721,0,0,1-7.712-2.111.305.305,0,0,1-.139-.312c.159-.909,1.54-8.92,2.23-10.307h0a5.781,5.781,0,0,1,4.181-3.106,7.732,7.732,0,0,1,6.484,1.746c2.881,2.529,3.265,7.215,3.259,11.462a.312.312,0,0,1-.139.252,14.834,14.834,0,0,1-8.164,2.376Zm-7.221-2.522a14.555,14.555,0,0,0,14.914-.272c0-4.069-.385-8.5-3.046-10.845a7.122,7.122,0,0,0-5.973-1.6,5.184,5.184,0,0,0-3.757,2.774h0c-.511,1.035-1.566,6.637-2.137,9.936Z" fill="#231f20"/>
        <path id="Path_3947" data-name="Path 3947" d="M124.957,88.274a23.747,23.747,0,0,0-.478,4.765c.219,1.719.126,4.454,3.876,4.327,2.947-.106,6.179-9.139,6.179-9.139A28.38,28.38,0,0,0,124.957,88.274Z" fill="#231f20"/>
        <path id="Path_3948" data-name="Path 3948" d="M128.1,97.625c-3.431,0-3.69-2.449-3.863-4.082l-.06-.5a25.416,25.416,0,0,1,.478-4.858.3.3,0,0,1,.226-.232,29.555,29.555,0,0,1,9.7-.053.3.3,0,0,1,.2.146.285.285,0,0,1,0,.246c-.338.942-3.392,9.226-6.451,9.332Zm-2.9-9.139a23.085,23.085,0,0,0-.445,4.487,4.72,4.72,0,0,0,.06.5c.186,1.719.4,3.664,3.518,3.564,2.157-.08,4.8-5.973,5.794-8.628a30.182,30.182,0,0,0-8.914.073Z" fill="#231f20"/>
        <path id="Path_3949" data-name="Path 3949" d="M125.594,81.444a2.177,2.177,0,0,0-.445-.816.757.757,0,0,0-.85-.206.71.71,0,0,0-.358.577,1.573,1.573,0,0,0,.113.664,2.768,2.768,0,0,0,.664,1.108,1.58,1.58,0,0,0,1.188.465" fill="#fff"/>
        <path id="Path_3950" data-name="Path 3950" d="M125.827,83.542A1.885,1.885,0,0,1,124.552,83a2.934,2.934,0,0,1-.743-1.215,1.885,1.885,0,0,1-.133-.81,1,1,0,0,1,.5-.783,1.016,1.016,0,0,1,1.162.252,2.509,2.509,0,0,1,.5.909.263.263,0,1,1-.491.186,2.1,2.1,0,0,0-.385-.723.5.5,0,0,0-.544-.153.465.465,0,0,0-.219.365,1.387,1.387,0,0,0,.106.584,2.469,2.469,0,0,0,.6,1,1.367,1.367,0,0,0,.989.4.259.259,0,0,1,.285.246.272.272,0,0,1-.246.279Z" fill="#231f20"/>
        <path id="Path_3951" data-name="Path 3951" d="M127.247,85.619l-.372,3.71a1.938,1.938,0,0,0,2.5,1.692,4.646,4.646,0,0,0,3.246-2.383l.352-6.451a6.507,6.507,0,0,1-.723-3.763,5.768,5.768,0,0,1-4.035-2.3s-1.075,1.327-1.527,1.739a5.436,5.436,0,0,0-.956,1.035,6.686,6.686,0,0,0-.518,4.088C125.362,84.019,125.959,85.619,127.247,85.619Z" fill="#fff"/>
        <path id="Path_3952" data-name="Path 3952" d="M128.793,91.38a2.177,2.177,0,0,1-1.361-.451,2.476,2.476,0,0,1-.863-1.6l.345-3.458c-1.281-.226-1.858-1.865-1.991-2.867-.119-.85-.305-2.973.564-4.294a5.894,5.894,0,0,1,1-1.1c.431-.392,1.487-1.692,1.5-1.706a.345.345,0,0,1,.252-.113.325.325,0,0,1,.239.139,5.462,5.462,0,0,0,3.81,2.157.352.352,0,0,1,.206.113.312.312,0,0,1,.066.226,5.449,5.449,0,0,0,.551,3.239.982.982,0,0,1,.166.5c0,.066-.345,6.458-.345,6.458a.312.312,0,0,1,0,.113,4.991,4.991,0,0,1-3.471,2.549,3.677,3.677,0,0,1-.67.086Zm-1.619-2.024a1.925,1.925,0,0,0,.631,1.122,1.892,1.892,0,0,0,1.513.246,4.407,4.407,0,0,0,3.007-2.164c.345-6.4.345-6.4.345-6.411s-.06-.093-.106-.192a5.973,5.973,0,0,1-.664-3.272,6.06,6.06,0,0,1-3.717-2.071,17.6,17.6,0,0,1-1.327,1.48,5.124,5.124,0,0,0-.909.982,6.327,6.327,0,0,0-.465,3.869c.119.883.617,2.369,1.692,2.369h.033a.3.3,0,0,1,.219.1.279.279,0,0,1,.08.232l-.372,3.71Z" fill="#231f20"/>
        <path id="Path_3953" data-name="Path 3953" d="M129.258,79.34s-1.361,1.673-1.1,1.991,1.069.206,1.069.206" fill="#fff"/>
        <path id="Path_3954" data-name="Path 3954" d="M128.873,81.876a1.2,1.2,0,0,1-.956-.352c-.093-.126-.392-.518,1.115-2.369a.292.292,0,0,1,.411-.046.305.305,0,0,1,.046.418,6.432,6.432,0,0,0-1.075,1.673,1.42,1.42,0,0,0,.763.066.285.285,0,0,1,.332.239.292.292,0,0,1-.239.339,2.19,2.19,0,0,1-.4.033Zm-.458-.664Z" fill="#231f20"/>
        <ellipse id="Ellipse_136" data-name="Ellipse 136" cx="0.385" cy="0.206" rx="0.385" ry="0.206" transform="translate(127.451 80.061) rotate(-82.38)" fill="#231f20"/>
        <ellipse id="Ellipse_137" data-name="Ellipse 137" cx="0.385" cy="0.206" rx="0.385" ry="0.206" transform="translate(130.692 80.355) rotate(-89.33)" fill="#231f20"/>
        <path id="Path_3955" data-name="Path 3955" d="M132.185,80.767a2.462,2.462,0,0,1,.418-.883,1.175,1.175,0,0,1,.962-.491.77.77,0,0,1,.584.312,1.076,1.076,0,0,1,.153.445,2.316,2.316,0,0,1-.929,2.33.836.836,0,0,1-.876,0" fill="#fff"/>
        <path id="Path_3956" data-name="Path 3956" d="M132.889,82.878a.883.883,0,0,1-.551-.179.265.265,0,1,1,.319-.418.591.591,0,0,0,.591,0,2.084,2.084,0,0,0,.8-2.058.763.763,0,0,0-.113-.332.478.478,0,0,0-.378-.2.916.916,0,0,0-.743.385,2.455,2.455,0,0,0-.372.8.272.272,0,0,1-.332.179.259.259,0,0,1-.173-.332,2.9,2.9,0,0,1,.458-.969,1.46,1.46,0,0,1,1.188-.591,1.016,1.016,0,0,1,.79.431,1.248,1.248,0,0,1,.192.551,2.582,2.582,0,0,1-1.062,2.6A1.327,1.327,0,0,1,132.889,82.878Z" fill="#231f20"/>
        <path id="Path_3957" data-name="Path 3957" d="M127.214,82.964l3.577.1s-.478,1.9-1.991,1.812S127.214,82.964,127.214,82.964Z" fill="#231f20"/>
        <path id="Path_3958" data-name="Path 3958" d="M120.238,103.068h0a.345.345,0,0,1-.332-.339c0-.272,1.181-6.6,1.686-9.292a.345.345,0,0,1,.4-.272.339.339,0,0,1,.272.4c-.664,3.518-1.653,8.867-1.679,9.192a.345.345,0,0,1-.352.312Z" fill="#231f20"/>
        <path id="Path_3959" data-name="Path 3959" d="M135.192,103.659a.345.345,0,0,1-.345-.345V93.126a.345.345,0,1,1,.664,0v10.188a.338.338,0,0,1-.319.345Z" fill="#231f20"/>
      </g>
    </g>
  </g>
</svg>
