<svg xmlns="http://www.w3.org/2000/svg" xmlns:xlink="http://www.w3.org/1999/xlink" width="176" height="179" viewBox="0 0 176 179">
  <defs>
    <filter id="Ellipse_101" x="0" y="3" width="176" height="176" filterUnits="userSpaceOnUse">
      <feOffset dy="3" input="SourceAlpha"/>
      <feGaussianBlur stdDeviation="3" result="blur"/>
      <feFlood flood-opacity="0.161"/>
      <feComposite operator="in" in2="blur"/>
      <feComposite in="SourceGraphic"/>
    </filter>
    <filter id="Ellipse_72" x="0" y="3" width="176" height="176" filterUnits="userSpaceOnUse">
      <feOffset dy="3" input="SourceAlpha"/>
      <feGaussianBlur stdDeviation="3" result="blur-2"/>
      <feFlood flood-opacity="0.161"/>
      <feComposite operator="in" in2="blur-2"/>
      <feComposite in="SourceGraphic"/>
    </filter>
    <clipPath id="clip-path">
      <g transform="matrix(1, 0, 0, 1, 0, 0)" filter="url(#Ellipse_101)">
        <circle id="Ellipse_101-2" data-name="Ellipse 101" cx="79" cy="79" r="79" transform="translate(584 1529)" fill="#ba70a3"/>
      </g>
    </clipPath>
  </defs>
  <g id="Group_181" data-name="Group 181" transform="translate(-560.75 -1472.5)">
    <g transform="matrix(1, 0, 0, 1, 560.75, 1472.5)" filter="url(#Ellipse_72)">
      <circle id="Ellipse_72-2" data-name="Ellipse 72" cx="79" cy="79" r="79" transform="translate(9 9)" fill="#ba70a3"/>
    </g>
    <g id="Group_125" data-name="Group 125" transform="translate(363.758 750.5)">
      <path id="Subtraction_1" data-name="Subtraction 1" d="M-13047.155,41.891h0a20.948,20.948,0,0,1-13.393-6.773A20.954,20.954,0,0,1-13066,21a20.865,20.865,0,0,1,6.15-14.849A20.861,20.861,0,0,1-13045,0a20.885,20.885,0,0,1,14.673,5.976,20.882,20.882,0,0,1,6.32,14.489,78.93,78.93,0,0,0-23.146,21.425Z" transform="translate(13266 722)" fill="#483d7f"/>
      <text id="_6" data-name="6" transform="translate(221 749)" fill="#fff" font-size="17" font-family="Poppins-Regular, Poppins"><tspan x="-5.398" y="0">6</tspan></text>
    </g>
    <g id="Mask_Group_15" data-name="Mask Group 15" transform="translate(-14.25 -47.5)" clip-path="url(#clip-path)">
      <g id="_568_analytics_team_flatline" data-name="#568_analytics_team_flatline" transform="translate(558.489 1529.72)">
        <path id="Path_3717" data-name="Path 3717" d="M183.25,120.5H33.4a.261.261,0,1,1,0-.522H183.25a.261.261,0,0,1,.261.261.266.266,0,0,1-.261.261Z" fill="#231f20"/>
        <rect id="Rectangle_230" data-name="Rectangle 230" width="101.223" height="75.942" transform="translate(57.43 23.632)" fill="#fff"/>
        <path id="Path_3718" data-name="Path 3718" d="M158.658,99.845H57.409a.271.271,0,0,1-.271-.271V23.632a.266.266,0,0,1,.271-.266H158.658a.266.266,0,0,1,.266.266V99.573a.266.266,0,0,1-.266.271ZM57.706,99.323H158.381V23.9H57.7Z" fill="#231f20"/>
        <path id="Path_3719" data-name="Path 3719" d="M83.024,92.783H75.237a.25.25,0,0,1-.251-.25V55.415a.256.256,0,0,1,.251-.251h7.787a.256.256,0,0,1,.251.251V92.533a.251.251,0,0,1-.251.251Zm-7.536-.5h7.307V55.666H75.488Z" fill="#d1d3d4"/>
        <path id="Path_3720" data-name="Path 3720" d="M97.387,92.783H89.6a.25.25,0,0,1-.25-.25V70.764a.251.251,0,0,1,.251-.245h7.787a.251.251,0,0,1,.251.245V92.533a.251.251,0,0,1-.251.251Zm-7.536-.5h7.307V71.015H89.85Z" fill="#d1d3d4"/>
        <path id="Path_3721" data-name="Path 3721" d="M111.749,92.783h-7.787a.245.245,0,0,1-.245-.251V60.765a.245.245,0,0,1,.245-.245h7.787a.245.245,0,0,1,.251.245V92.533a.245.245,0,0,1-.251.251Zm-7.536-.5h7.307V61.015h-7.307Z" fill="#d1d3d4"/>
        <path id="Path_3722" data-name="Path 3722" d="M126.112,92.783h-7.787a.245.245,0,0,1-.245-.251V78.906a.251.251,0,0,1,.245-.251h7.787a.251.251,0,0,1,.251.25V92.533a.245.245,0,0,1-.251.251Zm-7.536-.5h7.307V79.157h-7.307Z" fill="#d1d3d4"/>
        <path id="Path_3723" data-name="Path 3723" d="M140.48,92.783h-7.787a.245.245,0,0,1-.251-.251V60.765a.245.245,0,0,1,.251-.245h7.787a.245.245,0,0,1,.245.245V92.533a.245.245,0,0,1-.245.251Zm-7.541-.5h7.307V61.015h-7.307Z" fill="#d1d3d4"/>
        <path id="Path_3724" data-name="Path 3724" d="M140.292,42.7H127.119a.261.261,0,0,1,0-.522h13.173a.261.261,0,1,1,0,.522Z" fill="#d1d3d4"/>
        <path id="Path_3725" data-name="Path 3725" d="M140.292,45.6H127.119a.251.251,0,1,1,0-.5h13.173a.251.251,0,1,1,0,.5Z" fill="#d1d3d4"/>
        <path id="Path_3726" data-name="Path 3726" d="M135.694,48.537h-8.575a.261.261,0,0,1,0-.522h8.575a.261.261,0,1,1,0,.522Z" fill="#d1d3d4"/>
        <path id="Path_3727" data-name="Path 3727" d="M89.067,36.178H75.895a.251.251,0,1,1,0-.5H89.067a.251.251,0,1,1,0,.5Z" fill="#d1d3d4"/>
        <path id="Path_3728" data-name="Path 3728" d="M84.485,39.085h-8.59a.261.261,0,1,1,0-.522h8.59a.261.261,0,0,1,0,.522Z" fill="#d1d3d4"/>
        <path id="Path_3729" data-name="Path 3729" d="M123.168,65.728c-4.071,0-7.656-4.593-10.548-8.3-1.931-2.474-3.758-4.807-5.052-4.807h-.031c-1.409.042-3.293,1.133-5.3,2.291-2.662,1.566-5.683,3.283-8.5,3.131-5.271-.287-15.26-12.035-15.657-12.526a.245.245,0,0,1,0-.35.256.256,0,0,1,.355.031c.1.12,10.271,12.082,15.328,12.353,2.667.157,5.621-1.566,8.225-3.069,2.051-1.185,3.993-2.312,5.527-2.359h.052c1.534,0,3.262,2.213,5.438,5,2.85,3.617,6.352,8.11,10.156,8.11h.23c3.429-.167,5.036-3.1,6.743-6.205,1.566-2.9,3.231-5.887,6.477-6.508a.25.25,0,0,1,.094.491c-3.017.574-4.6,3.465-6.132,6.263-1.7,3.09-3.45,6.263-7.155,6.461Z" fill="#d1d3d4"/>
        <path id="Path_3730" data-name="Path 3730" d="M147.139,92.783h-78.2a.251.251,0,1,1,0-.5h78.2a.251.251,0,0,1,0,.5Z" fill="#d1d3d4"/>
        <path id="Path_3731" data-name="Path 3731" d="M78.462,46.861A1.566,1.566,0,1,1,80.028,45.3,1.566,1.566,0,0,1,78.462,46.861Zm0-2.61a1.041,1.041,0,1,1,0,.005Z" fill="#d1d3d4"/>
        <path id="Path_3732" data-name="Path 3732" d="M136.686,54.3a1.566,1.566,0,1,1,1.566-1.566,1.566,1.566,0,0,1-1.566,1.566Zm0-2.61a1.039,1.039,0,1,1,0,.01Z" fill="#d1d3d4"/>
        <rect id="Rectangle_231" data-name="Rectangle 231" width="101.223" height="6.132" transform="translate(57.43 23.632)" fill="#fff"/>
        <path id="Path_3733" data-name="Path 3733" d="M158.658,30.035H57.409a.266.266,0,0,1-.271-.266V23.632a.266.266,0,0,1,.271-.266H158.658a.266.266,0,0,1,.266.266v6.117a.266.266,0,0,1-.266.287ZM57.706,29.513H158.381V23.9H57.7Z" fill="#231f20"/>
        <rect id="Rectangle_232" data-name="Rectangle 232" width="43.145" height="30.281" transform="translate(101.87 18.94)" fill="#fff"/>
        <path id="Path_3734" data-name="Path 3734" d="M145.015,49.487H101.87a.271.271,0,0,1-.271-.266V18.95a.271.271,0,0,1,.271-.271h43.145a.266.266,0,0,1,.266.271V49.22A.266.266,0,0,1,145.015,49.487Zm-42.874-.522h42.6V19.216h-42.6Z" fill="#231f20"/>
        <path id="Path_3735" data-name="Path 3735" d="M114.3,26.9l7.949,7.943a.407.407,0,0,0,.318.136h12.171A11.743,11.743,0,1,1,114.192,26.8Z" fill="#68e1fd"/>
        <path id="Path_3736" data-name="Path 3736" d="M123.4,22.812V34.148h11.075c.24,0,.24,0,.224-.251a11.847,11.847,0,0,0-6.988-10.073,12.087,12.087,0,0,0-3.794-.96Z" fill="#d1d3d4"/>
        <path id="Path_3737" data-name="Path 3737" d="M122.563,34V22.823a12.745,12.745,0,0,0-3.852.809,12.134,12.134,0,0,0-3.961,2.557Z" fill="#d1d3d4"/>
        <path id="Path_3738" data-name="Path 3738" d="M140.558,40.708h-5.015a.261.261,0,1,1,0-.522h5.015a.261.261,0,1,1,0,.522Z" fill="#d1d3d4"/>
        <path id="Path_3739" data-name="Path 3739" d="M140.558,42.952h-5.015a.261.261,0,1,1,0-.522h5.015a.261.261,0,1,1,0,.522Z" fill="#d1d3d4"/>
        <path id="Path_3740" data-name="Path 3740" d="M139.06,45.191h-3.518a.261.261,0,1,1,0-.522h3.518a.261.261,0,1,1,0,.522Z" fill="#d1d3d4"/>
        <path id="Path_3741" data-name="Path 3741" d="M113.858,22.092h-5.386a.261.261,0,0,1,0-.522h5.386a.261.261,0,0,1,0,.522Z" fill="#d1d3d4"/>
        <path id="Path_3742" data-name="Path 3742" d="M113.858,23.538h-5.386a.261.261,0,0,1,0-.522h5.386a.261.261,0,0,1,0,.522Z" fill="#d1d3d4"/>
        <path id="Path_3743" data-name="Path 3743" d="M112.25,24.978h-3.779a.261.261,0,0,1,0-.522h3.779a.261.261,0,0,1,0,.522Z" fill="#d1d3d4"/>
        <path id="Path_3744" data-name="Path 3744" d="M59.413,124.17s.292,6.357.585,6.513,4.4.522,5.13-.574l.522-4.541Z" fill="#fff"/>
        <path id="Path_3745" data-name="Path 3745" d="M62.106,131.148a7.918,7.918,0,0,1-2.208-.23c-.162-.083-.428-.224-.725-6.732a.266.266,0,0,1,.094-.219.25.25,0,0,1,.23-.057l6.226,1.4a.266.266,0,0,1,.209.292l-.522,4.535a.235.235,0,0,1-.042.12C64.888,130.95,63.4,131.148,62.106,131.148Zm-1.921-.673c.605.146,4.008.36,4.7-.459l.48-4.222-5.647-1.273a57.2,57.2,0,0,0,.47,5.955ZM60.186,130.532Z" fill="#231f20"/>
        <path id="Path_3746" data-name="Path 3746" d="M39.461,128.111s-.684,3.465-.438,3.711a13.925,13.925,0,0,0,4.1.386,6.928,6.928,0,0,0,1.707-1.268L45.9,126.5Z" fill="#fff"/>
        <path id="Path_3747" data-name="Path 3747" d="M42.566,132.51c-1.164,0-3.424-.188-3.737-.522-.1-.1-.344-.344.365-3.951a.277.277,0,0,1,.2-.209l6.435-1.607a.282.282,0,0,1,.256.068.271.271,0,0,1,.073.256L45.087,131a.271.271,0,0,1-.073.13,6.952,6.952,0,0,1-1.821,1.331,3.175,3.175,0,0,1-.626.052Zm-3.325-.866a16.747,16.747,0,0,0,3.8.308,6.263,6.263,0,0,0,1.566-1.153l.95-3.925-5.845,1.456a20.308,20.308,0,0,0-.475,3.314ZM39.242,131.686Z" fill="#231f20"/>
        <path id="Path_3748" data-name="Path 3748" d="M41.423,79.767s-1.169,30.035-3.011,48.25c0,0,3.131,2.088,9,.355,0,0,5.856-22.917,5.047-42.117,0,0,5.7,25.3,5.5,41.2a17.651,17.651,0,0,0,8.413-1.675S65.149,88.9,62.957,78.948s-2.275-8.58-2.275-8.58L42.8,75.983Z" fill="#231f20"/>
        <path id="Path_3749" data-name="Path 3749" d="M42.947,129.337a8.933,8.933,0,0,1-4.7-1.106.261.261,0,0,1-.115-.24c1.821-18,3-47.931,3.011-48.234a.209.209,0,0,1,0-.078l1.388-3.784a.271.271,0,0,1,.167-.162l17.745-5.59a.277.277,0,0,1,.2-.11c.3,0,.558-.047,2.521,8.872,2.171,9.859,3.408,46.5,3.418,46.872a.25.25,0,0,1-.141.24,17.672,17.672,0,0,1-8.512,1.7.261.261,0,0,1-.24-.266c.157-12.62-3.46-31.4-4.906-38.391.172,18.4-5.068,39.143-5.125,39.377a.261.261,0,0,1-.177.188,15.8,15.8,0,0,1-4.535.715Zm-4.259-1.472c.642.35,3.591,1.717,8.507.287.491-1.973,5.741-23.741,5-41.9a.262.262,0,0,1,.517-.068c.057.251,5.642,25.244,5.511,41.011a17.583,17.583,0,0,0,7.881-1.6c-.094-2.714-1.315-37.138-3.4-46.611a71.177,71.177,0,0,0-2.088-8.35L43.015,76.2l-1.336,3.627C41.632,81.1,40.468,110.152,38.688,127.866Z" fill="#231f20"/>
        <path id="Path_3750" data-name="Path 3750" d="M46.971,37.754c-.251-1.112-.866-2.015-1.122-3.131A7.14,7.14,0,0,1,46,30.917a2.876,2.876,0,0,1,.752-1.3c.35-.318.71-.157,1.106-.277a2.444,2.444,0,0,0,.845-.522A5.12,5.12,0,0,1,51.251,27.8a7.515,7.515,0,0,1,3.538.287A4.4,4.4,0,0,1,57.4,30.427c.522,1.2.235,2.469.219,3.716a4.9,4.9,0,0,1-1.362,3.278,5.574,5.574,0,0,1-3.1,1.6,9.786,9.786,0,0,1-3.528-.094,4.911,4.911,0,0,1-1.759-.595C47.326,37.979,47.117,38.36,46.971,37.754Z" fill="#fff"/>
        <path id="Path_3751" data-name="Path 3751" d="M51.731,39.393a11.816,11.816,0,0,1-2.15-.219,5.386,5.386,0,0,1-1.853-.631.72.72,0,0,0-.386-.125c-.313-.037-.522-.141-.605-.605a8.116,8.116,0,0,0-.522-1.519,9,9,0,0,1-.574-1.607,7.307,7.307,0,0,1,.157-3.846,3.241,3.241,0,0,1,.825-1.425,1.216,1.216,0,0,1,.856-.287,1.618,1.618,0,0,0,.36-.042,1.044,1.044,0,0,0,.491-.292c.073-.063.157-.136.266-.214a5.355,5.355,0,0,1,2.677-1.044,7.724,7.724,0,0,1,3.653.3,4.629,4.629,0,0,1,2.74,2.484,6.294,6.294,0,0,1,.277,2.923c0,.3-.037.6-.042.9a5.115,5.115,0,0,1-1.467,3.429,5.856,5.856,0,0,1-3.246,1.686A8.131,8.131,0,0,1,51.731,39.393Zm-4.415-1.519h.068a1.315,1.315,0,0,1,.632.224,4.77,4.77,0,0,0,1.665.564,9.514,9.514,0,0,0,3.434.089,5.313,5.313,0,0,0,2.949-1.519,4.624,4.624,0,0,0,1.289-3.1c0-.308.026-.616.042-.929a5.887,5.887,0,0,0-.235-2.677,4.1,4.1,0,0,0-2.432-2.187,7.254,7.254,0,0,0-3.408-.277,4.854,4.854,0,0,0-2.422.96l-.256.2a1.566,1.566,0,0,1-.694.4,1.915,1.915,0,0,1-.491.063.7.7,0,0,0-.522.151,2.609,2.609,0,0,0-.673,1.185,6.785,6.785,0,0,0-.141,3.565,8.454,8.454,0,0,0,.522,1.514,9.107,9.107,0,0,1,.574,1.618h0c.031.141.057.177.063.177Z" fill="#231f20"/>
        <path id="Path_3752" data-name="Path 3752" d="M62.957,74.934c-1.472-6.868-4.175-29.112-4.843-29.4-1.566-.725-9.916-1.54-11.826,1.675-.59,1.007-.976,22.932-.219,28.778Z" fill="#fff"/>
        <path id="Path_3753" data-name="Path 3753" d="M46.068,76.255a.271.271,0,0,1-.266-.235c-.757-5.845-.391-27.849.256-28.95,2.03-3.465,10.657-2.474,12.165-1.785.407.183.772,2.234,2.453,13.705.913,6.263,1.858,12.682,2.542,15.887a.266.266,0,0,1-.245.324L46.089,76.244ZM53.276,45.15c-2.74,0-5.772.522-6.753,2.192C46,48.385,45.551,69.225,46.308,75.7l16.32-1.012c-.684-3.309-1.6-9.561-2.484-15.615-.866-5.908-1.842-12.588-2.2-13.319a14.994,14.994,0,0,0-4.666-.6ZM57.931,45.718Z" fill="#231f20"/>
        <path id="Path_3754" data-name="Path 3754" d="M54.935,48.7,53.871,51.2,56.449,66.12l-1.832,3.105-2.964-2.176,1.039-15.965L50.05,47.811Z" fill="#231f20"/>
        <path id="Path_3755" data-name="Path 3755" d="M54.617,69.486a.235.235,0,0,1-.151-.052L51.5,67.257a.25.25,0,0,1-.1-.224l1.044-15.866-2.578-3.194a.251.251,0,0,1,0-.292.261.261,0,0,1,.271-.125l4.885.882a.271.271,0,0,1,.183.136.261.261,0,0,1,0,.224l-1.044,2.437,2.563,14.838a.261.261,0,0,1-.031.177l-1.832,3.131a.256.256,0,0,1-.172.12Zm-2.7-2.563,2.61,1.921,1.634-2.777L53.6,51.245a.235.235,0,0,1,0-.146l.939-2.2-3.878-.7,2.2,2.724a.282.282,0,0,1,.057.183Z" fill="#231f20"/>
        <path id="Path_3756" data-name="Path 3756" d="M50.828,82.836,48.464,46.042l8.048-.287-.224,36.5h8.5c-1.179-10.4-1.294-35.03-2.281-36.1-3.705-4.024-13.2-2.677-13.2-2.677s-6.842.329-9.008,4.332c-.522,1.007-.762,31.314-.689,35.661Z" fill="#68e1fd"/>
        <path id="Path_3757" data-name="Path 3757" d="M55.88,43.365l.433,2.808s-.444,4.086-3.533,3.371a6.67,6.67,0,0,1-4.316-3.5l-.391-7.421s2.27-1.242,1.566-6.2a15.281,15.281,0,0,0,8.016,1.044s1.1,5.1.752,7.489a2.641,2.641,0,0,1-2.526,2.411Z" fill="#fff"/>
        <path id="Path_3758" data-name="Path 3758" d="M53.479,49.894a3.288,3.288,0,0,1-.762-.089,6.868,6.868,0,0,1-4.5-3.653.251.251,0,0,1,0-.094L47.8,38.621a.271.271,0,0,1,.141-.251s2.088-1.242,1.42-5.918a.266.266,0,0,1,.381-.282,15.213,15.213,0,0,0,7.865,1.044.261.261,0,0,1,.3.209c.042.209,1.106,5.177.752,7.588a2.891,2.891,0,0,1-2.474,2.609l.391,2.531a.151.151,0,0,1,0,.068,5.026,5.026,0,0,1-1.634,3.236,2.458,2.458,0,0,1-1.467.438ZM48.73,45.974a6.43,6.43,0,0,0,4.113,3.3A2.135,2.135,0,0,0,54.632,49a4.524,4.524,0,0,0,1.409-2.823L55.614,43.4a.277.277,0,0,1,.063-.214.256.256,0,0,1,.2-.094,2.359,2.359,0,0,0,2.255-2.176c.3-2.025-.485-6.122-.7-7.155a15.761,15.761,0,0,1-7.479-.882c.459,4.045-1.1,5.537-1.6,5.9Z" fill="#231f20"/>
        <path id="Path_3759" data-name="Path 3759" d="M54.278,36.449s1.467,2.693,1.044,3.095-1.566,0-1.566,0" fill="#fff"/>
        <path id="Path_3760" data-name="Path 3760" d="M54.7,39.988a3.434,3.434,0,0,1-1.044-.188.261.261,0,0,1-.157-.334.256.256,0,0,1,.334-.157c.313.11,1.044.266,1.284.042a7.583,7.583,0,0,0-1.075-2.777.256.256,0,0,1,.1-.355.261.261,0,0,1,.355.1c.715,1.31,1.461,2.964.971,3.413a1.169,1.169,0,0,1-.767.251Z" fill="#231f20"/>
        <ellipse id="Ellipse_111" data-name="Ellipse 111" cx="0.303" cy="0.694" rx="0.303" ry="0.694" transform="matrix(0.999, -0.042, 0.042, 0.999, 52.505, 35.279)" fill="#231f20"/>
        <ellipse id="Ellipse_112" data-name="Ellipse 112" cx="0.303" cy="0.694" rx="0.303" ry="0.694" transform="matrix(0.999, -0.042, 0.042, 0.999, 56.478, 35.279)" fill="#231f20"/>
        <path id="Path_3761" data-name="Path 3761" d="M50.05,37.342a4.264,4.264,0,0,0-1.044-1.206,1.456,1.456,0,0,0-.793-.35,1.32,1.32,0,0,0-.678.2,2.5,2.5,0,0,0-1.19,1.665,2.035,2.035,0,0,0,.021.966,2.213,2.213,0,0,0,.96,1.153,6.5,6.5,0,0,0,1.409.611" fill="#fff"/>
        <path id="Path_3762" data-name="Path 3762" d="M48.735,40.656h-.089a6.931,6.931,0,0,1-1.461-.637,2.469,2.469,0,0,1-1.075-1.3,2.228,2.228,0,0,1-.042-1.1,2.782,2.782,0,0,1,1.315-1.848,1.477,1.477,0,0,1,.825-.235,1.7,1.7,0,0,1,.945.4,4.593,4.593,0,0,1,1.133,1.284.271.271,0,0,1-.1.371.266.266,0,0,1-.365-.1,4.039,4.039,0,0,0-1-1.127,1.148,1.148,0,0,0-.637-.292.95.95,0,0,0-.522.167,2.223,2.223,0,0,0-1.044,1.482,1.785,1.785,0,0,0,0,.835,1.973,1.973,0,0,0,.872,1,6.638,6.638,0,0,0,1.352.579.266.266,0,0,1,.167.339.271.271,0,0,1-.277.183Z" fill="#231f20"/>
        <path id="Path_3763" data-name="Path 3763" d="M55.88,43.365a8.46,8.46,0,0,1-5.182-.856s2.641,4.06,5.59,3.486Z" fill="#231f20"/>
        <path id="Path_3764" data-name="Path 3764" d="M55.7,46.313c-2.808,0-5.12-3.5-5.219-3.653a.266.266,0,0,1,0-.318.261.261,0,0,1,.313-.057,8.241,8.241,0,0,0,5.047.825.256.256,0,0,1,.313.214l.407,2.609a.256.256,0,0,1-.209.292,3.241,3.241,0,0,1-.652.089Zm-4.175-3.163c.877,1.044,2.61,2.808,4.483,2.61l-.329-2.088a8.69,8.69,0,0,1-4.175-.522Z" fill="#231f20"/>
        <path id="Path_3765" data-name="Path 3765" d="M51.96,38.5A2.542,2.542,0,1,1,54.5,35.964,2.542,2.542,0,0,1,51.96,38.5Zm0-4.541a2,2,0,1,0,2,2,2,2,0,0,0-2-2Z" fill="#231f20"/>
        <path id="Path_3766" data-name="Path 3766" d="M56.856,38.5a2.542,2.542,0,1,1,2.536-2.536A2.542,2.542,0,0,1,56.856,38.5Zm0-4.541a2,2,0,1,0,2,2A2,2,0,0,0,56.856,33.96Z" fill="#231f20"/>
        <path id="Path_3767" data-name="Path 3767" d="M86.166,53.2c0-.35,1.733-1.3,2.015-1.566l3.095-3a1.821,1.821,0,0,1,1.1-.626.365.365,0,0,1,.224.047c.2.13.1.438,0,.642a19.607,19.607,0,0,1-1.566,2.333q2.249-1.409,4.572-2.683a.8.8,0,0,1,.778-.115.668.668,0,0,1,.256.454,3.2,3.2,0,0,1-.522,2.135,13.459,13.459,0,0,1-5.109,4.624c-.96.569-1.79,1.232-2.724,1.848-.183.125-1.889,1.044-1.884,1.247Z" fill="#fff"/>
        <path id="Path_3768" data-name="Path 3768" d="M86.4,58.787a.266.266,0,0,1-.266-.256l-.24-5.3h0c0-.35.444-.684,1.487-1.357a6.91,6.91,0,0,0,.611-.423l2.046-1.978,1.044-1.044a2.088,2.088,0,0,1,1.294-.715.652.652,0,0,1,.391.094c.282.193.313.585.068,1s-.522.845-.783,1.253c1.127-.678,2.275-1.341,3.424-1.973a1.044,1.044,0,0,1,1.044-.11.892.892,0,0,1,.376.632,3.377,3.377,0,0,1-.522,2.322,13.519,13.519,0,0,1-5.219,4.7c-.574.339-1.091.71-1.634,1.1-.355.251-.7.522-1.075.746-.042.031-.162.1-.324.188a12.4,12.4,0,0,0-1.456.919.266.266,0,0,1-.24.183Zm.037-5.563.209,4.7c.261-.177.642-.4,1.2-.725.146-.078.256-.141.292-.167.365-.24.71-.485,1.044-.736.522-.376,1.08-.767,1.67-1.122a13.281,13.281,0,0,0,5.015-4.52,2.886,2.886,0,0,0,.475-1.952.428.428,0,0,0-.13-.282c-.13-.078-.412.078-.522.125-1.54.845-3.074,1.743-4.556,2.677a.271.271,0,0,1-.344-.047.261.261,0,0,1,0-.344,20.6,20.6,0,0,0,1.587-2.291.611.611,0,0,0,.094-.292h-.047a1.6,1.6,0,0,0-.924.569l-1.044,1.044L88.41,51.835a5.255,5.255,0,0,1-.694.485,7.223,7.223,0,0,0-1.279.913ZM86.437,53.187Z" fill="#231f20"/>
        <path id="Path_3769" data-name="Path 3769" d="M62.5,46.157s8.731,7.176,10.407,8.006S87,51.235,87,51.235l3.314,5.85S77.471,63.458,72.3,63.259s-11.628-9.091-11.628-9.091" fill="#68e1fd"/>
        <path id="Path_3770" data-name="Path 3770" d="M90.383,54.158a.256.256,0,0,1-.157-.052.271.271,0,0,1-.063-.376c1.127-1.566.642-2.552.621-2.61a.271.271,0,0,1,.475-.256c0,.047.678,1.289-.658,3.131a.271.271,0,0,1-.219.162Z" fill="#231f20"/>
        <path id="Path_3771" data-name="Path 3771" d="M54.382,41.528a3.424,3.424,0,0,1-2.928-1.654.261.261,0,0,1,.068-.365.266.266,0,0,1,.365.073,2.944,2.944,0,0,0,3.653,1.206.261.261,0,0,1,.214.475,3.679,3.679,0,0,1-1.373.266Z" fill="#231f20"/>
        <path id="Path_3772" data-name="Path 3772" d="M63.447,65.9h0a.266.266,0,0,1-.24-.292l1.336-13.736a.271.271,0,0,1,.522.052L63.729,65.655A.277.277,0,0,1,63.447,65.9Z" fill="#231f20"/>
        <path id="Path_3773" data-name="Path 3773" d="M48.375,72.3l3.293-15.777,14.7,1.127L62.31,73.8Z" fill="#fff"/>
        <path id="Path_3774" data-name="Path 3774" d="M62.31,74.073h-.031l-13.935-1.5a.292.292,0,0,1-.188-.11.266.266,0,0,1-.047-.214l3.3-15.777a.266.266,0,0,1,.282-.214l14.7,1.148a.271.271,0,0,1,.2.11.266.266,0,0,1,.042.224l-4.06,16.148a.271.271,0,0,1-.261.183Zm-13.611-2,13.408,1.44L66.031,57.9,51.882,56.814Z" fill="#231f20"/>
        <path id="Path_3775" data-name="Path 3775" d="M45.17,65.039a40.5,40.5,0,0,1,4.781-2.829c1.722-.626,3.314-.814,3.538.078a5.134,5.134,0,0,1-1.112,3.653c-.689.522-2.187.971-3.022,1.785s-4.175,1.858-4.175,1.858Z" fill="#fff"/>
        <path id="Path_3776" data-name="Path 3776" d="M45.17,69.841a.282.282,0,0,1-.266-.271v-4.53a.261.261,0,0,1,.115-.224,39.4,39.4,0,0,1,4.843-2.855c.9-.334,2.536-.819,3.387-.365a.955.955,0,0,1,.522.626,5.28,5.28,0,0,1-1.211,3.919,6.863,6.863,0,0,1-1.211.663,6.936,6.936,0,0,0-1.806,1.1c-.877.851-4.175,1.879-4.29,1.921a.235.235,0,0,1-.084.016Zm.271-4.661V69.2a14.394,14.394,0,0,0,3.726-1.681,7.5,7.5,0,0,1,1.947-1.2,7.109,7.109,0,0,0,1.1-.6,4.948,4.948,0,0,0,1.012-3.366A.423.423,0,0,0,53,62.07c-.48-.256-1.566-.1-2.954.4A37.967,37.967,0,0,0,45.442,65.18Z" fill="#231f20"/>
        <path id="Path_3777" data-name="Path 3777" d="M41.653,46.157S25.51,63.265,25.51,70.8s20.171-.339,20.171-.339l.386-7.035-10.276,2.86,9.916-9.739Z" fill="#68e1fd"/>
        <path id="Path_3778" data-name="Path 3778" d="M33.4,67.21a.266.266,0,0,1-.261-.2.261.261,0,0,1,.188-.329L46,63.15a.27.27,0,0,1,.141.522l-12.7,3.538Z" fill="#231f20"/>
        <path id="Path_3779" data-name="Path 3779" d="M38.334,64.867a.271.271,0,0,1-.2-.454L44.163,57.8a.271.271,0,0,1,.4.365l-6.028,6.612A.271.271,0,0,1,38.334,64.867Z" fill="#231f20"/>
        <path id="Path_3780" data-name="Path 3780" d="M39.022,131.822a9.843,9.843,0,0,0-.052,2.557c.172,1.1,12.943,4.7,13.162,2.343s-7.307-5.783-7.307-5.783S40.437,132.563,39.022,131.822Z" fill="#231f20"/>
        <path id="Path_3781" data-name="Path 3781" d="M50.228,137.782c-3.3,0-11.325-2.135-11.518-3.34a10.088,10.088,0,0,1,.057-2.641.25.25,0,0,1,.136-.193.277.277,0,0,1,.24,0c1.075.558,4.4-.454,5.595-.892a.287.287,0,0,1,.2,0c.788.36,7.682,3.585,7.453,6.044-.057.631-.71.971-1.941,1.007ZM39.268,132.2a8.94,8.94,0,0,0,0,2.166c.36.72,8.872,3.382,11.894,2.829.475-.089.731-.251.752-.475.162-1.743-4.948-4.494-7.056-5.475-.767.24-4.034,1.352-5.616.934Z" fill="#231f20"/>
        <path id="Path_3782" data-name="Path 3782" d="M60.019,130.684s-1.315,2.792,0,3.961,13.4,3.293,13.1,1.607-7.975-6.143-7.975-6.143S61.61,131.112,60.019,130.684Z" fill="#231f20"/>
        <path id="Path_3783" data-name="Path 3783" d="M71.109,137.134c-3.512,0-10.2-1.331-11.283-2.3-1.446-1.284-.12-4.144-.063-4.264a.261.261,0,0,1,.3-.141c1.524.407,4.958-.564,4.989-.574a.25.25,0,0,1,.2,0c.8.464,7.8,4.577,8.1,6.331a.585.585,0,0,1-.35.647A4.467,4.467,0,0,1,71.109,137.134Zm-10.96-6.148c-.256.621-.955,2.609,0,3.46,1.174,1.044,11.054,2.808,12.583,1.957.1-.057.094-.089.094-.1-.2-1.127-4.817-4.175-7.755-5.913a14.591,14.591,0,0,1-4.916.611Z" fill="#231f20"/>
        <circle id="Ellipse_113" data-name="Ellipse 113" cx="0.804" cy="0.804" r="0.804" transform="translate(60.285 25.74)" fill="#68e1fd"/>
        <circle id="Ellipse_114" data-name="Ellipse 114" cx="0.804" cy="0.804" r="0.804" transform="translate(62.894 25.74)" fill="#68e1fd"/>
        <circle id="Ellipse_115" data-name="Ellipse 115" cx="0.804" cy="0.804" r="0.804" transform="translate(65.504 25.74)" fill="#68e1fd"/>
        <path id="Path_3784" data-name="Path 3784" d="M164.978,107.584s1.519,16.936,3.481,24.237c.339,1.258,4.7,1.331,5.814.605s-.84-23.726-.845-23.762Z" fill="#fff"/>
        <path id="Path_3785" data-name="Path 3785" d="M171.742,133.158a7.509,7.509,0,0,1-2.536-.376,1.466,1.466,0,0,1-1.007-.892c-1.947-7.239-3.471-24.112-3.486-24.279a.266.266,0,0,1,.3-.292l8.444,1.075a.266.266,0,0,1,.23.214c.047.214,2.088,23.172.731,24.044A5.626,5.626,0,0,1,171.742,133.158Zm-6.461-25.26c.224,2.411,1.654,17.223,3.434,23.856.052.188.292.376.678.522a7.5,7.5,0,0,0,4.734-.078c.8-1.044-.652-20.171-.95-23.3Z" fill="#231f20"/>
        <path id="Path_3786" data-name="Path 3786" d="M149.644,106.055l-.522,23.282s3.345,2.536,5.871,1.952l3.064-24.049Z" fill="#fff"/>
        <path id="Path_3787" data-name="Path 3787" d="M154.2,131.649c-2.437,0-5.109-2-5.219-2.088a.282.282,0,0,1-.1-.224l.522-23.277a.266.266,0,0,1,.094-.2.282.282,0,0,1,.214-.063l8.392,1.19a.271.271,0,0,1,.23.3l-3.058,24.054a.277.277,0,0,1-.209.23,3.955,3.955,0,0,1-.861.073Zm-4.8-2.448c.569.407,3.257,2.208,5.36,1.863l3-23.6-7.829-1.1Z" fill="#231f20"/>
        <path id="Path_3788" data-name="Path 3788" d="M149.592,75.31l-2.27,37.728s20.354,5.125,28.8,1.138c0,0-2.469-29.31-7.374-38.668Z" fill="#231f20"/>
        <path id="Path_3789" data-name="Path 3789" d="M166.956,115.961a67.166,67.166,0,0,1-8.434-.621,107.808,107.808,0,0,1-11.263-2.088.266.266,0,0,1-.2-.271l2.27-37.728a.261.261,0,0,1,.261-.245h0l19.154.2a.266.266,0,0,1,.23.141c4.88,9.3,7.38,38.474,7.406,38.767a.256.256,0,0,1-.151.256C174.043,115.444,170.938,115.961,166.956,115.961Zm-19.363-3.131c2.166.522,20.354,4.728,28.25,1.174-.219-2.479-2.677-29.284-7.26-38.245l-18.747-.193Z" fill="#231f20"/>
        <path id="Path_3790" data-name="Path 3790" d="M137.542,73.019a4.408,4.408,0,0,1-2.291.8c-.966-.11-3.131-.464-3.22.7s2.416,4.916,2.411,4.953,5.777-3.408,5.777-3.408Z" fill="#fff"/>
        <path id="Path_3791" data-name="Path 3791" d="M134.384,79.72a.2.2,0,0,1-.078-.026.3.3,0,0,1-.1-.115,1.157,1.157,0,0,0-.125-.2c-1.6-2.552-2.359-4.144-2.312-4.875a.96.96,0,0,1,.355-.71c.652-.522,2.035-.371,2.954-.261l.2.026a4.211,4.211,0,0,0,2.119-.752.256.256,0,0,1,.344.042l2.677,3.043a.282.282,0,0,1,.063.214.271.271,0,0,1-.125.183C135.313,79.287,134.588,79.72,134.384,79.72Zm-.778-5.783a1.968,1.968,0,0,0-1.159.256.444.444,0,0,0-.162.339c0,.418.339,1.566,2.229,4.567h0c.746-.428,3.356-1.978,5.282-3.131l-2.322-2.641a4.1,4.1,0,0,1-2.275.715h-.209A11.483,11.483,0,0,0,133.606,73.938Z" fill="#231f20"/>
        <path id="Path_3792" data-name="Path 3792" d="M152.129,48.375s-6,16.951-8,17.854-7.959,6.049-7.959,6.049l3.382,5.188A104.226,104.226,0,0,0,149.7,70.295C152.677,67.623,152.129,48.375,152.129,48.375Z" fill="#68e1fd"/>
        <rect id="Rectangle_233" data-name="Rectangle 233" width="12.635" height="15.913" transform="translate(120.571 76.022) rotate(-28.76)" fill="#fff"/>
        <path id="Path_3793" data-name="Path 3793" d="M128.231,90.237a.2.2,0,0,1-.078,0,.25.25,0,0,1-.157-.125l-7.661-13.95a.271.271,0,0,1,.11-.365l11.075-6.1a.287.287,0,0,1,.209,0,.261.261,0,0,1,.157.13l7.661,13.95a.271.271,0,0,1-.11.365l-11.049,6.059a.3.3,0,0,1-.157.031Zm-7.307-14.091,7.4,13.481L138.925,83.8l-7.4-13.475Z" fill="#231f20"/>
        <path id="Path_3794" data-name="Path 3794" d="M162.447,34.341a6.889,6.889,0,0,1,1.748,3.7,19.634,19.634,0,0,0,1.644,4.086c1.378,2.662,3.105,5.151,4.175,7.975a7.7,7.7,0,0,1,.595,2.99,5.918,5.918,0,0,1-2.808,4.614,8.815,8.815,0,0,1-5.391,1.2,5.146,5.146,0,0,1-2.088-.522,4.906,4.906,0,0,1-1.748-1.8,15.1,15.1,0,0,1-1.842-5.464c-.282-1.634-.522-3.325-1.8-4.541-.945-.9-2.275-1.242-3.382-1.936a6.5,6.5,0,0,1-2.938-5.219c-.063-2.02.835-3.4,1.879-5.01.522-.783,1.91-2.39,2.735-.788-.35-.673,1.112-1.733,1.592-1.874a7.307,7.307,0,0,1,3.131.1,8.789,8.789,0,0,1,4.5,2.484Z" fill="#fff"/>
        <path id="Path_3795" data-name="Path 3795" d="M163.193,59.178a7.4,7.4,0,0,1-.819-.031,5.563,5.563,0,0,1-2.187-.558A5.057,5.057,0,0,1,158.35,56.7a15.506,15.506,0,0,1-1.874-5.558l-.026-.157c-.266-1.54-.522-3.131-1.707-4.248a7.15,7.15,0,0,0-1.988-1.206,12.3,12.3,0,0,1-1.352-.7A6.712,6.712,0,0,1,148.35,39.4c-.063-2.088.851-3.5,1.9-5.125.193-.292,1.127-1.649,2.088-1.6a1.012,1.012,0,0,1,.652.271,3.58,3.58,0,0,1,1.712-1.456,7.562,7.562,0,0,1,3.257.1,9.044,9.044,0,0,1,4.629,2.578h0a6.736,6.736,0,0,1,1.748,3.565l.063.245a19.311,19.311,0,0,0,1.628,4.029c.465.908.981,1.806,1.482,2.677a36.12,36.12,0,0,1,2.688,5.329,7.828,7.828,0,0,1,.611,3.084,6.138,6.138,0,0,1-2.923,4.8A8.784,8.784,0,0,1,163.193,59.178ZM152.311,33.156c-.522,0-1.211.7-1.644,1.357-1.044,1.566-1.9,2.938-1.837,4.875a6.211,6.211,0,0,0,2.823,5.047,13.435,13.435,0,0,0,1.3.678,7.536,7.536,0,0,1,2.114,1.289c1.284,1.226,1.566,2.9,1.848,4.509l.026.162a15.1,15.1,0,0,0,1.806,5.381,4.624,4.624,0,0,0,1.665,1.717,5.021,5.021,0,0,0,1.994.522,8.6,8.6,0,0,0,5.245-1.169,5.668,5.668,0,0,0,2.7-4.42,7.416,7.416,0,0,0-.585-2.9,35.714,35.714,0,0,0-2.651-5.261c-.522-.872-1.044-1.78-1.493-2.693a19.31,19.31,0,0,1-1.665-4.154l-.063-.24a6.324,6.324,0,0,0-1.628-3.356,8.591,8.591,0,0,0-4.389-2.437,7.293,7.293,0,0,0-3.022-.115,3.131,3.131,0,0,0-1.425,1.237c-.078.188-.031.277,0,.3a.24.24,0,0,1-.428.219h0a.862.862,0,0,0-.647-.553Z" fill="#231f20"/>
        <path id="Path_3796" data-name="Path 3796" d="M170.327,76.845c-.063.564-11.837.329-12.677.266-2.166-.157-6.341-.209-8.058-1.8-1.206-1.117,0-3.408.11-5.015a46.887,46.887,0,0,0-.318-7.651,35.113,35.113,0,0,1,.391-9.812c.381-2.088.825-3.6,2.354-4.457a22.815,22.815,0,0,1,8.789-2.223c1.346-.1,7.04,2.813,8.3,5.5S170.333,76.469,170.327,76.845Z" fill="#68e1fd"/>
        <path id="Path_3797" data-name="Path 3797" d="M150.067,65.238a.261.261,0,0,1-.251-.177c-2.328-6.973.465-15.177.491-15.26a.262.262,0,0,1,.5.172c-.026.084-2.766,8.121-.491,14.921a.256.256,0,0,1-.167.329.209.209,0,0,1-.078.016Z" fill="#231f20"/>
        <path id="Path_3798" data-name="Path 3798" d="M160.322,51.146s-3.737,6.946-4.7,10-3.168,8.147-3.168,8.147-1.1-11.163,2.536-20.3Z" fill="#231f20"/>
        <path id="Path_3799" data-name="Path 3799" d="M152.437,69.507h-.042a.23.23,0,0,1-.193-.2c0-.11-1.044-11.325,2.557-20.406a.219.219,0,0,1,.12-.125.235.235,0,0,1,.177,0l5.349,2.15a.224.224,0,0,1,.115.318,94.033,94.033,0,0,0-4.7,9.968c-.96,3-3.131,8.11-3.178,8.163A.224.224,0,0,1,152.437,69.507ZM155.1,49.278c-2.876,7.406-2.667,16.179-2.505,19.023.668-1.592,2.062-4.989,2.787-7.239A89.171,89.171,0,0,1,160,51.245Z" fill="#231f20"/>
        <path id="Path_3800" data-name="Path 3800" d="M154.326,47.326l.752,3.966s.882,3.032,2.792,2.322a6.263,6.263,0,0,0,3.6-3.486l-.673-8.011a14.346,14.346,0,0,1-.652-4.285,8.476,8.476,0,0,1-3.8-.845c-.47-.214-3.017-1.148-2.87-1.8a9.59,9.59,0,0,1-1.895,4.556,1.869,1.869,0,0,0-.412.564,1.445,1.445,0,0,0-.047.522,22.218,22.218,0,0,0,.4,4.995A2.2,2.2,0,0,0,154.326,47.326Z" fill="#fff"/>
        <path id="Path_3801" data-name="Path 3801" d="M157.3,53.964a1.7,1.7,0,0,1-.757-.183,4.407,4.407,0,0,1-1.7-2.422l-.715-3.752a2.808,2.808,0,0,1-1.806-.266,2.27,2.27,0,0,1-1.044-1.482,18.168,18.168,0,0,1-.4-4.347v-.7a1.315,1.315,0,0,1,.47-1.143l.057-.063a9.371,9.371,0,0,0,1.837-4.452.241.241,0,0,1,.47.1c0,.084.1.433,2.4,1.393.146.057.261.1.334.141a8.309,8.309,0,0,0,3.679.788.25.25,0,0,1,.172.063.235.235,0,0,1,.073.167,13.251,13.251,0,0,0,.553,3.862,1.78,1.78,0,0,1,.1.407c0,.068.678,8.011.678,8.011a.3.3,0,0,1,0,.1,6.43,6.43,0,0,1-3.737,3.653,1.853,1.853,0,0,1-.668.125Zm-1.988-2.714s.485,1.618,1.446,2.088a1.237,1.237,0,0,0,1.044.042,6.08,6.08,0,0,0,3.424-3.278c-.673-7.969-.673-7.964-.673-7.98a2.125,2.125,0,0,0-.078-.287A13.475,13.475,0,0,1,159.9,38.1a8.872,8.872,0,0,1-3.653-.872l-.318-.136a9.253,9.253,0,0,1-2.354-1.237,8.931,8.931,0,0,1-1.816,4.071l-.063.068a.872.872,0,0,0-.334.825v.71a17.567,17.567,0,0,0,.386,4.233,1.806,1.806,0,0,0,.819,1.185,2.469,2.469,0,0,0,1.691.172.23.23,0,0,1,.193.026.251.251,0,0,1,.1.157l.757,3.972Z" fill="#231f20"/>
        <path id="Path_3802" data-name="Path 3802" d="M154.837,50.029a6.205,6.205,0,0,0,2.651-1.738,3.246,3.246,0,0,0,.919-2.563,9.008,9.008,0,0,1-4.081,1.6Z" fill="#231f20"/>
        <path id="Path_3803" data-name="Path 3803" d="M154.837,50.259a.24.24,0,0,1-.12-.031.219.219,0,0,1-.1-.157l-.522-2.7a.235.235,0,0,1,.047-.183.224.224,0,0,1,.167-.089,8.872,8.872,0,0,0,3.961-1.566.245.245,0,0,1,.224-.031.235.235,0,0,1,.141.172,3.45,3.45,0,0,1-.976,2.756,6.5,6.5,0,0,1-2.761,1.811Zm-.24-2.73.418,2.2a6.148,6.148,0,0,0,2.3-1.566,3.241,3.241,0,0,0,.877-1.988,8.956,8.956,0,0,1-3.6,1.357Z" fill="#231f20"/>
        <path id="Path_3804" data-name="Path 3804" d="M154.905,39.21s-1.388,2.291-1.018,2.662,1.352.073,1.352.073" fill="#fff"/>
        <path id="Path_3805" data-name="Path 3805" d="M154.482,42.274a1.1,1.1,0,0,1-.778-.251c-.412-.412.313-1.832.986-2.949A.235.235,0,0,1,155.01,39a.23.23,0,0,1,.078.318,6.189,6.189,0,0,0-1.044,2.4c.193.188.835.084,1.112,0a.23.23,0,0,1,.136.438A3.017,3.017,0,0,1,154.482,42.274Z" fill="#231f20"/>
        <ellipse id="Ellipse_116" data-name="Ellipse 116" cx="0.256" cy="0.48" rx="0.256" ry="0.48" transform="translate(152.353 39.858) rotate(-0.28)" fill="#231f20"/>
        <ellipse id="Ellipse_117" data-name="Ellipse 117" cx="0.256" cy="0.48" rx="0.256" ry="0.48" transform="translate(156.536 39.311) rotate(-0.28)" fill="#231f20"/>
        <path id="Path_3806" data-name="Path 3806" d="M159.138,39.811a1.87,1.87,0,0,1,2.088-1.044,1.326,1.326,0,0,1,1.122.96,2.479,2.479,0,0,1,.052.96,5.052,5.052,0,0,1-.522,1.712,1.8,1.8,0,0,1-.548.694.913.913,0,0,1-1.044,0" fill="#fff"/>
        <path id="Path_3807" data-name="Path 3807" d="M160.876,43.474a1.315,1.315,0,0,1-.678-.209.24.24,0,1,1,.256-.407.673.673,0,0,0,.772,0,1.613,1.613,0,0,0,.464-.605,4.806,4.806,0,0,0,.48-1.628,2.166,2.166,0,0,0-.047-.866,1.086,1.086,0,0,0-.929-.793,1.664,1.664,0,0,0-1.827.892.24.24,0,1,1-.454-.151,2.125,2.125,0,0,1,2.354-1.211,1.566,1.566,0,0,1,1.315,1.169,2.724,2.724,0,0,1,.063,1.044,5.141,5.141,0,0,1-.522,1.79,2.009,2.009,0,0,1-.621.788,1.1,1.1,0,0,1-.626.188Z" fill="#231f20"/>
        <path id="Path_3808" data-name="Path 3808" d="M138.825,64.021l.757-.407a.919.919,0,0,0,.183-1.268L133.9,51.475a.95.95,0,0,0-1.174-.553l-.757.4a.924.924,0,0,0-.183,1.273l5.892,10.866a.939.939,0,0,0,1.148.558Z" fill="#fff"/>
        <path id="Path_3809" data-name="Path 3809" d="M138.559,64.35a1.326,1.326,0,0,1-1.112-.762l-5.892-10.876a1.409,1.409,0,0,1-.141-1.044.9.9,0,0,1,.428-.522l.762-.4a1.179,1.179,0,0,1,1.524.605l5.892,10.871a1.4,1.4,0,0,1,.141,1.08.877.877,0,0,1-.428.522l-.762.407A.856.856,0,0,1,138.559,64.35Zm-5.548-13.235a.334.334,0,0,0-.162.037l-.762.407a.386.386,0,0,0-.177.23.934.934,0,0,0,.1.684l5.892,10.871c.2.371.574.574.814.444h0l.762-.4a.381.381,0,0,0,.177-.235.924.924,0,0,0-.1-.678L133.669,51.6A.846.846,0,0,0,133.011,51.115Z" fill="#231f20"/>
        <path id="Path_3810" data-name="Path 3810" d="M132.557,53.015l-5.793-10.657,1.117-.595" fill="#231f20"/>
        <path id="Path_3811" data-name="Path 3811" d="M132.563,53.276a.256.256,0,0,1-.23-.136L126.54,42.477a.261.261,0,0,1,0-.2.277.277,0,0,1,.13-.157l1.112-.59a.266.266,0,0,1,.355.1.261.261,0,0,1-.11.355l-.882.47L132.813,52.9a.261.261,0,0,1-.1.355.277.277,0,0,1-.146.021Z" fill="#231f20"/>
        <ellipse id="Ellipse_118" data-name="Ellipse 118" cx="4.895" cy="6.064" rx="4.895" ry="6.064" transform="matrix(0.871, -0.491, 0.491, 0.871, 123.537, 44.221)" fill="#231f20"/>
        <path id="Path_3812" data-name="Path 3812" d="M131.733,53.156a6.531,6.531,0,0,1-5.506-3.653h0a6.884,6.884,0,0,1-.668-5.219,4.577,4.577,0,0,1,2.2-2.777c2.51-1.341,5.908.068,7.573,3.131a6.884,6.884,0,0,1,.663,5.219,4.572,4.572,0,0,1-2.2,2.782,4.389,4.389,0,0,1-2.062.517Zm-5.052-3.888c1.529,2.813,4.614,4.128,6.868,2.923a4.024,4.024,0,0,0,1.947-2.469,6.372,6.372,0,0,0-.626-4.807c-1.529-2.813-4.614-4.123-6.868-2.923a4,4,0,0,0-1.941,2.469,6.367,6.367,0,0,0,.621,4.807Z" fill="#231f20"/>
        <ellipse id="Ellipse_119" data-name="Ellipse 119" cx="4.895" cy="6.064" rx="4.895" ry="6.064" transform="matrix(0.871, -0.491, 0.491, 0.871, 122.417, 44.818)" fill="#fff"/>
        <path id="Path_3813" data-name="Path 3813" d="M130.616,53.756A6.542,6.542,0,0,1,125.11,50.1a6.884,6.884,0,0,1-.668-5.219,4.577,4.577,0,0,1,2.2-2.782c2.51-1.336,5.9.073,7.568,3.131a6.91,6.91,0,0,1,.668,5.219,4.588,4.588,0,0,1-2.2,2.777,4.332,4.332,0,0,1-2.061.527Zm-1.9-11.612a3.825,3.825,0,0,0-1.821.449,3.987,3.987,0,0,0-1.947,2.469,6.372,6.372,0,0,0,.626,4.807c1.529,2.813,4.608,4.123,6.863,2.923a4.008,4.008,0,0,0,1.947-2.469,6.372,6.372,0,0,0-.626-4.807,6.036,6.036,0,0,0-5.042-3.377Z" fill="#231f20"/>
        <ellipse id="Ellipse_120" data-name="Ellipse 120" cx="3.398" cy="4.206" rx="3.398" ry="4.206" transform="matrix(0.871, -0.491, 0.491, 0.871, 124.634, 45.701)" fill="#fff"/>
        <path id="Path_3814" data-name="Path 3814" d="M130.324,51.971a4.629,4.629,0,0,1-3.888-2.563,4.848,4.848,0,0,1-.47-3.653,3.272,3.272,0,0,1,1.566-1.978c1.78-.945,4.175.047,5.355,2.208a4.869,4.869,0,0,1,.47,3.653,3.262,3.262,0,0,1-1.566,1.973A3.063,3.063,0,0,1,130.324,51.971ZM129,43.918a2.609,2.609,0,0,0-1.226.3,2.683,2.683,0,0,0-1.31,1.665,4.316,4.316,0,0,0,.428,3.272c1.044,1.91,3.131,2.808,4.65,1.994a2.683,2.683,0,0,0,1.31-1.665,4.311,4.311,0,0,0-.428-3.272,4.113,4.113,0,0,0-3.424-2.3Z" fill="#231f20"/>
        <path id="Path_3815" data-name="Path 3815" d="M139.932,59.815l4.353,3.815-4.029,3.309c-1.889-3.225-2.244-5.4-3.131-5.459-1.263-.089-2.829-.313-3.2-1.451a3.382,3.382,0,0,1-.172-2.155.945.945,0,0,1,.465-.616,1.08,1.08,0,0,1,.449-.031c.84.047,2.349.24,2.416.2.3-.183.522-.381.438-.725C138.617,57.461,138.872,59.006,139.932,59.815Z" fill="#fff"/>
        <path id="Path_3816" data-name="Path 3816" d="M140.255,67.2h-.042a.256.256,0,0,1-.183-.125A32.407,32.407,0,0,1,138.3,63.63c-.485-1.08-.84-1.863-1.2-1.889-1.467-.1-3.022-.376-3.434-1.623A3.57,3.57,0,0,1,133.5,57.8a.981.981,0,0,1,1.153-.825c.412,0,.945.078,1.414.125.371.037.778.078.924.084.261-.167.3-.271.266-.418a.266.266,0,0,1,.11-.271.261.261,0,0,1,.292,0,4.775,4.775,0,0,1,1.331,1.665,4.551,4.551,0,0,0,1.1,1.451h0l4.353,3.82a.261.261,0,0,1-.005.4l-4.029,3.309a.271.271,0,0,1-.151.068Zm-5.783-9.723a.376.376,0,0,0-.162.026c-.157.057-.251.277-.318.459a3.131,3.131,0,0,0,.177,1.988c.318.96,1.754,1.179,2.975,1.268.668.047,1.044.856,1.634,2.192a32.711,32.711,0,0,0,1.566,3.131l3.554-2.917-4.133-3.606a5.073,5.073,0,0,1-1.226-1.6,5.83,5.83,0,0,0-.84-1.216,1.206,1.206,0,0,1-.491.449c-.1.063-.13.068-1.19-.042-.459-.047-.986-.1-1.373-.12Z" fill="#231f20"/>
        <path id="Path_3817" data-name="Path 3817" d="M161.351,55.238c-3.538,4.175-9.217,10.647-9.217,10.647l-11.163-6.3-5.125,4.3s11.116,12.239,17.118,11.1a34.336,34.336,0,0,0,15.271-12.7" fill="#68e1fd"/>
        <path id="Path_3818" data-name="Path 3818" d="M152.16,75.295c-6.221,0-16.069-10.762-16.508-11.242a.266.266,0,0,1-.068-.193.261.261,0,0,1,.11-.188l5.12-4.3a.261.261,0,0,1,.3-.031l10.96,6.2c.892-1.018,5.882-6.706,9.071-10.485a.263.263,0,1,1,.4.339c-3.5,4.144-9.165,10.584-9.222,10.652A.261.261,0,0,1,152,66.1l-11.012-6.211-4.77,4.008c1.472,1.566,11.32,11.837,16.7,10.809a34.393,34.393,0,0,0,15.1-12.6.256.256,0,0,1,.36-.078.261.261,0,0,1,.078.36,34.926,34.926,0,0,1-15.4,12.807A4.979,4.979,0,0,1,152.16,75.295Z" fill="#231f20"/>
        <path id="Path_3819" data-name="Path 3819" d="M153.506,43.646l1.848-.386s.428,3.131-.616,2.844S153.506,43.646,153.506,43.646Z" fill="#fff"/>
        <path id="Path_3820" data-name="Path 3820" d="M154.858,46.355a.73.73,0,0,1-.177,0c-1.169-.3-1.383-2.422-1.4-2.662a.224.224,0,0,1,.183-.245l1.848-.386a.23.23,0,0,1,.183.037.235.235,0,0,1,.094.157c.052.4.3,2.416-.324,2.97A.579.579,0,0,1,154.858,46.355Zm-1.1-2.516c.094.658.386,1.889,1.044,2.051a.151.151,0,0,0,.157,0c.292-.261.3-1.435.2-2.317Z" fill="#231f20"/>
        <path id="Path_3821" data-name="Path 3821" d="M134.415,73.854a3.2,3.2,0,0,0-2.375.694.3.3,0,0,0-.094.1.24.24,0,0,0,0,.136.694.694,0,0,0,.522.48,1.973,1.973,0,0,0,.762-.026l1.446-.235a.72.72,0,0,0,.11.647,1.566,1.566,0,0,0,.522.438,3.731,3.731,0,0,0,.908.371" fill="#fff"/>
        <path id="Path_3822" data-name="Path 3822" d="M136.216,76.719h-.068a3.993,3.993,0,0,1-.976-.4,1.811,1.811,0,0,1-.605-.522,1.044,1.044,0,0,1-.188-.48l-1.106.183a2.249,2.249,0,0,1-.861,0,.955.955,0,0,1-.746-.689.464.464,0,0,1,0-.292.522.522,0,0,1,.172-.214,3.481,3.481,0,0,1,2.578-.752.266.266,0,1,1-.063.522,2.928,2.928,0,0,0-2.176.637.438.438,0,0,0,.334.251,1.915,1.915,0,0,0,.663-.031l1.446-.235a.261.261,0,0,1,.251.094.271.271,0,0,1,.042.266.47.47,0,0,0,.078.4,1.3,1.3,0,0,0,.433.355,3.309,3.309,0,0,0,.845.344.277.277,0,0,1,.193.329A.266.266,0,0,1,136.216,76.719Z" fill="#231f20"/>
        <path id="Path_3823" data-name="Path 3823" d="M155,131.289s.522,3.4.078,3.622-14.185,1.159-13.742-.632c.24-.971,3.455-3.053,7.792-4.942C150.443,131.519,153.987,131.086,155,131.289Z" fill="#231f20"/>
        <path id="Path_3824" data-name="Path 3824" d="M147.077,135.616c-3.2,0-5.135-.251-5.741-.752a.621.621,0,0,1-.245-.647c.318-1.273,4.337-3.549,7.943-5.12a.261.261,0,0,1,.329.1c.955,1.6,3.2,1.691,4.7,1.754a7.482,7.482,0,0,1,1.044.078.266.266,0,0,1,.2.219c.558,3.6.084,3.82-.068,3.893a50.255,50.255,0,0,1-6.477.449C148.136,135.605,147.588,135.616,147.077,135.616Zm1.952-5.95c-4.42,1.947-7.249,3.9-7.442,4.7a.163.163,0,0,0,.047.1c1.216,1.133,12.327.454,13.3.24a11.227,11.227,0,0,0-.162-3.163c-.2,0-.464-.031-.757-.042-1.446-.083-3.831-.183-4.989-1.832Z" fill="#231f20"/>
        <path id="Path_3825" data-name="Path 3825" d="M168.459,131.822l.36,3.919c1.409.966,13.413,2.87,12.338,1.284s-6.712-5.866-6.712-5.866A6.012,6.012,0,0,1,168.459,131.822Z" fill="#231f20"/>
        <path id="Path_3826" data-name="Path 3826" d="M179.5,137.881c-3.325,0-9.88-1.273-10.829-1.926a.245.245,0,0,1-.115-.193l-.36-3.914a.256.256,0,0,1,.1-.235.251.251,0,0,1,.256-.031,5.741,5.741,0,0,0,5.741-.621.251.251,0,0,1,.324,0c.23.177,5.678,4.327,6.785,5.929a.522.522,0,0,1-.031.668A3.5,3.5,0,0,1,179.5,137.881Zm-10.438-2.3c1.754.981,11.341,2.286,11.91,1.566-.976-1.388-5.61-4.984-6.529-5.689a6.263,6.263,0,0,1-5.689.725Z" fill="#231f20"/>
        <rect id="Rectangle_234" data-name="Rectangle 234" width="30.176" height="25.928" transform="translate(75.232 78.906)" fill="#fff"/>
        <path id="Path_3827" data-name="Path 3827" d="M105.424,105.105H75.232a.266.266,0,0,1-.266-.266V78.906a.266.266,0,0,1,.266-.266h30.192a.266.266,0,0,1,.271.266v25.933a.266.266,0,0,1-.271.266Zm-29.9-.522h29.639V79.177H75.5Z" fill="#231f20"/>
        <path id="Path_3828" data-name="Path 3828" d="M100.085,101.1H79.6a.245.245,0,0,1-.251-.251V83.88a.245.245,0,0,1,.251-.251.251.251,0,0,1,.251.251v16.7h20.234a.251.251,0,0,1,.251.251.245.245,0,0,1-.251.271Z" fill="#d1d3d4"/>
        <path id="Path_3829" data-name="Path 3829" d="M81.557,99.641a.261.261,0,0,1-.2-.1.251.251,0,0,1,.047-.35L98.931,85.727a.251.251,0,0,1,.35.047.256.256,0,0,1-.042.35L81.709,99.589a.251.251,0,0,1-.151.052Z" fill="#d1d3d4"/>
        <path id="Path_3830" data-name="Path 3830" d="M98.639,88.613h-.047a.251.251,0,0,1-.2-.292L98.8,86.16l-2.516-.13a.25.25,0,0,1-.24-.261.261.261,0,0,1,.266-.24l2.8.151a.235.235,0,0,1,.183.094.25.25,0,0,1,.047.2l-.459,2.437a.256.256,0,0,1-.245.2Z" fill="#d1d3d4"/>
      </g>
    </g>
  </g>
</svg>
