<svg xmlns="http://www.w3.org/2000/svg" xmlns:xlink="http://www.w3.org/1999/xlink" width="176" height="180" viewBox="0 0 176 180">
  <defs>
    <filter id="Ellipse_45" x="0" y="4" width="176" height="176" filterUnits="userSpaceOnUse">
      <feOffset dy="3" input="SourceAlpha"/>
      <feGaussianBlur stdDeviation="3" result="blur"/>
      <feFlood flood-opacity="0.161"/>
      <feComposite operator="in" in2="blur"/>
      <feComposite in="SourceGraphic"/>
    </filter>
    <filter id="Ellipse_44" x="0" y="4" width="176" height="176" filterUnits="userSpaceOnUse">
      <feOffset dy="3" input="SourceAlpha"/>
      <feGaussianBlur stdDeviation="3" result="blur-2"/>
      <feFlood flood-opacity="0.161"/>
      <feComposite operator="in" in2="blur-2"/>
      <feComposite in="SourceGraphic"/>
    </filter>
    <clipPath id="clip-path">
      <g transform="matrix(1, 0, 0, 1, 0, 0)" filter="url(#Ellipse_45)">
        <circle id="Ellipse_45-2" data-name="Ellipse 45" cx="79" cy="79" r="79" transform="translate(236 1116)" fill="#ba70a3"/>
      </g>
    </clipPath>
  </defs>
  <g id="Group_183" data-name="Group 183" transform="translate(-185.75 -1237)">
    <g transform="matrix(1, 0, 0, 1, 185.75, 1237)" filter="url(#Ellipse_44)">
      <circle id="Ellipse_44-2" data-name="Ellipse 44" cx="79" cy="79" r="79" transform="translate(9 10)" fill="#ba70a3"/>
    </g>
    <g id="Mask_Group_1" data-name="Mask Group 1" transform="translate(-41.25 131)" clip-path="url(#clip-path)">
      <g id="_463_information_carousel_flatline" data-name="#463_information_carousel_flatline" transform="translate(205.021 1112.822)">
        <path id="Path_2605" data-name="Path 2605" d="M66.044,130.8,42.1,117.68c5.5-8.4,5.917-13.2,6.857-19.874,3.019-21.358,24.2-34.99,40.665-46.225a48.736,48.736,0,0,1,4.306-2.711c1.754-.94,6.6-3.849,7.891-1.16,1.226,2.579-1.815,7.275-3.332,9.161a37.526,37.526,0,0,1,3.3-4.251,3.058,3.058,0,0,1,1.485-1.067,2.157,2.157,0,0,1,2.337,1.919,5.517,5.517,0,0,1-.814,3.244,31.663,31.663,0,0,1-4.559,6.72c1.21-1.364,5.681-6.5,5.587-1.3a12.422,12.422,0,0,1-3.8,8.661,22.723,22.723,0,0,1,3.3-2.425,1.518,1.518,0,0,1,1.188-.308,1.424,1.424,0,0,1,.8,1.149c.748,3.332-1.1,5.714-2.376,8.562a59.8,59.8,0,0,1-2.821,6.445c-4.548,7.732-9.282,13.1-14.49,20.407C86.335,106.506,66.115,130.833,66.044,130.8Z" fill="#fff"/>
        <path id="Path_2606" data-name="Path 2606" d="M66.016,131.075a.3.3,0,0,1-.093-.027h0l-23.954-13.11a.28.28,0,0,1-.132-.176.258.258,0,0,1,.038-.22c5.158-7.864,5.818-12.615,6.654-18.631l.159-1.127c2.92-20.654,22.843-34.21,38.856-45.092l1.925-1.314a47.038,47.038,0,0,1,4.333-2.75l.385-.209c1.65-.9,4.707-2.574,6.6-1.958a2.057,2.057,0,0,1,1.27,1.133c.665,1.391.192,3.266-.588,4.949l.121-.137a3.3,3.3,0,0,1,1.65-1.149,1.941,1.941,0,0,1,1.529.324,2.75,2.75,0,0,1,1.144,1.826,5.744,5.744,0,0,1-.836,3.409,32.17,32.17,0,0,1-2.09,3.541c.836-.621,1.617-.962,2.2-.726s.946,1.105.946,2.508a12.648,12.648,0,0,1-2.2,6.83c.412-.286.836-.55,1.27-.819a1.743,1.743,0,0,1,1.408-.335,1.65,1.65,0,0,1,.984,1.353c.61,2.75-.44,4.806-1.551,7.006-.286.55-.55,1.138-.841,1.732-.346.77-.643,1.545-.935,2.293a27.375,27.375,0,0,1-1.9,4.174,134.455,134.455,0,0,1-9.4,13.555c-1.65,2.172-3.354,4.4-5.1,6.874-.841,1.182-8.853,10.866-11.29,13.808-2.618,3.151-5.191,6.252-7.121,8.557C66.615,130.591,66.209,131.075,66.016,131.075ZM42.5,117.6l23.492,12.857c1.65-1.98,19.956-23.866,21.446-25.972,1.754-2.464,3.464-4.713,5.114-6.89a131.036,131.036,0,0,0,9.348-13.5,26.979,26.979,0,0,0,1.864-4.1c.291-.753.594-1.529.946-2.315.264-.6.55-1.188.847-1.754,1.067-2.106,2.073-4.1,1.507-6.637-.082-.374-.258-.841-.6-.946a1.276,1.276,0,0,0-.968.28,22.2,22.2,0,0,0-3.3,2.4.275.275,0,0,1-.385,0,.28.28,0,0,1,0-.385,12.1,12.1,0,0,0,3.778-8.5c0-1.127-.176-1.8-.55-1.958-.731-.286-2.244.858-4.482,3.393l-.044.049h0a.275.275,0,1,1-.407-.363,31.658,31.658,0,0,0,4.471-6.621,5.29,5.29,0,0,0,.781-3.079,2.2,2.2,0,0,0-.913-1.452,1.364,1.364,0,0,0-1.1-.242,2.8,2.8,0,0,0-1.336.979c-.7.781-1.38,1.589-2.018,2.431-.665,1.023-1.226,1.732-1.3,1.815a.275.275,0,0,1-.44-.33c.434-.643.885-1.276,1.358-1.892,1.43-2.2,2.81-5.208,1.958-7a1.523,1.523,0,0,0-.929-.869c-1.677-.55-4.713,1.1-6.175,1.914l-.39.214a47.071,47.071,0,0,0-4.284,2.695l-1.925,1.309c-15.92,10.833-35.744,24.317-38.62,44.729l-.159,1.1C48.238,105.032,47.572,109.772,42.5,117.6Z" fill="#231f20"/>
        <path id="Path_2607" data-name="Path 2607" d="M71.763,144.724l3.4-20.643s-31.773-12.521-32.274-12.8c-.4-.209-11.619,33.445-11.619,33.445Z" fill="#231f20"/>
        <path id="Path_2608" data-name="Path 2608" d="M71.763,145H31.251a.275.275,0,0,1-.258-.363c11.125-33.352,11.608-33.544,11.768-33.61a.3.3,0,0,1,.236,0c.517.258,21.336,8.48,32.268,12.791a.269.269,0,0,1,.17.3l-3.4,20.654A.275.275,0,0,1,71.763,145Zm-40.143-.55H71.51l3.349-20.17c-2.843-1.1-29.106-11.477-31.894-12.648-.94,1.985-7.16,20.313-11.328,32.818Z" fill="#231f20"/>
        <rect id="Rectangle_198" data-name="Rectangle 198" width="54.556" height="92.851" rx="3.668" transform="translate(47.527 35.195) rotate(-16.9)" fill="#231f20"/>
        <path id="Path_2609" data-name="Path 2609" d="M76.987,123.41a3.943,3.943,0,0,1-3.772-2.8L48.331,38.79a3.943,3.943,0,0,1,2.623-4.949L96.14,20.094a3.937,3.937,0,0,1,4.916,2.623L125.928,104.6a3.943,3.943,0,0,1-2.629,4.916h0l-45.18,13.748A3.926,3.926,0,0,1,76.987,123.41ZM97.333,20.522a3.4,3.4,0,0,0-.99.148L51.141,34.4a3.393,3.393,0,0,0-2.26,4.234l24.806,81.8a3.4,3.4,0,0,0,4.234,2.26l45.18-13.748a3.393,3.393,0,0,0,2.277-4.185L100.534,22.931a3.4,3.4,0,0,0-3.244-2.409ZM123.25,109.25Z" fill="#231f20"/>
        <rect id="Rectangle_199" data-name="Rectangle 199" width="48.826" height="72.868" transform="translate(52.553 41.495) rotate(-16.9)" fill="#fff"/>
        <path id="Path_2610" data-name="Path 2610" d="M73.731,111.493a.253.253,0,0,1-.126-.033.264.264,0,0,1-.137-.159L52.29,41.578a.253.253,0,0,1,0-.209.269.269,0,0,1,.159-.132L99.192,27.044a.275.275,0,0,1,.341.181l21.182,69.722a.275.275,0,0,1-.187.346L73.786,111.482A.215.215,0,0,1,73.731,111.493ZM52.9,41.683l21.017,69.194L120.1,96.844,99.087,27.649Z" fill="#231f20"/>
        <path id="Path_2611" data-name="Path 2611" d="M95.4,114.144a2.046,2.046,0,0,1-1.952-1.441l-.654-2.172a2.04,2.04,0,0,1,1.353-2.541l8.524-2.585a2.029,2.029,0,0,1,2.541,1.353l.654,2.2a2.029,2.029,0,0,1-1.353,2.541l-8.524,2.585a1.985,1.985,0,0,1-.588.06Zm7.864-8.282a1.463,1.463,0,0,0-.434.066l-8.523,2.59a1.49,1.49,0,0,0-.99,1.853l.66,2.172a1.49,1.49,0,0,0,1.853.99l8.524-2.59h0a1.479,1.479,0,0,0,.99-1.853l-.66-2.172A1.485,1.485,0,0,0,103.267,105.862Z" fill="#d1d3d4"/>
        <path id="Path_2612" data-name="Path 2612" d="M64.366,34.677a.275.275,0,0,1-.264-.192.28.28,0,0,1,.181-.346l14.792-4.493a.287.287,0,0,1,.165.55l-14.8,4.449Z" fill="#d1d3d4"/>
        <path id="Path_2613" data-name="Path 2613" d="M81.232,29.552a.28.28,0,0,1-.264-.192.275.275,0,0,1,.187-.346l1.985-.6a.275.275,0,1,1,.159.522l-1.985.6a.215.215,0,0,1-.082.011Z" fill="#d1d3d4"/>
        <rect id="Rectangle_201" data-name="Rectangle 201" width="32.813" height="8.342" transform="translate(70.29 89.654) rotate(-16.9)" fill="#fff"/>
        <path id="Path_2615" data-name="Path 2615" d="M72.708,97.916a.325.325,0,0,1-.121-.033.264.264,0,0,1-.132-.165L70.03,89.739a.28.28,0,0,1,.181-.346l31.4-9.535a.275.275,0,0,1,.341.181l2.425,7.985a.28.28,0,0,1,0,.209.286.286,0,0,1-.165.132L72.791,97.883a.215.215,0,0,1-.082.033ZM70.63,89.849,72.9,97.3l30.872-9.376L101.5,80.468Z" fill="#231f20"/>
        <path id="Path_2648" data-name="Path 2648" d="M72.708,97.916a.325.325,0,0,1-.121-.033.264.264,0,0,1-.132-.165L70.03,89.739a.28.28,0,0,1,.181-.346l31.4-9.535a.275.275,0,0,1,.341.181l2.425,7.985a.28.28,0,0,1,0,.209.286.286,0,0,1-.165.132L72.791,97.883a.215.215,0,0,1-.082.033ZM70.63,89.849,72.9,97.3l30.872-9.376L101.5,80.468Z" transform="translate(-3.683 -11.372)" fill="#231f20"/>
        <path id="Path_2651" data-name="Path 2651" d="M72.708,97.916a.325.325,0,0,1-.121-.033.264.264,0,0,1-.132-.165L70.03,89.739a.28.28,0,0,1,.181-.346l31.4-9.535a.275.275,0,0,1,.341.181l2.425,7.985a.28.28,0,0,1,0,.209.286.286,0,0,1-.165.132L72.791,97.883a.215.215,0,0,1-.082.033ZM70.63,89.849,72.9,97.3l30.872-9.376L101.5,80.468Z" transform="translate(-6.981 -22.063)" fill="#231f20"/>
        <path id="Path_2654" data-name="Path 2654" d="M72.708,97.916a.325.325,0,0,1-.121-.033.264.264,0,0,1-.132-.165L70.03,89.739a.28.28,0,0,1,.181-.346l31.4-9.535a.275.275,0,0,1,.341.181l2.425,7.985a.28.28,0,0,1,0,.209.286.286,0,0,1-.165.132L72.791,97.883a.215.215,0,0,1-.082.033ZM70.63,89.849,72.9,97.3l30.872-9.376L101.5,80.468Z" transform="translate(-9.981 -32.754)" fill="#231f20"/>
        <path id="Path_2616" data-name="Path 2616" d="M74.6,91.169a.275.275,0,0,1-.264-.192.28.28,0,0,1,.181-.346l24.2-7.347a.287.287,0,0,1,.165.55l-24.2,7.347Z" fill="#d1d3d4"/>
        <path id="Path_2649" data-name="Path 2649" d="M74.6,91.169a.275.275,0,0,1-.264-.192.28.28,0,0,1,.181-.346l24.2-7.347a.287.287,0,0,1,.165.55l-24.2,7.347Z" transform="translate(-3.683 -11.372)" fill="#d1d3d4"/>
        <path id="Path_2652" data-name="Path 2652" d="M74.6,91.169a.275.275,0,0,1-.264-.192.28.28,0,0,1,.181-.346l24.2-7.347a.287.287,0,0,1,.165.55l-24.2,7.347Z" transform="translate(-6.981 -22.063)" fill="#d1d3d4"/>
        <path id="Path_2655" data-name="Path 2655" d="M74.6,91.169a.275.275,0,0,1-.264-.192.28.28,0,0,1,.181-.346l24.2-7.347a.287.287,0,0,1,.165.55l-24.2,7.347Z" transform="translate(-9.981 -32.754)" fill="#d1d3d4"/>
        <path id="Path_2617" data-name="Path 2617" d="M75.447,93.962a.269.269,0,0,1-.264-.2.275.275,0,0,1,.181-.341l22.6-6.868a.286.286,0,0,1,.159.55l-22.6,6.863a.192.192,0,0,1-.077-.005Z" fill="#d1d3d4"/>
        <path id="Path_2650" data-name="Path 2650" d="M75.447,93.962a.269.269,0,0,1-.264-.2.275.275,0,0,1,.181-.341l22.6-6.868a.286.286,0,0,1,.159.55l-22.6,6.863a.192.192,0,0,1-.077-.005Z" transform="translate(-3.683 -11.372)" fill="#d1d3d4"/>
        <path id="Path_2653" data-name="Path 2653" d="M75.447,93.962a.269.269,0,0,1-.264-.2.275.275,0,0,1,.181-.341l22.6-6.868a.286.286,0,0,1,.159.55l-22.6,6.863a.192.192,0,0,1-.077-.005Z" transform="translate(-6.981 -22.063)" fill="#d1d3d4"/>
        <path id="Path_2656" data-name="Path 2656" d="M75.447,93.962a.269.269,0,0,1-.264-.2.275.275,0,0,1,.181-.341l22.6-6.868a.286.286,0,0,1,.159.55l-22.6,6.863a.192.192,0,0,1-.077-.005Z" transform="translate(-9.981 -32.754)" fill="#d1d3d4"/>
        <circle id="Ellipse_46" data-name="Ellipse 46" cx="3.239" cy="3.239" r="3.239" transform="translate(58.84 45.84)" fill="#d1d3d4"/>
        <path id="Path_2638" data-name="Path 2638" d="M67.5,45a.275.275,0,0,1-.264-.192.28.28,0,0,1,.181-.346l29.645-9a.275.275,0,0,1,.341.181.28.28,0,0,1-.181.346l-29.645,9Z" fill="#d1d3d4"/>
        <path id="Path_2639" data-name="Path 2639" d="M68.254,47.479a.278.278,0,0,1-.082-.55l29.645-8.985a.275.275,0,0,1,.341.181.28.28,0,0,1-.181.346l-29.645,9Z" fill="#d1d3d4"/>
        <path id="Path_2640" data-name="Path 2640" d="M69.008,49.959a.275.275,0,0,1-.264-.192.28.28,0,0,1,.181-.346l26.852-8.177a.269.269,0,0,1,.341.187.264.264,0,0,1-.181.341L69.085,49.948a.187.187,0,0,1-.077.011Z" fill="#d1d3d4"/>
        <path id="Path_2641" data-name="Path 2641" d="M75.37,104.251a.275.275,0,0,1-.264-.192.28.28,0,0,1,.181-.346L114.98,91.658a.275.275,0,0,1,.341.181.28.28,0,0,1-.181.346L75.447,104.24A.2.2,0,0,1,75.37,104.251Z" fill="#d1d3d4"/>
        <path id="Path_2642" data-name="Path 2642" d="M177.273,115.293S164.6,83.948,156.085,72.664c-1.16-1.54-2.75-1.892-3.932-1.21-1.391.8-1.65,3.783-1.65,3.783s-3.365-2.233-5.07-1.93-2.068,2.9-2.068,2.9-3.657-1.457-5.279-.247a5.521,5.521,0,0,0-1.82,3.585s-18.642-16.888-20.72-18.339-6.131.621-4.4,3.514c1.1,1.8,10.371,12.2,13.385,15.513s9.937,12.213,10.608,14.748,1.2,5.395-3.926,5.406-9.733.6-12.1,2.315-4.014,4.438-2.931,5.059,17.443,1.21,24.113,4.4S154.991,126.5,154.991,126.5Z" fill="#fff"/>
        <path id="Path_2643" data-name="Path 2643" d="M155.013,126.791a.269.269,0,0,1-.22-.11c-.082-.11-8.062-11.114-14.594-14.248-4.548-2.2-13.8-3.162-19.324-3.739a24.314,24.314,0,0,1-4.806-.687.957.957,0,0,1-.473-.825c-.06-1.193,1.457-3.3,3.382-4.7,2.15-1.562,6.274-2.359,12.252-2.365,1.831,0,3.052-.39,3.629-1.138.737-.962.423-2.464.033-3.921-.649-2.436-7.413-11.185-10.547-14.633s-12.323-13.748-13.418-15.557a2.579,2.579,0,0,1,.4-3.4,3.7,3.7,0,0,1,4.4-.478c1.93,1.347,17.635,15.54,20.346,18.015a5.389,5.389,0,0,1,1.853-3.255c1.457-1.1,4.289-.231,5.235.1.165-.753.72-2.535,2.2-2.8s3.954,1.155,4.9,1.732c.132-.9.55-2.882,1.727-3.558,1.38-.8,3.1-.28,4.284,1.287,8.436,11.185,21.094,42.381,21.221,42.695a.269.269,0,0,1-.126.346l-22.26,11.224a.253.253,0,0,1-.093.028ZM113.946,61.039a3.393,3.393,0,0,0-2.244.852,2.018,2.018,0,0,0-.3,2.75c1.056,1.754,10.289,12.1,13.352,15.469,2.816,3.1,9.953,12.153,10.674,14.847.423,1.589.759,3.239-.126,4.4-.7.907-2.029,1.347-4.069,1.353-5.856,0-9.871.77-11.927,2.26-1.919,1.391-3.206,3.343-3.156,4.223a.412.412,0,0,0,.2.379,33.849,33.849,0,0,0,4.586.616c5.56.583,14.847,1.562,19.511,3.789,6.252,3.008,13.533,12.7,14.66,14.237l21.82-11c-1.182-2.909-13.049-31.724-21.056-42.343-1.006-1.336-2.442-1.787-3.569-1.138-1.045.6-1.441,2.75-1.512,3.569a.269.269,0,0,1-.423.2c-.033,0-3.3-2.161-4.867-1.881-1.49.264-1.842,2.645-1.848,2.667a.275.275,0,0,1-.132.2.286.286,0,0,1-.242,0c-.033,0-3.53-1.386-5.015-.286a5.346,5.346,0,0,0-1.71,3.387.269.269,0,0,1-.17.236.275.275,0,0,1-.286-.055c-.187-.17-18.653-16.893-20.693-18.317A2.508,2.508,0,0,0,113.946,61.039Z" fill="#231f20"/>
        <path id="Path_2644" data-name="Path 2644" d="M188.711,144.724c-2.843-8.655-11.548-36.453-11.944-36.294s-27.6,13.1-27.6,13.1l1.65,23.217Z" fill="#231f20"/>
        <path id="Path_2645" data-name="Path 2645" d="M188.711,145h-37.9a.275.275,0,0,1-.275-.258l-1.65-23.211a.28.28,0,0,1,.159-.269c1.1-.522,27.116-12.835,27.605-13.055a.308.308,0,0,1,.231,0c.385.17,1.606,3.679,8.5,25.3,1.485,4.647,2.75,8.655,3.585,11.158a.275.275,0,0,1-.258.363Zm-37.646-.55h37.267c-.825-2.519-2.057-6.373-3.47-10.806-3.14-9.827-7.391-23.14-8.188-24.839-2.447,1.149-25.021,11.828-27.215,12.873Z" fill="#231f20"/>
        <path id="Path_2646" data-name="Path 2646" d="M47.022,107.82s4.922-36.992,9.172-40.962c5.048-4.707,9.645-7.908,10.487-5.213s1.65,7.176-5.268,12.224l1.006,8.974s6.791,4.691,3.255,19.5" fill="#fff"/>
        <path id="Path_2647" data-name="Path 2647" d="M47.022,108.073h-.033a.253.253,0,0,1-.214-.286c.2-1.512,4.982-37.13,9.249-41.111,4.878-4.553,8.188-6.648,9.838-6.208a1.507,1.507,0,0,1,1.061,1.1c1.914,6.12-1.765,9.854-5.246,12.422l.979,8.716c.858.654,6.6,5.67,3.261,19.692a.246.246,0,1,1-.478-.115c3.453-14.473-3.09-19.186-3.156-19.247a.236.236,0,0,1-.1-.176l-1.012-8.974a.236.236,0,0,1,.1-.231C67.7,68.947,67.413,64.8,66.45,61.7a1.023,1.023,0,0,0-.715-.764c-1.43-.374-4.751,1.787-9.348,6.093-4.135,3.849-9.046,40.44-9.1,40.808a.253.253,0,0,1-.269.236Z" fill="#231f20"/>
      </g>
    </g>
    <g id="Group_120" data-name="Group 120" transform="translate(-10.25 515)">
      <path id="Subtraction_1" data-name="Subtraction 1" d="M-13047.155,41.891h0a20.948,20.948,0,0,1-13.393-6.773A20.954,20.954,0,0,1-13066,21a20.865,20.865,0,0,1,6.15-14.849A20.861,20.861,0,0,1-13045,0a20.885,20.885,0,0,1,14.673,5.976,20.882,20.882,0,0,1,6.32,14.489,78.93,78.93,0,0,0-23.146,21.425Z" transform="translate(13266 722)" fill="#483d7f"/>
      <text id="_1" data-name="1" transform="translate(221 749)" fill="#fff" font-size="17" font-family="Poppins-Regular, Poppins"><tspan x="-2.72" y="0">1</tspan></text>
    </g>
  </g>
</svg>
