<svg xmlns="http://www.w3.org/2000/svg" xmlns:xlink="http://www.w3.org/1999/xlink" width="176" height="179" viewBox="0 0 176 179">
  <defs>
    <filter id="Ellipse_102" x="0" y="2" width="176" height="176" filterUnits="userSpaceOnUse">
      <feOffset dy="3" input="SourceAlpha"/>
      <feGaussianBlur stdDeviation="3" result="blur"/>
      <feFlood flood-opacity="0.161"/>
      <feComposite operator="in" in2="blur"/>
      <feComposite in="SourceGraphic"/>
    </filter>
    <filter id="Ellipse_147" x="0" y="3" width="176" height="176" filterUnits="userSpaceOnUse">
      <feOffset dy="3" input="SourceAlpha"/>
      <feGaussianBlur stdDeviation="3" result="blur-2"/>
      <feFlood flood-opacity="0.161"/>
      <feComposite operator="in" in2="blur-2"/>
      <feComposite in="SourceGraphic"/>
    </filter>
    <clipPath id="clip-path">
      <g transform="matrix(1, 0, 0, 1, 0, 0)" filter="url(#Ellipse_102)">
        <circle id="Ellipse_102-2" data-name="Ellipse 102" cx="79" cy="79" r="79" transform="translate(785 1439)" fill="#ba70a3"/>
      </g>
    </clipPath>
  </defs>
  <g id="Group_179" data-name="Group 179" transform="translate(-980.75 -1220.5)">
    <g transform="matrix(1, 0, 0, 1, 980.75, 1220.5)" filter="url(#Ellipse_147)">
      <circle id="Ellipse_147-2" data-name="Ellipse 147" cx="79" cy="79" r="79" transform="translate(9 9)" fill="#ba70a3"/>
    </g>
    <g id="Group_123" data-name="Group 123" transform="translate(783.254 498.5)">
      <path id="Subtraction_1" data-name="Subtraction 1" d="M-13047.155,41.891h0a20.948,20.948,0,0,1-13.393-6.773A20.954,20.954,0,0,1-13066,21a20.865,20.865,0,0,1,6.15-14.849A20.861,20.861,0,0,1-13045,0a20.885,20.885,0,0,1,14.673,5.976,20.882,20.882,0,0,1,6.32,14.489,78.93,78.93,0,0,0-23.146,21.425Z" transform="translate(13266 722)" fill="#483d7f"/>
      <text id="_4" data-name="4" transform="translate(221 749)" fill="#fff" font-size="17" font-family="Poppins-Regular, Poppins"><tspan x="-5.347" y="0">4</tspan></text>
    </g>
    <g id="Mask_Group_16" data-name="Mask Group 16" transform="translate(204.75 -210.5)" clip-path="url(#clip-path)">
      <g id="_519_analytics_process_flatline" data-name="#519_analytics_process_flatline" transform="translate(736.561 1422.406)">
        <path id="Path_3831" data-name="Path 3831" d="M150.825,65.479s6.952.325,17.115,8.863,13.878,14.426,13.878,14.426V55s-12.9-14.955-29.948-20.645Z" fill="#e6e7e8"/>
        <path id="Path_3832" data-name="Path 3832" d="M181.818,89.087a.306.306,0,0,1-.268-.147c-.038-.057-3.823-5.958-13.814-14.356s-16.86-8.787-16.93-8.787a.325.325,0,0,1-.3-.331l1.013-31.1a.312.312,0,0,1,.14-.249.3.3,0,0,1,.28-.045c16.962,5.652,29.987,20.594,30.12,20.747a.3.3,0,0,1,.076.2V88.794a.319.319,0,0,1-.229.306Zm-30.668-23.9c1.485.166,7.946,1.274,16.994,8.921a83.247,83.247,0,0,1,13.381,13.662V55.143c-1.09-1.23-13.439-14.866-29.356-20.333Z" fill="#231f20"/>
        <path id="Path_3833" data-name="Path 3833" d="M77.675,77.267V47.2A92.3,92.3,0,0,1,114.059,42.3v28.84S91.789,71.749,77.675,77.267Z" fill="#e6e7e8"/>
        <path id="Path_3834" data-name="Path 3834" d="M77.681,77.585a.382.382,0,0,1-.185-.051.338.338,0,0,1-.134-.268V47.2a.312.312,0,0,1,.2-.293A93.49,93.49,0,0,1,114.1,41.979a.319.319,0,0,1,.293.319V71.131a.306.306,0,0,1-.306.319c-.223,0-22.4.682-36.32,6.117A.364.364,0,0,1,77.681,77.585ZM78,47.427V76.808c13.107-4.983,33.039-5.881,35.76-5.983V42.6A93.127,93.127,0,0,0,78,47.427Z" fill="#231f20"/>
        <path id="Path_3835" data-name="Path 3835" d="M82.008,72.316a.3.3,0,0,1-.191-.064A.306.306,0,0,1,81.689,72V50.632a.319.319,0,0,1,.319-.319.325.325,0,0,1,.319.319V71.564c2.887-.9,19.192-5.862,25.278-4.6a.325.325,0,1,1-.127.637C101.1,66.281,82.294,72.252,82.1,72.316Z" fill="#231f20"/>
        <path id="Path_3836" data-name="Path 3836" d="M63.72,93.981a28.978,28.978,0,0,0-14.93,17.791V85.187S48.555,72.3,63.72,64.121Z" fill="#e6e7e8"/>
        <path id="Path_3837" data-name="Path 3837" d="M48.758,112.09h-.045a.312.312,0,0,1-.274-.312V85.187c0-.127,0-13.171,15.1-21.346a.331.331,0,0,1,.319,0,.319.319,0,0,1,.153.274V93.974a.319.319,0,0,1-.2.293,28.891,28.891,0,0,0-14.745,17.6A.319.319,0,0,1,48.758,112.09ZM63.369,64.663c-14.305,7.978-14.305,20.39-14.305,20.518v24.672A29.6,29.6,0,0,1,63.357,93.777Zm.319,29.311Z" fill="#231f20"/>
        <path id="Path_3838" data-name="Path 3838" d="M48.758,85.187s2.657,11.559,12.884,15.388v31.108s-11.654-8.067-12.884-19.912Z" fill="#fff"/>
        <path id="Path_3839" data-name="Path 3839" d="M61.643,132a.3.3,0,0,1-.178-.057c-.121-.083-11.795-8.284-13.018-20.142V85.187a.321.321,0,0,1,.637-.07c0,.108,2.746,11.438,12.687,15.165a.319.319,0,0,1,.2.293v31.108a.319.319,0,0,1-.172.28A.293.293,0,0,1,61.643,132ZM49.064,87.252v24.519c1.051,10.144,10.017,17.58,12.247,19.282V100.8C53.805,97.874,50.339,90.75,49.064,87.252Z" fill="#231f20"/>
        <path id="Path_3840" data-name="Path 3840" d="M186.362,110.172c-1.2.236-53.1,24.214-53.1,24.214s-20.314-7.411-20.785-7.175,51.167-21.289,51.167-21.289Z" fill="#fff"/>
        <path id="Path_3841" data-name="Path 3841" d="M133.258,134.7a.3.3,0,0,1-.108,0c-7.844-2.861-19.817-7.13-20.639-7.162V127.5c-.242.051-.268,0-.331-.147a.319.319,0,0,1,.153-.414h.038c.7-.255,50.638-21.072,51.142-21.282a.306.306,0,0,1,.185,0l22.723,4.25a.331.331,0,0,1,.261.312.312.312,0,0,1-.255.312c-1.153.293-35.193,15.93-53.034,24.214a.331.331,0,0,1-.134-.051ZM113.5,127.134c1.835.516,6.671,2.128,19.753,6.9,5.391-2.491,44.884-20.722,51.983-23.755l-21.556-4.033L138.2,116.869l-17.587,7.321-5.8,2.409Z" fill="#231f20"/>
        <path id="Path_3842" data-name="Path 3842" d="M133.258,131.422h-.1L119.354,127.2a.312.312,0,0,1-.223-.287.325.325,0,0,1,.191-.312l39.048-16.363a.319.319,0,0,1,.4.134l4.065,7.175a.325.325,0,0,1,0,.255.287.287,0,0,1-.172.191l-29.311,13.439A.332.332,0,0,1,133.258,131.422Zm-12.878-4.588,12.859,3.932,28.872-13.241-3.753-6.652Z" fill="#d1d3d4"/>
        <path id="Path_3843" data-name="Path 3843" d="M111.268,27.826a11.3,11.3,0,0,0-4.46,2.128c-1.274.918-2.549,2.345-2.122,3.823.172.567.573,1.217.217,1.689-.242.312-.695.338-1.083.4a4.135,4.135,0,0,0-2.364,6.965,5,5,0,0,0-4.683,5.6,7.9,7.9,0,0,0,.72,2.065,6.167,6.167,0,0,1,.981,3.46,2.231,2.231,0,0,0-2.39,2.383,4,4,0,0,0,2.16,3.052,2.58,2.58,0,0,0-1.835,2.976,4.976,4.976,0,0,0,2.217,3.065,9.781,9.781,0,0,0,8.921,1.141,3.556,3.556,0,0,0,2.313,2.619,9.7,9.7,0,0,0,3.613.465c2.281,0,4.766-.2,6.455-1.74.382-.344.726-.9.472-1.344-.312-.548-1.319-.554-1.376-1.179a8.749,8.749,0,0,0,4.715-1.746,4.269,4.269,0,0,0,1.867-2.912,2.836,2.836,0,0,0-1.166-2.453c.949-.835,2-2.045,1.5-3.186-.408-.93-1.682-1.568-1.415-2.491a4.55,4.55,0,0,0,1.37-7.462,4.543,4.543,0,0,0-.121-8.57,3.313,3.313,0,0,0-2.855-5.04,1.867,1.867,0,0,0-.58-2.517,3.874,3.874,0,0,0-2.778-.446c-1.58.229-2.651.675-4.078,0A6.349,6.349,0,0,0,111.268,27.826Z" fill="#fff"/>
        <path id="Path_3844" data-name="Path 3844" d="M113.167,69.971a9.227,9.227,0,0,1-3.428-.491,3.976,3.976,0,0,1-2.434-2.491,10.055,10.055,0,0,1-8.863-1.274A5.333,5.333,0,0,1,96.1,62.446a3.071,3.071,0,0,1,1.434-3.129,4.033,4.033,0,0,1-1.765-2.937,2.759,2.759,0,0,1,.975-2.217,2.02,2.02,0,0,1,1.446-.561,6.015,6.015,0,0,0-.835-2.663l-.147-.306a8.188,8.188,0,0,1-.746-2.147,5.059,5.059,0,0,1,1.2-4.065,5.187,5.187,0,0,1,3.186-1.842,4.46,4.46,0,0,1,2.957-7.009h.127c.312-.045.637-.083.746-.261s.057-.523-.121-.988c-.051-.14-.1-.274-.147-.414-.548-1.835,1.166-3.415,2.243-4.193a11.393,11.393,0,0,1,4.581-2.179h0a6.738,6.738,0,0,1,4.4.784,4.441,4.441,0,0,0,2.957.115c.3-.057.605-.115.937-.166a4.1,4.1,0,0,1,3.008.5,2.409,2.409,0,0,1,.981,1.58,1.911,1.911,0,0,1-.1.873,3.632,3.632,0,0,1,2.8,5.155,4.855,4.855,0,0,1,.21,8.863,4.875,4.875,0,0,1-1.625,7.576c0,.331.242.637.637,1.09a3.893,3.893,0,0,1,.758,1.032c.433.988,0,2.1-1.274,3.32a3.148,3.148,0,0,1,1,2.485,4.588,4.588,0,0,1-1.994,3.148,9.15,9.15,0,0,1-4.3,1.759l.223.108a1.765,1.765,0,0,1,.828.637,1.466,1.466,0,0,1-.535,1.74c-1.733,1.574-4.231,1.8-6.671,1.822Zm-5.626-3.7a.319.319,0,0,1,.319.274,3.186,3.186,0,0,0,2.109,2.364,9.4,9.4,0,0,0,3.492.446c2.313,0,4.671-.229,6.251-1.657.3-.274.561-.688.408-.956a1.325,1.325,0,0,0-.554-.382c-.363-.172-.816-.4-.867-.918a.338.338,0,0,1,.076-.236A.319.319,0,0,1,119,65.09a8.417,8.417,0,0,0,4.543-1.682,3.971,3.971,0,0,0,1.74-2.683,2.5,2.5,0,0,0-1.032-2.166.312.312,0,0,1-.134-.242.306.306,0,0,1,.108-.255c1.274-1.115,1.752-2.071,1.415-2.842a3.6,3.6,0,0,0-.637-.86c-.459-.5-.981-1.064-.777-1.822a.319.319,0,0,1,.185-.21,4.231,4.231,0,0,0,1.274-6.939.314.314,0,0,1,.108-.529,4.225,4.225,0,0,0-.108-7.971.312.312,0,0,1-.2-.191.3.3,0,0,1,0-.274,3,3,0,0,0-2.549-4.556h0a.325.325,0,0,1-.287-.178.338.338,0,0,1,.032-.338,1.166,1.166,0,0,0,.2-.9,1.791,1.791,0,0,0-.714-1.153,3.485,3.485,0,0,0-2.549-.389c-.325.045-.637.1-.911.153a4.945,4.945,0,0,1-3.345-.166,6.182,6.182,0,0,0-4.021-.733,10.934,10.934,0,0,0-4.327,2.071c-.752.548-2.453,1.982-2,3.5.038.121.083.242.134.37a1.593,1.593,0,0,1-.013,1.587,1.619,1.619,0,0,1-1.16.5h-.127a3.823,3.823,0,0,0-2.179,6.429.312.312,0,0,1,.064.344.325.325,0,0,1-.293.191,4.69,4.69,0,0,0-4.378,5.212,7.646,7.646,0,0,0,.714,1.975l.147.3a5.723,5.723,0,0,1,.867,3.345.3.3,0,0,1-.134.21.312.312,0,0,1-.249.051,1.5,1.5,0,0,0-1.274.376,2.147,2.147,0,0,0-.752,1.676,3.645,3.645,0,0,0,2,2.791.319.319,0,0,1-.108.593,2.27,2.27,0,0,0-1.568,2.613,4.69,4.69,0,0,0,2.084,2.855,9.392,9.392,0,0,0,8.634,1.121.363.363,0,0,1,.115,0Zm3.728-38.423Z" fill="#231f20"/>
        <path id="Path_3845" data-name="Path 3845" d="M128.587,67.881s18.332,23.576,19.422,23.71c0,0,19.352-2.721,20.556-4.626s2.549-1.376,2.549-1.376,1.185-2.294,2.676-2.549,6.155,2.549,3.441,4.365-26.8,16.988-30.069,17.332c-10.354,1.07-20.263-23.761-19.116-27.055Z" fill="#fff"/>
        <path id="Path_3846" data-name="Path 3846" d="M146.556,105.061c-3.084,0-6.41-2.154-9.673-6.276-5.646-7.13-9.9-18.664-9.118-21.187l.516-9.736a.312.312,0,0,1,.223-.287.319.319,0,0,1,.344.108c7.079,9.106,17.944,22.767,19.218,23.576,7.43-1.045,19.422-3.186,20.244-4.46,1.013-1.606,2.16-1.657,2.676-1.568.357-.637,1.434-2.268,2.785-2.549,1.223-.236,3.9,1.211,4.511,2.721a1.72,1.72,0,0,1-.835,2.217c-2.077,1.37-26.762,17.026-30.216,17.383A6,6,0,0,1,146.556,105.061Zm-17.682-36.32-.472,8.921a.2.2,0,0,1,0,.083c-.7,2.014,3.186,13.3,9,20.633,2.345,2.957,5.945,6.372,9.781,6,3.116-.325,26.444-14.974,29.948-17.281.637-.414.822-.892.593-1.453a4.915,4.915,0,0,0-3.823-2.332c-1.1.21-2.147,1.81-2.46,2.409a.312.312,0,0,1-.4.147c-.038,0-1.141-.4-2.179,1.274-1.274,1.975-18.791,4.46-20.785,4.766a.185.185,0,0,1-.083,0c-1.083-.153-13.337-15.72-19.129-23.162Zm-.79,8.921Z" fill="#231f20"/>
        <path id="Path_3847" data-name="Path 3847" d="M115,61.522s-8.284-3.352-18.4,5.333c-4.556,3.874-5.48,8.112-7.392,12.457,1.536,14.528,6.85,39.659,6.85,39.659h34.664s2.8-21.072,3.823-33.772c.637-7.9-2.976-13.814-4.849-16.95C126.484,62.815,115,61.522,115,61.522Z" fill="#68e1fd"/>
        <path id="Path_3848" data-name="Path 3848" d="M109.6,63.395c.637,1.217,11.2,28.884,11.2,28.884V66.4Z" fill="#231f20"/>
        <path id="Path_3849" data-name="Path 3849" d="M120.8,92.6a.319.319,0,0,1-.3-.2c-.1-.274-10.565-27.667-11.183-28.852a.319.319,0,0,1,.37-.452l11.2,3a.319.319,0,0,1,.236.312V92.279a.312.312,0,0,1-.261.312ZM110.159,63.879c1.5,3.645,8.22,21.181,10.323,26.673V66.645Z" fill="#231f20"/>
        <path id="Path_3850" data-name="Path 3850" d="M124.948,40.367l.523,1.759c.229.784.9,1.058,1.192,1.708a10.583,10.583,0,0,1,.223,2.855,19.753,19.753,0,0,1-.408,5.779,6.506,6.506,0,0,1-5.168,4.913l-.242,7.857s-.089,4.021-5,3.243a8.456,8.456,0,0,1-6.461-5.1l-.07-10.2c0-1.09-.433-3.135,0-4.167s2.313-1.669,3.141-2.644a7.576,7.576,0,0,0,1.822-4.6A4.76,4.76,0,0,0,118.9,39.3a4.307,4.307,0,0,0,5.964.675Z" fill="#fff"/>
        <path id="Path_3851" data-name="Path 3851" d="M117.245,68.9a7.933,7.933,0,0,1-1.274-.108,8.691,8.691,0,0,1-6.71-5.282.325.325,0,0,1,0-.108l-.07-10.233c0-.319-.045-.739-.083-1.185a7.632,7.632,0,0,1,.076-3.1,4.3,4.3,0,0,1,1.8-1.663,6.289,6.289,0,0,0,1.4-1.077,7.194,7.194,0,0,0,1.746-4.4.319.319,0,0,1,.1-.223.274.274,0,0,1,.236-.083,4.422,4.422,0,0,0,4.084-2.307.312.312,0,0,1,.261-.166.325.325,0,0,1,.28.127,4,4,0,0,0,5.505.637.319.319,0,0,1,.3-.064.325.325,0,0,1,.21.217l.121.4h0l.523,1.759a2.154,2.154,0,0,0,.573.854,2.867,2.867,0,0,1,.637.816,5.8,5.8,0,0,1,.242,2.256c0,.261,0,.5,0,.714a19.868,19.868,0,0,1-.414,5.875,6.9,6.9,0,0,1-5.161,5.1l-.242,7.6a3.97,3.97,0,0,1-1.338,2.759,4.206,4.206,0,0,1-2.8.886Zm-7.321-5.563a8.194,8.194,0,0,0,6.194,4.824,4.38,4.38,0,0,0,3.511-.637,3.39,3.39,0,0,0,1.115-2.294l.249-7.882a.331.331,0,0,1,.28-.312,6.143,6.143,0,0,0,4.894-4.645,19.186,19.186,0,0,0,.4-5.69c0-.217,0-.472,0-.746a5.537,5.537,0,0,0-.185-1.988,2.415,2.415,0,0,0-.484-.637,2.715,2.715,0,0,1-.726-1.109l-.516-1.733a4.677,4.677,0,0,1-5.735-.637,5.142,5.142,0,0,1-4.142,2.2,7.9,7.9,0,0,1-1.912,4.46,6.716,6.716,0,0,1-1.5,1.274c-.637.427-1.357.867-1.555,1.364a7.5,7.5,0,0,0-.038,2.8c.045.459.089.9.089,1.274Z" fill="#231f20"/>
        <path id="Path_3852" data-name="Path 3852" d="M112.262,49.134s-2.256-5.531-5.1-2.179,1.026,7.251,3.46,7.009" fill="#fff"/>
        <path id="Path_3853" data-name="Path 3853" d="M110.395,54.289a5.08,5.08,0,0,1-4.033-2.785,4.059,4.059,0,0,1,.561-4.754,2.715,2.715,0,0,1,2.428-1.166c1.912.306,3.154,3.3,3.186,3.428a.319.319,0,1,1-.586.242s-1.16-2.791-2.721-3.039a2.076,2.076,0,0,0-1.842.949,3.447,3.447,0,0,0-.478,4.046,4.345,4.345,0,0,0,3.664,2.434.32.32,0,1,1,.064.637,1.8,1.8,0,0,1-.242.006Z" fill="#231f20"/>
        <path id="Path_3854" data-name="Path 3854" d="M122.533,52.588a6.684,6.684,0,0,1-1.663-.249.332.332,0,1,1,.185-.637,4.009,4.009,0,0,0,2.281.083c.147-.319-.835-2.224-2.128-4.046a.325.325,0,0,1,.076-.446.319.319,0,0,1,.446.076c.58.828,2.466,3.594,2.2,4.588a.637.637,0,0,1-.319.4,2.549,2.549,0,0,1-1.083.229Z" fill="#231f20"/>
        <path id="Path_3855" data-name="Path 3855" d="M120.584,54.971a5.193,5.193,0,0,1-1.357-.178,5.824,5.824,0,0,1-3.256-2.383.319.319,0,0,1,.172-.421.325.325,0,0,1,.414.172,5.244,5.244,0,0,0,2.95,2.039,5.589,5.589,0,0,0,4.766-1.274.319.319,0,0,1,.389.5,6.7,6.7,0,0,1-4.078,1.542Z" fill="#231f20"/>
        <path id="Path_3856" data-name="Path 3856" d="M121.31,57.38a23.114,23.114,0,0,1-6.6-.3s2.434,6.276,6.423,6.372Z" fill="#231f20"/>
        <path id="Path_3857" data-name="Path 3857" d="M121.132,63.771h0c-4.155-.1-6.614-6.308-6.716-6.576a.306.306,0,0,1,.064-.325.331.331,0,0,1,.325-.1,22.857,22.857,0,0,0,6.487.287.312.312,0,0,1,.242.089.287.287,0,0,1,.1.242l-.178,6.066A.319.319,0,0,1,121.132,63.771Zm-5.875-6.232c.682,1.466,2.7,5.244,5.569,5.569l.159-5.384a23.933,23.933,0,0,1-5.728-.185Z" fill="#231f20"/>
        <ellipse id="Ellipse_121" data-name="Ellipse 121" cx="0.618" cy="1.083" rx="0.618" ry="1.083" transform="translate(118.029 45.905) rotate(-1.146)" fill="#231f20"/>
        <ellipse id="Ellipse_122" data-name="Ellipse 122" cx="0.618" cy="1.083" rx="0.618" ry="1.083" transform="translate(123.71 45.791) rotate(-1.146)" fill="#231f20"/>
        <path id="Path_3858" data-name="Path 3858" d="M117.245,49.115c-1.854,0-1.95-.127-2.033-.229s-.242-.319-.3-3.728a.319.319,0,0,1,.306-.319,64.353,64.353,0,0,1,6.474-.229.325.325,0,0,1,.223.325l-.255,3.779a.319.319,0,0,1-.306.293C119.411,49.064,118.1,49.115,117.245,49.115Zm-1.555-.688c.6.076,3.033.038,5.321-.051l.217-3.186c-.924,0-3.728.134-5.7.229a29.121,29.121,0,0,0,.166,3.008Z" fill="#231f20"/>
        <path id="Path_3859" data-name="Path 3859" d="M128.931,49.007h-5.875a.312.312,0,0,1-.319-.312l-.032-3.785a.319.319,0,0,1,.312-.319c6.021-.057,6.2,0,6.264,0a.325.325,0,0,1,.223.325l-.255,3.779a.312.312,0,0,1-.319.312Zm-5.556-.637h5.263l.21-3.186h-5.505Z" fill="#231f20"/>
        <path id="Path_3860" data-name="Path 3860" d="M123.024,46.853h-1.459a.319.319,0,1,1,0-.637h1.459a.319.319,0,0,1,0,.637Z" fill="#231f20"/>
        <path id="Path_3861" data-name="Path 3861" d="M103.9,85.187s-1.752,17.319-.9,21.48l29.063,4.091s7.449-.293,11.036.988c2.2.784,6.187,4.218,5.467,5.3s-2.689,2.421-4.46,1.912-6.754-2.1-6.754-2.1,3.881,3.511,1.548,3.275a13.659,13.659,0,0,1-4.913-1.873s-16.147,3.065-26.482,2.549c-12.744-.637-18.167-3.658-19.607-11.2s.083-27.208,1.344-30.3" fill="#fff"/>
        <path id="Path_3862" data-name="Path 3862" d="M110.032,121.189c-.886,0-1.746,0-2.549-.064-13.043-.675-18.434-3.779-19.9-11.47s.121-27.438,1.364-30.484a.317.317,0,1,1,.586.242c-1.217,3-2.753,22.614-1.325,30.12,1.4,7.315,6.627,10.278,19.307,10.934,10.2.523,26.253-2.491,26.412-2.549a.325.325,0,0,1,.229.045,13.648,13.648,0,0,0,4.773,1.822.733.733,0,0,0,.408,0c.07-.287-.969-1.58-2.2-2.689a.319.319,0,0,1,.312-.542c.045,0,4.97,1.6,6.735,2.084,1.6.44,3.46-.784,4.135-1.8a.465.465,0,0,0,0-.357c-.414-1.274-3.435-3.823-5.3-4.46-3.492-1.274-10.832-.969-10.915-.969l-29.12-4.091a.319.319,0,0,1-.268-.255c-.854-4.161.822-20.868.892-21.576a.32.32,0,0,1,.637.064c0,.166-1.676,16.739-.943,21.168l28.84,4.059c.249,0,7.493-.287,11.1,1,1.912.682,5.174,3.313,5.69,4.862a1,1,0,0,1-.064.9c-.8,1.2-2.925,2.593-4.836,2.065-1.2-.338-3.868-1.172-5.467-1.682.8.847,1.618,1.912,1.357,2.485-.14.312-.491.44-1.039.382a13.547,13.547,0,0,1-4.938-1.848C132.537,118.87,119.7,121.189,110.032,121.189Z" fill="#231f20"/>
        <path id="Path_3863" data-name="Path 3863" d="M103.9,85.506h-.032a.325.325,0,0,1-.261-.37l2.275-12.642a.324.324,0,0,1,.637.115l-2.268,12.642A.325.325,0,0,1,103.9,85.506Z" fill="#231f20"/>
        <path id="Path_3864" data-name="Path 3864" d="M150.06,130.46V84.537s39.659-1.523,56.074-17.944v47.465S189.72,127.44,150.06,130.46Z" fill="#68e1fd"/>
        <path id="Path_3865" data-name="Path 3865" d="M150.06,130.779a.338.338,0,0,1-.217-.083.331.331,0,0,1-.1-.236V84.537a.319.319,0,0,1,.306-.319c.4,0,39.723-1.708,55.844-17.842a.338.338,0,0,1,.35-.07.319.319,0,0,1,.2.3v47.452a.306.306,0,0,1-.121.249c-.159.134-16.93,13.483-56.233,16.5Zm.319-45.942v45.279c37.149-2.918,53.875-15.057,55.436-16.236V67.365c-15.847,15.063-51.741,17.287-55.436,17.472Z" fill="#231f20"/>
        <path id="Path_3866" data-name="Path 3866" d="M68.047,147.461V115.97s17.619,11.642,43.967,9.048v30.726S94.758,160.963,68.047,147.461Z" fill="#fff"/>
        <path id="Path_3867" data-name="Path 3867" d="M102.825,157.012c-7.723,0-19.868-1.657-34.925-9.265a.331.331,0,0,1-.172-.287V115.97a.325.325,0,0,1,.166-.28.312.312,0,0,1,.325,0c.178.115,17.842,11.552,43.756,9a.325.325,0,0,1,.242.076.331.331,0,0,1,.1.236v30.726a.319.319,0,0,1-.223.306A35.9,35.9,0,0,1,102.825,157.012Zm-34.46-9.743c24.551,12.349,41.208,8.749,43.33,8.214V125.35c-23.538,2.211-40.284-7.009-43.33-8.825Z" fill="#231f20"/>
        <path id="Path_3868" data-name="Path 3868" d="M159.3,121.992a.325.325,0,0,1-.217-.083.331.331,0,0,1-.1-.236V88.959a.319.319,0,0,1,.287-.319c2.045-.2,9.953-1.147,10.036-1.153a.325.325,0,0,1,.249.076.306.306,0,0,1,.108.236v32.089a.319.319,0,0,1-.2.293c-2.944,1.274-9.851,1.791-10.144,1.81Zm.319-32.746v32.083c1.415-.121,6.831-.637,9.405-1.65V88.163c-1.523.178-7.321.867-9.424,1.083Z" fill="#231f20"/>
        <path id="Path_3869" data-name="Path 3869" d="M175.542,118.647a.312.312,0,0,1-.2-.076.338.338,0,0,1-.115-.242V92.936a.319.319,0,0,1,.268-.312,51.944,51.944,0,0,0,9.972-2.848.312.312,0,0,1,.3,0,.325.325,0,0,1,.14.268v24.851a.319.319,0,0,1-.172.28,37.6,37.6,0,0,1-10.138,3.473Zm.319-25.443v24.742a37.466,37.466,0,0,0,9.405-3.25V90.546a52.671,52.671,0,0,1-9.4,2.657Z" fill="#231f20"/>
        <path id="Path_3870" data-name="Path 3870" d="M191.326,112.944a.319.319,0,0,1-.2-.064.325.325,0,0,1-.121-.255V94.592a.319.319,0,0,1,.242-.306,29.852,29.852,0,0,0,8.921-3.881.325.325,0,0,1,.331,0,.319.319,0,0,1,.172.287v18.237a.319.319,0,0,1-.147.268,34.664,34.664,0,0,1-9.125,3.766Zm.319-18.1v17.376a34.129,34.129,0,0,0,8.392-3.485V91.253a31.3,31.3,0,0,1-8.392,3.587Z" fill="#231f20"/>
        <path id="Path_3871" data-name="Path 3871" d="M188.178,82.919a.321.321,0,0,1-.076-.637,41.176,41.176,0,0,0,12.744-6.015.325.325,0,0,1,.446.064.319.319,0,0,1-.064.446,41.942,41.942,0,0,1-12.98,6.123Z" fill="#fff"/>
        <path id="Path_3872" data-name="Path 3872" d="M193.664,84.582a.325.325,0,0,1-.127-.637l1.115-.5a24.016,24.016,0,0,0,6.194-3.511.319.319,0,0,1,.408.484,24.908,24.908,0,0,1-6.34,3.613l-1.115.491A.345.345,0,0,1,193.664,84.582Z" fill="#fff"/>
        <path id="Path_3873" data-name="Path 3873" d="M58.864,106.234a.344.344,0,0,1-.178-.051,36.645,36.645,0,0,1-8.347-8.1.319.319,0,0,1,.07-.44.325.325,0,0,1,.446.07,35.951,35.951,0,0,0,8.182,7.933.325.325,0,0,1,.089.446A.319.319,0,0,1,58.864,106.234Z" fill="#d1d3d4"/>
        <path id="Path_3874" data-name="Path 3874" d="M58.864,112.09a.344.344,0,0,1-.178-.051,36.645,36.645,0,0,1-8.347-8.1.319.319,0,0,1,.07-.44.325.325,0,0,1,.446.07,35.951,35.951,0,0,0,8.182,7.94.325.325,0,0,1,.089.446A.319.319,0,0,1,58.864,112.09Z" fill="#d1d3d4"/>
        <path id="Path_3875" data-name="Path 3875" d="M58.864,117.946a.344.344,0,0,1-.178-.051,36.645,36.645,0,0,1-8.347-8.1.319.319,0,0,1,.07-.44.325.325,0,0,1,.446.07,35.951,35.951,0,0,0,8.169,7.933.325.325,0,0,1,.089.446.319.319,0,0,1-.249.14Z" fill="#d1d3d4"/>
        <path id="Path_3876" data-name="Path 3876" d="M176.555,77.585a.306.306,0,0,1-.242-.108c-6.7-7.7-19.709-15.554-19.836-15.631a.325.325,0,0,1-.153-.274V40.781a.319.319,0,0,1,.319-.319.325.325,0,0,1,.319.319V61.394c1.5.918,13.458,8.341,19.836,15.669a.319.319,0,0,1,0,.446.344.344,0,0,1-.242.076Z" fill="#231f20"/>
        <path id="Path_3877" data-name="Path 3877" d="M169.533,63.988a1.389,1.389,0,0,1-.637-.153c-1.134-.567-1.453-2.638-1.791-4.83a13.523,13.523,0,0,0-1.058-4.193.637.637,0,0,0-.567-.389c-1.771-.064-5.486,4.773-6.78,6.64a.319.319,0,0,1-.523-.357c.491-.714,4.855-6.92,7.27-6.92h.057a1.274,1.274,0,0,1,1.1.7,13.527,13.527,0,0,1,1.134,4.416c.3,1.912.605,3.932,1.446,4.358a1.217,1.217,0,0,0,1.128-.153,12.617,12.617,0,0,0,3.581-2.957,15.019,15.019,0,0,1,4.053-3.352.319.319,0,0,1,.433.121.325.325,0,0,1-.127.433,14.477,14.477,0,0,0-3.887,3.231,13.438,13.438,0,0,1-3.753,3.09,2.332,2.332,0,0,1-1.077.312Z" fill="#231f20"/>
        <path id="Path_3878" data-name="Path 3878" d="M87.876,70.6a.319.319,0,0,1-.319-.319V52.289a.319.319,0,0,1,.223-.306,23.366,23.366,0,0,1,3.7-.835.287.287,0,0,1,.242.083.3.3,0,0,1,.108.236V69.092a.325.325,0,0,1-.319.319.319.319,0,0,1-.319-.319V51.823a23.346,23.346,0,0,0-3,.7V70.277A.319.319,0,0,1,87.876,70.6Z" fill="#231f20"/>
        <path id="Path_3879" data-name="Path 3879" d="M102.952,151.016h0a.325.325,0,0,1-.287-.21l-7.009-19.549-7.723,15.038a.331.331,0,0,1-.255.172.312.312,0,0,1-.28-.127l-7.646-10-4.83,7.666a.325.325,0,0,1-.433.108l-4.11-2.479a.312.312,0,0,1-.108-.433.319.319,0,0,1,.44-.108l3.823,2.307,4.875-7.812a.331.331,0,0,1,.255-.153.306.306,0,0,1,.268.127l7.646,9.966,7.838-15.242a.319.319,0,0,1,.58.038L103,149.844l3.371-7.137a.319.319,0,1,1,.573.274l-3.721,7.857a.331.331,0,0,1-.274.178Z" fill="#d1d3d4"/>
        <circle id="Ellipse_123" data-name="Ellipse 123" cx="0.975" cy="0.975" r="0.975" transform="translate(73.679 142.873)" fill="#fff"/>
        <path id="Path_3880" data-name="Path 3880" d="M74.654,145.141a1.274,1.274,0,1,1,1.274-1.274A1.274,1.274,0,0,1,74.654,145.141Zm0-1.95a.637.637,0,1,0,.637.637A.637.637,0,0,0,74.654,143.191Z" fill="#d1d3d4"/>
        <circle id="Ellipse_124" data-name="Ellipse 124" cx="0.975" cy="0.975" r="0.975" transform="translate(78.72 134.806)" fill="#fff"/>
        <path id="Path_3881" data-name="Path 3881" d="M79.695,137.074a1.274,1.274,0,1,1,1.274-1.274A1.274,1.274,0,0,1,79.695,137.074Zm0-1.95a.637.637,0,1,0,.637.637A.637.637,0,0,0,79.695,135.124Z" fill="#d1d3d4"/>
        <circle id="Ellipse_125" data-name="Ellipse 125" cx="0.975" cy="0.975" r="0.975" transform="translate(94.713 129.485)" fill="#fff"/>
        <path id="Path_3882" data-name="Path 3882" d="M95.688,131.754a1.274,1.274,0,1,1,1.274-1.274A1.274,1.274,0,0,1,95.688,131.754Zm0-1.95a.637.637,0,1,0,.637.637A.637.637,0,0,0,95.688,129.8Z" fill="#d1d3d4"/>
        <circle id="Ellipse_126" data-name="Ellipse 126" cx="0.975" cy="0.975" r="0.975" transform="translate(101.977 149.723)" fill="#fff"/>
        <path id="Path_3883" data-name="Path 3883" d="M102.952,151.991a1.274,1.274,0,1,1,1.274-1.274A1.274,1.274,0,0,1,102.952,151.991Zm0-1.95a.656.656,0,1,0,.656.656A.656.656,0,0,0,102.952,150.041Z" fill="#d1d3d4"/>
        <circle id="Ellipse_127" data-name="Ellipse 127" cx="0.975" cy="0.975" r="0.975" transform="translate(86.646 145.173)" fill="#fff"/>
        <path id="Path_3884" data-name="Path 3884" d="M87.621,147.442a1.274,1.274,0,1,1,1.274-1.274A1.274,1.274,0,0,1,87.621,147.442Zm0-1.95a.637.637,0,1,0,.637.637A.637.637,0,0,0,87.621,145.492Z" fill="#d1d3d4"/>
        <path id="Path_3885" data-name="Path 3885" d="M154.655,136.017c-13.018,6.442-27.215,6.55-27.215,6.55V163.41a57.29,57.29,0,0,0,27.215-5.913Z" fill="#fff"/>
        <path id="Path_3886" data-name="Path 3886" d="M129.116,163.76h-1.682a.325.325,0,0,1-.312-.319V142.567a.319.319,0,0,1,.319-.319c.14,0,14.273-.185,27.075-6.519a.338.338,0,0,1,.312,0,.319.319,0,0,1,.147.268v21.48a.312.312,0,0,1-.172.287A57.615,57.615,0,0,1,129.116,163.76Zm-1.357-.637a57.048,57.048,0,0,0,26.578-5.792v-20.8c-11.737,5.665-24.43,6.283-26.578,6.372Z" fill="#231f20"/>
        <path id="Path_3887" data-name="Path 3887" d="M133.812,151.348a7.685,7.685,0,1,0,15.363,0h-7.716v-7.678a7.685,7.685,0,0,0-7.646,7.678Z" fill="#68e1fd"/>
        <path id="Path_3888" data-name="Path 3888" d="M142.733,142.535v7.685h7.646a7.685,7.685,0,0,0-7.647-7.685Z" fill="#e6e7e8"/>
        <path id="Path_3889" data-name="Path 3889" d="M167.583,136.66a.312.312,0,0,1-.312-.261.325.325,0,0,1,.255-.376c.153,0,15.121-2.8,23.646-7.564a.319.319,0,1,1,.306.554c-8.615,4.811-23.685,7.615-23.838,7.646Z" fill="#d1d3d4"/>
        <path id="Path_3890" data-name="Path 3890" d="M167.583,142.306a.32.32,0,1,1-.057-.637c.153-.032,15.121-2.81,23.646-7.57a.319.319,0,1,1,.306.554c-8.615,4.817-23.685,7.615-23.838,7.646Z" fill="#d1d3d4"/>
        <path id="Path_3891" data-name="Path 3891" d="M167.583,147.951a.32.32,0,1,1-.057-.637c.153,0,15.121-2.81,23.646-7.57a.325.325,0,0,1,.433.121.319.319,0,0,1-.127.433c-8.615,4.817-23.685,7.615-23.838,7.646Z" fill="#d1d3d4"/>
        <path id="Path_3892" data-name="Path 3892" d="M167.583,153.6a.32.32,0,1,1-.057-.637,125.2,125.2,0,0,0,12.891-3.218.325.325,0,0,1,.4.21.319.319,0,0,1-.21.4,125.717,125.717,0,0,1-12.967,3.218Z" fill="#d1d3d4"/>
        <path id="Path_3893" data-name="Path 3893" d="M70.544,88.118a.312.312,0,0,1-.274-.153.325.325,0,0,1,.115-.44c4.32-2.549,13.152-4.416,13.528-4.492a.312.312,0,0,1,.376.242.319.319,0,0,1-.242.382c-.1,0-9.112,1.912-13.343,4.422a.363.363,0,0,1-.159.038Z" fill="#d1d3d4"/>
        <path id="Path_3894" data-name="Path 3894" d="M70.544,91.317a.319.319,0,0,1-.159-.593c4.32-2.549,13.152-4.416,13.528-4.46a.326.326,0,1,1,.134.637c-.1,0-9.112,1.912-13.343,4.422a.3.3,0,0,1-.159-.006Z" fill="#d1d3d4"/>
        <path id="Path_3895" data-name="Path 3895" d="M70.544,94.516a.319.319,0,0,1-.274-.159.325.325,0,0,1,.115-.44c4.32-2.549,13.152-4.416,13.528-4.46a.325.325,0,0,1,.376.249.312.312,0,0,1-.242.376c-.1,0-9.112,1.912-13.343,4.422a.376.376,0,0,1-.159.013Z" fill="#d1d3d4"/>
        <path id="Path_3896" data-name="Path 3896" d="M70.544,97.708a.319.319,0,0,1-.159-.593,37.072,37.072,0,0,1,7.99-3.1.331.331,0,1,1,.178.637,36.881,36.881,0,0,0-7.825,3.014A.3.3,0,0,1,70.544,97.708Z" fill="#d1d3d4"/>
      </g>
    </g>
  </g>
</svg>
