<svg xmlns="http://www.w3.org/2000/svg" xmlns:xlink="http://www.w3.org/1999/xlink" width="176" height="179" viewBox="0 0 176 179">
  <defs>
    <filter id="Ellipse_104" x="0" y="3" width="176" height="176" filterUnits="userSpaceOnUse">
      <feOffset dy="3" input="SourceAlpha"/>
      <feGaussianBlur stdDeviation="3" result="blur"/>
      <feFlood flood-opacity="0.161"/>
      <feComposite operator="in" in2="blur"/>
      <feComposite in="SourceGraphic"/>
    </filter>
    <filter id="Ellipse_71" x="0" y="3" width="176" height="176" filterUnits="userSpaceOnUse">
      <feOffset dy="3" input="SourceAlpha"/>
      <feGaussianBlur stdDeviation="3" result="blur-2"/>
      <feFlood flood-opacity="0.161"/>
      <feComposite operator="in" in2="blur-2"/>
      <feComposite in="SourceGraphic"/>
    </filter>
    <clipPath id="clip-path">
      <g transform="matrix(1, 0, 0, 1, 0, 0)" filter="url(#Ellipse_104)">
        <circle id="Ellipse_104-2" data-name="Ellipse 104" cx="79" cy="79" r="79" transform="translate(1056 1450)" fill="#ba70a3"/>
      </g>
    </clipPath>
  </defs>
  <g id="Group_180" data-name="Group 180" transform="translate(-310.75 -1472.5)">
    <g transform="matrix(1, 0, 0, 1, 310.75, 1472.5)" filter="url(#Ellipse_71)">
      <circle id="Ellipse_71-2" data-name="Ellipse 71" cx="79" cy="79" r="79" transform="translate(9 9)" fill="#ba70a3"/>
    </g>
    <g id="Group_124" data-name="Group 124" transform="translate(113.758 750.5)">
      <path id="Subtraction_1" data-name="Subtraction 1" d="M-13047.155,41.891h0a20.948,20.948,0,0,1-13.393-6.773A20.954,20.954,0,0,1-13066,21a20.865,20.865,0,0,1,6.15-14.849A20.861,20.861,0,0,1-13045,0a20.885,20.885,0,0,1,14.673,5.976,20.882,20.882,0,0,1,6.32,14.489,78.93,78.93,0,0,0-23.146,21.425Z" transform="translate(13266 722)" fill="#483d7f"/>
      <text id="_7" data-name="7" transform="translate(221 749)" fill="#fff" font-size="17" font-family="Poppins-Regular, Poppins"><tspan x="-4.641" y="0">7</tspan></text>
    </g>
    <g id="Mask_Group_18" data-name="Mask Group 18" transform="translate(-736.25 31.5)" clip-path="url(#clip-path)">
      <g id="_013" data-name="013" transform="translate(1013.425 1438.147)">
        <path id="Path_3960" data-name="Path 3960" d="M95.175,137.544a132.516,132.516,0,0,0-34.3-11.307c6.133-4.067,6.48-14.48,7.507-21.768,3.307-23.391,26.509-38.333,44.551-50.642a53.4,53.4,0,0,1,4.717-2.966c1.915-1.027,7.246-4.207,8.644-1.27,1.343,2.827-1.988,7.969-3.647,10.042a40.826,40.826,0,0,1,3.647-4.662,3.313,3.313,0,0,1,1.623-1.167,2.348,2.348,0,0,1,2.559,2.1,6.152,6.152,0,0,1-.888,3.556,35.154,35.154,0,0,1-5,7.361c1.325-1.5,6.225-7.124,6.121-1.429a13.635,13.635,0,0,1-4.164,9.489,25.179,25.179,0,0,1,3.647-2.662,1.666,1.666,0,0,1,1.3-.334,1.568,1.568,0,0,1,.875,1.258c.815,3.647-1.216,6.261-2.6,9.38a64.032,64.032,0,0,1-3.094,7.057c-4.985,8.474-10.273,16.8-15.975,24.807C109.229,116.426,95.248,137.581,95.175,137.544Z" fill="#fff"/>
        <path id="Path_3961" data-name="Path 3961" d="M95.157,137.854a.231.231,0,0,1-.116-.036h0a132.14,132.14,0,0,0-34.223-11.282.3.3,0,0,1-.116-.547c5.161-3.422,6.164-11.7,6.972-18.346.134-1.118.261-2.194.407-3.216,3.2-22.625,25.026-37.476,42.551-49.414l2.109-1.435a53.221,53.221,0,0,1,4.741-2.985l.426-.231c1.824-.985,5.161-2.814,7.24-2.14a2.255,2.255,0,0,1,1.4,1.216c.723,1.526.213,3.568-.638,5.44.036-.049.079-.091.122-.14a3.6,3.6,0,0,1,1.8-1.246,2.134,2.134,0,0,1,1.672.353,3.039,3.039,0,0,1,1.258,2.006,6.366,6.366,0,0,1-.918,3.732,36.312,36.312,0,0,1-2.28,3.872c.912-.681,1.763-1.046,2.431-.79s1.046,1.167,1.015,2.723a13.853,13.853,0,0,1-2.365,7.453c.456-.316.912-.608,1.38-.894a1.933,1.933,0,0,1,1.55-.365,1.781,1.781,0,0,1,1.076,1.483c.669,3-.48,5.27-1.7,7.677-.31.608-.608,1.246-.924,1.9-.377.845-.705,1.69-1.021,2.511a30.3,30.3,0,0,1-2.085,4.571c-5.41,9.2-10.638,17.324-15.987,24.832-.711,1-4.48,6.687-8.127,12.158l-5.082,7.629C95.692,137.38,95.37,137.854,95.157,137.854Zm-33.53-11.781A132.516,132.516,0,0,1,95.06,137.161c.705-1.015,4.006-5.975,7.209-10.784,3.647-5.471,7.416-11.155,8.139-12.158,5.337-7.5,10.553-15.6,15.957-24.783a29.926,29.926,0,0,0,2.042-4.492c.316-.821.65-1.678,1.033-2.535.292-.663.608-1.3.93-1.921,1.173-2.31,2.273-4.486,1.653-7.295-.091-.407-.286-.918-.669-1.039a1.429,1.429,0,0,0-1.052.31,25.355,25.355,0,0,0-3.6,2.626.3.3,0,0,1-.407-.45,13.215,13.215,0,0,0,4.067-9.27c0-1.216-.195-1.976-.608-2.146q-1.194-.456-4.906,3.714l-.055.067a.3.3,0,0,1-.432,0,.292.292,0,0,1,0-.426h0a34.648,34.648,0,0,0,4.942-7.295,5.821,5.821,0,0,0,.857-3.368,2.431,2.431,0,0,0-1-1.593,1.508,1.508,0,0,0-1.216-.261,3.106,3.106,0,0,0-1.465,1.07c-.766.857-1.508,1.745-2.2,2.662-.736,1.125-1.349,1.9-1.422,1.988a.31.31,0,0,1-.419.055.3.3,0,0,1-.073-.413c.474-.711.973-1.4,1.489-2.079,1.568-2.432,3.076-5.7,2.146-7.659a1.678,1.678,0,0,0-1.039-.924c-1.824-.608-5.161,1.216-6.76,2.1l-.426.231A51.67,51.67,0,0,0,113.1,54.1l-2.109,1.435C93.552,67.4,71.845,82.173,68.684,104.53c-.146,1.015-.274,2.091-.407,3.2C67.474,114.232,66.514,122.286,61.626,126.073Z" fill="#231f20"/>
        <rect id="Rectangle_240" data-name="Rectangle 240" width="48.557" height="96.792" rx="3.094" transform="translate(67.952 23.46) rotate(-13.83)" fill="#fff"/>
        <path id="Path_3962" data-name="Path 3962" d="M93.339,117.107a3.422,3.422,0,0,1-1.757-.492,3.349,3.349,0,0,1-1.538-2.1L68.392,26.54a3.4,3.4,0,0,1,2.486-4.109L112.019,12.3a3.4,3.4,0,0,1,4.115,2.486l21.653,87.978a3.41,3.41,0,0,1-2.492,4.115L94.154,117A3.362,3.362,0,0,1,93.339,117.107Zm19.5-104.293a2.839,2.839,0,0,0-.675.079L71.024,23.02a2.79,2.79,0,0,0-2.042,3.374l21.653,87.978a2.79,2.79,0,0,0,3.374,2.042l41.141-10.121h0a2.8,2.8,0,0,0,2.049-3.38L115.545,14.936a2.784,2.784,0,0,0-2.705-2.121Z" fill="#231f20"/>
        <rect id="Rectangle_241" data-name="Rectangle 241" width="43.457" height="74.495" transform="translate(72.514 31.345) rotate(-13.83)" fill="#68e1fd"/>
        <rect id="Rectangle_242" data-name="Rectangle 242" width="12.072" height="6.966" rx="1.903" transform="translate(106.427 103.45) rotate(-13.83)" fill="#fff"/>
        <path id="Path_3963" data-name="Path 3963" d="M109.478,110.129a2.207,2.207,0,0,1-2.14-1.684l-.76-3.07a2.213,2.213,0,0,1,1.623-2.644l8.03-1.976a2.213,2.213,0,0,1,2.669,1.617l.754,3.039a2.207,2.207,0,0,1-1.617,2.669h0l-8.012,1.982A2.249,2.249,0,0,1,109.478,110.129Zm7.295-8.857a1.7,1.7,0,0,0-.389.049L108.36,103.3a1.586,1.586,0,0,0-.985.723,1.6,1.6,0,0,0-.182,1.216l.754,3.039a1.6,1.6,0,0,0,1.933,1.173l8.024-1.976a1.6,1.6,0,0,0,1.173-1.933l-.754-3.039a1.587,1.587,0,0,0-.723-.985,1.568,1.568,0,0,0-.845-.243Zm1.216,6.523Z" fill="#e6e7e8"/>
        <path id="Path_3964" data-name="Path 3964" d="M84.774,23.944a.31.31,0,0,1-.28-.237.3.3,0,0,1,.225-.371l12.012-2.954a.3.3,0,0,1,.371.219.31.31,0,0,1-.225.371L84.866,23.926Z" fill="#e6e7e8"/>
        <path id="Path_3965" data-name="Path 3965" d="M98.476,20.571a.3.3,0,0,1-.292-.231.31.31,0,0,1,.219-.371l1.617-.4a.313.313,0,0,1,.146.608l-1.617.4Z" fill="#e6e7e8"/>
        <rect id="Rectangle_243" data-name="Rectangle 243" width="34.005" height="10.103" rx="4.127" transform="translate(90.705 84.933) rotate(-13.83)" fill="#fff"/>
        <path id="Path_3966" data-name="Path 3966" d="M96.129,94.221a4.431,4.431,0,0,1-4.292-3.374L91.4,89.023a4.438,4.438,0,0,1,3.24-5.361l25.008-6.152A4.425,4.425,0,0,1,125,80.75l.444,1.824a4.431,4.431,0,0,1-3.24,5.355h0L97.2,94.063a4.558,4.558,0,0,1-1.07.158Zm24.582-16.206a3.958,3.958,0,0,0-.918.116L94.786,84.252a3.817,3.817,0,0,0-2.8,4.626l.438,1.824a3.83,3.83,0,0,0,4.626,2.8l25.008-6.158a3.824,3.824,0,0,0,2.8-4.62l-.444-1.824a3.842,3.842,0,0,0-3.7-2.912Zm1.422,9.629Z" fill="#231f20"/>
        <rect id="Rectangle_244" data-name="Rectangle 244" width="34.005" height="6.109" transform="translate(85.702 64.778) rotate(-13.83)" fill="#fff"/>
        <circle id="Ellipse_138" data-name="Ellipse 138" cx="1.027" cy="1.027" r="1.027" transform="translate(89.212 66.003)" fill="#68e1fd"/>
        <circle id="Ellipse_139" data-name="Ellipse 139" cx="1.027" cy="1.027" r="1.027" transform="translate(92.981 65.079)" fill="#68e1fd"/>
        <circle id="Ellipse_140" data-name="Ellipse 140" cx="1.027" cy="1.027" r="1.027" transform="translate(96.743 64.149)" fill="#68e1fd"/>
        <circle id="Ellipse_141" data-name="Ellipse 141" cx="1.027" cy="1.027" r="1.027" transform="translate(100.512 63.225)" fill="#68e1fd"/>
        <rect id="Rectangle_245" data-name="Rectangle 245" width="34.005" height="6.109" transform="translate(88.079 74.452) rotate(-13.83)" fill="#fff"/>
        <circle id="Ellipse_142" data-name="Ellipse 142" cx="1.027" cy="1.027" r="1.027" transform="translate(91.589 75.674)" fill="#68e1fd"/>
        <circle id="Ellipse_143" data-name="Ellipse 143" cx="1.027" cy="1.027" r="1.027" transform="translate(95.357 74.744)" fill="#68e1fd"/>
        <circle id="Ellipse_144" data-name="Ellipse 144" cx="1.027" cy="1.027" r="1.027" transform="translate(99.126 73.82)" fill="#68e1fd"/>
        <circle id="Ellipse_145" data-name="Ellipse 145" cx="1.027" cy="1.027" r="1.027" transform="translate(102.889 72.896)" fill="#68e1fd"/>
        <circle id="Ellipse_146" data-name="Ellipse 146" cx="1.447" cy="1.447" r="1.447" transform="translate(96.446 42.077)" fill="#68e1fd"/>
        <rect id="Rectangle_247" data-name="Rectangle 247" width="0.808" height="3.374" transform="translate(97.565 43.885) rotate(-13.83)" fill="#68e1fd"/>
        <path id="Path_3969" data-name="Path 3969" d="M66.909,114.609s4.748-39.713,9.4-44.059c5.532-5.161,10.571-8.662,11.495-5.714s1.781,7.866-5.781,13.373l1.106,9.829S90.573,93.2,86.7,109.418" fill="#fff"/>
        <path id="Path_3970" data-name="Path 3970" d="M66.909,114.889h-.043a.28.28,0,0,1-.243-.31c.195-1.623,4.814-39.858,9.489-44.223,5.349-4.991,8.978-7.295,10.778-6.8a1.647,1.647,0,0,1,1.167,1.216c2.1,6.687-1.933,10.79-5.744,13.6l1.076,9.55c.936.717,7.234,6.212,3.568,21.574a.274.274,0,0,1-.334.207.286.286,0,0,1-.207-.334c3.787-15.853-3.38-21.014-3.453-21.063a.3.3,0,0,1-.115-.2l-1.106-9.829a.28.28,0,0,1,.109-.255c7.045-5.155,6.735-9.726,5.678-13.088a1.131,1.131,0,0,0-.778-.839c-1.562-.413-5.2,1.957-10.255,6.687-4.529,4.225-9.27,43.487-9.319,43.883a.274.274,0,0,1-.267.225Z" fill="#231f20"/>
        <path id="Path_3971" data-name="Path 3971" d="M43.311,141.149l18.206-22.09,37.609,16.589L88.045,160.078Z" fill="#231f20"/>
        <line id="Line_15" data-name="Line 15" x2="28.297" y2="14.571" transform="translate(60.873 126.238)" fill="#231f20"/>
        <path id="Path_3972" data-name="Path 3972" d="M183.189,133.344S169.038,105.5,158.376,92.95c-1.459-1.714-3.313-2-4.626-1.112-1.544,1.046-1.6,4.553-1.6,4.553s-4.048-2.346-5.988-1.86-2.164,3.556-2.164,3.556-4.322-1.429-6.079.109a6.648,6.648,0,0,0-1.824,4.34s-22.789-18.315-25.3-19.865-7.015,1.216-4.79,4.45c1.38,2.018,12.881,13.471,16.6,17.112s12.376,13.519,13.373,16.413,1.793,6.219-4.115,6.626-11.167,1.459-13.756,3.647-4.292,5.5-3,6.152,22.181-1.739,30.114,1.5,18.236,15.063,18.236,15.063Z" fill="#fff"/>
        <path id="Path_3973" data-name="Path 3973" d="M163.452,153.957h0a.316.316,0,0,1-.225-.1c-.1-.122-10.37-11.811-18.139-14.978-5.434-2.219-17.172-1.763-24.187-1.489-3.8.146-5.471.2-5.945,0a1.106,1.106,0,0,1-.608-.906c-.164-1.386,1.422-3.963,3.532-5.744,2.365-1.994,7.051-3.24,13.939-3.714,2.1-.146,3.477-.681,4.091-1.6.8-1.216.316-2.936-.243-4.626-.936-2.8-9.4-12.516-13.276-16.309S107.144,89.358,105.77,87.3a3.039,3.039,0,0,1,.231-4.03,4.252,4.252,0,0,1,4.966-.851c2.334,1.429,21.567,16.869,24.862,19.519a6.334,6.334,0,0,1,1.878-3.969c1.6-1.386,4.948-.608,6.079-.28.128-.881.608-3.039,2.346-3.459s4.668,1.058,5.781,1.653c.085-1.039.413-3.416,1.714-4.3,1.532-1.039,3.55-.571,5.027,1.167,10.565,12.425,24.71,40.168,24.856,40.448a.316.316,0,0,1-.055.353l-19.738,20.309A.334.334,0,0,1,163.452,153.957ZM130.3,136.541c5.659,0,11.55.359,15,1.769,7.367,3,16.583,13.13,18.157,14.893l19.355-19.914c-1.283-2.5-14.619-28.315-24.68-40.12-1.258-1.483-2.954-1.909-4.219-1.058-1.155.79-1.453,3.374-1.471,4.31a.3.3,0,0,1-.152.255.3.3,0,0,1-.3,0c-.043,0-3.963-2.28-5.763-1.824-1.7.426-1.927,3.258-1.933,3.283a.3.3,0,0,1-.4.267c-.043,0-4.182-1.349-5.811.055a6.344,6.344,0,0,0-1.72,4.115.31.31,0,0,1-.176.267.3.3,0,0,1-.316-.036c-.231-.182-22.783-18.321-25.245-19.835a3.584,3.584,0,0,0-4.206.754,2.432,2.432,0,0,0-.176,3.264c1.349,1.976,12.765,13.373,16.565,17.069,3.483,3.41,12.389,13.452,13.428,16.552.608,1.824,1.125,3.738.17,5.155-.736,1.1-2.225,1.714-4.559,1.872-6.753.462-11.319,1.666-13.58,3.568-2.109,1.781-3.447,4.176-3.325,5.21a.5.5,0,0,0,.267.438,38.479,38.479,0,0,0,5.653-.043c2.729-.1,6.006-.267,9.434-.267Z" fill="#231f20"/>
        <path id="Path_3974" data-name="Path 3974" d="M181.135,125.3l-28.753,23.452,14.261,21.105,33.2-27.567Z" fill="#231f20"/>
        <rect id="Rectangle_248" data-name="Rectangle 248" width="36.868" height="27.202" transform="translate(139.532 26.819)" fill="#fff"/>
        <path id="Path_3975" data-name="Path 3975" d="M176.4,54.326H139.532a.3.3,0,0,1-.3-.3v-27.2a.3.3,0,0,1,.3-.3H176.4a.3.3,0,0,1,.3.3v27.2A.3.3,0,0,1,176.4,54.326Zm-36.564-.608H176.1V27.123H139.811Z" fill="#e6e7e8"/>
        <path id="Path_3976" data-name="Path 3976" d="M170.6,35.457a4.184,4.184,0,0,1-.359.486L157.507,48.66a.717.717,0,0,1-1.216,0l-7.149-7.4a.7.7,0,0,1,.043-1.149l1.824-1.617a.681.681,0,0,1,1.076,0l4.255,4.316a.717.717,0,0,0,1.216,0l9.9-9.848a.711.711,0,0,1,1.179,0c.559.565,1.119,1.125,1.672,1.69a4.514,4.514,0,0,1,.346.474Z" fill="#68e1fd"/>
        <path id="Path_3977" data-name="Path 3977" d="M139.2,68.951a.316.316,0,0,1-.3-.28.31.31,0,0,1,.274-.328,10,10,0,0,0,7.295-3.751c3.969-5.094,2.711-13.616,2.7-13.7a.3.3,0,0,1,.255-.346.31.31,0,0,1,.346.255c.055.359,1.313,8.863-2.821,14.163a10.723,10.723,0,0,1-7.72,3.988Z" fill="#e6e7e8"/>
        <path id="Path_3978" data-name="Path 3978" d="M90.2,143.69a.329.329,0,0,1-.128,0L58.806,129.1a.3.3,0,1,1,.255-.547l31.263,14.589a.3.3,0,0,1,.146.407A.3.3,0,0,1,90.2,143.69Z" fill="#fff"/>
        <path id="Path_3979" data-name="Path 3979" d="M158.431,152.577a.31.31,0,0,1-.243-.122.3.3,0,0,1,.061-.425l24.759-18.9a.3.3,0,1,1,.371.48l-24.765,18.941a.292.292,0,0,1-.182.03Z" fill="#fff"/>
        <text id="Welcome" transform="matrix(0.978, -0.208, 0.208, 0.978, 98.881, 50.522)" fill="#fff" font-size="8" font-family="Poppins-Regular, Poppins"><tspan x="-18.956" y="0">Welcome</tspan></text>
      </g>
    </g>
  </g>
</svg>
