<svg xmlns="http://www.w3.org/2000/svg" width="274.727" height="152.201" viewBox="0 0 274.727 152.201">
  <g id="Group_195" data-name="Group 195" transform="translate(-1024.272 -569.059)">
    <path id="Path_8" data-name="Path 8" d="M22.016,0H252.71a22.016,22.016,0,0,1,22.016,22.016V130.184A22.016,22.016,0,0,1,252.71,152.2H22.016A22.016,22.016,0,0,1,0,130.184V22.016A22.016,22.016,0,0,1,22.016,0Z" transform="translate(1024.272 569.059)" fill="#695da1"/>
    <path id="Intersection_2" data-name="Intersection 2" d="M0,58C.256,25.922,26.573,0,59,0s58.743,25.922,59,58Z" transform="translate(1078 663)" fill="rgba(140,127,202,0.59)"/>
    <path id="Intersection_1" data-name="Intersection 1" d="M1.443,134A114.848,114.848,0,0,1,0,115.814C0,51.852,52.69,0,117.685,0A119.274,119.274,0,0,1,155,5.943V111a23,23,0,0,1-23,23Z" transform="translate(1144 587)" fill="rgba(140,127,202,0.74)"/>
    <path id="Path_7" data-name="Path 7" d="M180.56,665.29s46.987-7.739,72.238,11.017,28.221,64.143,28.221,64.143H196.881a24.413,24.413,0,0,1-11.563-7.439,23.931,23.931,0,0,1-4.443-12.478c-.365-8-.1-23.7-.536-32.793C180.56,676.144,180.56,665.29,180.56,665.29Z" transform="translate(844.258 -20.264)" fill="rgba(140,127,202,0.61)"/>
    <text id="Sampai_Tujuan" data-name="Sampai Tujuan" transform="translate(1065 699)" fill="#fff" font-size="16" font-family="SegoeUI-Semilight, Segoe UI" font-weight="300"><tspan x="0" y="0">Sampai Tujuan</tspan></text>
    <g id="package" transform="translate(1062 598.91)">
      <g id="Group_140" data-name="Group 140" transform="translate(0 24.45)">
        <path id="Path_3985" data-name="Path 3985" d="M65.937,32.609c0-.007,0-.014,0-.022,0-.029,0-.057-.006-.085,0-.01,0-.021,0-.031,0-.026-.009-.051-.015-.076l-.008-.03c-.007-.027-.016-.054-.026-.08,0-.005,0-.01,0-.015l-2.62-6.707a1.739,1.739,0,0,0-1.63-1.113H56.852a.942.942,0,1,0,0,1.883h4.68l2.085,5.338H43.9l-1.235-5.338h7.281a.942.942,0,1,0,0-1.883H11.858a1.739,1.739,0,0,0-1.63,1.113L7.608,32.27c0,.005,0,.01,0,.015-.01.026-.018.053-.026.08l-.008.03c-.006.025-.011.051-.015.076,0,.01,0,.021,0,.031,0,.028-.005.056-.006.085,0,.007,0,.014,0,.022s0,0,0,0V46.445a.942.942,0,1,0,1.883,0V33.554H29.384V47.866a1.425,1.425,0,0,0,2.369,1.066l4.987-4.418,4.987,4.418A1.425,1.425,0,0,0,44.1,47.866V33.554H64.054V75.786a1.227,1.227,0,0,1-1.225,1.225H45.565c0-.011,0-.021,0-.032,0-.084,0-.169-.011-.253a3.388,3.388,0,0,0,3.988-4.589c-.033-.079-.07-.155-.108-.23l-.021-.041q-.057-.107-.12-.21l-.025-.039c-.045-.07-.091-.139-.141-.2l0,0c-.049-.065-.1-.128-.155-.19l-.029-.034q-.08-.089-.166-.172l-.034-.032c-.06-.056-.121-.111-.185-.163l-.007-.005c-.063-.051-.128-.1-.195-.145l-.036-.025q-.1-.067-.2-.127l-.017-.011a3.39,3.39,0,0,0-.636-5.556q-.148-.078-.305-.142L32.5,58.833l6.821-2.111a3.093,3.093,0,0,0,2.037-3.858,3.023,3.023,0,0,0-1.033-1.492,3.17,3.17,0,0,0-2.6-.61l-.013,0c-.052.012-5.281,1.188-10.743,2.252l-.711.138-.55.105-.155.029-.926.174-.358.066c-6.859,1.264-8.785,1.286-9.32,1.214h-.006l-.024,0-.015,0-.011,0a.731.731,0,0,1-.079-.018l-.154-.063.192-.471a1.862,1.862,0,0,0-.008-1.435,1.9,1.9,0,0,0-.176-.326,1.861,1.861,0,0,0-.844-.683L8.765,49.677A1.874,1.874,0,0,0,6.322,50.7L.138,65.87a1.877,1.877,0,0,0,1.028,2.443l5.057,2.062a1.874,1.874,0,0,0,2.443-1.028l.046-.114,1.166.475h0a10.343,10.343,0,0,1,3.032,1.909q.243.22.471.454t.442.484q.107.125.209.253a12.234,12.234,0,0,0,4.913,3.666l1.312.535H10.652a1.227,1.227,0,0,1-1.225-1.225V73.4a.942.942,0,0,0-1.883,0v2.382a3.112,3.112,0,0,0,3.108,3.108H24.879L37.008,83.84a3.387,3.387,0,0,0,4.647-3.5,3.5,3.5,0,0,0,1.878-.249,3.357,3.357,0,0,0,1.457-1.2H62.829a3.112,3.112,0,0,0,3.108-3.108V32.613A.034.034,0,0,1,65.937,32.609ZM32.745,26.333h7.99l1.235,5.338H31.51Zm-3.168,5.338H9.864l2.085-5.338H30.813ZM42.214,46.847h0l-4.528-4.012a1.426,1.426,0,0,0-1.889,0l-4.528,4.012V33.554H42.214ZM6.926,68.629,1.885,66.573l6.177-15.15L13.1,53.479Zm37.616,5.682-1.081-.441h0L32.2,69.28a.942.942,0,0,0-.711,1.744l11.254,4.589a1.5,1.5,0,0,1,.136.064l.036.021c.031.018.062.035.091.054l.041.03c.026.019.052.037.077.057s.028.026.042.038.044.038.065.059.027.03.041.044.038.04.056.062.025.034.038.051.033.042.048.064.023.038.035.056.028.043.04.065.02.041.031.062.023.044.032.066.017.044.025.066.018.044.025.067.013.046.019.069.013.045.019.068.009.047.013.07.009.047.012.07,0,.048.006.071,0,.048.006.072,0,.047,0,.071,0,.049,0,.074,0,.047-.007.07,0,.05-.009.075-.01.046-.014.069-.01.051-.017.076-.014.044-.021.067-.015.05-.025.075l-.023.052,0,.012a1.464,1.464,0,0,1-.773.763,1.594,1.594,0,0,1-1.226.016l-1.994-.813-.028-.01-.028-.013-9.153-3.732a.942.942,0,0,0-.711,1.744L38.8,79.287l.03.01.026.012A1.5,1.5,0,0,1,37.719,82.1l-12.3-5.015h0L19.66,74.732a10.345,10.345,0,0,1-4.155-3.1,12.23,12.23,0,0,0-4.913-3.666h0L9.425,67.49l2.325-5.7,2.2-5.39.162.066a2.446,2.446,0,0,0,.956.173,24.411,24.411,0,0,0,4.111-.35c1.475-.208,3.285-.51,5.4-.9l.156-.029.3-.055.235-.044.271-.051.292-.055.236-.045.363-.07L26.616,55l.569-.11c5.443-1.059,10.7-2.237,10.932-2.29.024,0,.047-.008.071-.011a1.237,1.237,0,0,1,1.371.825,1.207,1.207,0,0,1-.794,1.506L29.43,57.812a.942.942,0,0,0-.077,1.771l17.09,6.969a1.505,1.505,0,0,1-.56,2.9h-.008c-.046,0-.092,0-.137-.006l-.04-.006c-.035,0-.07-.008-.1-.015s-.044-.011-.065-.016-.052-.011-.078-.019-.053-.018-.079-.028-.042-.014-.063-.022L34.052,64.75a.942.942,0,0,0-.711,1.744l13.645,5.564a1.513,1.513,0,0,1,.263.138,1.506,1.506,0,0,1,.612,1.682q-.021.071-.05.141a1.517,1.517,0,0,1-.065.139,1.54,1.54,0,0,1-.349.433l-.025.022a1.513,1.513,0,0,1-1.522.23Z" transform="translate(0 -24.45)" fill="#fff"/>
      </g>
    </g>
  </g>
</svg>
