<svg xmlns="http://www.w3.org/2000/svg" width="275" height="152" viewBox="0 0 275 152">
  <g id="Group_194" data-name="Group 194" transform="translate(-728 -569)">
    <rect id="Rectangle_5" data-name="Rectangle 5" width="275" height="152" rx="23" transform="translate(728 569)" fill="#b8328f"/>
    <path id="Intersection_2" data-name="Intersection 2" d="M0,58C.256,25.922,26.573,0,59,0s58.743,25.922,59,58Z" transform="translate(782 663)" fill="rgba(205,94,171,0.71)"/>
    <path id="Intersection_1" data-name="Intersection 1" d="M1.443,134A114.848,114.848,0,0,1,0,115.814C0,51.852,52.69,0,117.685,0A119.274,119.274,0,0,1,155,5.943V111a23,23,0,0,1-23,23Z" transform="translate(848 587)" fill="rgba(216,89,177,0.62)"/>
    <path id="Path_7" data-name="Path 7" d="M180.56,665.29s46.987-7.739,72.238,11.017,28.221,64.143,28.221,64.143H196.881a24.413,24.413,0,0,1-11.563-7.439,23.931,23.931,0,0,1-4.443-12.478c-.365-8-.1-23.7-.536-32.793C180.56,676.144,180.56,665.29,180.56,665.29Z" transform="translate(548.472 -20.264)" fill="rgba(220,109,186,0.61)"/>
    <text id="Dalam_Perjalanan" data-name="Dalam Perjalanan" transform="translate(763 699)" fill="#fff" font-size="16" font-family="SegoeUI-Semilight, Segoe UI" font-weight="300"><tspan x="0" y="0">Dalam Perjalanan</tspan></text>
    <g id="delivery-man" transform="translate(763 594.964)">
      <path id="Path_3984" data-name="Path 3984" d="M69.079,34.514H56.708a3.877,3.877,0,0,0-3.872,3.874V52.626H48.209a10.629,10.629,0,0,0,.29-3.321h0a31.057,31.057,0,0,0-2.925-13.584,14.575,14.575,0,0,0-4.528-5.459A9.909,9.909,0,0,0,43.7,23.246a9.067,9.067,0,1,0-18.131,0,1.069,1.069,0,0,0,1.069,1.069h.726a7.524,7.524,0,0,0-.1,1.231,7.42,7.42,0,0,0,5.961,7.269,18.011,18.011,0,0,0-.532,4.648l-2.665,2.292-6.485.524-7.481-2.473a2.265,2.265,0,0,0-2.137,0,1.9,1.9,0,0,0-.664,1.595v5.562a1.069,1.069,0,0,0,1.069,1.069H15.6l-1.951,6.743a1.069,1.069,0,0,0,2.053.594l2.123-7.337h3.038c-3.779,11.523-1.623,19.214,1.691,27H20.63l-8-8.946,1.692-5.845a1.069,1.069,0,0,0-2.053-.594L10.65,63.236A10.749,10.749,0,0,0,.027,71.568a1.069,1.069,0,0,0,.8,1.281l1.517.349a8.176,8.176,0,0,0,15.8,3.636l1.2.275a1.4,1.4,0,0,0,1.033-.058,1.227,1.227,0,0,0,.6-.82,10.63,10.63,0,0,0,.172-1.064H43.5a9.106,9.106,0,0,0,18.022,0h.816l.2,0a1.464,1.464,0,0,0,1.11-.4,1.37,1.37,0,0,0,.378-1.039,12.114,12.114,0,0,0-.438-2.895c.851-5.168.032-8.315-1.182-10.778A2.813,2.813,0,0,0,63.681,57.7V54.763h5.4a3.877,3.877,0,0,0,3.872-3.874v-12.5a3.877,3.877,0,0,0-3.871-3.874ZM13.69,79.1a5.994,5.994,0,0,1-4.558.768h0a6.055,6.055,0,0,1-4.681-6.185l11.591,2.668A6.007,6.007,0,0,1,13.69,79.1Zm5.347-4.255L2.414,71.02a8.606,8.606,0,0,1,8.508-5.638l8.143,9.1Q19.055,74.667,19.037,74.845ZM35.178,56.224a9.514,9.514,0,0,0-.31,3.223v4.033H30.955V57.947c0-6.255,3.414-7.369,4.946-7.553H46.377a4.53,4.53,0,0,1-.971,3.069c-.709.746-1.921,1.11-3.708,1.112l-3.836,0a2.575,2.575,0,0,0-2.685,1.645Zm-.31,9.393v2.552h-7.62a3.045,3.045,0,0,1,.737-1.827,2.636,2.636,0,0,1,1.9-.724ZM46.33,48.257H36.611A39.9,39.9,0,0,1,35.587,44.3l2.955-1.918a4.411,4.411,0,0,0,2.3-4.061,3.778,3.778,0,0,0-2.354-3.093,3.857,3.857,0,0,0-3.587.4,12.618,12.618,0,0,1,.516-2.709,7.533,7.533,0,0,0,1.352-.267,8.853,8.853,0,0,0,2.494-.989C41.324,32.891,45.851,36.879,46.33,48.257ZM27.781,22.177A6.919,6.919,0,0,1,41.56,23.246a7.257,7.257,0,0,1-3.994,6.888V24.511a2.126,2.126,0,0,0-2.147-2.329q-.048,0-.1,0ZM29.4,25.546a5.321,5.321,0,0,1,.142-1.231H35.27c.066.007.114.015.149.022a1.27,1.27,0,0,1,.01.175v6.252a5.286,5.286,0,0,1-.767.057h-.007A5.275,5.275,0,0,1,29.4,25.546ZM28.01,42.062l2.531-.2a1.069,1.069,0,0,0,.611-.255l4.568-3.929h0a2.123,2.123,0,0,1,1.372-.576,1.645,1.645,0,0,1,1.624,1.434,2.357,2.357,0,0,1-1.339,2.06l-5.09,3.3H28.011V42.062Zm-4.516.365,2.379-.192V43.9H23.109c-.358,0-.446-.3-.456-.548A.848.848,0,0,1,23.494,42.428Zm-2.529-.738a3.087,3.087,0,0,0-.394,2.2s0,.006,0,.009H15.393V39.838l5.576,1.843,0,.008Zm2.15,4.343H32.6a1.068,1.068,0,0,0,.582-.172l.484-.314c.233,1.028.5,2.029.786,2.974-2.179.643-5.639,2.722-5.639,9.426v5.64a4.46,4.46,0,0,0-2.379,1.277,5.212,5.212,0,0,0-1.336,3.3H22.947c-2.172-6.26-3-12.922.168-22.135Zm1.761,26.994c-.395-.908-.776-1.813-1.134-2.722h11.1c1.438,0,2.167-.655,2.167-1.946V60.515h8.435a1.069,1.069,0,1,0,0-2.137H37.012a4.837,4.837,0,0,1,.164-1.4c.054-.143.1-.266.688-.266l3.837,0c2.4,0,4.122-.584,5.255-1.777.052-.055.1-.113.152-.171H61.544V57.7a.686.686,0,0,1-.676.678H50.23a1.069,1.069,0,0,0,0,2.137H60.24a12.616,12.616,0,0,1,1.559,6.6,11.6,11.6,0,0,0-17.663-1.379,11.772,11.772,0,0,0-3.359,7.294Zm27.635,7.8a7.041,7.041,0,0,1-6.84-5.656H59.351A7.042,7.042,0,0,1,52.512,80.824Zm8.054-7.793H42.923a9.585,9.585,0,0,1,9.455-8.6,9.482,9.482,0,0,1,9.094,6.795c0,.013.008.025.012.037a9.863,9.863,0,0,1,.353,1.77ZM70.813,50.89a1.737,1.737,0,0,1-1.734,1.737H54.973V47.108h15.84Zm0-5.919H54.973V42.7h15.84Zm0-4.41H54.973V38.387a1.737,1.737,0,0,1,1.734-1.737H69.079a1.738,1.738,0,0,1,1.734,1.737Z" fill="#fff"/>
    </g>
  </g>
</svg>
