<svg xmlns="http://www.w3.org/2000/svg" xmlns:xlink="http://www.w3.org/1999/xlink" width="176" height="179" viewBox="0 0 176 179">
  <defs>
    <filter id="Ellipse_51" x="0" y="3" width="176" height="176" filterUnits="userSpaceOnUse">
      <feOffset dy="3" input="SourceAlpha"/>
      <feGaussianBlur stdDeviation="3" result="blur"/>
      <feFlood flood-opacity="0.161"/>
      <feComposite operator="in" in2="blur"/>
      <feComposite in="SourceGraphic"/>
    </filter>
    <filter id="Ellipse_52" x="0" y="3" width="176" height="176" filterUnits="userSpaceOnUse">
      <feOffset dy="3" input="SourceAlpha"/>
      <feGaussianBlur stdDeviation="3" result="blur-2"/>
      <feFlood flood-opacity="0.161"/>
      <feComposite operator="in" in2="blur-2"/>
      <feComposite in="SourceGraphic"/>
    </filter>
    <clipPath id="clip-path">
      <g transform="matrix(1, 0, 0, 1, 0, 0)" filter="url(#Ellipse_51)">
        <circle id="Ellipse_51-2" data-name="Ellipse 51" cx="79" cy="79" r="79" transform="translate(157 1395)" fill="#ba70a3"/>
      </g>
    </clipPath>
  </defs>
  <g id="Group_185" data-name="Group 185" transform="translate(-702.75 -1238)">
    <g transform="matrix(1, 0, 0, 1, 702.75, 1238)" filter="url(#Ellipse_52)">
      <circle id="Ellipse_52-2" data-name="Ellipse 52" cx="79" cy="79" r="79" transform="translate(9 9)" fill="#ba70a3"/>
    </g>
    <g id="Mask_Group_5" data-name="Mask Group 5" transform="translate(554.75 -148)" clip-path="url(#clip-path)">
      <g id="_67_chat" data-name="#67_chat" transform="translate(104.59 1375.589)">
        <path id="Path_2772" data-name="Path 2772" d="M197.13,153.1s-3.726-7.445-3.943-12.2-3.516-30.049-6.2-38.532-13.444-20.12-23.577-27.092C161.187,73.753,151,68.049,151,68.049l-1.656,29.984s14.686,17.374,15.514,24.819-3.5,20.672-.657,25.627c5.02,8.831,2.05,4.4,8.069,13.142Z" fill="#fff"/>
        <path id="Path_2773" data-name="Path 2773" d="M172.272,161.956a.322.322,0,0,1-.269-.145l-1.157-1.722a50.2,50.2,0,0,1-4.041-6.3c-.526-.966-1.314-2.431-2.858-5.152-1.689-2.977-.94-8.542-.138-14.456.552-4.048,1.117-8.233.775-11.322-.808-7.261-15.291-24.47-15.435-24.641a.375.375,0,0,1-.079-.23L150.726,68a.329.329,0,0,1,.171-.269.3.3,0,0,1,.315,0c.421.237,10.238,5.743,12.439,7.228,9.337,6.42,20.817,18.156,23.7,27.263,2.714,8.542,6.006,33.69,6.223,38.618.2,4.633,3.857,12,3.9,12.071a.322.322,0,0,1,0,.269.315.315,0,0,1-.2.191L172.4,161.91a.269.269,0,0,1-.131.046ZM149.7,97.908c1.314,1.57,14.7,17.65,15.508,24.9.348,3.167-.223,7.392-.782,11.48-.749,5.533-1.524,11.25.059,14.036s2.339,4.192,2.865,5.165a46.021,46.021,0,0,0,4.008,6.236l1.045,1.518,24.28-8.332c-.736-1.524-3.614-7.747-3.8-12-.21-4.764-3.548-30.122-6.19-38.44-2.5-7.885-12.577-19.45-23.452-26.941-1.906-1.314-9.909-5.828-11.92-6.965Z" fill="#231f20"/>
        <path id="Path_2774" data-name="Path 2774" d="M65.71,153.1s3.726-7.445,3.943-12.2,3.515-30.049,6.2-38.532S89.3,82.249,99.433,75.278c2.221-1.524,12.413-7.228,12.413-7.228L113.5,98.033s-14.686,17.374-15.514,24.819,3.5,20.672.657,25.627c-5.02,8.831-2.05,4.4-8.069,13.142Z" fill="#fff"/>
        <path id="Path_2775" data-name="Path 2775" d="M90.568,161.956a.269.269,0,0,1-.105,0l-24.871-8.542a.315.315,0,0,1-.2-.191.322.322,0,0,1,0-.269c.039-.072,3.693-7.438,3.9-12.071.217-4.928,3.509-30.056,6.223-38.618C78.4,93.157,89.878,81.421,99.216,75c2.2-1.511,12.018-7.018,12.439-7.228a.3.3,0,0,1,.315,0,.329.329,0,0,1,.171.269l1.656,29.99a.375.375,0,0,1-.079.23c-.145.171-14.627,17.38-15.435,24.641-.342,3.088.223,7.274.775,11.322.8,5.914,1.551,11.466-.138,14.456-1.544,2.72-2.333,4.186-2.858,5.152a52.307,52.307,0,0,1-4.041,6.3l-1.189,1.722a.322.322,0,0,1-.263.1ZM66.157,152.9l24.28,8.332,1.045-1.518a48.775,48.775,0,0,0,4.008-6.236c.526-.973,1.314-2.444,2.865-5.165s.808-8.5.059-14.036c-.559-4.087-1.13-8.312-.782-11.48.808-7.228,14.187-23.327,15.508-24.9l-1.623-29.333c-2.011,1.137-10.014,5.658-11.92,6.965C88.722,83.012,78.642,94.59,76.145,102.475c-2.628,8.319-5.98,33.676-6.19,38.44C69.771,145.154,66.893,151.376,66.157,152.9Z" fill="#231f20"/>
        <rect id="Rectangle_202" data-name="Rectangle 202" width="54.323" height="108.29" rx="3.463" transform="translate(104.256 25.009)" fill="#fff"/>
        <path id="Path_2776" data-name="Path 2776" d="M155.122,133.628h-47.4a3.8,3.8,0,0,1-3.791-3.791V28.472a3.8,3.8,0,0,1,3.791-3.791h47.4a3.8,3.8,0,0,1,3.791,3.791V129.837a3.8,3.8,0,0,1-3.791,3.792Zm-47.4-108.29a3.141,3.141,0,0,0-3.134,3.134V129.837a3.141,3.141,0,0,0,3.134,3.134h47.4a3.141,3.141,0,0,0,3.134-3.134V28.472a3.141,3.141,0,0,0-3.134-3.134Z" fill="#231f20"/>
        <rect id="Rectangle_203" data-name="Rectangle 203" width="48.619" height="83.34" transform="translate(107.107 34.807)" fill="#fff"/>
        <path id="Path_2777" data-name="Path 2777" d="M155.733,118.475H107.107a.335.335,0,0,1-.329-.329V34.826a.329.329,0,0,1,.329-.329h48.625a.329.329,0,0,1,.329.329v83.32A.335.335,0,0,1,155.733,118.475Zm-48.3-.657H155.4V35.135H107.436Z" fill="#231f20"/>
        <rect id="Rectangle_204" data-name="Rectangle 204" width="13.503" height="7.793" rx="2.129" transform="translate(124.665 122.195)" fill="#fff"/>
        <path id="Path_2778" data-name="Path 2778" d="M136.02,130.323h-9.2a2.464,2.464,0,0,1-2.458-2.458V124.33a2.464,2.464,0,0,1,2.458-2.464h9.2a2.464,2.464,0,0,1,2.458,2.464v3.535A2.464,2.464,0,0,1,136.02,130.323Zm-9.2-7.8a1.807,1.807,0,0,0-1.8,1.807v3.535a1.8,1.8,0,0,0,1.8,1.8h9.2a1.8,1.8,0,0,0,1.8-1.8V124.33a1.807,1.807,0,0,0-1.8-1.807Z" fill="#e6e7e8"/>
        <path id="Path_2779" data-name="Path 2779" d="M136.329,30.03H122.484a.335.335,0,0,1-.329-.329.329.329,0,0,1,.329-.329h13.845a.329.329,0,0,1,0,.657Z" fill="#e6e7e8"/>
        <path id="Path_2780" data-name="Path 2780" d="M140.127,30.03h-1.853a.329.329,0,1,1,0-.657h1.853a.329.329,0,1,1,0,.657Z" fill="#e6e7e8"/>
        <path id="Path_2781" data-name="Path 2781" d="M155.733,39.84H107.107a.335.335,0,0,1-.329-.329.329.329,0,0,1,.329-.329h48.625a.329.329,0,0,1,.329.329A.335.335,0,0,1,155.733,39.84Z" fill="#231f20"/>
        <path id="Path_2782" data-name="Path 2782" d="M153.591,43.218H131.328a1.262,1.262,0,0,0-1.222,1.255v4.915a1.262,1.262,0,0,0,1.255,1.255h19.457a1.255,1.255,0,0,0,1.255-1.255v-4.6Z" fill="#e6e7e8"/>
        <path id="Path_2783" data-name="Path 2783" d="M111.977,67.57h22.263a1.255,1.255,0,0,1,1.255,1.255v7.649a1.248,1.248,0,0,1-1.255,1.255H114.782a1.255,1.255,0,0,1-1.255-1.255V69.12Z" fill="#e6e7e8"/>
        <path id="Path_2784" data-name="Path 2784" d="M111.977,92.25h25.739a1.255,1.255,0,0,1,1.248,1.255v10.6a1.255,1.255,0,0,1-1.249,1.255H114.782a1.262,1.262,0,0,1-1.255-1.255V93.8Z" fill="#e6e7e8"/>
        <path id="Path_2785" data-name="Path 2785" d="M153.591,80.856H131.328a1.255,1.255,0,0,0-1.222,1.281v4.909a1.255,1.255,0,0,0,1.255,1.255h19.457a1.249,1.249,0,0,0,1.255-1.255v-4.6Z" fill="#e6e7e8"/>
        <rect id="Rectangle_205" data-name="Rectangle 205" width="27.401" height="11.585" rx="1.735" transform="translate(124.639 52.364)" fill="#e6e7e8"/>
        <rect id="Rectangle_206" data-name="Rectangle 206" width="43.145" height="5.454" rx="2.727" transform="translate(109.848 109.598)" fill="#fff"/>
        <path id="Path_2786" data-name="Path 2786" d="M150.266,115.38H112.575a3.056,3.056,0,0,1,0-6.111h37.691a3.056,3.056,0,0,1,0,6.111Zm-37.691-5.454a2.4,2.4,0,0,0,0,4.8h37.691a2.4,2.4,0,1,0,0-4.8Z" fill="#e6e7e8"/>
        <path id="Path_2787" data-name="Path 2787" d="M93.841,156.863s10.737-8.845,11.565-18.984-.828-20.626.414-22.907,9.9-14.68,11.8-17.991c2.484-4.343-1.242-8.273-3.943-6.617s-13.234,7.649-18.819,15.718a39.886,39.886,0,0,0-6.2,9.719" fill="#fff"/>
        <path id="Path_2788" data-name="Path 2788" d="M93.841,157.192a.342.342,0,0,1-.256-.125.329.329,0,0,1,.046-.46c.105-.085,10.645-8.877,11.447-18.754a118.615,118.615,0,0,0,.066-14.055c-.171-4.495-.289-7.734.388-8.983.6-1.1,2.931-4.56,5.388-8.214,2.668-3.943,5.434-8.076,6.407-9.784a4.621,4.621,0,0,0-.421-5.677,2.444,2.444,0,0,0-3.056-.5l-.716.44c-3.522,2.129-12.873,7.774-18,15.186a40.28,40.28,0,0,0-6.177,9.673.335.335,0,0,1-.434.164.342.342,0,0,1-.164-.44,40.293,40.293,0,0,1,6.269-9.8c5.178-7.491,14.614-13.195,18.169-15.337l.716-.44a3.1,3.1,0,0,1,3.851.585,5.237,5.237,0,0,1,.539,6.479c-.986,1.728-3.759,5.842-6.433,9.824-2.451,3.64-4.764,7.084-5.355,8.161s-.467,4.422-.309,8.641a119.948,119.948,0,0,1-.066,14.134c-.828,10.159-11.578,19.122-11.683,19.207a.335.335,0,0,1-.21.079Z" fill="#231f20"/>
        <path id="Path_2789" data-name="Path 2789" d="M96.548,172.121a23,23,0,0,0,.585-4.481c0-1.906-1.971-4.639-1.971-4.639l1.2-6.137s-30.884-12.045-32.126-10.389-3.726,10.389-3.726,10.389-3.943,2.333-5.171,4.764c-.716,1.4-1.971,6.459-2.924,10.514Z" fill="#68e1fd"/>
        <path id="Path_2790" data-name="Path 2790" d="M169,156.863s-10.737-8.845-11.565-18.984.828-20.626-.414-22.907-9.9-14.68-11.8-17.991c-2.484-4.343,1.242-8.273,3.943-6.617s13.234,7.649,18.819,15.718a39.887,39.887,0,0,1,6.2,9.719" fill="#fff"/>
        <path id="Path_2791" data-name="Path 2791" d="M169,157.192a.335.335,0,0,1-.21-.079c-.105-.085-10.855-9.048-11.683-19.207a119.951,119.951,0,0,1-.066-14.134c.158-4.219.283-7.55-.309-8.641s-2.9-4.521-5.355-8.161c-2.674-3.982-5.447-8.1-6.433-9.824a5.243,5.243,0,0,1,.539-6.479,3.1,3.1,0,0,1,3.851-.585l.716.44c3.555,2.142,12.991,7.846,18.2,15.376h0a40.511,40.511,0,0,1,6.236,9.751.342.342,0,0,1-.164.44.335.335,0,0,1-.434-.164,40.162,40.162,0,0,0-6.144-9.633c-5.165-7.452-14.515-13.1-18.037-15.225l-.716-.44a2.444,2.444,0,0,0-3.056.5,4.585,4.585,0,0,0-.421,5.677c.973,1.708,3.739,5.815,6.407,9.784,2.458,3.653,4.784,7.11,5.388,8.214.657,1.248.559,4.488.388,8.983a118.615,118.615,0,0,0,.066,14.055c.8,9.857,11.342,18.668,11.447,18.754a.329.329,0,0,1,.046.46.342.342,0,0,1-.256.138Z" fill="#231f20"/>
        <line id="Line_11" data-name="Line 11" x2="28.131" y2="8.503" transform="translate(63.864 156.863)" fill="#fff"/>
        <path id="Path_2792" data-name="Path 2792" d="M91.994,165.695h-.1l-28.124-8.509a.322.322,0,0,1-.223-.407.335.335,0,0,1,.414-.217l28.124,8.5a.329.329,0,0,1,.223.407.335.335,0,0,1-.315.223Z" fill="#231f20"/>
        <path id="Path_2793" data-name="Path 2793" d="M166.293,172.121H210.41c-.946-4.035-2.208-9.094-2.924-10.514-1.242-2.431-5.171-4.764-5.171-4.764s-2.484-8.733-3.726-10.389-32.126,10.389-32.126,10.389l1.2,6.137s-1.971,2.734-1.971,4.639a23,23,0,0,0,.6,4.5Z" fill="#68e1fd"/>
        <path id="Path_2794" data-name="Path 2794" d="M197.13,157.7l-25.351,7.668" fill="#fff"/>
        <path id="Path_2795" data-name="Path 2795" d="M171.793,165.695a.335.335,0,0,1-.315-.237.329.329,0,0,1,.223-.407l25.351-7.668a.341.341,0,0,1,.184.657l-25.351,7.668Z" fill="#231f20"/>
        <rect id="Rectangle_207" data-name="Rectangle 207" width="53.179" height="29.668" rx="4.922" transform="translate(62.852 41.805)" fill="#68e1fd"/>
        <circle id="Ellipse_54" data-name="Ellipse 54" cx="9.291" cy="9.291" r="9.291" transform="translate(67.307 46.161)" fill="#fff"/>
        <path id="Path_2796" data-name="Path 2796" d="M72.754,50.5a9.147,9.147,0,0,0,.467,3.772,2.471,2.471,0,0,0,.532.953,2.142,2.142,0,0,0,1.124.486,10.862,10.862,0,0,0,2.011.2,2.99,2.99,0,0,0,1.971-.526c.657-.552.585-1.242.881-1.971.23-.559.848-.736,1.065-1.347a2.228,2.228,0,0,0,.072-.979,4.159,4.159,0,0,0-1.032-2.4,4.107,4.107,0,0,0-2.964-1.084c-1.012,0-2.122-.263-2.228,1.005a1.216,1.216,0,0,0-1.078.217A2.556,2.556,0,0,0,72.754,50.5Z" fill="#fff"/>
        <path id="Path_2797" data-name="Path 2797" d="M76.966,56.248h-.085a11.577,11.577,0,0,1-2.07-.21,2.4,2.4,0,0,1-1.314-.572,2.628,2.628,0,0,1-.618-1.091,9.443,9.443,0,0,1-.48-3.943h0a2.858,2.858,0,0,1,.946-1.9,1.623,1.623,0,0,1,1.005-.335c.276-1.051,1.314-1.012,2.1-.973h.414A4.363,4.363,0,0,1,80.094,48.4a4.508,4.508,0,0,1,1.117,2.628,2.556,2.556,0,0,1-.085,1.13,2.083,2.083,0,0,1-.657.848,1.557,1.557,0,0,0-.421.506,5.164,5.164,0,0,0-.191.657,2.431,2.431,0,0,1-.789,1.472A3.286,3.286,0,0,1,76.966,56.248Zm-3.87-5.7a8.615,8.615,0,0,0,.447,3.614,2.083,2.083,0,0,0,.447.821,1.794,1.794,0,0,0,.946.394,10.862,10.862,0,0,0,1.971.2,2.826,2.826,0,0,0,1.774-.453,1.761,1.761,0,0,0,.559-1.1,5.257,5.257,0,0,1,.223-.743,2.011,2.011,0,0,1,.6-.756,1.419,1.419,0,0,0,.46-.578,1.879,1.879,0,0,0,.059-.828,3.851,3.851,0,0,0-.94-2.214,3.89,3.89,0,0,0-2.76-.927h-.44c-1.025-.046-1.393,0-1.452.7a.335.335,0,0,1-.145.256.348.348,0,0,1-.289.046.854.854,0,0,0-.762.151,2.182,2.182,0,0,0-.7,1.465Z" fill="#231f20"/>
        <path id="Path_2798" data-name="Path 2798" d="M75.908,67.215l-1.314-9.64,4.6.618,1.63,9.022,3.943-.355c-.105-4.646-1.8-8.582-3.01-9.489-1.452-1.078-7.031-.9-7.031-.9s-4.442,1.886-5.592,4.008c-.5.92-.8,3.509-.657,6.735Z" fill="#68e1fd"/>
        <path id="Path_2799" data-name="Path 2799" d="M79.214,55.459l.453,2.5A2.188,2.188,0,0,1,77.4,59.376,3.351,3.351,0,0,1,75,57.825l-.473-4.6s1.143-.769.506-3.351a8.109,8.109,0,0,0,4.291.138,15.13,15.13,0,0,1,.973,4.041A1.386,1.386,0,0,1,79.214,55.459Z" fill="#fff"/>
        <path id="Path_2800" data-name="Path 2800" d="M77.7,59.737a3.231,3.231,0,0,1-.342,0,3.686,3.686,0,0,1-2.628-1.761.269.269,0,0,1-.033-.125l-.473-4.6a.329.329,0,0,1,.151-.309s.92-.716.361-3a.342.342,0,0,1,.105-.329.329.329,0,0,1,.342-.066,7.885,7.885,0,0,0,4.094.125.342.342,0,0,1,.394.21,15.1,15.1,0,0,1,1,4.179,1.774,1.774,0,0,1-1.038,1.643l.4,2.208a.414.414,0,0,1,0,.177A2.517,2.517,0,0,1,77.7,59.737ZM75.33,57.68a2.983,2.983,0,0,0,2.116,1.36,1.8,1.8,0,0,0,1.866-1.124l-.46-2.4a.375.375,0,0,1,.059-.263.342.342,0,0,1,.223-.131,1.045,1.045,0,0,0,.8-1.111,13.452,13.452,0,0,0-.854-3.634,8.621,8.621,0,0,1-3.627-.053,3.35,3.35,0,0,1-.6,3.01Z" fill="#231f20"/>
        <path id="Path_2801" data-name="Path 2801" d="M77.374,51.766s.913,1.314.7,1.584-.821.085-.821.085" fill="#fff"/>
        <path id="Path_2802" data-name="Path 2802" d="M77.65,53.81a2.148,2.148,0,0,1-.473-.059.322.322,0,0,1-.237-.394.335.335,0,0,1,.394-.243,1.242,1.242,0,0,0,.427,0,6.236,6.236,0,0,0-.657-1.2.322.322,0,0,1,.085-.453.329.329,0,0,1,.46.085c1.058,1.557.782,1.86.657,1.971a.92.92,0,0,1-.657.289Zm.131-.565Z" fill="#231f20"/>
        <ellipse id="Ellipse_55" data-name="Ellipse 55" cx="0.158" cy="0.368" rx="0.158" ry="0.368" transform="translate(76.339 51.165) rotate(-1.76)" fill="#231f20"/>
        <ellipse id="Ellipse_56" data-name="Ellipse 56" cx="0.158" cy="0.368" rx="0.158" ry="0.368" transform="translate(78.457 51.028) rotate(-1.76)" fill="#231f20"/>
        <path id="Path_2803" data-name="Path 2803" d="M75.514,52.424a2.274,2.274,0,0,0-.657-.578.716.716,0,0,0-.434-.145.657.657,0,0,0-.348.138,1.354,1.354,0,0,0-.545.94,1.038,1.038,0,0,0,.072.513,1.143,1.143,0,0,0,.565.559,3.148,3.148,0,0,0,.775.25" fill="#fff"/>
        <path id="Path_2804" data-name="Path 2804" d="M74.975,54.441H74.9a3.358,3.358,0,0,1-.848-.276,1.5,1.5,0,0,1-.729-.729,1.36,1.36,0,0,1-.092-.657,1.689,1.689,0,0,1,.657-1.183.927.927,0,0,1,1.156,0,2.576,2.576,0,0,1,.716.657.336.336,0,0,1-.545.394,2.083,2.083,0,0,0-.526-.493.493.493,0,0,0-.237-.092.348.348,0,0,0-.171.079.992.992,0,0,0-.4.7.743.743,0,0,0,.039.348.841.841,0,0,0,.407.388,3.384,3.384,0,0,0,.7.223.342.342,0,0,1-.079.657Z" fill="#231f20"/>
        <path id="Path_2805" data-name="Path 2805" d="M78.9,54.158l-2.214.217a1.262,1.262,0,0,0,1.038.578,1.892,1.892,0,0,0,1.176-.8Z" fill="#231f20"/>
        <path id="Path_2806" data-name="Path 2806" d="M110.8,51.287H89.247a.329.329,0,1,1,0-.657H110.8a.329.329,0,1,1,0,.657Z" fill="#fff"/>
        <path id="Path_2807" data-name="Path 2807" d="M110.8,56.964H89.247a.329.329,0,0,1,0-.657H110.8a.329.329,0,1,1,0,.657Z" fill="#fff"/>
        <path id="Path_2808" data-name="Path 2808" d="M105.642,62.648H89.215a.329.329,0,1,1,0-.657h16.428a.329.329,0,1,1,0,.657Z" fill="#fff"/>
        <path id="Path_2809" data-name="Path 2809" d="M111.109,71.473s10.152.151,10,0-8.03-7.228-8.03-7.228Z" fill="#68e1fd"/>
        <rect id="Rectangle_208" data-name="Rectangle 208" width="53.179" height="29.668" rx="4.922" transform="translate(199.181 58.83) rotate(180)" fill="#68e1fd"/>
        <circle id="Ellipse_57" data-name="Ellipse 57" cx="9.291" cy="9.291" r="9.291" transform="translate(150.89 33.512)" fill="#fff"/>
        <path id="Path_2810" data-name="Path 2810" d="M194.384,38.638H172.818a.329.329,0,0,1,0-.657h21.553a.329.329,0,1,1,0,.657Z" fill="#fff"/>
        <path id="Path_2811" data-name="Path 2811" d="M194.384,44.321H172.818a.329.329,0,0,1,0-.657h21.553a.329.329,0,0,1,.013.657Z" fill="#fff"/>
        <path id="Path_2812" data-name="Path 2812" d="M189.245,50.005H172.818a.329.329,0,0,1,0-.657h16.428a.329.329,0,1,1,0,.657Z" fill="#fff"/>
        <path id="Path_2813" data-name="Path 2813" d="M150.923,58.824s-10.146.151-10,0,8.03-7.228,8.03-7.228Z" fill="#68e1fd"/>
        <path id="Path_2814" data-name="Path 2814" d="M158.361,35.155h.25a5.31,5.31,0,0,1,1.137.381,2.306,2.306,0,0,1,2.076-.092c2.2.789,5.914,5.526,3.811,7.885a3,3,0,0,1-1.768.7,24.523,24.523,0,0,1-5.546.3,4.6,4.6,0,0,1-1.971-.44c-1.82-.992-.749-4.9-.059-6.413a7.885,7.885,0,0,1,1.183-1.971A1.5,1.5,0,0,1,158.361,35.155Z" fill="#fff"/>
        <path id="Path_2815" data-name="Path 2815" d="M159.807,44.683c-.5,0-1.005,0-1.5-.046a4.981,4.981,0,0,1-2.076-.48c-2-1.091-.986-5.053-.184-6.8a7.445,7.445,0,0,1,1.235-2.037,1.82,1.82,0,0,1,1.071-.46h.283a5.546,5.546,0,0,1,1.124.342,2.74,2.74,0,0,1,2.195,0,8.853,8.853,0,0,1,4.508,5.395,3.082,3.082,0,0,1-.578,2.944,3.285,3.285,0,0,1-1.971.848,24.516,24.516,0,0,1-4.1.3Zm-1.393-9.2a1.216,1.216,0,0,0-.71.283,7.228,7.228,0,0,0-1.117,1.866c-.775,1.689-1.6,5.191-.072,6.026a4.317,4.317,0,0,0,1.846.368,23.538,23.538,0,0,0,5.48-.289,2.734,2.734,0,0,0,1.616-.657,2.451,2.451,0,0,0,.44-2.392,8.326,8.326,0,0,0-4.127-4.974,2.129,2.129,0,0,0-1.807.053.3.3,0,0,1-.361,0,8.615,8.615,0,0,0-.966-.315h-.2Z" fill="#231f20"/>
        <path id="Path_2816" data-name="Path 2816" d="M157,52.634c.269-2.911.473-6.571.473-6.637l4.067.164-.289,6.472,7.839-1.38a21.5,21.5,0,0,0-2.392-4.021c-1.833-2.464-5.848-2.484-5.953-2.484.105,0,1.919,0-3.286-.3-5.631-.322-7.307,6.387-7.307,6.387l.8.414Z" fill="#68e1fd"/>
        <path id="Path_2817" data-name="Path 2817" d="M158.053,43.7l-.46,2.523a1.314,1.314,0,0,0,1.6,1.314,3.286,3.286,0,0,0,2.412-1.406L162.113,43a32.574,32.574,0,0,0,.572-3.542c-1.222.394-2.727-1.15-3.108-2.149a1.886,1.886,0,0,0,.388,1.807,2.306,2.306,0,0,1-1.439-1.492,7.886,7.886,0,0,0-1.012.907,4.324,4.324,0,0,0-.611,1.248,4,4,0,0,0-.046,2.707,2.247,2.247,0,0,0,1.2,1.209Z" fill="#fff"/>
        <path id="Path_2818" data-name="Path 2818" d="M159.018,47.87a1.689,1.689,0,0,1-1.2-.427,1.787,1.787,0,0,1-.506-1.229c0-.039.309-1.708.427-2.339a2.858,2.858,0,0,1-1.124-1.216,4.525,4.525,0,0,1,0-2.931,4.6,4.6,0,0,1,.657-1.314s.972-1.078,1.314-1.025a.3.3,0,0,1,.243.21,1.905,1.905,0,0,0,.414.736,2.142,2.142,0,0,1,.066-1.058.3.3,0,0,1,.276-.21.309.309,0,0,1,.289.2c.329.867,1.715,2.3,2.734,1.971a.3.3,0,0,1,.276.046.3.3,0,0,1,.118.25A18.525,18.525,0,0,1,162.633,42c-.072.375-.145.743-.2,1.111l-.519,3.121a.322.322,0,0,1-.039.112,3.529,3.529,0,0,1-2.628,1.544Zm-1.111-1.6a1.189,1.189,0,0,0,.322.736,1.235,1.235,0,0,0,.959.256,2.918,2.918,0,0,0,2.142-1.216l.506-3.062c.066-.368.138-.749.21-1.124.131-.657.263-1.347.329-2.011a3.391,3.391,0,0,1-2.477-1.439,1.577,1.577,0,0,0,.309.539.289.289,0,0,1,0,.361.3.3,0,0,1-.348.125,2.674,2.674,0,0,1-1.472-1.314c-.25.223-.578.539-.657.611a4.067,4.067,0,0,0-.559,1.15,3.588,3.588,0,0,0-.066,2.484,1.971,1.971,0,0,0,1.012,1.025.3.3,0,0,1,.21.342c0,.046-.447,2.425-.46,2.523Z" fill="#231f20"/>
        <path id="Path_2819" data-name="Path 2819" d="M162.015,41.227a.848.848,0,0,1,.381-.421,1.564,1.564,0,0,1,.513-.164.657.657,0,0,1,.3,0,.512.512,0,0,1,.184.105.657.657,0,0,1,.269.394.808.808,0,0,1-.046.394,1.538,1.538,0,0,1-.171.4,1.1,1.1,0,0,1-.657.48,1.13,1.13,0,0,1-.835-.151" fill="#fff"/>
        <path id="Path_2820" data-name="Path 2820" d="M162.521,42.712a1.347,1.347,0,0,1-.743-.223.263.263,0,1,1,.283-.44.828.828,0,0,0,1.157-.25,1.064,1.064,0,0,0,.145-.335.545.545,0,0,0,.039-.263.414.414,0,0,0-.177-.243.21.21,0,0,0-.092-.053.414.414,0,0,0-.177,0,1.406,1.406,0,0,0-.434.131.657.657,0,0,0-.269.3.263.263,0,1,1-.48-.2,1.183,1.183,0,0,1,.493-.552,1.715,1.715,0,0,1,.6-.191.881.881,0,0,1,.414,0,.854.854,0,0,1,.269.145.979.979,0,0,1,.375.559,1.111,1.111,0,0,1-.059.519,1.67,1.67,0,0,1-.2.46,1.387,1.387,0,0,1-1.143.657Z" fill="#231f20"/>
        <path id="Path_2821" data-name="Path 2821" d="M158.808,39.925s-1.058,1.032-.907,1.314.716.21.716.21" fill="#fff"/>
        <path id="Path_2822" data-name="Path 2822" d="M158.539,41.713a1.058,1.058,0,0,1-.887-.355c-.079-.131-.276-.447.953-1.643a.289.289,0,0,1,.414,0,.3.3,0,0,1,0,.414,5.2,5.2,0,0,0-.808.946,1.222,1.222,0,0,0,.4.046.3.3,0,0,1,0,.585Z" fill="#231f20"/>
        <ellipse id="Ellipse_58" data-name="Ellipse 58" cx="0.283" cy="0.204" rx="0.283" ry="0.204" transform="translate(159.851 40.433) rotate(-65.2)" fill="#231f20"/>
        <ellipse id="Ellipse_59" data-name="Ellipse 59" cx="0.283" cy="0.204" rx="0.283" ry="0.204" transform="translate(157.614 40.041) rotate(-65.2)" fill="#231f20"/>
        <path id="Path_2823" data-name="Path 2823" d="M157.7,41.91l1.82.112a.8.8,0,0,1-.979.782A.92.92,0,0,1,157.7,41.91Z" fill="#231f20"/>
      </g>
    </g>
    <g id="Group_122" data-name="Group 122" transform="translate(504.254 516)">
      <path id="Subtraction_1" data-name="Subtraction 1" d="M-13047.155,41.891h0a20.948,20.948,0,0,1-13.393-6.773A20.954,20.954,0,0,1-13066,21a20.865,20.865,0,0,1,6.15-14.849A20.861,20.861,0,0,1-13045,0a20.885,20.885,0,0,1,14.673,5.976,20.882,20.882,0,0,1,6.32,14.489,78.93,78.93,0,0,0-23.146,21.425Z" transform="translate(13266 722)" fill="#483d7f"/>
      <text id="_3" data-name="3" transform="translate(221 749)" fill="#fff" font-size="17" font-family="Poppins-Regular, Poppins"><tspan x="-5.007" y="0">3</tspan></text>
    </g>
  </g>
</svg>
