<svg xmlns="http://www.w3.org/2000/svg" xmlns:xlink="http://www.w3.org/1999/xlink" width="176" height="179" viewBox="0 0 176 179">
  <defs>
    <filter id="Ellipse_79" x="0" y="4" width="176" height="176" filterUnits="userSpaceOnUse">
      <feOffset dy="3" input="SourceAlpha"/>
      <feGaussianBlur stdDeviation="3" result="blur"/>
      <feFlood flood-opacity="0.161"/>
      <feComposite operator="in" in2="blur"/>
      <feComposite in="SourceGraphic"/>
    </filter>
    <filter id="Ellipse_72" x="0" y="3" width="176" height="176" filterUnits="userSpaceOnUse">
      <feOffset dy="3" input="SourceAlpha"/>
      <feGaussianBlur stdDeviation="3" result="blur-2"/>
      <feFlood flood-opacity="0.161"/>
      <feComposite operator="in" in2="blur-2"/>
      <feComposite in="SourceGraphic"/>
    </filter>
    <clipPath id="clip-path">
      <g transform="matrix(1, 0, 0, 1, 0, 0)" filter="url(#Ellipse_79)">
        <circle id="Ellipse_79-2" data-name="Ellipse 79" cx="79" cy="79" r="79" transform="translate(865 1309)" fill="#ba70a3"/>
      </g>
    </clipPath>
  </defs>
  <g id="Group_188" data-name="Group 188" transform="translate(-560.75 -1490)">
    <g transform="matrix(1, 0, 0, 1, 560.75, 1490)" filter="url(#Ellipse_72)">
      <circle id="Ellipse_72-2" data-name="Ellipse 72" cx="79" cy="79" r="79" transform="translate(9 9)" fill="#ba70a3"/>
    </g>
    <g id="Mask_Group_11" data-name="Mask Group 11" transform="translate(-295.25 191)" clip-path="url(#clip-path)">
      <g id="_52_scooter" data-name="#52_scooter" transform="translate(838.439 1308.723)">
        <path id="Path_3164" data-name="Path 3164" d="M178.65,118.63H32.825a.264.264,0,0,1,0-.528H178.65a.269.269,0,0,1,.264.264.264.264,0,0,1-.264.264Z" fill="#d1d3d4"/>
        <path id="Path_3165" data-name="Path 3165" d="M110.012,136.747h-3.969a.264.264,0,1,1,0-.528h3.969a.264.264,0,0,1,.264.264A.269.269,0,0,1,110.012,136.747Z" fill="#d1d3d4"/>
        <path id="Path_3166" data-name="Path 3166" d="M63.92,130.2H57.587a.264.264,0,1,1,0-.528H63.92a.264.264,0,1,1,0,.528Z" fill="#d1d3d4"/>
        <path id="Path_3167" data-name="Path 3167" d="M172.713,124.989H170.6a.264.264,0,0,1-.264-.264.269.269,0,0,1,.264-.264h2.111a.269.269,0,0,1,.264.264.264.264,0,0,1-.264.264Z" fill="#d1d3d4"/>
        <path id="Path_3168" data-name="Path 3168" d="M163.488,132.652h-3.166a.264.264,0,0,1,0-.528h3.166a.269.269,0,0,1,.264.264.264.264,0,0,1-.264.264Z" fill="#d1d3d4"/>
        <path id="Path_3169" data-name="Path 3169" d="M175.9,137.929h-3.166a.264.264,0,1,1,0-.528H175.9a.269.269,0,0,1,.264.264A.264.264,0,0,1,175.9,137.929Z" fill="#d1d3d4"/>
        <path id="Path_3170" data-name="Path 3170" d="M44.05,132.652H41.164a.264.264,0,0,1,0-.528h2.9a.264.264,0,1,1-.016.528Z" fill="#d1d3d4"/>
        <path id="Path_3171" data-name="Path 3171" d="M47.2,123.6H42.6a.264.264,0,1,1,0-.528h4.6a.264.264,0,0,1,.264.264.269.269,0,0,1-.264.264Z" fill="#d1d3d4"/>
        <path id="Path_3172" data-name="Path 3172" d="M81.826,140.2H78.955a.264.264,0,0,1,0-.528h2.871a.264.264,0,0,1,0,.528Z" fill="#d1d3d4"/>
        <path id="Path_3173" data-name="Path 3173" d="M116.387,124.989h-3.451a.264.264,0,0,1-.264-.264.269.269,0,0,1,.264-.264h3.473a.269.269,0,0,1,.264.264.264.264,0,0,1-.285.264Z" fill="#d1d3d4"/>
        <path id="Path_3174" data-name="Path 3174" d="M129.048,132.652h-3.763a.264.264,0,0,1-.264-.264.269.269,0,0,1,.264-.264h3.763a.269.269,0,0,1,.264.264.264.264,0,0,1-.264.264Z" fill="#d1d3d4"/>
        <path id="Path_3175" data-name="Path 3175" d="M169.5,101.046a.259.259,0,0,1-.232-.137,11.493,11.493,0,0,0-4.4-4.961c-1.794-.971-4.465-1.124-6.1.454a.265.265,0,0,1-.369-.38c1.821-1.757,4.75-1.583,6.723-.528a11.939,11.939,0,0,1,4.612,5.177.259.259,0,0,1-.111.354.243.243,0,0,1-.121.021Z" fill="#d1d3d4"/>
        <path id="Path_3176" data-name="Path 3176" d="M34.467,105.02a.285.285,0,0,1-.179-.063c-.913-.813-.6-2.243-.047-3.224a9.146,9.146,0,0,1,9.093-4.438c.781.116,1.583.591,1.467,1.346a.267.267,0,0,1-.528-.079c.063-.422-.6-.681-1.024-.749a8.618,8.618,0,0,0-8.555,4.18c-.486.876-.7,2.005-.058,2.57a.264.264,0,0,1,0,.369.269.269,0,0,1-.169.09Z" fill="#d1d3d4"/>
        <path id="Path_3177" data-name="Path 3177" d="M26.915,105.3a.264.264,0,0,1-.259-.222,7.536,7.536,0,0,1,11.816-7.33,12.385,12.385,0,0,1,7.114-9.526,9.118,9.118,0,0,1,10.708,2.939,5.515,5.515,0,0,1,1.715-3.314,7.2,7.2,0,0,1,5.715-2.016c3.246.391,6.264,2.76,8.285,6.507a.265.265,0,0,1-.464.253c-1.91-3.546-4.855-5.874-7.884-6.233a6.655,6.655,0,0,0-5.277,1.863A4.75,4.75,0,0,0,56.8,92.085a.269.269,0,0,1-.19.28.259.259,0,0,1-.306-.137c-1.752-3.5-6.576-5.114-10.555-3.52-3.578,1.446-6.264,5.2-6.861,9.552a.269.269,0,0,1-.164.211.253.253,0,0,1-.264-.042,7.014,7.014,0,0,0-11.309,6.591.269.269,0,0,1-.222.3Z" fill="#d1d3d4"/>
        <path id="Path_3178" data-name="Path 3178" d="M184.291,97.842a.264.264,0,0,1-.264-.253c-.179-3.911-4.169-7.351-8.539-7.388-3.816,0-7.779,2.232-10.555,6a.253.253,0,0,1-.317.084.259.259,0,0,1-.153-.285,8.311,8.311,0,0,0-4.839-9.03,6.993,6.993,0,0,0-5.583.412,6.153,6.153,0,0,0-3.23,3.81.264.264,0,0,1-.153.174.274.274,0,0,1-.232,0,10.412,10.412,0,0,0-13.88,4.623.259.259,0,0,1-.348.127.264.264,0,0,1-.132-.348,10.972,10.972,0,0,1,14.339-4.992,6.755,6.755,0,0,1,3.409-3.831,7.526,7.526,0,0,1,6.006-.433,8.805,8.805,0,0,1,5.277,8.66c2.829-3.446,6.676-5.467,10.4-5.462,4.639,0,8.871,3.694,9.067,7.869a.269.269,0,0,1-.253.28Z" fill="#d1d3d4"/>
        <path id="Path_3179" data-name="Path 3179" d="M100.508,113.1l-.839,8.623a17.783,17.783,0,0,0,7.04-.185c2.945-.924,4.016-1.325,6.766-.422,5.953,1.958,3.8-5.752,3.8-5.752l-8.074-1.995Z"/>
        <path id="Path_3180" data-name="Path 3180" d="M108.482,71.023s10.8.924,14.423,9.156-4.011,36.91-4.011,36.91l-9.689-3.721s3.034-26.624-.285-30.081-20.788-8.776-20.788-8.776Z"/>
        <path id="Path_3181" data-name="Path 3181" d="M141.344,64.437c-3.378,1.905-7.436,2.111-11.315,2.048a.554.554,0,0,1-.449-.148.528.528,0,0,1-.063-.406q.406-3.831,1.114-7.621a.591.591,0,0,1,.206-.422.528.528,0,0,1,.364-.047,29.383,29.383,0,0,0,2.924.491c.739,0,1.472-.222,2.216-.174a6.169,6.169,0,0,1,1.5.348l2.18.7a2.876,2.876,0,0,1,1.235.633.992.992,0,0,1,.153,1.267" fill="#68e1fd"/>
        <path id="Path_3182" data-name="Path 3182" d="M141.93,64.959c-1.335.137-2.829.211-3.852-.654a2.639,2.639,0,0,1-.823-2.6,3.916,3.916,0,0,1,1.055-1.683,3.958,3.958,0,0,1,1.309-.939,4.343,4.343,0,0,1,2.032-.2,5.494,5.494,0,0,1,2.5.734,2.438,2.438,0,0,1,.976,3.272,3.652,3.652,0,0,1-3.2,2.069Z" fill="#fff"/>
        <path id="Path_3183" data-name="Path 3183" d="M140.573,65.307a3.979,3.979,0,0,1-2.665-.8A2.845,2.845,0,0,1,137,61.64a4.137,4.137,0,0,1,1.135-1.8,4.259,4.259,0,0,1,1.4-1,4.7,4.7,0,0,1,2.153-.216,5.626,5.626,0,0,1,2.639.776,2.671,2.671,0,0,1,1.055,3.62,3.884,3.884,0,0,1-3.414,2.2h0A13.23,13.23,0,0,1,140.573,65.307Zm1.356-.348Zm-.939-5.853a3.346,3.346,0,0,0-1.256.211,3.779,3.779,0,0,0-1.224.881,3.694,3.694,0,0,0-1,1.583,2.359,2.359,0,0,0,.739,2.333c.945.8,2.38.723,3.657.591h0a3.378,3.378,0,0,0,3.008-1.937,2.169,2.169,0,0,0-.887-2.918,5.172,5.172,0,0,0-2.38-.7A2.942,2.942,0,0,0,140.99,59.107Z" fill="#231f20"/>
        <path id="Path_3184" data-name="Path 3184" d="M135.243,55.143s3.916,3.852,7.431,4.127a53.168,53.168,0,0,0,5.742.19s1.932,2.4.5,4.18l-16.8-.317Z" fill="#fff"/>
        <path id="Path_3185" data-name="Path 3185" d="M148.917,63.9h0l-16.8-.322a.259.259,0,0,1-.243-.354l3.135-8.18a.264.264,0,0,1,.427-.095c.037.037,3.889,3.789,7.267,4.058a54.153,54.153,0,0,0,5.71.19.259.259,0,0,1,.216.095c.084.106,2.048,2.581.5,4.507a.248.248,0,0,1-.206.1Zm-16.428-.839,16.3.311c.992-1.393-.179-3.2-.5-3.647-.528,0-2.639.042-5.636-.2s-6.333-3.034-7.3-3.932Z" fill="#231f20"/>
        <path id="Path_3186" data-name="Path 3186" d="M92.428,34.978s-10.3,1.963-12.55,7.621c-1.515,3.779-3.488,19.9,2.185,35.585l26.419-7.161a62.089,62.089,0,0,0,.633-11.652s14.7,7.689,17,7.694,9.932-7.183,9.932-7.183l-2.565-3.874s-5.684,3.984-6.333,2.053c-.332-1-10.734-13.088-17-19.922C107.1,34.794,101.262,34.155,92.428,34.978Z" fill="#68e1fd"/>
        <path id="Path_3187" data-name="Path 3187" d="M100.74,35.675l.385,4.892s-1.409,3.04-4.48,2.306a6.37,6.37,0,0,1-4.19-3.5l-.048-8.913s2.264-1.272,1.546-6.333a18.054,18.054,0,0,0,8.76,1.214,43.4,43.4,0,0,1,.306,7.805A2.6,2.6,0,0,1,100.74,35.675Z" fill="#fff"/>
        <path id="Path_3188" data-name="Path 3188" d="M97.573,43.274a4.222,4.222,0,0,1-.992-.121,6.57,6.57,0,0,1-4.38-3.662.216.216,0,0,1,0-.1l-.042-8.913a.259.259,0,0,1,.137-.237s2.111-1.277,1.409-6.074a.274.274,0,0,1,.38-.29,17.943,17.943,0,0,0,8.613,1.193.274.274,0,0,1,.2.053A.29.29,0,0,1,103,25.3a43.018,43.018,0,0,1,.306,7.879,2.966,2.966,0,0,1-2.259,2.734l.364,4.644a.248.248,0,0,1,0,.137S100.143,43.274,97.573,43.274Zm-4.85-3.958A6.116,6.116,0,0,0,96.708,42.6a3.706,3.706,0,0,0,4.137-2.111l-.38-4.818a.274.274,0,0,1,.069-.2.264.264,0,0,1,.19-.095c.074,0,1.72-.127,2.027-2.311a40.908,40.908,0,0,0-.274-7.462,18.212,18.212,0,0,1-8.19-1.092c.459,4.174-1.114,5.7-1.583,6.069Z" fill="#231f20"/>
        <path id="Path_3189" data-name="Path 3189" d="M100.8,38.108a3.889,3.889,0,0,1-3.166-1.024c-1.367-1.33-1.256-2.111-1.256-2.111a7.033,7.033,0,0,0,4.222.77Z" fill="#231f20"/>
        <path id="Path_3190" data-name="Path 3190" d="M100.349,38.4a4.074,4.074,0,0,1-2.86-1.129c-1.42-1.383-1.34-2.243-1.33-2.333a.248.248,0,0,1,.142-.2.264.264,0,0,1,.243,0,6.784,6.784,0,0,0,4.011.749.269.269,0,0,1,.211.042.285.285,0,0,1,.111.19l.206,2.354a.269.269,0,0,1-.222.285A2.955,2.955,0,0,1,100.349,38.4Zm-3.567-2.961a4.486,4.486,0,0,0,1.055,1.451,3.647,3.647,0,0,0,2.681.976l-.158-1.81a7.029,7.029,0,0,1-3.578-.617Z" fill="#231f20"/>
        <path id="Path_3191" data-name="Path 3191" d="M98.6,28.234s1.457,2.76,1.019,3.166-1.541,0-1.541,0" fill="#fff"/>
        <path id="Path_3192" data-name="Path 3192" d="M99,31.859a3.166,3.166,0,0,1-1.019-.2.259.259,0,0,1-.153-.338.264.264,0,0,1,.338-.158c.306.116,1.024.274,1.267.047a7.843,7.843,0,0,0-1.055-2.855.264.264,0,1,1,.464-.248c.712,1.34,1.451,3.034.966,3.488A1.129,1.129,0,0,1,99,31.859Z" fill="#231f20"/>
        <path id="Path_3193" data-name="Path 3193" d="M98.555,33.7h-.179a3.193,3.193,0,0,1-2.259-1.251.274.274,0,0,1,.037-.375.259.259,0,0,1,.369.032,2.676,2.676,0,0,0,1.884,1.055,3.541,3.541,0,0,0,2.327-.9.269.269,0,0,1,.375,0,.264.264,0,0,1,0,.375A4.153,4.153,0,0,1,98.555,33.7Z" fill="#231f20"/>
        <ellipse id="Ellipse_86" data-name="Ellipse 86" cx="0.712" cy="0.301" rx="0.712" ry="0.301" transform="matrix(0.063, -0.998, 0.998, 0.063, 96.377, 28.461)" fill="#231f20"/>
        <ellipse id="Ellipse_87" data-name="Ellipse 87" cx="0.712" cy="0.301" rx="0.712" ry="0.301" transform="matrix(0.063, -0.998, 0.998, 0.063, 100.477, 28.458)" fill="#231f20"/>
        <path id="Path_3194" data-name="Path 3194" d="M94.375,29.152a4.222,4.222,0,0,0-1.055-1.235,1.383,1.383,0,0,0-.786-.359,1.235,1.235,0,0,0-.67.206,2.591,2.591,0,0,0-1.187,1.71,2.174,2.174,0,0,0,.037.992,2.248,2.248,0,0,0,.955,1.2,6.254,6.254,0,0,0,1.4.623" fill="#fff"/>
        <path id="Path_3195" data-name="Path 3195" d="M93.066,32.546h-.09A6.861,6.861,0,0,1,91.52,31.9a2.528,2.528,0,0,1-1.055-1.335,2.3,2.3,0,0,1-.042-1.124,2.85,2.85,0,0,1,1.309-1.889,1.583,1.583,0,0,1,.823-.248,1.7,1.7,0,0,1,.945.417,4.586,4.586,0,0,1,1.124,1.319.272.272,0,0,1-.475.264,4,4,0,0,0-.987-1.156,1.124,1.124,0,0,0-.628-.3.955.955,0,0,0-.528.169,2.306,2.306,0,0,0-1.055,1.52,1.82,1.82,0,0,0,.032.865,1.963,1.963,0,0,0,.844,1.055,6.138,6.138,0,0,0,1.34.6.274.274,0,0,1,.164.348A.269.269,0,0,1,93.066,32.546Z" fill="#231f20"/>
        <path id="Path_3196" data-name="Path 3196" d="M90.66,32.129l.053.09a3.91,3.91,0,0,0,1.583,1.72,1.736,1.736,0,0,0,2.111-.364,3.925,3.925,0,0,0,.364-2.079c.09-1.293-.28-3.626.528-4.75.38-.528,1.441-.565,2.011-.633a19,19,0,0,1,3.193-.095,9.04,9.04,0,0,1,1.251.121c.607.106.644.264.691.876.127,1.726.375,3.436.6,5.151a.6.6,0,0,0,.127.338c1.024-.327,1.325-3.261,1.409-4.153a12.861,12.861,0,0,0-.781-5.5,6.275,6.275,0,0,0-1.731-2.491,7.388,7.388,0,0,0-6.349-1.884c-2.744.433-5.346,2.137-6.058,4.919a12.243,12.243,0,0,0,1,8.739Z"/>
        <ellipse id="Ellipse_88" data-name="Ellipse 88" cx="14.616" cy="10.055" rx="14.616" ry="10.055" transform="translate(75.178 137.577) rotate(-88.854)"/>
        <rect id="Rectangle_218" data-name="Rectangle 218" width="29.231" height="10.053" transform="translate(75.092 137.488) rotate(-88.91)"/>
        <ellipse id="Ellipse_89" data-name="Ellipse 89" cx="14.613" cy="10.053" rx="14.613" ry="10.053" transform="translate(65.039 137.289) rotate(-88.91)"/>
        <ellipse id="Ellipse_90" data-name="Ellipse 90" cx="9.807" cy="5.025" rx="9.807" ry="5.025" transform="translate(70.244 132.681) rotate(-88.854)" fill="#fff"/>
        <path id="Path_3197" data-name="Path 3197" d="M73.582,90.079s-1.768.185-2.285-2.111,0-4.064,1.245-4.259,31.195-1.055,32.049.607,1.119,4.417-2.111,6.333S73.582,90.079,73.582,90.079Z" fill="#fff"/>
        <path id="Path_3198" data-name="Path 3198" d="M95.431,91.615c-8.4,0-20.93-1.182-21.854-1.272a2.568,2.568,0,0,1-2.533-2.338,5.1,5.1,0,0,1,.311-3.826A1.694,1.694,0,0,1,72.5,83.43c.3-.048,31.295-1.267,32.324.744s.966,4.792-2.227,6.681C101.647,91.415,98.887,91.615,95.431,91.615Zm-21.848-1.8h0c.259,0,25.585,2.433,28.719.581,3.626-2.137,2.47-5.124,2.027-5.985-1.055-1.362-29.981-.749-31.77-.47a1.151,1.151,0,0,0-.792.528,4.647,4.647,0,0,0-.237,3.414c.459,2.069,1.942,1.937,2,1.932Z" fill="#231f20"/>
        <path id="Path_3199" data-name="Path 3199" d="M106.867,64.938a3.984,3.984,0,0,1-2.765-.475,3.314,3.314,0,0,1-1.393-2.639,4.95,4.95,0,0,1,.9-2.9,3.325,3.325,0,0,1,.8-.892,2.908,2.908,0,0,1,2.428-.354,6.138,6.138,0,0,1,2.2,1.214,2.839,2.839,0,0,1,.844.929,3.775,3.775,0,0,1-.317,3.409,3.33,3.33,0,0,1-2.7,1.7Z" fill="#fff"/>
        <path id="Path_3200" data-name="Path 3200" d="M106.075,65.26a3.842,3.842,0,0,1-2.111-.575,3.594,3.594,0,0,1-1.509-2.834,5.235,5.235,0,0,1,.939-3.061,3.531,3.531,0,0,1,.871-.955,3.166,3.166,0,0,1,2.639-.4,6.18,6.18,0,0,1,2.3,1.261,3.135,3.135,0,0,1,.918,1.019,3.9,3.9,0,0,1-.322,3.652,3.594,3.594,0,0,1-2.892,1.826h0A5.616,5.616,0,0,1,106.075,65.26Zm-.111-7.42a2.37,2.37,0,0,0-1.409.422,3.082,3.082,0,0,0-.739.818,4.75,4.75,0,0,0-.85,2.744,3.061,3.061,0,0,0,1.272,2.422,3.816,3.816,0,0,0,2.586.433h0a3.082,3.082,0,0,0,2.507-1.583,3.586,3.586,0,0,0,.306-3.166,2.665,2.665,0,0,0-.765-.823,5.763,5.763,0,0,0-2.111-1.166,3.246,3.246,0,0,0-.792-.1Z" fill="#231f20"/>
        <path id="Path_3201" data-name="Path 3201" d="M129.153,52.009s-5.737-.084-8.818,2.111-3.362,3.372-6.929,4.4-11.837.86-11.837.86l-.069,3.694L118.588,64a23.606,23.606,0,0,1,.7,4.433A3.562,3.562,0,0,0,120.6,71l12.766.5s1.61-7.552,3.3-8.792C139.006,60.991,131.934,51.84,129.153,52.009Z" fill="#fff"/>
        <path id="Path_3202" data-name="Path 3202" d="M133.37,71.772h0l-12.777-.528a.259.259,0,0,1-.148-.058,3.779,3.779,0,0,1-1.425-2.776,21.78,21.78,0,0,0-.644-4.18l-16.888-.913a.264.264,0,0,1-.248-.269l.069-3.694a.264.264,0,0,1,.084-.179.243.243,0,0,1,.185-.074c.084,0,8.27.153,11.758-.855a10.09,10.09,0,0,0,4.539-2.533c.617-.528,1.319-1.124,2.311-1.831,3.082-2.19,8.613-2.153,8.972-2.148,2.243-.137,6.708,4.934,7.916,8.338.623,1.72.206,2.486-.253,2.823-1.325.971-2.765,6.565-3.209,8.639a.259.259,0,0,1-.243.237ZM120.7,70.748l12.455.491c.285-1.277,1.752-7.557,3.362-8.734.57-.422.354-1.441.069-2.222-1.214-3.362-5.494-8-7.357-8h-.084c-.058,0-5.684-.063-8.66,2.058a28.69,28.69,0,0,0-2.275,1.8,10.655,10.655,0,0,1-4.75,2.639c-3.246.939-10.185.9-11.647.876l-.058,3.166,16.83.913a.259.259,0,0,1,.243.2,23.322,23.322,0,0,1,.707,4.507,3.261,3.261,0,0,0,1.166,2.275Z" fill="#231f20"/>
        <circle id="Ellipse_91" data-name="Ellipse 91" cx="6.09" cy="6.09" r="6.09" transform="translate(122.905 52.009)"/>
        <circle id="Ellipse_92" data-name="Ellipse 92" cx="6.09" cy="6.09" r="6.09" transform="translate(126.119 52.067)"/>
        <rect id="Rectangle_219" data-name="Rectangle 219" width="12.18" height="3.214" transform="translate(128.888 64.188) rotate(-88.91)"/>
        <circle id="Ellipse_93" data-name="Ellipse 93" cx="5.045" cy="5.045" r="5.045" transform="translate(127.164 53.111)" fill="#68e1fd"/>
        <path id="Path_3203" data-name="Path 3203" d="M127.137,125.074a1.45,1.45,0,0,1-.274.058H86.348c-3.694-1.172-4.776-3.694-6.4-8.238l-16.033-.306S66.252,103.743,70,97.019,74.527,90.1,74.527,90.1s30.577-.354,30.556.749-3.1,17.125-5.715,22.022-1.583,8.539.38,8.9,7.341-.216,9.563-1.383,3.166-38.488,3.6-43.533c.274-3.261,1.979-4.042,4.676-5.114a13.009,13.009,0,0,0,1.272-.639,15.447,15.447,0,0,1,8.09-1.657c5.858.338,9.906,1.5,11.7,5.167s6.085,15.273,6.586,17.811,1.055,8.148-3.483,15.642S127.918,124.652,127.137,125.074Z" fill="#fff"/>
        <path id="Path_3204" data-name="Path 3204" d="M86.348,125.4h-.079c-3.773-1.187-4.9-3.779-6.5-8.233l-15.832-.3a.269.269,0,0,1-.2-.095.264.264,0,0,1-.053-.216c0-.127,2.38-12.967,6.111-19.648,3.536-6.333,4.48-7,4.692-7.056h.063c4.945-.058,29.669-.285,30.714.77a.343.343,0,0,1,.106.248c-.026,1.293-3.119,17.22-5.747,22.165-1.815,3.393-1.778,6.032-1.135,7.388a1.947,1.947,0,0,0,1.33,1.161c1.842.343,7.183-.2,9.388-1.362,1.583-.823,2.639-24.978,3.071-35.3.169-3.821.3-6.861.4-8.032.28-3.362,2.021-4.222,4.839-5.335a8.105,8.105,0,0,0,.939-.459l.3-.164a15.753,15.753,0,0,1,8.233-1.689c4.977.29,9.869,1.135,11.922,5.314,1.778,3.615,6.1,15.3,6.607,17.874.976,4.945-.243,10.418-3.52,15.832-4.655,7.689-13.953,16.687-14.713,17.1h0a1,1,0,0,1-.359.09Zm40.789-.322Zm-40.747-.206h40.472l.158-.032c.8-.47,10.027-9.5,14.508-16.888,3.209-5.3,4.4-10.644,3.451-15.457a149.937,149.937,0,0,0-6.56-17.748c-1.583-3.166-4.892-4.639-11.484-5.024a15.225,15.225,0,0,0-7.953,1.631l-.3.158a9.2,9.2,0,0,1-1,.491c-2.707,1.055-4.254,1.831-4.512,4.892-.1,1.182-.232,4.2-.4,8.011-.934,21.468-1.821,34.931-3.346,35.733-2.338,1.23-7.774,1.773-9.731,1.409a2.428,2.428,0,0,1-1.71-1.446c-.9-1.884-.475-4.813,1.145-7.842,2.549-4.75,5.5-20.144,5.678-21.8-1.525-.665-18.766-.723-30.229-.591-.1.084-1.055.929-4.354,6.792-3.367,6.037-5.615,17.2-6,19.189l15.721.3a.264.264,0,0,1,.243.174c1.6,4.5,2.654,6.913,6.19,8.048Z" fill="#231f20"/>
        <ellipse id="Ellipse_94" data-name="Ellipse 94" cx="14.616" cy="8.461" rx="14.616" ry="8.461" transform="translate(135.091 137.539) rotate(-88.854)"/>
        <rect id="Rectangle_220" data-name="Rectangle 220" width="29.231" height="8.46" transform="translate(134.942 137.449) rotate(-88.91)"/>
        <ellipse id="Ellipse_95" data-name="Ellipse 95" cx="14.613" cy="8.46" rx="14.613" ry="8.46" transform="translate(126.487 137.287) rotate(-88.91)"/>
        <ellipse id="Ellipse_96" data-name="Ellipse 96" cx="9.805" cy="4.227" rx="9.805" ry="4.227" transform="translate(130.81 132.561) rotate(-88.91)" fill="#fff"/>
        <path id="Path_3205" data-name="Path 3205" d="M137.175,96.2s5.3-1.055,8.2,2.253,6.528,11.705,5.689,12.513-15.906.2-20.054.528l-5.779,5.082s-.686-6.444.723-11.03S128.161,97.763,137.175,96.2Z" fill="#fff"/>
        <path id="Path_3206" data-name="Path 3206" d="M125.253,116.841a.28.28,0,0,1-.095,0,.259.259,0,0,1-.169-.216c-.026-.264-.691-6.544.712-11.135l.084-.274c1.367-4.465,2.354-7.694,11.341-9.251.269-.053,5.5-1.055,8.444,2.338,2.7,3.087,6.771,11.821,5.673,12.877-.528.528-4.137.528-11.679.528-3.478,0-6.771-.032-8.444.09L125.4,116.82a.264.264,0,0,1-.148.021Zm13.869-20.534a10.8,10.8,0,0,0-1.9.153h0c-8.671,1.5-9.568,4.444-10.929,8.887l-.079.28c-1.15,3.742-.871,8.8-.744,10.412l5.393-4.75a.253.253,0,0,1,.153-.069c1.657-.132,5.014-.116,8.565-.095,4.544,0,10.766.053,11.309-.359.528-.649-2.639-8.618-5.7-12.138a7.939,7.939,0,0,0-6.064-2.322Zm-1.947-.106Z" fill="#231f20"/>
        <path id="Path_3207" data-name="Path 3207" d="M136.61,92.417a.259.259,0,0,1-.264-.248c-.644-11.99-4.607-18.735-4.649-18.8a.264.264,0,0,1,.09-.359.259.259,0,0,1,.364.09c.042.069,4.069,6.908,4.75,19.041a.264.264,0,0,1-.253.28Z" fill="#d1d3d4"/>
        <path id="Path_3208" data-name="Path 3208" d="M138.658,109.484a.264.264,0,0,1-.259-.206c0-.069-1.515-6.781-4.665-9.394a.264.264,0,1,1,.338-.4c3.288,2.723,4.781,9.4,4.839,9.684a.264.264,0,0,1-.2.311Z" fill="#231f20"/>
        <path id="Path_3209" data-name="Path 3209" d="M99.742,122.039h0l-11.315-.211a.264.264,0,0,1,0-.528l11.315.216a.264.264,0,1,1,0,.528Z" fill="#231f20"/>
        <path id="Path_3210" data-name="Path 3210" d="M83.562,115.39c-2.206,0-4.006-.1-4.174-.106a.274.274,0,0,1-.248-.28.264.264,0,0,1,.28-.248c.095,0,9.536.528,11.99-.807.4-.211.628-.908.686-2.016.237-4.628-2.639-13.843-3.351-14.333-.829-.565-7.847-1-12.365-1.161a.269.269,0,0,1-.253-.274.28.28,0,0,1,.274-.253c1.166.042,11.42.427,12.639,1.256,1.1.744,3.8,10.386,3.583,14.777-.069,1.34-.385,2.143-.96,2.454C90.18,115.216,86.507,115.39,83.562,115.39Z" fill="#231f20"/>
        <path id="Path_3211" data-name="Path 3211" d="M106.7,57.634a1.177,1.177,0,0,1,1.055-.369,2.691,2.691,0,0,1,1.087.464,1.277,1.277,0,0,1,1.7-.206.749.749,0,0,1,.971-.047,1.889,1.889,0,0,1,.6.86,10.655,10.655,0,0,1,.723,2.433,1.8,1.8,0,0,1,0,.96.707.707,0,0,1-.744.486.955.955,0,0,1-.528-.454,4.749,4.749,0,0,1-.649-1.446c.179.607.322,1.367-.158,1.784A1.135,1.135,0,0,1,109.337,62a3.246,3.246,0,0,1-.818-1.309,3.235,3.235,0,0,1-.153,1.631.269.269,0,0,1-.132.169.274.274,0,0,1-.2-.042,4.254,4.254,0,0,1-1.509-1.974,2.053,2.053,0,0,1,.206,1.15c-.084.385-.5.728-.871.575a1,1,0,0,1-.443-.528,11.673,11.673,0,0,1-.739-1.8,2.483,2.483,0,0,1,.106-2.169,1.457,1.457,0,0,1,1.921-.069Z" fill="#fff"/>
        <path id="Path_3212" data-name="Path 3212" d="M108.186,62.764a.57.57,0,0,1-.285-.084,2.94,2.94,0,0,1-.945-.892,1.108,1.108,0,0,1-.528.617.8.8,0,0,1-.681.042,1.219,1.219,0,0,1-.575-.628,11.721,11.721,0,0,1-.76-1.847,2.742,2.742,0,0,1,.153-2.412,1.478,1.478,0,0,1,1.024-.528,1.836,1.836,0,0,1,1.1.243,1.467,1.467,0,0,1,1.14-.285,2.676,2.676,0,0,1,1.008.385,1.583,1.583,0,0,1,1.715-.19,1.055,1.055,0,0,1,1.145.058,2.153,2.153,0,0,1,.7.976,10.555,10.555,0,0,1,.739,2.491A2.074,2.074,0,0,1,113.1,61.8a.971.971,0,0,1-1.055.654,1.182,1.182,0,0,1-.7-.554l-.079-.116a1.145,1.145,0,0,1-.338.528,1.414,1.414,0,0,1-1.768-.1,2.111,2.111,0,0,1-.391-.427,3,3,0,0,1-.169.639.528.528,0,0,1-.285.327A.433.433,0,0,1,108.186,62.764Zm-1.662-2.549a.259.259,0,0,1,.237.148,3.984,3.984,0,0,0,1.367,1.837,2.977,2.977,0,0,0,.132-1.462.269.269,0,0,1,.19-.3.253.253,0,0,1,.311.153,2.961,2.961,0,0,0,.744,1.2.892.892,0,0,0,1.087.106c.259-.232.3-.654.127-1.33l-.053-.2a.259.259,0,0,1,.185-.317.264.264,0,0,1,.322.179.982.982,0,0,0,.053.2,4.48,4.48,0,0,0,.565,1.177c.09.132.227.317.385.348s.375-.142.449-.327a1.583,1.583,0,0,0,0-.818,10.328,10.328,0,0,0-.7-2.375,1.678,1.678,0,0,0-.528-.749.491.491,0,0,0-.623,0,.264.264,0,0,1-.359.037,1.013,1.013,0,0,0-1.335.158.269.269,0,0,1-.348.058,2.565,2.565,0,0,0-.982-.427.913.913,0,0,0-.834.274.269.269,0,0,1-.375.037,1.277,1.277,0,0,0-.913-.264.929.929,0,0,0-.66.317c-.433.528-.185,1.525-.063,1.926a10.689,10.689,0,0,0,.728,1.763c.079.158.174.332.306.385a.264.264,0,0,0,.232,0,.559.559,0,0,0,.28-.364,1.874,1.874,0,0,0-.19-1,.259.259,0,0,1,.137-.332.269.269,0,0,1,.1-.042Z" fill="#231f20"/>
        <path id="Path_3213" data-name="Path 3213" d="M142.178,57.993a1.309,1.309,0,0,1,1.055-.348,2.755,2.755,0,0,1,1.087.464,1.272,1.272,0,0,1,1.694-.206.76.76,0,0,1,.976-.048,1.947,1.947,0,0,1,.6.865,10.555,10.555,0,0,1,.723,2.428,1.9,1.9,0,0,1,0,.96.718.718,0,0,1-.744.491.987.987,0,0,1-.554-.459,4.75,4.75,0,0,1-.649-1.446c.179.607.317,1.367-.158,1.784a1.145,1.145,0,0,1-1.43-.095,3.288,3.288,0,0,1-.813-1.309c.137.327.111,1.108-.28,1.272s-1.055-.306-1.319-.623a6.065,6.065,0,0,1-.38-.8c-.063.259,0,.528-.047.8a1.055,1.055,0,0,1-.1.359.427.427,0,0,1-.28.227.459.459,0,0,1-.253,0,1.145,1.145,0,0,1-.628-.559,5.2,5.2,0,0,1-.449-1.673,1.992,1.992,0,0,0-.623-1.53.443.443,0,0,1-.148-.132c-.206-.422,1.15-.7,1.393-.723a1.953,1.953,0,0,1,1.325.3Z" fill="#fff"/>
        <path id="Path_3214" data-name="Path 3214" d="M145.624,62.949a1.583,1.583,0,0,1-1-.364,2.111,2.111,0,0,1-.412-.459.818.818,0,0,1-.412.464c-.581.243-1.277-.269-1.615-.686a1.171,1.171,0,0,1-.106.306.7.7,0,0,1-.454.364.744.744,0,0,1-.4-.032,1.409,1.409,0,0,1-.776-.681,5.51,5.51,0,0,1-.475-1.773V60.02a1.668,1.668,0,0,0-.528-1.272.623.623,0,0,1-.237-.232.454.454,0,0,1,0-.427c.274-.5,1.583-.67,1.583-.67a2.206,2.206,0,0,1,1.319.253,1.536,1.536,0,0,1,1.14-.285,2.671,2.671,0,0,1,1.013.391,1.583,1.583,0,0,1,1.715-.2,1.055,1.055,0,0,1,1.145.058,2.153,2.153,0,0,1,.7.976,11.083,11.083,0,0,1,.739,2.491,2.022,2.022,0,0,1-.037,1.092.966.966,0,0,1-1.055.654,1.193,1.193,0,0,1-.718-.565l-.079-.121a1.193,1.193,0,0,1-.338.528A1.15,1.15,0,0,1,145.624,62.949Zm-1.652-2.111a.264.264,0,0,1,.243.164,3.072,3.072,0,0,0,.739,1.209.9.9,0,0,0,1.087.1c.264-.232.306-.654.132-1.335a.852.852,0,0,0-.053-.19.259.259,0,0,1,.185-.317.264.264,0,0,1,.322.179.853.853,0,0,0,.053.19,4.417,4.417,0,0,0,.559,1.182c.1.148.232.317.385.348s.38-.142.449-.327a1.647,1.647,0,0,0,0-.818,10.338,10.338,0,0,0-.707-2.375,1.678,1.678,0,0,0-.528-.749.5.5,0,0,0-.623,0,.264.264,0,0,1-.359.037,1.013,1.013,0,0,0-1.335.158.264.264,0,0,1-.343.058,2.6,2.6,0,0,0-.982-.427,1.055,1.055,0,0,0-.865.28.264.264,0,0,1-.322.032,1.689,1.689,0,0,0-1.15-.274,3.214,3.214,0,0,0-1.145.359,2.111,2.111,0,0,1,.749,1.657v.074a4.9,4.9,0,0,0,.422,1.583.823.823,0,0,0,.47.427.269.269,0,0,0,.121,0,.2.2,0,0,0,.1-.1.839.839,0,0,0,.074-.269,2.067,2.067,0,0,0,0-.317,2.148,2.148,0,0,1,.037-.528.264.264,0,0,1,.274-.158.259.259,0,0,1,.264.121,2.11,2.11,0,0,1,.169.375,1.535,1.535,0,0,0,.2.4c.243.3.744.66,1.013.528s.248-.66.137-.929a.264.264,0,0,1,.142-.343.227.227,0,0,1,.09-.026Z" fill="#231f20"/>
        <path id="Path_3215" data-name="Path 3215" d="M82.126,78.205C81.5,80,83.71,83.076,85.245,83.456c2.961.86,9.547,1.15,10.845,2.164s4.312,28.561,4.312,28.561l8.8-.813c.765-4.9,5.441-32.123-1.852-36.2-1.974-1.1-10.454-3-10.454-3S83.129,76.8,82.38,77.741A1.583,1.583,0,0,0,82.126,78.205Z"/>
        <path id="Path_3216" data-name="Path 3216" d="M79.794,102.418h0l-6.37-.121a.259.259,0,0,1-.259-.269.253.253,0,0,1,.269-.259l6.37.121a.264.264,0,0,1,0,.528Z" fill="#d1d3d4"/>
        <path id="Path_3217" data-name="Path 3217" d="M79.72,106.212h0l-6.365-.137a.264.264,0,0,1,0-.528l6.37.121a.264.264,0,1,1,0,.528Z" fill="#d1d3d4"/>
        <path id="Path_3218" data-name="Path 3218" d="M108.682,54.816a.259.259,0,0,1-.259-.264V41.691a.264.264,0,1,1,.528,0V54.568A.264.264,0,0,1,108.682,54.816Z" fill="#231f20"/>
        <path id="Path_3219" data-name="Path 3219" d="M100.872,57.893c-5.04,0-11.573-.528-12.982-3.219-1.958-3.726-2.364-12.613-2.4-12.982a.264.264,0,1,1,.528,0c0,.09.417,9.14,2.322,12.766,1.114,2.111,6.576,3.166,14.993,2.892h.28a.264.264,0,1,1,0,.528h-.259C102.6,57.872,101.764,57.893,100.872,57.893Z" fill="#231f20"/>
        <path id="Path_3220" data-name="Path 3220" d="M87.815,69.614a11.341,11.341,0,0,1-4.676-.85.264.264,0,1,1,.216-.48c6.586,3,21.289-3.462,21.437-3.525a.264.264,0,0,1,.216.48,68.695,68.695,0,0,1-8.328,2.934,34.134,34.134,0,0,1-8.866,1.441Z" fill="#231f20"/>
        <path id="Path_3221" data-name="Path 3221" d="M109.2,113.632h0l-8.692-.269a.264.264,0,0,1,0-.528l8.692.269a.269.269,0,0,1,.259.274A.264.264,0,0,1,109.2,113.632Z" fill="#fff"/>
        <path id="Path_3222" data-name="Path 3222" d="M110.165,86.369a.259.259,0,0,1-.259-.259c0-.047-.121-5.156-2.021-8.259s-8.175-2.781-8.238-2.781a.264.264,0,0,1,0-.528c.269,0,6.692-.264,8.708,3.029s2.111,8.312,2.111,8.523a.259.259,0,0,1-.259.269Z" fill="#fff"/>
        <path id="Path_3223" data-name="Path 3223" d="M91.378,26.514a8.275,8.275,0,0,1,4.222-4.5c3.277-1.583,7.737-1.451,8.307-.686s1.583,4.94,1.124,5-7.694-.971-11.014,1.282S91.378,26.514,91.378,26.514Z" fill="#fff"/>
        <path id="Path_3224" data-name="Path 3224" d="M92.18,28.651a1.087,1.087,0,0,1-.6-.169c-.749-.528-.491-1.873-.454-2.027a.058.058,0,0,1,0-.026,8.444,8.444,0,0,1,4.343-4.649c3.319-1.583,7.916-1.536,8.629-.607.559.749,1.525,4.5,1.235,5.188a.369.369,0,0,1-.29.232,5.921,5.921,0,0,1-.776-.037c-2.032-.153-7.42-.559-10.122,1.272a3.868,3.868,0,0,1-1.963.823Zm-.528-2.069c-.063.311-.142,1.2.237,1.462.19.127.7.211,1.979-.654,2.855-1.932,8.375-1.52,10.454-1.362l.559.037a13.119,13.119,0,0,0-1.187-4.575c-.507-.681-4.75-.781-7.979.765a8.085,8.085,0,0,0-4.079,4.327Z" fill="#231f20"/>
        <path id="Path_3225" data-name="Path 3225" d="M95.953,24.714a.264.264,0,0,1-.185-.454l2.275-2.222a.253.253,0,0,1,.369,0,.259.259,0,0,1,0,.369l-2.275,2.227A.285.285,0,0,1,95.953,24.714Z" fill="#d1d3d4"/>
        <path id="Path_3226" data-name="Path 3226" d="M100.465,25.12a.248.248,0,0,1-.185-.074.259.259,0,0,1,0-.369c.9-.939,2.3-2.412,2.459-2.612a.264.264,0,1,1,.417.322c-.222.29-2.264,2.412-2.5,2.639A.269.269,0,0,1,100.465,25.12Z" fill="#d1d3d4"/>
        <path id="Path_3227" data-name="Path 3227" d="M98.075,57.075a.259.259,0,0,1-.259-.259L97.5,43.544a.259.259,0,0,1,.253-.269.269.269,0,0,1,.269.259l.311,13.273a.264.264,0,0,1-.253.269Z" fill="#231f20"/>
        <path id="Path_3228" data-name="Path 3228" d="M98.618,72.527a.259.259,0,0,1-.259-.227l-.528-4.164a.259.259,0,0,1,.227-.29.264.264,0,0,1,.3.222l.528,4.164a.264.264,0,0,1-.227.3Z" fill="#231f20"/>
        <path id="Path_3229" data-name="Path 3229" d="M114.208,47.2a2.92,2.92,0,0,1-.676-.079,2.491,2.491,0,0,1-1.583-1.272,2.939,2.939,0,0,1-.385-2.391,2.475,2.475,0,0,1,1.267-1.362.264.264,0,0,1,.206.48,1.963,1.963,0,0,0-.976,1.055,2.438,2.438,0,0,0,.348,1.958,1.979,1.979,0,0,0,1.261,1.019,4.5,4.5,0,0,0,2.924-.712.264.264,0,0,1,.364.079.259.259,0,0,1-.074.359A5.52,5.52,0,0,1,114.208,47.2Z" fill="#231f20"/>
        <rect id="Rectangle_221" data-name="Rectangle 221" width="23.669" height="9.288" rx="0.913" transform="translate(125.596 86.106)" fill="#fff"/>
        <path id="Path_3230" data-name="Path 3230" d="M148.347,95.658H126.509a1.177,1.177,0,0,1-1.177-1.177V87.024a1.177,1.177,0,0,1,1.177-1.177h21.838a1.177,1.177,0,0,1,1.177,1.177v7.441a1.177,1.177,0,0,1-1.177,1.193Zm-21.838-9.288a.654.654,0,0,0-.649.654v7.441a.649.649,0,0,0,.649.649h21.838a.654.654,0,0,0,.654-.649V87.024a.66.66,0,0,0-.654-.654Z" fill="#231f20"/>
        <path id="Path_3231" data-name="Path 3231" d="M91.694,36.593a.807.807,0,0,0-1.082-.285,31.828,31.828,0,0,0-4.887,2.85.813.813,0,0,0-.285,1.055.8.8,0,0,0,1.087.285,31.527,31.527,0,0,1,4.882-2.85.792.792,0,0,0,.285-1.055Z" fill="#231f20"/>
        <path id="Path_3232" data-name="Path 3232" d="M108.487,38.066l-4.934-1.2a.794.794,0,1,0-.422,1.53l4.934,1.187a.792.792,0,1,0,.422-1.525Z" fill="#231f20"/>
      </g>
    </g>
    <g id="Group_125" data-name="Group 125" transform="translate(363.758 768)">
      <path id="Subtraction_1" data-name="Subtraction 1" d="M-13047.155,41.891h0a20.948,20.948,0,0,1-13.393-6.773A20.954,20.954,0,0,1-13066,21a20.865,20.865,0,0,1,6.15-14.849A20.861,20.861,0,0,1-13045,0a20.885,20.885,0,0,1,14.673,5.976,20.882,20.882,0,0,1,6.32,14.489,78.93,78.93,0,0,0-23.146,21.425Z" transform="translate(13266 722)" fill="#483d7f"/>
      <text id="_6" data-name="6" transform="translate(221 749)" fill="#fff" font-size="17" font-family="Poppins-Regular, Poppins"><tspan x="-5.398" y="0">6</tspan></text>
    </g>
  </g>
</svg>
