<svg xmlns="http://www.w3.org/2000/svg" xmlns:xlink="http://www.w3.org/1999/xlink" width="176" height="179" viewBox="0 0 176 179">
  <defs>
    <filter id="Ellipse_69" x="0" y="3" width="176" height="176" filterUnits="userSpaceOnUse">
      <feOffset dy="3" input="SourceAlpha"/>
      <feGaussianBlur stdDeviation="3" result="blur"/>
      <feFlood flood-opacity="0.161"/>
      <feComposite operator="in" in2="blur"/>
      <feComposite in="SourceGraphic"/>
    </filter>
    <filter id="Ellipse_60" x="0" y="3" width="176" height="176" filterUnits="userSpaceOnUse">
      <feOffset dy="3" input="SourceAlpha"/>
      <feGaussianBlur stdDeviation="3" result="blur-2"/>
      <feFlood flood-opacity="0.161"/>
      <feComposite operator="in" in2="blur-2"/>
      <feComposite in="SourceGraphic"/>
    </filter>
    <clipPath id="clip-path">
      <g transform="matrix(1, 0, 0, 1, 0, 0)" filter="url(#Ellipse_69)">
        <circle id="Ellipse_69-2" data-name="Ellipse 69" cx="79" cy="79" r="79" transform="translate(273 1213)" fill="#ba70a3"/>
      </g>
    </clipPath>
  </defs>
  <g id="Group_186" data-name="Group 186" transform="translate(-980.75 -1238)">
    <g transform="matrix(1, 0, 0, 1, 980.75, 1238)" filter="url(#Ellipse_60)">
      <circle id="Ellipse_60-2" data-name="Ellipse 60" cx="79" cy="79" r="79" transform="translate(9 9)" fill="#ba70a3"/>
    </g>
    <g id="Group_118" data-name="Group 118" transform="translate(716.75 34)">
      <g id="Mask_Group_7" data-name="Mask Group 7" clip-path="url(#clip-path)">
        <g id="_270_order_confirmation_flatline" data-name="#270_order_confirmation_flatline" transform="translate(238.777 1205.813)">
          <path id="Path_2937" data-name="Path 2937" d="M191.939,144.437H35.823a.283.283,0,0,1,0-.566H191.939a.283.283,0,1,1,0,.566Z" fill="#d1d3d4"/>
          <path id="Path_2938" data-name="Path 2938" d="M159.694,152.764H92.525a4.24,4.24,0,0,1-4.28-4.529L94.993,20.114a4.806,4.806,0,0,1,4.75-4.529h67.169a4.234,4.234,0,0,1,4.274,4.529l-6.742,128.133A4.806,4.806,0,0,1,159.694,152.764Z" fill="#231f20"/>
          <path id="Path_2939" data-name="Path 2939" d="M159.694,153.014H92.525A4.495,4.495,0,0,1,88,148.236L94.738,20.1a5.1,5.1,0,0,1,5-4.75h67.169a4.489,4.489,0,0,1,4.529,4.778l-6.748,128.139a5.1,5.1,0,0,1-5,4.75ZM99.743,15.851a4.557,4.557,0,0,0-4.5,4.274L88.5,148.264a3.991,3.991,0,0,0,4.025,4.251h67.169a4.563,4.563,0,0,0,4.529-4.28L170.965,20.1a3.963,3.963,0,0,0-4.025-4.246Z" fill="#231f20"/>
          <path id="Path_2940" data-name="Path 2940" d="M154.729,152.538H87.56a4.24,4.24,0,0,1-4.28-4.529L90.011,19.887a4.818,4.818,0,0,1,4.755-4.529h67.18a4.234,4.234,0,0,1,4.274,4.529L159.479,148.02A4.812,4.812,0,0,1,154.729,152.538Z" fill="#fff"/>
          <path id="Path_2941" data-name="Path 2941" d="M154.729,152.849H87.56A4.529,4.529,0,0,1,83,148.037L89.745,19.87a5.1,5.1,0,0,1,5.033-4.778h67.169A4.529,4.529,0,0,1,166.5,19.9l-6.742,128.139a5.1,5.1,0,0,1-5.033,4.812ZM94.778,15.659a4.529,4.529,0,0,0-4.472,4.24L83.563,148.037a3.963,3.963,0,0,0,4,4.218h67.169a4.529,4.529,0,0,0,4.467-4.246L165.938,19.87a3.963,3.963,0,0,0-3.991-4.212Z" fill="#231f20"/>
          <path id="Path_2942" data-name="Path 2942" d="M150.409,144.437H92.666a3.646,3.646,0,0,1-3.68-3.878L94.908,27.773a4.11,4.11,0,0,1,4.053-3.85H156.7a3.646,3.646,0,0,1,3.674,3.878l-5.916,112.786a4.11,4.11,0,0,1-4.053,3.85ZM98.961,24.49A3.533,3.533,0,0,0,95.474,27.8L89.536,140.587a3.085,3.085,0,0,0,3.114,3.283h57.743a3.538,3.538,0,0,0,3.487-3.312l5.95-112.786a3.074,3.074,0,0,0-3.108-3.283Z" fill="#d1d3d4"/>
          <path id="Path_2943" data-name="Path 2943" d="M129.6,20.47H116.981a.289.289,0,0,1-.283-.283.283.283,0,0,1,.283-.283H129.6a.283.283,0,0,1,.283.283A.289.289,0,0,1,129.6,20.47Z" fill="#d1d3d4"/>
          <path id="Path_2944" data-name="Path 2944" d="M133.681,20.47h-2.208a.289.289,0,0,1-.283-.283.283.283,0,0,1,.283-.283h2.208a.283.283,0,0,1,0,.566Z" fill="#d1d3d4"/>
          <path id="Path_2945" data-name="Path 2945" d="M167.568,46.172h0a.283.283,0,0,1-.266-.3l.7-13.247a.272.272,0,0,1,.294-.266.283.283,0,0,1,.272.294l-.7,13.247a.283.283,0,0,1-.294.272Z" fill="#d1d3d4"/>
          <path id="Path_2946" data-name="Path 2946" d="M147.919,95.888H99.443a3.357,3.357,0,0,1-3.4-3.589l.566-10.331a3.85,3.85,0,0,1,3.793-3.589h48.482a3.357,3.357,0,0,1,3.4,3.589l-.566,10.309a3.85,3.85,0,0,1-3.8,3.612Z" fill="#fff"/>
          <path id="Path_2947" data-name="Path 2947" d="M147.919,96.171H99.443a3.646,3.646,0,0,1-3.674-3.889l.566-10.326a4.144,4.144,0,0,1,4.082-3.861h48.476a3.646,3.646,0,0,1,3.674,3.889L152,92.315A4.138,4.138,0,0,1,147.919,96.171Zm-47.48-17.481a3.566,3.566,0,0,0-3.516,3.323l-.566,10.331a3.074,3.074,0,0,0,3.108,3.289h48.476a3.566,3.566,0,0,0,3.493-3.357L152,81.95a3.119,3.119,0,0,0-.838-2.332,3.074,3.074,0,0,0-2.264-.962Z" fill="#231f20"/>
          <path id="Path_2951" data-name="Path 2951" d="M138.419,65.091H112.441l4.4-21.88H136.5Z" fill="#fff"/>
          <path id="Path_2952" data-name="Path 2952" d="M138.419,65.374H112.441a.279.279,0,0,1-.277-.34l4.4-21.88a.289.289,0,0,1,.277-.226H136.5a.283.283,0,0,1,.277.26l1.925,21.88a.272.272,0,0,1-.074.215A.289.289,0,0,1,138.419,65.374Zm-25.633-.566h25.345l-1.874-21.314h-19.18Z" fill="#231f20"/>
          <path id="Path_2953" data-name="Path 2953" d="M132.962,43.494H120.383a.283.283,0,0,1-.2-.091.311.311,0,0,1-.079-.209l.238-4.121a7.031,7.031,0,0,1,6.924-6.556,6.159,6.159,0,0,1,6.227,6.59l-.232,4.121a.289.289,0,0,1-.294.266Zm-12.279-.566H132.69l.221-3.855a5.593,5.593,0,0,0-5.661-5.989,6.454,6.454,0,0,0-6.357,6.023Z" fill="#231f20"/>
          <path id="Path_2954" data-name="Path 2954" d="M134.7,48.063H118.13a.283.283,0,0,1,0-.566H134.7a.289.289,0,0,1,.283.283.283.283,0,0,1-.283.283Z" fill="#d1d3d4"/>
          <path id="Path_2955" data-name="Path 2955" d="M145.648,104.085h-44.83a.283.283,0,0,1,0-.566h44.83a.283.283,0,0,1,0,.566Z" fill="#d1d3d4"/>
          <path id="Path_2956" data-name="Path 2956" d="M145.1,113.754h-44.83a.283.283,0,0,1,0-.566H145.1a.283.283,0,0,1,0,.566Z" fill="#d1d3d4"/>
          <path id="Path_2957" data-name="Path 2957" d="M144.55,123.412H99.72a.283.283,0,0,1,0-.566h44.83a.283.283,0,0,1,0,.566Z" fill="#d1d3d4"/>
          <path id="Path_2958" data-name="Path 2958" d="M137.355,133.092H105.811a.283.283,0,0,1-.283-.283.289.289,0,0,1,.283-.283h31.544a.283.283,0,1,1,0,.566Z" fill="#d1d3d4"/>
          <path id="Path_2959" data-name="Path 2959" d="M179.49,126.554a4.388,4.388,0,0,0-.5-2.372,17.965,17.965,0,0,1-1.059-1.5c-.453-.962-.136-2.095-.243-3.153a3.963,3.963,0,0,0-1.132-2.355c-.566-.566-1.262-.94-1.795-1.523a10.963,10.963,0,0,1-1.608-3.5,8.724,8.724,0,0,0-3.459-4.07c.945,1.9-1.211,4.314-.232,6.227.306.6.9,1.03,1.132,1.664.566,1.534-1.279,3.187-.7,4.7.294.753,1.1,1.194,1.483,1.913.5.968.108,2.14.147,3.232a6,6,0,0,0,2.066,3.9c.679.651,1.432,1.211,2.168,1.8.877.7,1.245,1.444,2.021.317a9.7,9.7,0,0,0,1.71-5.287Z" fill="#231f20"/>
          <path id="Path_2960" data-name="Path 2960" d="M180.47,127.42a5.624,5.624,0,0,1,0-3.533c.566-1.245,1.879-2.129,2.038-3.476.1-.883-.345-1.772-.17-2.644a4.847,4.847,0,0,1,1.472-2.112,8.8,8.8,0,0,0,2.264-5.389,13.326,13.326,0,0,1,2.168,3.589,4.585,4.585,0,0,1-.311,4.042,3.623,3.623,0,0,0-.566.9c-.266.86.47,1.659.849,2.474a2.83,2.83,0,0,1-.272,2.927c-.77.957-2.264,1.336-2.632,2.5a6.171,6.171,0,0,0-.136,1.33,3.9,3.9,0,0,1-2.8,3.351c-.911.221-.894-.142-1.059-.911C181.115,129.441,180.719,128.444,180.47,127.42Z" fill="#231f20"/>
          <path id="Path_2961" data-name="Path 2961" d="M177.571,119.03c-.651-2.264-.911-4.585-1.591-6.793a37.155,37.155,0,0,0-2.123-5.095l2.78,1.172a3.946,3.946,0,0,1,2.264,1.7c.736,1.517-.566,3.465.187,4.959a12.227,12.227,0,0,0,1.1,1.387,4.58,4.58,0,0,1,.243,4.065c-.192.566-1.036,3.55-1.789,2.723-.3-.334-.328-1.562-.453-2.015C178.007,120.411,177.758,119.726,177.571,119.03Z" fill="#231f20"/>
          <path id="Path_2962" data-name="Path 2962" d="M179.049,148.807c-.566-3.663-2.264-16.576-2.31-16.706l.566-.074c0,.13,1.755,13.02,2.3,16.695Z" fill="#231f20"/>
          <path id="Path_2963" data-name="Path 2963" d="M179.785,152.283h-.566c.028-4.348,1.851-20.991,2.9-22.141l.413.385C181.721,131.366,179.819,147.432,179.785,152.283Z" fill="#231f20"/>
          <path id="Path_2964" data-name="Path 2964" d="M180.725,151.434l-.566-.028c.413-9.369-1.574-29.064-1.591-29.262l.566-.057C179.151,122.279,181.155,142.02,180.725,151.434Z" fill="#231f20"/>
          <path id="Path_2965" data-name="Path 2965" d="M174.328,138.306h10.348l-.725,11.752a3.655,3.655,0,0,1-3.448,3.612h-2a3.651,3.651,0,0,1-3.448-3.612Z" fill="#fff"/>
          <path id="Path_2966" data-name="Path 2966" d="M180.5,153.982h-2a3.949,3.949,0,0,1-3.742-3.883l-.725-11.752a.323.323,0,0,1,.079-.221.311.311,0,0,1,.215-.091h10.348a.289.289,0,0,1,.209.091.294.294,0,0,1,.079.221L184.24,150.1A3.944,3.944,0,0,1,180.5,153.982Zm-5.865-15.364.7,11.4a3.376,3.376,0,0,0,3.159,3.334h2a3.369,3.369,0,0,0,3.153-3.34l.708-11.441Z" fill="#231f20"/>
          <path id="Path_2967" data-name="Path 2967" d="M45.759,105.891l-3.176,4.642s-.2,2.474-.86,2.525-.4-2.072-.4-2.072-6.663,3.4-6.793,1.766,4.529-4.285,4.591-4.438,2.723-3.963,2.723-3.963Z" fill="#fff"/>
          <path id="Path_2968" data-name="Path 2968" d="M35.218,113.465a1.347,1.347,0,0,1-.628-.125.685.685,0,0,1-.362-.566c-.119-1.279,2.038-2.9,4.167-4.314l.481-.328c.125-.209.617-.962,2.717-3.963a.289.289,0,0,1,.34-.1l3.963,1.562a.289.289,0,0,1,.164.181.283.283,0,0,1-.034.243l-3.136,4.58c-.079.855-.328,2.649-1.132,2.712a.566.566,0,0,1-.442-.175,2.62,2.62,0,0,1-.306-1.7C39.713,112.09,36.735,113.465,35.218,113.465Zm6.708-8.792c-.991,1.421-2.468,3.561-2.57,3.753,0,.1-.074.13-.645.509-1,.662-4.025,2.678-3.923,3.787a.136.136,0,0,0,.074.119c.719.4,4.138-1,6.329-2.106a.289.289,0,0,1,.294,0A.294.294,0,0,1,41.6,111a3.334,3.334,0,0,0,.113,1.761,4.508,4.508,0,0,0,.566-2.264.283.283,0,0,1,.051-.136l2.978-4.353Z" fill="#231f20"/>
          <path id="Path_2969" data-name="Path 2969" d="M55.6,78.049c-.911.3-15.234,26.93-15.234,26.93l4.925,2.423S60.806,92.638,61.411,87.945,55.6,78.049,55.6,78.049Z" fill="#68e1fd"/>
          <path id="Path_2970" data-name="Path 2970" d="M63.608,120.983c.142.425,2.264,3.261,1.981,4.529s-.979,27.117-.979,27.117l4.1,1.415s5.095-25.7,5.661-29.381a25.225,25.225,0,0,0,0-7.088Z" fill="#fff"/>
          <path id="Path_2971" data-name="Path 2971" d="M68.709,154.333a.254.254,0,0,1-.091,0l-4.1-1.415a.289.289,0,0,1-.192-.277c.028-1.053.7-25.877.985-27.173.187-.838-.974-2.706-1.528-3.606a5.22,5.22,0,0,1-.447-.776.3.3,0,0,1,0-.221.283.283,0,0,1,.17-.142l10.756-3.4a.306.306,0,0,1,.232.028.283.283,0,0,1,.13.2,25.764,25.764,0,0,1,0,7.173c-.566,3.651-5.621,29.138-5.661,29.4a.272.272,0,0,1-.136.187A.255.255,0,0,1,68.709,154.333Zm-3.81-1.9,3.595,1.245c.566-2.972,5.095-25.639,5.6-29.053a24.852,24.852,0,0,0,.045-6.674l-10.128,3.2c.074.125.164.266.249.4.685,1.132,1.84,2.966,1.6,4.031C65.669,126.559,65.142,143.452,64.9,152.43Z" fill="#231f20"/>
          <path id="Path_2972" data-name="Path 2972" d="M53.911,119.919a19.882,19.882,0,0,1-.226,3.759c-.283.855-9.171,25.362-9.171,25.362l3.215,1.608s15.019-23.533,15.4-25.475a18.381,18.381,0,0,0,0-4.818Z" fill="#fff"/>
          <path id="Path_2973" data-name="Path 2973" d="M47.729,150.93a.306.306,0,0,1-.125-.028l-3.216-1.608a.289.289,0,0,1-.142-.351c.091-.243,8.888-24.518,9.165-25.356a18.783,18.783,0,0,0,.215-3.663.272.272,0,0,1,.085-.209.294.294,0,0,1,.209-.079l9.222.453a.289.289,0,0,1,.272.249,18.591,18.591,0,0,1,0,4.908c-.391,1.953-14.826,24.592-15.443,25.554A.272.272,0,0,1,47.729,150.93ZM44.9,148.9l2.757,1.376c4.24-6.686,14.9-23.624,15.183-25.169a17.38,17.38,0,0,0,0-4.489l-8.684-.43a16.762,16.762,0,0,1-.243,3.549c-.232.832-8.056,22.486-9.041,25.147Z" fill="#231f20"/>
          <path id="Path_2974" data-name="Path 2974" d="M64.61,152.634l-.249,3.917h1.608l.187-.945a5,5,0,0,0,2.961,1.228c1.523-.051,4.6.385,4.7,0s-5.095-2.791-5.095-2.791Z" fill="#231f20"/>
          <path id="Path_2975" data-name="Path 2975" d="M72.988,157.282c-.419,0-.985-.034-1.732-.079s-1.562-.1-2.129-.085a4.925,4.925,0,0,1-2.785-1l-.1.493a.277.277,0,0,1-.277.226H64.361a.272.272,0,0,1-.2-.085.277.277,0,0,1-.079-.215l.249-3.923a.284.284,0,0,1,.374-.249l4.1,1.421c5.44,2.519,5.35,2.881,5.287,3.125S73.713,157.282,72.988,157.282Zm-3.612-.73c.566,0,1.245.04,1.913.085s1.506.1,1.987.074A49.315,49.315,0,0,0,68.59,154.3l-3.719-1.285-.209,3.249h1.076l.142-.713a.283.283,0,0,1,.47-.159,4.492,4.492,0,0,0,2.763,1.132Z" fill="#231f20"/>
          <path id="Path_2976" data-name="Path 2976" d="M44.513,149.039l-1.37,4.065,1.37.476,1-1.228s1.891,1.795,2.361,2.174,4.393,1.478,4.489.764-4.251-3.08-4.631-4.642Z" fill="#231f20"/>
          <path id="Path_2977" data-name="Path 2977" d="M51.742,155.8a10.932,10.932,0,0,1-4.048-1.059c-.385-.311-1.642-1.495-2.157-1.981l-.815.991a.283.283,0,0,1-.311.091l-1.37-.476a.283.283,0,0,1-.175-.357l1.37-4.065a.311.311,0,0,1,.159-.17.289.289,0,0,1,.238,0l3.21,1.6a.294.294,0,0,1,.153.187c.187.776,1.625,1.891,2.78,2.785,1.3,1,1.913,1.5,1.857,1.959a.509.509,0,0,1-.34.4,1.568,1.568,0,0,1-.549.091Zm-6.227-3.736a.3.3,0,0,1,.192.074s1.885,1.795,2.344,2.163a9.561,9.561,0,0,0,4.019.911,10.235,10.235,0,0,0-1.625-1.4c-1.234-.957-2.621-2.027-2.949-2.966l-2.831-1.4-1.172,3.487.911.317.883-1.076a.266.266,0,0,1,.2-.1Z" fill="#231f20"/>
          <path id="Path_2978" data-name="Path 2978" d="M72.564,98.656s2.689,18.427,2.406,22.961c0,0-13.366,4.189-22.157.079,0,0,.753-6.046-.662-10.643s-1.987-9.42,0-12.4C52.15,98.656,65.9,103.9,72.564,98.656Z" fill="#231f20"/>
          <path id="Path_2979" data-name="Path 2979" d="M62.317,123.774a22.96,22.96,0,0,1-9.624-1.823.272.272,0,0,1-.159-.289c0-.062.725-6.04-.657-10.53-1.211-3.923-2.185-9.3.034-12.636a.294.294,0,0,1,.34-.108c.136.051,13.677,5.129,20.136.045a.289.289,0,0,1,.277-.045.277.277,0,0,1,.175.226c.113.753,2.695,18.506,2.412,23.024a.277.277,0,0,1-.2.249,48.493,48.493,0,0,1-12.737,1.885Zm-9.2-2.264c8.027,3.617,19.944.357,21.58-.119.175-4.336-1.942-19.384-2.349-22.242-3.521,2.474-8.724,2.321-12.534,1.738a43.636,43.636,0,0,1-7.552-1.9c-1.936,3.159-1,8.231.159,11.968,1.285,4.195.793,9.454.7,10.575Z" fill="#231f20"/>
          <path id="Path_2980" data-name="Path 2980" d="M93.346,84.916l4.778-.634a28.41,28.41,0,0,1,3.736-2.264c.8-.226,5.214.351,5,.742s-1.325.351-1.7.385c-.515.051-1.036.074-1.551.108a4.483,4.483,0,0,1,.532,2.9,2.264,2.264,0,0,1-1.387,1.795.991.991,0,0,1-.651.034.521.521,0,0,1-.362-.5l-.085.028a7.359,7.359,0,0,1-2.095.425c-.566,0-1.07-.294-1.6-.181a18.773,18.773,0,0,0-2.321.81l-4.155,1.449Z" fill="#fff"/>
          <path id="Path_2981" data-name="Path 2981" d="M91.489,90.283a.289.289,0,0,1-.2-.085.283.283,0,0,1-.062-.294l1.857-5.095a.283.283,0,0,1,.226-.187L98.022,84a25.809,25.809,0,0,1,3.759-2.264c.781-.226,4.863.226,5.293.764a.334.334,0,0,1,.04.379c-.221.413-.911.487-1.664.526h-.226c-.362.034-.73.057-1.093.079h0a5.021,5.021,0,0,1,.345,2.689,2.536,2.536,0,0,1-1.574,2.015,1.2,1.2,0,0,1-.838.034.849.849,0,0,1-.47-.4,7.008,7.008,0,0,1-1.97.374,4,4,0,0,1-.77-.113,1.823,1.823,0,0,0-.781-.074,9.375,9.375,0,0,0-1.517.509c-.26.1-.515.2-.764.289L91.6,90.272A.255.255,0,0,1,91.489,90.283Zm2.066-5.135-1.6,4.387,3.623-1.268c.243-.085.493-.187.742-.283a9.748,9.748,0,0,1,1.608-.538,2.372,2.372,0,0,1,1.025.074,2.434,2.434,0,0,0,.64.1,7.065,7.065,0,0,0,2.015-.413h.074a.294.294,0,0,1,.266.045.289.289,0,0,1,.108.243.243.243,0,0,0,.175.209.742.742,0,0,0,.459-.034A1.97,1.97,0,0,0,103.9,86.1a4.24,4.24,0,0,0-.487-2.695.283.283,0,0,1,0-.283.3.3,0,0,1,.238-.159h.47c.357,0,.713-.04,1.07-.074h.255a5.762,5.762,0,0,0,.906-.1,15.7,15.7,0,0,0-4.387-.459,26.594,26.594,0,0,0-3.651,2.225.266.266,0,0,1-.125.051Z" fill="#231f20"/>
          <path id="Path_2982" data-name="Path 2982" d="M51.7,99.069s2.61-20.974,5.61-25.209,10.382-4.914,13.8-2.185,1.619,27.739,1.619,27.739S61.876,102.494,51.7,99.069Z" fill="#68e1fd"/>
          <path id="Path_2983" data-name="Path 2983" d="M71.1,71.692a8.4,8.4,0,0,1,4.987,3.816c1.636,3.029,3.4,7.167,3.4,7.167l16.3,1.359.753,5.191s-10.518,3.221-15.732,4.138c-4.319.764-6.606-1.4-8.492-3.578a23.09,23.09,0,0,1-1.964-3.131Z" fill="#68e1fd"/>
          <path id="Path_2984" data-name="Path 2984" d="M71.856,62.43s1.517,2.508,1.166,3-1.455.119-1.455.119" fill="#fff"/>
          <path id="Path_2985" data-name="Path 2985" d="M72.36,65.969a2.9,2.9,0,0,1-.883-.153.283.283,0,0,1-.175-.357.277.277,0,0,1,.357-.175c.368.119.979.2,1.132,0s-.459-1.5-1.178-2.689a.283.283,0,1,1,.481-.294c.606,1,1.562,2.751,1.161,3.317A1.064,1.064,0,0,1,72.36,65.969Z" fill="#231f20"/>
          <path id="Path_2986" data-name="Path 2986" d="M71.635,59.187c1,.877.628,2.644.566,3.8q-.108,2.434-.334,4.863c-.1,1.025-2.763.945-3.221.623l.566,2.57L63.4,70.2l.362-3.351s-.374-4.67.747-6.731a3.617,3.617,0,0,1,3.334-1.862S70.662,58.309,71.635,59.187Z" fill="#fff"/>
          <path id="Path_2987" data-name="Path 2987" d="M69.218,71.33h-.045l-5.82-.849a.283.283,0,0,1-.238-.311l.357-3.351c0-.142-.368-4.727.781-6.839a3.878,3.878,0,0,1,3.612-2.01c.1,0,2.915.1,3.963,1.013h0c.934.827.81,2.264.713,3.4,0,.215-.034.425-.045.617-.074,1.613-.187,3.255-.334,4.88a1.008,1.008,0,0,1-.679.821,4.727,4.727,0,0,1-2.44.2l.453,2.083a.277.277,0,0,1-.068.255A.283.283,0,0,1,69.218,71.33ZM63.7,69.954l5.146.753-.476-2.174a.283.283,0,0,1,.119-.294.289.289,0,0,1,.323,0,3.963,3.963,0,0,0,2.429-.057c.215-.1.334-.221.345-.362.147-1.613.26-3.244.334-4.852a2.833,2.833,0,0,1,.051-.64c.085-1.019.192-2.264-.532-2.932h0c-.73-.645-2.831-.849-3.612-.872a3.3,3.3,0,0,0-3.08,1.7c-1.07,1.964-.719,6.527-.719,6.573Z" fill="#231f20"/>
          <path id="Path_2988" data-name="Path 2988" d="M62.272,70.979l.566-1.778,7.144.691.413,1.63A9.5,9.5,0,0,1,62.272,70.979Z" fill="#fff"/>
          <path id="Path_2989" data-name="Path 2989" d="M66.954,72.462a10.246,10.246,0,0,1-4.835-1.234.283.283,0,0,1-.136-.334l.566-1.778a.294.294,0,0,1,.3-.2l7.122.713a.3.3,0,0,1,.249.215l.408,1.63a.277.277,0,0,1-.153.323,8.746,8.746,0,0,1-3.521.662Zm-4.359-1.63a9.4,9.4,0,0,0,7.427.521l-.306-1.194L63,69.507Z" fill="#231f20"/>
          <path id="Path_2990" data-name="Path 2990" d="M51.556,96.8a.283.283,0,0,1-.283-.283c0-5.463,2.881-16.134,3.125-16.864a.294.294,0,0,1,.362-.181.283.283,0,0,1,.153.345c-.238.719-3.1,11.283-3.1,16.683a.283.283,0,0,1-.283.283Z" fill="#231f20"/>
          <path id="Path_2991" data-name="Path 2991" d="M66.8,67.2v.119A15.936,15.936,0,0,1,65.34,74.16a8.848,8.848,0,0,1-2.474,3.4,8.293,8.293,0,0,1-3.872,1.523,6.941,6.941,0,0,1-3.572-.255,5.752,5.752,0,0,1-3.4-4.648,9.2,9.2,0,0,1,1.387-5.746c1.081-1.834,2.706-3.221,3.8-5.021,1.189-1.947,1.885-4.234,3.215-6.086a8.137,8.137,0,0,1,9.879-2.349c.725-.708,2.1-.13,2.48.8a3.312,3.312,0,0,1-.181,2.6c-.062.1-1.076,1.183-1.025.843-.13.911-.73,1.347-1.455,1.925a26.775,26.775,0,0,1-2.361,1.495C65.8,63.868,66.71,65.267,66.8,67.2Z" fill="#fff"/>
          <path id="Path_2992" data-name="Path 2992" d="M57.556,79.436a6.108,6.108,0,0,1-2.264-.391,6.029,6.029,0,0,1-3.527-4.886,9.528,9.528,0,0,1,1.449-5.921,19.388,19.388,0,0,1,1.97-2.615,19.548,19.548,0,0,0,1.834-2.406,26.609,26.609,0,0,0,1.353-2.655,21.28,21.28,0,0,1,1.879-3.453A8.416,8.416,0,0,1,70.316,54.6a1.54,1.54,0,0,1,1.228-.226A2.225,2.225,0,0,1,73.1,55.632a3.572,3.572,0,0,1-.2,2.831,4.246,4.246,0,0,1-1.059.979,3.278,3.278,0,0,1-1.415,1.783l-.1.079a13.3,13.3,0,0,1-1.585,1.03c-.266.159-.566.317-.8.481-1.353.86-1.223,1.7-1.03,2.995a11.93,11.93,0,0,1,.147,1.353v.085A16.3,16.3,0,0,1,65.6,74.234a9.058,9.058,0,0,1-2.559,3.476,8.565,8.565,0,0,1-4,1.585,9.97,9.97,0,0,1-1.483.142ZM66.9,54.431a7.688,7.688,0,0,0-6.227,3.012A20.21,20.21,0,0,0,58.875,60.8a24.961,24.961,0,0,1-1.387,2.712,19.474,19.474,0,0,1-1.879,2.474,18.813,18.813,0,0,0-1.919,2.542A8.984,8.984,0,0,0,52.342,74.1a5.423,5.423,0,0,0,3.193,4.416,6.572,6.572,0,0,0,3.431.243A7.925,7.925,0,0,0,62.7,77.285,8.492,8.492,0,0,0,65.1,74.019a15.625,15.625,0,0,0,1.41-6.7v-.113h0a11.151,11.151,0,0,0-.142-1.285c-.192-1.285-.374-2.5,1.285-3.555.266-.17.566-.334.815-.493a13.021,13.021,0,0,0,1.523-.991l.1-.074c.662-.526,1.132-.906,1.257-1.664h0a.283.283,0,0,1,.317-.238h0a7.047,7.047,0,0,0,.719-.725,3.029,3.029,0,0,0,.159-2.344,1.647,1.647,0,0,0-1.132-.917.968.968,0,0,0-.872.209.283.283,0,0,1-.328.051,7.467,7.467,0,0,0-3.306-.753Z" fill="#231f20"/>
          <path id="Path_2993" data-name="Path 2993" d="M71.9,66.637a1.325,1.325,0,0,1-1.908-.6" fill="#fff"/>
          <path id="Path_2994" data-name="Path 2994" d="M71.1,67.118a1.6,1.6,0,0,1-.453-.068,1.568,1.568,0,0,1-.934-.894.282.282,0,1,1,.509-.243,1.019,1.019,0,0,0,.566.566,1.325,1.325,0,0,0,.923-.119.289.289,0,0,1,.385.113.277.277,0,0,1-.108.379,1.976,1.976,0,0,1-.889.266Z" fill="#231f20"/>
          <path id="Path_2995" data-name="Path 2995" d="M68.7,63.353a2.219,2.219,0,0,0-.408-1.132,3.255,3.255,0,0,0-.566-.759,1.047,1.047,0,0,0-.866-.3.974.974,0,0,0-.657.476,1.891,1.891,0,0,0-.238.8,3.493,3.493,0,0,0,1.489,3.153l-.085-.1" fill="#fff"/>
          <path id="Path_2996" data-name="Path 2996" d="M67.463,65.872a.306.306,0,0,1-.159-.045,3.793,3.793,0,0,1-1.613-3.4,2.162,2.162,0,0,1,.272-.917,1.268,1.268,0,0,1,.855-.611,1.342,1.342,0,0,1,1.1.374,3.431,3.431,0,0,1,.617.821,2.5,2.5,0,0,1,.447,1.285.294.294,0,0,1-.289.277.289.289,0,0,1-.277-.289,1.879,1.879,0,0,0-.374-.985,2.972,2.972,0,0,0-.5-.691.759.759,0,0,0-.628-.232.7.7,0,0,0-.459.345,1.534,1.534,0,0,0-.2.679,3.227,3.227,0,0,0,1.172,2.746.289.289,0,0,1,.164.1l.091.1a.283.283,0,0,1,0,.368A.289.289,0,0,1,67.463,65.872Z" fill="#231f20"/>
          <ellipse id="Ellipse_70" data-name="Ellipse 70" cx="0.226" cy="0.583" rx="0.226" ry="0.583" transform="translate(71.191 60.574) rotate(-0.9)" fill="#231f20"/>
          <path id="Path_2997" data-name="Path 2997" d="M75.626,93.068a.306.306,0,0,1-.142-.034C69.354,89.53,67.14,78.57,67.05,78.1a.288.288,0,1,1,.566-.108c0,.113,2.264,11.175,8.158,14.549a.277.277,0,0,1,.108.385A.283.283,0,0,1,75.626,93.068Z" fill="#231f20"/>
          <text id="confirm" transform="translate(125.223 90.187)" fill="#231f20" font-size="11" font-family="Poppins-Regular, Poppins"><tspan x="-21.257" y="0">confirm</tspan></text>
        </g>
      </g>
    </g>
    <g id="Group_123" data-name="Group 123" transform="translate(783.254 516)">
      <path id="Subtraction_1" data-name="Subtraction 1" d="M-13047.155,41.891h0a20.948,20.948,0,0,1-13.393-6.773A20.954,20.954,0,0,1-13066,21a20.865,20.865,0,0,1,6.15-14.849A20.861,20.861,0,0,1-13045,0a20.885,20.885,0,0,1,14.673,5.976,20.882,20.882,0,0,1,6.32,14.489,78.93,78.93,0,0,0-23.146,21.425Z" transform="translate(13266 722)" fill="#483d7f"/>
      <text id="_4" data-name="4" transform="translate(221 749)" fill="#fff" font-size="17" font-family="Poppins-Regular, Poppins"><tspan x="-5.347" y="0">4</tspan></text>
    </g>
  </g>
</svg>
