<svg xmlns="http://www.w3.org/2000/svg" xmlns:xlink="http://www.w3.org/1999/xlink" width="176" height="180" viewBox="0 0 176 180">
  <defs>
    <filter id="Ellipse_99" x="0" y="4" width="176" height="176" filterUnits="userSpaceOnUse">
      <feOffset dy="3" input="SourceAlpha"/>
      <feGaussianBlur stdDeviation="3" result="blur"/>
      <feFlood flood-opacity="0.161"/>
      <feComposite operator="in" in2="blur"/>
      <feComposite in="SourceGraphic"/>
    </filter>
    <filter id="Ellipse_44" x="0" y="4" width="176" height="176" filterUnits="userSpaceOnUse">
      <feOffset dy="3" input="SourceAlpha"/>
      <feGaussianBlur stdDeviation="3" result="blur-2"/>
      <feFlood flood-opacity="0.161"/>
      <feComposite operator="in" in2="blur-2"/>
      <feComposite in="SourceGraphic"/>
    </filter>
    <clipPath id="clip-path">
      <g transform="matrix(1, 0, 0, 1, 0, 0)" filter="url(#Ellipse_99)">
        <circle id="Ellipse_99-2" data-name="Ellipse 99" cx="79" cy="79" r="79" transform="translate(208 1485)" fill="#ba70a3"/>
      </g>
    </clipPath>
  </defs>
  <g id="Group_176" data-name="Group 176" transform="translate(-185.75 -1219.5)">
    <g transform="matrix(1, 0, 0, 1, 185.75, 1219.5)" filter="url(#Ellipse_44)">
      <circle id="Ellipse_44-2" data-name="Ellipse 44" cx="79" cy="79" r="79" transform="translate(9 10)" fill="#ba70a3"/>
    </g>
    <g id="Mask_Group_13" data-name="Mask Group 13" transform="translate(-13.25 -255.5)" clip-path="url(#clip-path)">
      <g id="_496_consulting_flatline" data-name="#496_consulting_flatline" transform="translate(185.163 1487.636)">
        <path id="Path_3584" data-name="Path 3584" d="M180.582,108.6H23.092a.255.255,0,0,1-.255-.255.26.26,0,0,1,.255-.255H180.582a.26.26,0,0,1,.255.255A.255.255,0,0,1,180.582,108.6Z" fill="#d1d3d4"/>
        <path id="Path_3585" data-name="Path 3585" d="M35.607,53.76c-7.6,5.535-8.62,17.073-8.814,25.739-.193,8.147,1.624,15.927,3.325,23.876,1.66,7.775,7.969,12.017,15.5,13.748a105.816,105.816,0,0,0,34.793,1.64c11.37-1.253,11.665-12.455,10.525-21.625-.316-2.546-2.1-4.119-4.033-5.494a24.074,24.074,0,0,1-6.151-5.932c-5.392-7.806-5.7-17.083-9.3-25.576-2.841-6.726-9.165-11.411-16.5-11.177S40.663,50.083,35.607,53.76Z" fill="#fff"/>
        <path id="Path_3586" data-name="Path 3586" d="M67.5,119.75a97.978,97.978,0,0,1-21.936-2.363c-11.054-2.546-14.634-9.007-15.693-13.962l-.356-1.67c-1.624-7.536-3.157-14.649-2.974-22.262.423-17.552,4.99-23.081,8.921-25.943l.148.209-.148-.209c5.352-3.89,12.852-4.634,19.486-4.847,7.159-.219,13.748,4.216,16.742,11.329a74.209,74.209,0,0,1,3.218,10.184c1.375,5.219,2.8,10.611,6.059,15.357a23.133,23.133,0,0,0,6.11,5.871c1.955,1.39,3.809,3.055,4.135,5.667,1.049,8.4.188,14.211-2.632,17.781a11.481,11.481,0,0,1-8.116,4.129,118.878,118.878,0,0,1-12.964.728ZM35.76,53.974c-7.3,5.311-8.493,16.442-8.712,25.541-.178,7.551,1.344,14.639,2.958,22.144l.362,1.67c1.018,4.812,4.516,11.065,15.311,13.57a104.847,104.847,0,0,0,34.7,1.634,10.987,10.987,0,0,0,7.775-3.936c2.729-3.457,3.564-9.165,2.546-17.4-.306-2.429-2.067-3.992-3.926-5.316a23.635,23.635,0,0,1-6.212-5.993c-3.31-4.817-4.741-10.26-6.11-15.52a74.631,74.631,0,0,0-3.2-10.123C68.333,53.322,61.947,48.984,55,49.223c-6.553.214-13.962.942-19.2,4.751Z" fill="#231f20"/>
        <path id="Path_3587" data-name="Path 3587" d="M55.567,96.786a36.758,36.758,0,0,1-4.073-.229A38.962,38.962,0,0,1,43.856,94.9,17.627,17.627,0,0,1,36.5,90.854a15.559,15.559,0,0,1-3.956-8.57,48.78,48.78,0,0,1,.626-15.306,15.566,15.566,0,0,1,7.607-10.723,26.325,26.325,0,0,1,9.985-3.142c4.175-.545,7.18-.1,9.456,1.405,3.717,2.454,4.776,7.174,5.54,11.8l1.3,7.847c.316,1.95.754,4.618,2.286,5.876a9.725,9.725,0,0,0,1.736,1.049,5.594,5.594,0,0,1,2.806,2.332,7.357,7.357,0,0,1,.306,5.749,9.594,9.594,0,0,1-3.926,3.8,28.657,28.657,0,0,1-14.7,3.814ZM53.974,53.4a24.609,24.609,0,0,0-3.1.219,26.243,26.243,0,0,0-9.792,3.055,15.036,15.036,0,0,0-7.363,10.377A47.919,47.919,0,0,0,33.1,82.208a14.862,14.862,0,0,0,3.814,8.284,17.135,17.135,0,0,0,7.129,3.926,37.843,37.843,0,0,0,7.51,1.629h0a29.45,29.45,0,0,0,18.478-3.513A9.213,9.213,0,0,0,73.75,88.97a6.793,6.793,0,0,0-.3-5.3,5.111,5.111,0,0,0-2.582-2.108,10.1,10.1,0,0,1-1.828-1.1c-1.685-1.38-2.139-4.165-2.47-6.192l-1.3-7.847c-.743-4.511-1.772-9.114-5.316-11.452A10.322,10.322,0,0,0,53.974,53.4Z" fill="#d1d3d4"/>
        <path id="Path_3588" data-name="Path 3588" d="M36.819,88.827a.26.26,0,0,1-.239-.158.255.255,0,0,1,.143-.331,11.361,11.361,0,0,1,5.54-1.018.257.257,0,1,1-.076.509,11.028,11.028,0,0,0-5.27.988A.219.219,0,0,1,36.819,88.827Z" fill="#d1d3d4"/>
        <path id="Path_3589" data-name="Path 3589" d="M168.067,53.76c7.612,5.535,8.605,17.073,8.814,25.739.193,8.147-1.624,15.927-3.325,23.876-1.66,7.775-7.969,12.017-15.5,13.748a105.816,105.816,0,0,1-34.793,1.64c-11.37-1.253-11.665-12.455-10.525-21.625.316-2.546,2.1-4.119,4.033-5.494a24.074,24.074,0,0,0,6.151-5.932c5.392-7.806,5.7-17.083,9.3-25.576,2.841-6.726,9.165-11.411,16.5-11.177S163.01,50.083,168.067,53.76Z" fill="#fff"/>
        <path id="Path_3590" data-name="Path 3590" d="M136.176,119.75a118.884,118.884,0,0,1-12.954-.718,11.481,11.481,0,0,1-8.116-4.13c-2.821-3.564-3.681-9.384-2.632-17.781.326-2.627,2.179-4.277,4.135-5.667a24.294,24.294,0,0,0,6.11-5.871c3.259-4.746,4.685-10.138,6.059-15.357A74.21,74.21,0,0,1,132,60.043c3.009-7.129,9.6-11.543,16.742-11.329,6.619.214,14.135.957,19.486,4.847,7.485,5.443,8.7,16.722,8.921,25.968.183,7.612-1.349,14.726-2.974,22.262l-.356,1.67c-1.059,4.954-4.639,11.4-15.693,13.962a97.978,97.978,0,0,1-21.946,2.327Zm12-70.548c-6.747,0-12.887,4.282-15.739,11.029a74.63,74.63,0,0,0-3.2,10.123c-1.385,5.26-2.816,10.693-6.11,15.52a23.877,23.877,0,0,1-6.212,5.993c-1.859,1.324-3.62,2.887-3.926,5.316-1.018,8.254-.2,13.947,2.546,17.4a10.987,10.987,0,0,0,7.775,3.936,104.847,104.847,0,0,0,34.7-1.634c10.795-2.505,14.257-8.758,15.311-13.57l.362-1.67c1.614-7.505,3.137-14.593,2.958-22.144-.418-17.312-4.873-22.75-8.712-25.541h0c-5.24-3.809-12.648-4.537-19.2-4.751Z" fill="#231f20"/>
        <path id="Path_3591" data-name="Path 3591" d="M148.107,96.786a28.657,28.657,0,0,1-14.736-3.814,9.564,9.564,0,0,1-3.926-3.8,7.356,7.356,0,0,1,.306-5.749,5.594,5.594,0,0,1,2.806-2.332,9.725,9.725,0,0,0,1.736-1.049c1.528-1.258,1.971-3.926,2.286-5.876l1.3-7.847c.764-4.623,1.823-9.344,5.54-11.8,2.276-1.5,5.28-1.95,9.456-1.405a25.8,25.8,0,0,1,9.985,3.142,15.566,15.566,0,0,1,7.607,10.723,49.4,49.4,0,0,1,.626,15.306,15.357,15.357,0,0,1-3.956,8.57,17.627,17.627,0,0,1-7.358,4.048,38.962,38.962,0,0,1-7.638,1.655h0a36.756,36.756,0,0,1-4.033.229ZM149.7,53.4a10.737,10.737,0,0,0-6.013,1.528c-3.564,2.337-4.583,6.94-5.316,11.452l-1.3,7.847c-.331,2.037-.784,4.812-2.47,6.192a10.1,10.1,0,0,1-1.828,1.1,5.083,5.083,0,0,0-2.582,2.108,6.793,6.793,0,0,0-.3,5.3,8.951,8.951,0,0,0,3.722,3.564A29.579,29.579,0,0,0,152.1,96.007h0a37.842,37.842,0,0,0,7.51-1.629,16.81,16.81,0,0,0,7.129-3.926,14.862,14.862,0,0,0,3.814-8.284,48.01,48.01,0,0,0-.626-15.133,15.036,15.036,0,0,0-7.363-10.377,25.786,25.786,0,0,0-9.792-3.055,24.541,24.541,0,0,0-3.07-.2Z" fill="#d1d3d4"/>
        <path id="Path_3592" data-name="Path 3592" d="M166.855,88.827a.219.219,0,0,1-.1,0,11,11,0,0,0-5.27-.988.257.257,0,0,1-.076-.509,11.435,11.435,0,0,1,5.54,1.018.255.255,0,0,1,.143.331.26.26,0,0,1-.239.148Z" fill="#d1d3d4"/>
        <path id="Path_3593" data-name="Path 3593" d="M129.735,59.127,113.95,50.47s-.911-2.607-1.889-3.406-.372,2.037-.372,2.037-5.4-3.447-5.952-2.515-1.477,4.73.367,6.2a10.9,10.9,0,0,0,4.649,1.614c8.432,6.8,20.332,14.308,20.332,14.308" fill="#fff"/>
        <path id="Path_3594" data-name="Path 3594" d="M131.085,68.954a.255.255,0,0,1-.132-.041c-.122-.076-11.961-7.561-20.306-14.257a10.7,10.7,0,0,1-4.7-1.66c-1.93-1.528-1.074-5.458-.428-6.533a.56.56,0,0,1,.372-.26c1.018-.244,4.17,1.6,5.443,2.383-.117-.738-.168-1.6.2-1.833.137-.081.362-.127.682.132a9.676,9.676,0,0,1,1.925,3.406l15.713,8.656a.255.255,0,0,1-.244.448L113.828,50.74a.224.224,0,0,1-.117-.137s-.881-2.546-1.8-3.269l-.1-.071a4.934,4.934,0,0,0,.143,1.843.25.25,0,0,1-.1.265.265.265,0,0,1-.285,0c-1.736-1.11-4.786-2.806-5.545-2.622h-.051c-.57.947-1.365,4.542.306,5.871a10.514,10.514,0,0,0,4.516,1.563.275.275,0,0,1,.132.056c8.325,6.711,20.194,14.216,20.311,14.288a.26.26,0,0,1,.081.351.265.265,0,0,1-.234.076Z" fill="#231f20"/>
        <path id="Path_3595" data-name="Path 3595" d="M125.825,108.156s1.146,13.076.677,13.921-11.686,2.546-11.889,1.349,5.489-3.564,5.489-3.564l-1.253-10.693" fill="#fff"/>
        <path id="Path_3596" data-name="Path 3596" d="M116.3,124.083a6.376,6.376,0,0,1-1.1-.071c-.331-.056-.779-.173-.845-.54-.209-1.247,3.921-3.1,5.469-3.748l-1.232-10.5a.256.256,0,1,1,.509-.061l1.253,10.693a.255.255,0,0,1-.158.265c-2.648,1.09-5.443,2.648-5.336,3.264,0,0,.148.163,1.237.193,3.269.107,9.761-1.13,10.184-1.634.306-.642-.275-8.783-.713-13.748a.256.256,0,0,1,.509-.046c.193,2.195,1.13,13.2.647,14.064S119.445,124.083,116.3,124.083Z" fill="#231f20"/>
        <path id="Path_3597" data-name="Path 3597" d="M142.414,111.588s1.573,11.553.759,11.884-11.889.855-11.711-.117,5.642-2.826,5.642-2.826l-1.976-11.263" fill="#fff"/>
        <path id="Path_3598" data-name="Path 3598" d="M135.84,124.18c-2.154,0-4.038-.127-4.476-.479a.4.4,0,0,1-.158-.387c.173-1.018,4.073-2.434,5.6-2.953l-1.945-11.054a.255.255,0,0,1,.209-.29.249.249,0,0,1,.3.2l1.981,11.263a.26.26,0,0,1-.173.29c-2.459.83-5.158,2.037-5.448,2.546.306.173,1.762.392,5.6.306a44.211,44.211,0,0,0,5.7-.392c.351-.642-.168-6.375-.886-11.625a.26.26,0,0,1,.219-.29.25.25,0,0,1,.285.219c.733,5.362,1.431,11.818.606,12.154A43.251,43.251,0,0,1,135.84,124.18Z" fill="#231f20"/>
        <path id="Path_3599" data-name="Path 3599" d="M130.214,88.425c-.27.927-2.632,25.2-2.632,25.2h-9.527s-4.384-24.38-2.943-30.4c.988-4.145,5.489-6.171,10.072-4.827,6.818-.27,13.824-1.141,13.824-1.141Z" fill="#231f20"/>
        <path id="Path_3600" data-name="Path 3600" d="M127.581,113.884h-9.527a.249.249,0,0,1-.249-.209c-.178-1.018-4.379-24.5-2.943-30.505a6.828,6.828,0,0,1,3.254-4.343,9.165,9.165,0,0,1,7.1-.682c6.716-.265,13.692-1.125,13.748-1.13a.251.251,0,0,1,.229.407l-8.758,11.115c-.255,1.217-1.965,18.473-2.612,25.118a.255.255,0,0,1-.239.229Zm-9.313-.509h9.084c.255-2.627,2.358-24.12,2.617-25.021a.285.285,0,0,1,.046-.087l8.412-10.693c-1.859.214-7.638.85-13.239,1.069h-.081a8.656,8.656,0,0,0-6.742.621,6.217,6.217,0,0,0-3.009,4.017c-1.339,5.611,2.49,27.72,2.913,30.093Z" fill="#231f20"/>
        <path id="Path_3601" data-name="Path 3601" d="M159.624,80.655s3,4.98-1.634,10.586-17.821-.29-17.821-.29l3.294,21.936-9.675-.1s-10.082-29.864-8.921-32.954,9.42-4.516,9.42-4.516Z" fill="#231f20"/>
        <path id="Path_3602" data-name="Path 3602" d="M143.448,113.141h0l-9.675-.1a.255.255,0,0,1-.239-.173c-.412-1.222-10.1-29.986-8.921-33.128s9.272-4.613,9.618-4.674a.305.305,0,0,1,.1,0l25.347,5.336a.26.26,0,0,1,.168.122c.031.051,3.055,5.194-1.66,10.876-1.955,2.368-5.728,3.055-10.9,2.037a39.02,39.02,0,0,1-6.813-2.083l3.228,21.488a.249.249,0,0,1-.056.2.265.265,0,0,1-.193.092Zm-9.491-.611,9.2.1L139.9,90.981a.255.255,0,0,1,.356-.27c.132.061,13.081,5.754,17.536.362a9.81,9.81,0,0,0,2.5-7.185,8.147,8.147,0,0,0-.835-3.009l-25.184-5.3c-.672.122-8.147,1.528-9.165,4.343C124.17,82.371,131.12,104.123,133.956,112.53Z" fill="#231f20"/>
        <path id="Path_3603" data-name="Path 3603" d="M128.223,96.022a.249.249,0,0,1-.234-.158c-.219-.555-5.341-13.651-3.732-16.935a1.365,1.365,0,0,1,.855-.769.255.255,0,0,1,.316.173.26.26,0,0,1-.173.316.871.871,0,0,0-.54.509c-1.528,3.086,3.692,16.391,3.748,16.523a.255.255,0,0,1-.148.331Z" fill="#fff"/>
        <path id="Path_3604" data-name="Path 3604" d="M140.153,91.205a.244.244,0,0,1-.132-.036c-.127-.076-3.132-1.909-3.982-3.208a.249.249,0,0,1,.071-.351.255.255,0,0,1,.351.071c.789,1.207,3.793,3.055,3.824,3.055a.26.26,0,0,1,.087.351A.265.265,0,0,1,140.153,91.205Z" fill="#fff"/>
        <path id="Path_3605" data-name="Path 3605" d="M159.624,80.655s10.637-26.208,2.78-32.221S143.351,45.1,141.823,50.72s-7.551,24.6-7.551,24.6S153.57,81.072,159.624,80.655Z" fill="#68e1fd"/>
        <path id="Path_3606" data-name="Path 3606" d="M148.5,51.29l-1.838,18.5L156.8,49.982Z" fill="#231f20"/>
        <path id="Path_3607" data-name="Path 3607" d="M146.645,70.043a.2.2,0,0,1-.076,0,.244.244,0,0,1-.178-.27l1.843-18.5a.255.255,0,0,1,.214-.229l8.295-1.3a.25.25,0,0,1,.249.1.26.26,0,0,1,0,.265L146.849,69.916A.255.255,0,0,1,146.645,70.043Zm2.072-18.534-1.69,16.966,9.3-18.163Z" fill="#231f20"/>
        <path id="Path_3608" data-name="Path 3608" d="M142.521,48.464l-13.28,9.394,1.212,11.93,14.232-6.013S147.042,50.577,142.521,48.464Z" fill="#68e1fd"/>
        <path id="Path_3609" data-name="Path 3609" d="M147.664,48.734a6.945,6.945,0,0,1,2.969-.321c1.563.275,2.994,1.018,4.583,1.253a29.329,29.329,0,0,0,5.265,0c.509-.025,0,.662.428.367,1.436-1.049,1.365-3.126,1.36-4.684a39.533,39.533,0,0,0-1.339-10.693c-.509-1.813-2.521-8.447-5.458-5.6.662-.647-2.546-2.154-3-2.281-4.165-1.156-7.943,2.505-8.875,6.314-.677,2.765-.728,5.509-2.037,8.106a9.04,9.04,0,0,0-1.385,3.564,4.2,4.2,0,0,0,2.368,3.707,6.823,6.823,0,0,0,4.532.412Z" fill="#fff"/>
        <path id="Path_3610" data-name="Path 3610" d="M160.76,50.358a.305.305,0,0,1-.137-.036.351.351,0,0,1-.148-.362v-.036l-.8.036a24.548,24.548,0,0,1-4.5-.041,14.028,14.028,0,0,1-2.485-.662,14.258,14.258,0,0,0-2.113-.591,6.4,6.4,0,0,0-2.719.275l-.148.036-.606.148a7.129,7.129,0,0,1-4.7-.438,4.43,4.43,0,0,1-2.51-3.936,7.072,7.072,0,0,1,1.085-3.055c.112-.209.224-.418.331-.626a18.915,18.915,0,0,0,1.528-5.357c.148-.881.306-1.787.509-2.694a9.522,9.522,0,0,1,4.231-5.784,6.314,6.314,0,0,1,4.959-.713c.29.081,2.663,1.12,3.177,1.991a1.9,1.9,0,0,1,1.65-.372c1.782.479,3.055,3.753,3.814,6.416a39.462,39.462,0,0,1,1.349,10.774v.193c0,1.528,0,3.62-1.466,4.7a.545.545,0,0,1-.305.132Zm-.26-.967a.479.479,0,0,1,.356.132.423.423,0,0,1,.087.132c1.09-.967,1.079-2.719,1.074-4.14v-.188a39.1,39.1,0,0,0-1.329-10.642c-1.018-3.564-2.246-5.739-3.452-6.059a1.629,1.629,0,0,0-1.584.6.256.256,0,1,1-.356-.367c.092-.382-2.184-1.655-2.9-1.853a5.8,5.8,0,0,0-4.583.662,8.982,8.982,0,0,0-3.992,5.469c-.219.886-.372,1.787-.509,2.658a19.222,19.222,0,0,1-1.528,5.5c-.107.209-.224.418-.336.631a6.742,6.742,0,0,0-1.018,2.821,3.905,3.905,0,0,0,2.23,3.468,6.619,6.619,0,0,0,4.364.392l.591-.143.148-.036a6.889,6.889,0,0,1,2.928-.285,15.429,15.429,0,0,1,2.189.611,13.591,13.591,0,0,0,2.393.642,23.932,23.932,0,0,0,4.4.036l.815-.041Z" fill="#231f20"/>
        <path id="Path_3611" data-name="Path 3611" d="M145.174,34.569s-1.39,4.272-.56,7.465a4.715,4.715,0,0,0,3.727,3.564l.163,5.688s.061,2.913,3.61,2.358a6.11,6.11,0,0,0,4.69-3.666l.1-10.474s-4.109-2.21-3.87-5.973C153.035,33.535,148.3,36,145.174,34.569Z" fill="#fff"/>
        <path id="Path_3612" data-name="Path 3612" d="M151.263,53.974a3.055,3.055,0,0,1-2.037-.657,2.933,2.933,0,0,1-.973-2.037l-.163-5.453a5.026,5.026,0,0,1-3.727-3.712c-.835-3.228.509-7.434.57-7.638a.255.255,0,0,1,.137-.153.27.27,0,0,1,.209,0c2.979,1.365,7.592-1.018,7.638-1.018a.265.265,0,0,1,.26,0,.255.255,0,0,1,.112.229c-.229,3.564,3.7,5.713,3.732,5.733a.255.255,0,0,1,.137.224l-.1,10.479a.229.229,0,0,1,0,.081,6.3,6.3,0,0,1-4.888,3.829,5.544,5.544,0,0,1-.906.092Zm-5.927-19.059c-.28.973-1.161,4.42-.479,7.052a4.425,4.425,0,0,0,3.513,3.381.255.255,0,0,1,.224.244l.163,5.688a2.434,2.434,0,0,0,.794,1.65,3.027,3.027,0,0,0,2.546.468,5.891,5.891,0,0,0,4.471-3.468l.1-10.275c-.7-.412-3.819-2.429-3.875-5.713C151.6,34.487,148.03,35.943,145.337,34.915Z" fill="#231f20"/>
        <path id="Path_3613" data-name="Path 3613" d="M154.909,38.83s1.645-4,3.7-1.568-.754,5.245-2.515,5.061" fill="#fff"/>
        <path id="Path_3614" data-name="Path 3614" d="M156.259,42.588h-.193a.256.256,0,1,1,.051-.509,3.113,3.113,0,0,0,2.632-1.741,2.475,2.475,0,0,0-.336-2.9,1.482,1.482,0,0,0-1.309-.682c-.927.143-1.726,1.624-1.955,2.184a.256.256,0,0,1-.474-.193c.041-.1.952-2.276,2.352-2.5a1.946,1.946,0,0,1,1.777.861,3,3,0,0,1,.4,3.468A3.664,3.664,0,0,1,156.259,42.588Z" fill="#231f20"/>
        <path id="Path_3615" data-name="Path 3615" d="M147.48,42.155a1.9,1.9,0,0,1-.8-.153.448.448,0,0,1-.244-.311c-.188-.728,1.181-2.734,1.609-3.335a.249.249,0,0,1,.351-.061.255.255,0,0,1,.061.356,7.711,7.711,0,0,0-1.528,2.918,3.106,3.106,0,0,0,1.6-.081.265.265,0,1,1,.148.509A4.379,4.379,0,0,1,147.48,42.155Z" fill="#231f20"/>
        <path id="Path_3616" data-name="Path 3616" d="M148.341,45.6a16.707,16.707,0,0,0,4.781-.2s-1.777,4.537-4.664,4.583Z" fill="#231f20"/>
        <path id="Path_3617" data-name="Path 3617" d="M148.458,50.251A.255.255,0,0,1,148.2,50l-.117-4.394a.255.255,0,0,1,.28-.26,16.679,16.679,0,0,0,4.685-.193.25.25,0,0,1,.26.071.255.255,0,0,1,.051.265c-.076.193-1.874,4.695-4.9,4.761Zm.143-4.374.1,3.844c2.037-.244,3.473-2.877,3.982-3.956a17.913,17.913,0,0,1-4.084.112Z" fill="#231f20"/>
        <ellipse id="Ellipse_105" data-name="Ellipse 105" cx="0.784" cy="0.448" rx="0.784" ry="0.448" transform="translate(149.753 38.619) rotate(-88.54)" fill="#231f20"/>
        <ellipse id="Ellipse_106" data-name="Ellipse 106" cx="0.784" cy="0.448" rx="0.784" ry="0.448" transform="translate(145.631 38.519) rotate(-88.54)" fill="#231f20"/>
        <path id="Path_3618" data-name="Path 3618" d="M162.211,43.281c.219,3.345.509,9.5-4.807,7.979a4.516,4.516,0,0,1-2.612-2.062c-1.018-1.823,1.721-4.46,3.019-5.647" fill="#fff"/>
        <path id="Path_3619" data-name="Path 3619" d="M158.917,51.754a5.8,5.8,0,0,1-1.584-.244,4.715,4.715,0,0,1-2.785-2.189c-1.054-1.853,1.248-4.287,3.055-5.957a.26.26,0,0,1,.362,0,.255.255,0,0,1,0,.362c-.978.9-3.946,3.615-2.969,5.331a4.216,4.216,0,0,0,2.485,1.95,3.333,3.333,0,0,0,3.116-.316c1.757-1.421,1.492-5.458,1.365-7.4a.255.255,0,1,1,.509-.036c.143,2.184.412,6.243-1.558,7.831a3.055,3.055,0,0,1-2,.667Z" fill="#231f20"/>
        <path id="Path_3620" data-name="Path 3620" d="M150.627,43.316c0,.27-.453.509-1.018.509s-.336-.224-.336-.509-.224-.509.336-.509S150.627,43.046,150.627,43.316Z" fill="#231f20"/>
        <path id="Path_3621" data-name="Path 3621" d="M163.331,49.808s-4.7,3.926-4.72,7.246,3.564,18.84,3.564,18.84l9.792-5.458S168.148,51.153,163.331,49.808Z" fill="#68e1fd"/>
        <path id="Path_3622" data-name="Path 3622" d="M134.807,73.883h-.071a.255.255,0,0,1-.168-.321l7.017-22.913a.255.255,0,1,1,.484.148L135.051,73.71A.255.255,0,0,1,134.807,73.883Z" fill="#231f20"/>
        <path id="Path_3623" data-name="Path 3623" d="M162.272,75.089a.249.249,0,0,1-.249-.2c-3.967-17.694-3.722-17.9-3.564-18.03a.26.26,0,0,1,.362,0,.25.25,0,0,1,.046.25c0,.83,2.174,10.973,3.671,17.643a.255.255,0,0,1-.193.306Z" fill="#231f20"/>
        <path id="Path_3624" data-name="Path 3624" d="M148.606,74.835l-18.254,6.879-8.106-5.82L138.2,71.077Z" fill="#fff"/>
        <path id="Path_3625" data-name="Path 3625" d="M130.351,81.979a.27.27,0,0,1-.153-.046l-8.1-5.825a.255.255,0,0,1-.107-.25.26.26,0,0,1,.178-.2l15.958-4.812a.3.3,0,0,1,.163,0L148.682,74.6a.27.27,0,0,1,.168.239.255.255,0,0,1-.168.239l-18.244,6.9A.239.239,0,0,1,130.351,81.979ZM122.81,76l7.577,5.443,17.48-6.589-9.674-3.493Z" fill="#231f20"/>
        <path id="Path_3626" data-name="Path 3626" d="M170.826,71.082s2.037,10.3-3.508,11.284-23.932-2.617-23.932-2.617-6.385,1.125-5.978-.509,4.394-2.358,4.394-2.358-3.289-1.594-1.67-1.589a49.708,49.708,0,0,1,5.143.575L162.282,73.6" fill="#fff"/>
        <path id="Path_3627" data-name="Path 3627" d="M164.8,82.793c-6.966,0-20.311-2.546-21.386-2.785-.962.168-5.173.835-6.059-.122a.7.7,0,0,1-.163-.682c.341-1.329,2.673-2.083,3.89-2.388-1.731-.917-1.65-1.278-1.614-1.421.076-.331.509-.331.692-.331a49.267,49.267,0,0,1,5.148.57l16.971-2.261a.257.257,0,1,1,.066.509l-17.007,2.261a.194.194,0,0,1-.076,0,49.977,49.977,0,0,0-5.092-.57H140.1a10.383,10.383,0,0,0,1.864,1.1.26.26,0,0,1-.061.484c-1.064.2-3.9.983-4.2,2.169a.188.188,0,0,0,.041.209c.55.6,3.753.29,5.642-.041h.1c.183.036,18.4,3.564,23.815,2.617a3.625,3.625,0,0,0,2.408-1.563c2.077-3.019.947-9.165.9-9.42a.265.265,0,0,1,.056-.214.25.25,0,0,1,.26-.087.244.244,0,0,1,.183.2l-.25.051.255-.046c.127.672,1.181,6.67-.983,9.807a4.1,4.1,0,0,1-2.739,1.772,15.078,15.078,0,0,1-2.582.178Z" fill="#231f20"/>
        <path id="Path_3628" data-name="Path 3628" d="M100,114.994a3.473,3.473,0,0,0,1.93.937c.85,0,10.072-1.7,10.454-.438s-.372,1.894-2.576,2.933c-2.953,1.39-12.867,4.654-12.867,4.654l-2.169-5.092Z" fill="#fff"/>
        <path id="Path_3629" data-name="Path 3629" d="M96.944,123.314a.224.224,0,0,1-.214-.143l-2.169-5.092a.229.229,0,0,1,.1-.29l5.229-2.994a.234.234,0,0,1,.29.046,3.233,3.233,0,0,0,1.762.861,16.923,16.923,0,0,0,1.853-.229c5.494-.769,8.524-1.018,8.819-.046.438,1.451-.479,2.164-2.7,3.213-2.928,1.385-12.791,4.634-12.893,4.669Zm-1.874-5.229,2.006,4.71c1.426-.474,9.96-3.32,12.633-4.583,2.266-1.069,2.77-1.614,2.454-2.658-.229-.759-6.309.092-8.3.372-1.12.158-1.716.224-1.93.234a3.626,3.626,0,0,1-1.96-.886Z" fill="#231f20"/>
        <path id="Path_3630" data-name="Path 3630" d="M71.342,120.458s9.883,3.4,10.306,4.043-.326,1.405-2.958,1.64-13.9-.377-13.9-.377a12.963,12.963,0,0,1,.565-4.583C66.067,119.653,71.342,120.458,71.342,120.458Z" fill="#fff"/>
        <path id="Path_3631" data-name="Path 3631" d="M76.811,126.425c-4.033,0-11.645-.407-12.027-.428a.239.239,0,0,1-.224-.224,13.343,13.343,0,0,1,.586-4.7c.759-1.665,5.672-.927,6.232-.84h.036c2.337.8,10,3.473,10.428,4.14a.794.794,0,0,1,.071.8c-.3.616-1.41,1.018-3.2,1.186A18.473,18.473,0,0,1,76.811,126.425Zm-11.793-.881c1.568.081,11.268.575,13.651.362,2.3-.2,2.745-.759,2.821-.927a.326.326,0,0,0-.036-.351c-.392-.458-6.436-2.658-10.184-3.941-1.976-.316-5.26-.433-5.718.575A12.523,12.523,0,0,0,65.018,125.545Z" fill="#231f20"/>
        <path id="Path_3632" data-name="Path 3632" d="M45.71,88.262s-8.065-20.159-7.22-30.1,7.337-10.55,9.613-10.693,14.227-1.736,18.59,3.615,3.244,31.126,3.244,31.126Z" fill="#68e1fd"/>
        <path id="Path_3633" data-name="Path 3633" d="M59.946,52.059l-.148,20.2L51.224,50.7Z" fill="#231f20"/>
        <path id="Path_3634" data-name="Path 3634" d="M59.8,72.513a.26.26,0,0,1-.239-.158L50.985,50.8a.27.27,0,0,1,.041-.255.249.249,0,0,1,.239-.092l8.722,1.36a.255.255,0,0,1,.219.25l-.153,20.2a.255.255,0,0,1-.209.244ZM51.652,51.02l7.923,19.935.137-18.677Z" fill="#231f20"/>
        <path id="Path_3635" data-name="Path 3635" d="M70.43,77.1A69.584,69.584,0,0,1,89.1,85.726C93.145,88.471,100.7,115.4,100.7,115.4s-.845,4.664-6.232,3.936L70.919,88.827S65.868,76.984,70.43,77.1Z" fill="#231f20"/>
        <path id="Path_3636" data-name="Path 3636" d="M95.564,119.658a8.216,8.216,0,0,1-1.135-.081.27.27,0,0,1-.168-.1L70.721,88.975a.208.208,0,0,1-.036-.056c-.148-.351-3.681-8.7-1.925-11.289a1.833,1.833,0,0,1,1.675-.789H70.5A70.586,70.586,0,0,1,89.245,85.5c4.073,2.77,11.385,28.713,11.711,29.818a.28.28,0,0,1,0,.112,5.352,5.352,0,0,1-5.392,4.231Zm-.962-.57c4.73.586,5.718-3.157,5.83-3.687-.4-1.41-7.638-26.87-11.472-29.472a69.84,69.84,0,0,0-18.565-8.58h-.031a1.319,1.319,0,0,0-1.181.565c-1.553,2.291,1.726,10.224,1.96,10.774Z" fill="#231f20"/>
        <path id="Path_3637" data-name="Path 3637" d="M45.71,88.262s18.677-7.6,23.463-8.3A21.6,21.6,0,0,1,79.54,89c3.518,6.487-8.2,31.463-8.2,31.463a9.247,9.247,0,0,1-6.406,1.13l-.153-26.142S42.222,97.682,45.71,88.262Z" fill="#231f20"/>
        <path id="Path_3638" data-name="Path 3638" d="M66.642,122.006a9.385,9.385,0,0,1-1.757-.168.255.255,0,0,1-.2-.25l-.153-25.861c-2.149.188-15.25,1.135-18.636-3.254a4.3,4.3,0,0,1-.423-4.3.255.255,0,0,1,.143-.148c.764-.311,18.758-7.638,23.524-8.32a.275.275,0,0,1,.127,0c.066.025,6.976,2.663,10.5,9.165s-7.714,30.668-8.193,31.692a.234.234,0,0,1-.092.107,9.349,9.349,0,0,1-4.837,1.334Zm-1.466-.631a9.1,9.1,0,0,0,5.952-1.09c.667-1.446,11.508-25.042,8.172-31.167a21.487,21.487,0,0,0-10.184-8.9c-4.618.723-21.722,7.638-23.229,8.234a3.742,3.742,0,0,0,.382,3.707c3.442,4.46,18.331,3.055,18.463,3.055a.26.26,0,0,1,.193.061.255.255,0,0,1,.087.188Z" fill="#231f20"/>
        <path id="Path_3639" data-name="Path 3639" d="M79.117,99.754h-.046a.26.26,0,0,1-.209-.3c.657-3.737,1.334-9.634.509-10.56-2.714-2.994-9.456-7.984-9.522-8.035a.255.255,0,0,1-.056-.351.26.26,0,0,1,.356-.056c.066.051,6.849,5.092,9.6,8.1,1.278,1.405-.193,10.016-.367,10.993a.25.25,0,0,1-.265.2Z" fill="#fff"/>
        <path id="Path_3640" data-name="Path 3640" d="M66.7,51.081s3.233,6.212,5.138,9.4a65.364,65.364,0,0,0,6.039,7.77s14.644,5.209,14.741,5.489-1.39,5.2-1.39,5.2-15.362-1.1-17.908-2.307-7.7-7.129-7.7-7.129Z" fill="#68e1fd"/>
        <path id="Path_3641" data-name="Path 3641" d="M56.626,54.289l-1.079,1.7,1.181.7.117,8.147L59.8,72.258l.148-6.864-2.459-8.936.733-.861Z" fill="#fff"/>
        <path id="Path_3642" data-name="Path 3642" d="M59.8,72.513a.26.26,0,0,1-.239-.158l-2.948-7.419a.591.591,0,0,1,0-.092L56.5,56.835l-1.064-.626a.275.275,0,0,1-.117-.163.239.239,0,0,1,.036-.193l1.079-1.7a.26.26,0,0,1,.173-.117.265.265,0,0,1,.2.056L58.4,55.4a.255.255,0,0,1,.031.362l-.662.759L60.2,65.328a.393.393,0,0,1,0,.076l-.153,6.859a.255.255,0,0,1-.209.244Zm-2.7-7.719L59.575,71l.122-5.57-2.454-8.911a.275.275,0,0,1,.051-.234l.565-.662-1.171-.962L55.9,55.9l.957.57a.25.25,0,0,1,.122.214Z" fill="#231f20"/>
        <path id="Path_3643" data-name="Path 3643" d="M50.689,31.2a3.987,3.987,0,0,1,.911-.229c1.242-.143,1.263.127,2.22-.677a9.114,9.114,0,0,1,5.092-1.935c3.564-.234,6.156,1.553,5.341,5.464a11.467,11.467,0,0,1-2.088,4.257c-2.037,2.79-4.853,5.316-8.284,5.6-1.018.076-2.928,0-3.666-.83a9.242,9.242,0,0,1-1.894-8.855,5.168,5.168,0,0,1,.922-1.782A3.61,3.61,0,0,1,50.689,31.2Z" fill="#fff"/>
        <path id="Path_3644" data-name="Path 3644" d="M53.256,43.927c-.906,0-2.51-.122-3.244-.937a9.461,9.461,0,0,1-1.935-9.079,5.346,5.346,0,0,1,.973-1.864A3.911,3.911,0,0,1,51.6,30.719a7.6,7.6,0,0,1,.774-.056c.509,0,.667,0,1.309-.565A9.2,9.2,0,0,1,58.9,28.107a5.767,5.767,0,0,1,4.8,1.528,4.732,4.732,0,0,1,.8,4.211A11.416,11.416,0,0,1,62.38,38.2c-1.757,2.434-4.649,5.4-8.473,5.683A2.892,2.892,0,0,1,53.256,43.927Zm6.253-15.337h-.6a8.86,8.86,0,0,0-4.939,1.9,2.108,2.108,0,0,1-1.614.682,4.275,4.275,0,0,0-.738.051,3.529,3.529,0,0,0-.85.214h0a3.325,3.325,0,0,0-1.339.937,4.949,4.949,0,0,0-.881,1.7,8.951,8.951,0,0,0,1.859,8.585c.58.647,2.2.845,3.457.743,3.625-.27,6.406-3.126,8.1-5.469A10.953,10.953,0,0,0,64,33.769a4.261,4.261,0,0,0-.692-3.778,4.936,4.936,0,0,0-3.8-1.4ZM50.689,31.2Z" fill="#231f20"/>
        <path id="Path_3645" data-name="Path 3645" d="M59.951,46.682v5.377a3.95,3.95,0,0,1-4.781,2.067c-3.518-.891-3.946-3.427-3.946-3.427l.158-9.965s2.632-1.365,1.93-7.052a17.516,17.516,0,0,0,9.165,1.385s1.079,6.217.7,8.957C62.8,46.692,60,46.646,59.951,46.682Z" fill="#fff"/>
        <path id="Path_3646" data-name="Path 3646" d="M56.438,54.549a5.407,5.407,0,0,1-1.329-.178c-3.636-.927-4.119-3.518-4.135-3.625l.153-10a.265.265,0,0,1,.137-.224s2.464-1.38,1.8-6.793a.239.239,0,0,1,.107-.239.249.249,0,0,1,.26,0,17.4,17.4,0,0,0,9.007,1.36.26.26,0,0,1,.28.209c.041.255,1.079,6.288.7,9.038a3.252,3.252,0,0,1-3.208,2.836v5.148a.3.3,0,0,1,0,.1,4.211,4.211,0,0,1-3.768,2.373Zm-4.8-13.656L51.479,50.7c0,.051.453,2.332,3.758,3.172A3.687,3.687,0,0,0,59.7,52V46.682a.255.255,0,0,1,.092-.2.387.387,0,0,1,.234-.066c1.7-.153,2.694-.988,2.887-2.414.326-2.368-.468-7.485-.657-8.656A17.913,17.913,0,0,1,53.6,34.105c.484,4.781-1.421,6.421-1.96,6.787Zm8.315,11.166Z" fill="#231f20"/>
        <path id="Path_3647" data-name="Path 3647" d="M53.464,40.6A2.3,2.3,0,0,0,52.7,39.36a4.073,4.073,0,0,0-1.227-.636,1.726,1.726,0,0,0-.743-.143,1.39,1.39,0,0,0-.509.178,1.767,1.767,0,0,0-.861.881,2.1,2.1,0,0,0-.061,1.018,4.3,4.3,0,0,0,.26,1.074,2.79,2.79,0,0,0,3.681,1.528" fill="#fff"/>
        <path id="Path_3648" data-name="Path 3648" d="M52.13,43.7a3.055,3.055,0,0,1-2.816-1.884,4.211,4.211,0,0,1-.275-1.141,2.332,2.332,0,0,1,.071-1.13,2.037,2.037,0,0,1,.978-1.018,1.578,1.578,0,0,1,.6-.209,1.96,1.96,0,0,1,.861.158,4.379,4.379,0,0,1,1.3.677,2.571,2.571,0,0,1,.85,1.38.249.249,0,0,1-.188.306.255.255,0,0,1-.306-.188,2.072,2.072,0,0,0-.682-1.1,3.885,3.885,0,0,0-1.156-.591,1.461,1.461,0,0,0-.626-.132,1.13,1.13,0,0,0-.407.153,1.578,1.578,0,0,0-.749.738,1.986,1.986,0,0,0-.041.886,3.691,3.691,0,0,0,.244,1.018A2.546,2.546,0,0,0,51.173,43a2.612,2.612,0,0,0,1.96,0,.244.244,0,0,1,.331.132.255.255,0,0,1-.132.336,3.055,3.055,0,0,1-1.2.234Z" fill="#231f20"/>
        <path id="Path_3649" data-name="Path 3649" d="M59.743,38.657s1.915,2.719,1.487,3.208-1.665.2-1.665.2" fill="#fff"/>
        <path id="Path_3650" data-name="Path 3650" d="M60.318,42.4a3.905,3.905,0,0,1-.81-.092.261.261,0,1,1,.112-.509c.423.1,1.181.148,1.416-.122a7.476,7.476,0,0,0-1.528-2.892.255.255,0,0,1,.418-.29c.759,1.074,1.955,2.958,1.472,3.518A1.461,1.461,0,0,1,60.318,42.4Z" fill="#231f20"/>
        <ellipse id="Ellipse_107" data-name="Ellipse 107" cx="0.642" cy="0.458" rx="0.642" ry="0.458" transform="matrix(0.062, -0.998, 0.998, 0.062, 57.727, 38.679)" fill="#231f20"/>
        <ellipse id="Ellipse_108" data-name="Ellipse 108" cx="0.458" cy="0.642" rx="0.458" ry="0.642" transform="matrix(0.998, -0.07, 0.07, 0.998, 61.65, 37.469)" fill="#231f20"/>
        <path id="Path_3651" data-name="Path 3651" d="M59.834,44.034a5.535,5.535,0,0,1-3.366-.9.26.26,0,0,1-.041-.362.249.249,0,0,1,.356-.036c1.451,1.166,4.435.692,4.466.687a.258.258,0,0,1,.081.509,9.96,9.96,0,0,1-1.5.1Z" fill="#231f20"/>
        <path id="Path_3652" data-name="Path 3652" d="M63.281,41.488A3.427,3.427,0,0,1,59.9,37.471h0a3.44,3.44,0,1,1,3.386,4.017ZM60.4,37.563a2.353,2.353,0,1,0,0-.01Z" fill="#231f20"/>
        <path id="Path_3653" data-name="Path 3653" d="M56.632,41.244a3.36,3.36,0,0,1-.6-.051,3.439,3.439,0,1,1,.6.051Zm0-6.339a2.9,2.9,0,1,0,2.4,1.217,2.882,2.882,0,0,0-2.393-1.237Z" fill="#231f20"/>
        <path id="Path_3654" data-name="Path 3654" d="M59.951,46.682s-3.345.774-5.316-.346c0,0,2.179,4.506,5.316,4.038Z" fill="#231f20"/>
        <path id="Path_3655" data-name="Path 3655" d="M59.483,50.659c-3,0-4.99-4.038-5.092-4.216a.239.239,0,0,1,.056-.3.244.244,0,0,1,.3-.036c1.864,1.064,5.092.331,5.133.326a.255.255,0,0,1,.316.244v3.686a.255.255,0,0,1-.219.249A3.416,3.416,0,0,1,59.483,50.659Zm-4.252-3.783c.7,1.151,2.368,3.417,4.466,3.264V47A9.79,9.79,0,0,1,55.231,46.876Z" fill="#231f20"/>
        <path id="Path_3656" data-name="Path 3656" d="M41.753,49.9c-2.734.509-13.809,26.091-10.016,29.024,5.917,4.583,26.5-.051,26.5-.051l-1.675-7.943s-13.239.372-13.427-2.347,7.7-15.276,6.665-17.18S41.753,49.9,41.753,49.9Z" fill="#68e1fd"/>
        <path id="Path_3657" data-name="Path 3657" d="M48.2,81.5a.256.256,0,1,1-.046-.509l6.227-1.069.193-7.256L42.868,71.454a.239.239,0,0,1-.183-.107.25.25,0,0,1-.036-.214l5.214-17.877a.255.255,0,0,1,.316-.173.26.26,0,0,1,.173.316L43.26,70.985l11.615,1.2a.255.255,0,0,1,.229.26l-.2,7.7a.255.255,0,0,1-.214.244l-6.431,1.11Z" fill="#231f20"/>
        <path id="Path_3658" data-name="Path 3658" d="M55.119,73.582a30.337,30.337,0,0,0,6.589-.321,20.046,20.046,0,0,1,4.914-.565,18.524,18.524,0,0,1,6.344,1.451.468.468,0,0,1,.214.143c.193.27-.27.509-.6.545a8.732,8.732,0,0,1-2.592-.331,24.868,24.868,0,0,1,5.856,3.116c.209.148.433.377.331.611s-.509.188-.789.066l-4.735-2.164a11.91,11.91,0,0,1,3.366,2.037c.143.127.3.29.255.479-.066.316-.54.255-.835.112a27.97,27.97,0,0,1-4.109-2.51l2.923,2.235c.036.239-.214.443-.458.453a1.329,1.329,0,0,1-.672-.239l-3.259-1.884L69.9,78.241c.321.224.682.586.509.942s-.81.29-1.232.1a24.665,24.665,0,0,0-5.229-1.609A8.36,8.36,0,0,0,62,77.284a16.8,16.8,0,0,0-2.969.647q-2.207.5-4.415,1.018" fill="#fff"/>
        <path id="Path_3659" data-name="Path 3659" d="M69.906,79.7a2.23,2.23,0,0,1-.815-.2,24.3,24.3,0,0,0-5.178-1.6c-.224-.041-.443-.107-.662-.168a3.86,3.86,0,0,0-1.222-.214,9.165,9.165,0,0,0-2,.4c-.316.087-.626.173-.927.239-1.472.336-2.943.672-4.415,1.018a.239.239,0,0,1-.28-.173.229.229,0,0,1,.173-.28c1.472-.346,2.948-.682,4.42-1.018.29-.066.6-.148.906-.234a9.481,9.481,0,0,1,2.108-.418,4.792,4.792,0,0,1,1.365.234c.209.061.412.122.626.163a24.68,24.68,0,0,1,5.28,1.624,1.212,1.212,0,0,0,.8.132.193.193,0,0,0,.122-.112c.107-.244-.316-.565-.448-.662l-2.037-1.421a.239.239,0,0,1-.066-.321.234.234,0,0,1,.316-.071l3.259,1.884a1.044,1.044,0,0,0,.55.2.29.29,0,0,0,.2-.1h0l-2.816-2.154a.234.234,0,1,1,.28-.372,27.542,27.542,0,0,0,4.073,2.49.672.672,0,0,0,.479.071c.031-.051,0-.122-.158-.275a11.666,11.666,0,0,0-2.24-1.528l-1.069-.509a.234.234,0,0,1,.183-.428,10.058,10.058,0,0,1,1.09.509l3.656,1.675a.718.718,0,0,0,.448.076c.061-.092-.046-.234-.219-.356a24.624,24.624,0,0,0-5.8-3.086.229.229,0,0,1-.137-.29.234.234,0,0,1,.285-.153,8.264,8.264,0,0,0,2.515.321.57.57,0,0,0,.423-.188l-.117-.051a18.209,18.209,0,0,0-6.263-1.436,17.5,17.5,0,0,0-4.262.453l-.6.112a30.842,30.842,0,0,1-6.619.326.234.234,0,0,1-.224-.244.224.224,0,0,1,.239-.224,30.475,30.475,0,0,0,6.533-.316l.6-.112a17.719,17.719,0,0,1,4.369-.458,18.769,18.769,0,0,1,6.426,1.472.672.672,0,0,1,.311.219.448.448,0,0,1,.041.468,1.018,1.018,0,0,1-.825.443h-.667a25.134,25.134,0,0,1,4.073,2.373c.387.275.535.6.407.891a.509.509,0,0,1-.3.28,1.146,1.146,0,0,1-.8-.092l-1.135-.509h0a.779.779,0,0,1,.331.7.509.509,0,0,1-.275.351,1.09,1.09,0,0,1-.891-.081c-.285-.137-.565-.285-.85-.438a.565.565,0,0,1-.137.377.759.759,0,0,1-.545.265,1.5,1.5,0,0,1-.8-.265l-.392-.229a.693.693,0,0,1,0,.6.657.657,0,0,1-.377.362A.972.972,0,0,1,69.906,79.7Z" fill="#231f20"/>
        <path id="Path_3660" data-name="Path 3660" d="M63.913,54.294s2.424,9.883,4.583,16.915" fill="#fff"/>
        <path id="Path_3661" data-name="Path 3661" d="M68.516,71.439a.229.229,0,0,1-.219-.163c-2.159-6.95-4.583-16.8-4.613-16.925a.233.233,0,1,1,.453-.112c.025.1,2.449,9.96,4.583,16.9a.234.234,0,0,1-.153.29A.173.173,0,0,1,68.516,71.439Z" fill="#231f20"/>
        <path id="Path_3662" data-name="Path 3662" d="M92.982,83.135l-.127,1.385L61.708,89.072l.311-1.451Z" fill="#fff"/>
        <path id="Path_3663" data-name="Path 3663" d="M61.708,89.326a.265.265,0,0,1-.188-.081.244.244,0,0,1-.061-.224l.311-1.456a.27.27,0,0,1,.214-.2l30.964-4.481a.26.26,0,0,1,.209.066.27.27,0,0,1,.081.209l-.127,1.38a.255.255,0,0,1-.214.229L61.744,89.352Zm.509-1.482-.2.922L92.605,84.3l.076-.861Z" fill="#231f20"/>
        <path id="Path_3664" data-name="Path 3664" d="M92.982,83.135s-7.093-6.08-7.327-6.024-32.079,3.875-32.079,3.875l8.458,6.619Z" fill="#fff"/>
        <path id="Path_3665" data-name="Path 3665" d="M62.019,87.875a.234.234,0,0,1-.153-.056L53.4,81.2a.255.255,0,0,1,.127-.453c.316-.036,31.569-3.783,32.079-3.87.143-.031.351-.087,7.541,6.08a.26.26,0,0,1,.081.265.265.265,0,0,1-.209.183L62.065,87.885ZM54.2,81.164l7.887,6.187,30.3-4.384c-2.546-2.164-6.222-5.27-6.772-5.6C83.959,77.6,60.476,80.41,54.2,81.164Z" fill="#231f20"/>
        <path id="Path_3666" data-name="Path 3666" d="M61.708,89.072l-8.274-6.706.127-1.38,8.458,6.635Z" fill="#fff"/>
        <path id="Path_3667" data-name="Path 3667" d="M61.708,89.326a.265.265,0,0,1-.163-.056l-8.269-6.706a.265.265,0,0,1-.1-.219l.127-1.385a.26.26,0,0,1,.412-.178L62.177,87.4a.26.26,0,0,1,.092.255l-.311,1.456a.255.255,0,0,1-.168.183A.229.229,0,0,1,61.708,89.326ZM53.7,82.254,61.545,88.6l.193-.891L53.77,81.47Z" fill="#231f20"/>
        <path id="Path_3668" data-name="Path 3668" d="M92.982,83.135l5.983-20.057-32.832,5.6L62.019,87.62Z" fill="#fff"/>
        <path id="Path_3669" data-name="Path 3669" d="M62.019,87.875a.255.255,0,0,1-.183-.081.27.27,0,0,1-.066-.229l4.114-18.942a.249.249,0,0,1,.2-.2l32.837-5.6a.25.25,0,0,1,.285.321L93.227,83.206a.27.27,0,0,1-.209.178L62.059,87.865ZM66.347,68.9l-4,18.417,30.434-4.41L98.6,63.4ZM92.982,83.155Z" fill="#231f20"/>
        <path id="Path_3670" data-name="Path 3670" d="M110.585,53.026a.249.249,0,0,1-.249-.224,7.5,7.5,0,0,1,1.141-3.844.255.255,0,0,1,.351-.087.26.26,0,0,1,.081.351,7.331,7.331,0,0,0-1.069,3.524.255.255,0,0,1-.229.28Z" fill="#231f20"/>
        <path id="Path_3671" data-name="Path 3671" d="M131.405,79.8a.27.27,0,0,1-.137-.041l-5.688-3.656a.256.256,0,0,1,.275-.433l5.688,3.656a.26.26,0,0,1,.076.356.27.27,0,0,1-.214.117Z" fill="#d1d3d4"/>
        <path id="Path_3672" data-name="Path 3672" d="M133.462,78.888a.255.255,0,0,1-.137-.036l-5.4-3.493a.256.256,0,1,1,.28-.428l5.4,3.468a.26.26,0,0,1,.076.356A.265.265,0,0,1,133.462,78.888Z" fill="#d1d3d4"/>
        <path id="Path_3673" data-name="Path 3673" d="M135.443,78.211a.285.285,0,0,1-.137-.041l-5.464-3.5a.256.256,0,0,1,.28-.428l5.443,3.5a.255.255,0,0,1,.076.351A.244.244,0,0,1,135.443,78.211Z" fill="#d1d3d4"/>
        <path id="Path_3674" data-name="Path 3674" d="M137.933,77.539a.229.229,0,0,1-.127-.036l-5.861-3.452a.255.255,0,1,1,.255-.438l5.861,3.452a.255.255,0,0,1-.127.474Z" fill="#d1d3d4"/>
        <path id="Path_3675" data-name="Path 3675" d="M139.71,76.933a.244.244,0,0,1-.132-.036l-5.861-3.452a.26.26,0,0,1-.087-.351.244.244,0,0,1,.346-.087l5.861,3.452a.255.255,0,0,1-.127.474Z" fill="#d1d3d4"/>
      </g>
    </g>
    <g id="Group_120" data-name="Group 120" transform="translate(-10.25 497.5)">
      <path id="Subtraction_1" data-name="Subtraction 1" d="M-13047.155,41.891h0a20.948,20.948,0,0,1-13.393-6.773A20.954,20.954,0,0,1-13066,21a20.865,20.865,0,0,1,6.15-14.849A20.861,20.861,0,0,1-13045,0a20.885,20.885,0,0,1,14.673,5.976,20.882,20.882,0,0,1,6.32,14.489,78.93,78.93,0,0,0-23.146,21.425Z" transform="translate(13266 722)" fill="#483d7f"/>
      <text id="_1" data-name="1" transform="translate(221 749)" fill="#fff" font-size="17" font-family="Poppins-Regular, Poppins"><tspan x="-2.72" y="0">1</tspan></text>
    </g>
  </g>
</svg>
