<svg xmlns="http://www.w3.org/2000/svg" xmlns:xlink="http://www.w3.org/1999/xlink" width="176" height="179" viewBox="0 0 176 179">
  <defs>
    <filter id="Ellipse_78" x="0" y="3" width="176" height="176" filterUnits="userSpaceOnUse">
      <feOffset dy="3" input="SourceAlpha"/>
      <feGaussianBlur stdDeviation="3" result="blur"/>
      <feFlood flood-opacity="0.161"/>
      <feComposite operator="in" in2="blur"/>
      <feComposite in="SourceGraphic"/>
    </filter>
    <filter id="Ellipse_71" x="0" y="3" width="176" height="176" filterUnits="userSpaceOnUse">
      <feOffset dy="3" input="SourceAlpha"/>
      <feGaussianBlur stdDeviation="3" result="blur-2"/>
      <feFlood flood-opacity="0.161"/>
      <feComposite operator="in" in2="blur-2"/>
      <feComposite in="SourceGraphic"/>
    </filter>
    <clipPath id="clip-path">
      <g transform="matrix(1, 0, 0, 1, 0, 0)" filter="url(#Ellipse_78)">
        <circle id="Ellipse_78-2" data-name="Ellipse 78" cx="79" cy="79" r="79" transform="translate(488 1326)" fill="#ba70a3"/>
      </g>
    </clipPath>
  </defs>
  <g id="Group_187" data-name="Group 187" transform="translate(-310.75 -1490)">
    <g transform="matrix(1, 0, 0, 1, 310.75, 1490)" filter="url(#Ellipse_71)">
      <circle id="Ellipse_71-2" data-name="Ellipse 71" cx="79" cy="79" r="79" transform="translate(9 9)" fill="#ba70a3"/>
    </g>
    <g id="Mask_Group_12" data-name="Mask Group 12" transform="translate(-168.25 173)" clip-path="url(#clip-path)">
      <g id="_557_transaction_flatline" data-name="#557_transaction_flatline" transform="translate(439.53 1324.316)">
        <path id="Path_3241" data-name="Path 3241" d="M48.4,38.365a.36.36,0,0,1-.145,0l-.582-.263a.349.349,0,0,1,.284-.637l.582.263a.353.353,0,0,1,.173.464.339.339,0,0,1-.312.173Z" transform="translate(0 0.005)" fill="#231f20"/>
        <path id="Path_3242" data-name="Path 3242" d="M67.183,78.984s6.443,1.607,10.038.042,4.572-4.96,8.639-5.279,14.576-.776,14.576-.776l.63-9.38S94.5,56.047,87.855,55.423,70.834,64.609,67.183,65.932Z" transform="translate(4.476 4.083)" fill="#fff"/>
        <path id="Path_3243" data-name="Path 3243" d="M73.133,80.128a27.9,27.9,0,0,1-5.985-.741.346.346,0,0,1-.263-.339V66a.346.346,0,0,1,.229-.326,31.7,31.7,0,0,0,5.3-3.311c4.621-3.228,10.952-7.62,15.559-7.219,6.7.63,13.162,7.974,13.433,8.313a.332.332,0,0,1,.083.249l-.623,9.38a.353.353,0,0,1-.326.326c-.111,0-10.592.471-14.6.776-2.245.173-3.464,1.309-4.849,2.626a12.469,12.469,0,0,1-3.651,2.626,10.938,10.938,0,0,1-4.3.693Zm-5.542-1.386c1.233.277,6.512,1.33,9.553,0a12.123,12.123,0,0,0,3.464-2.5c1.441-1.344,2.806-2.619,5.293-2.771,3.63-.284,12.539-.693,14.312-.769l.6-8.923c-.817-.914-6.879-7.385-12.885-7.946-4.344-.409-10.558,3.928-15.1,7.094a35.671,35.671,0,0,1-5.23,3.3Z" transform="translate(4.408 4.02)" fill="#231f20"/>
        <g id="Rectangle_225" data-name="Rectangle 225" transform="translate(83.47 64.684)" fill="#ffd98e" stroke="#707070" stroke-width="1">
          <rect width="44" height="24" stroke="none"/>
          <rect x="0.5" y="0.5" width="43" height="23" fill="none"/>
        </g>
        <path id="Path_3244" data-name="Path 3244" d="M46.43,91.723,72.337,81.557s-2.265-10.9,0-18.912L47.665,59.01s-5.076,6.865-4.12,14.915S46.43,91.723,46.43,91.723Z" transform="translate(0.257 5.729)" fill="#231f20"/>
        <path id="Path_3245" data-name="Path 3245" d="M52.305,87.045a.332.332,0,0,1-.277-.139c-.1-.139-2.563-3.526-3.464-11.576s1.309-12.594,1.42-12.781a.36.36,0,0,1,.3-.187h22.1a.353.353,0,0,1,.277.139.346.346,0,0,1,.055.3c-2.217,7.842,0,18.642,0,18.746a.346.346,0,0,1-.256.409l-20.09,5.071ZM50.5,63.055c-.409.928-2.078,5.258-1.282,12.2.79,6.8,2.729,10.239,3.242,11.084L71.973,81.4c-.346-1.843-1.912-11.14-.048-18.31Z" transform="translate(0.2 5.665)" fill="#231f20"/>
        <path id="Path_3247" data-name="Path 3247" d="M76.589,72.77s8.84.443,12.58-.63,4.454-3.907,2.82-5.625-5.473-.076-10-.693a35.515,35.515,0,0,1-5.4-.942" transform="translate(6.612 6.237)" fill="#fff"/>
        <path id="Path_3248" data-name="Path 3248" d="M80.86,73.272c-2.265,0-4.06-.083-4.219-.1a.346.346,0,0,1-.333-.36.333.333,0,0,1,.367-.326c.083,0,8.819.43,12.47-.617,1.773-.506,2.986-1.489,3.311-2.688a2.445,2.445,0,0,0-.658-2.362c-.831-.88-2.445-.755-4.482-.6a23.872,23.872,0,0,1-5.313,0,37.528,37.528,0,0,1-5.466-.956.346.346,0,1,1,.236-.651,38.1,38.1,0,0,0,5.327.921,23.324,23.324,0,0,0,5.161,0c2.224-.166,3.976-.3,5.043.811a3.131,3.131,0,0,1,.817,3.027c-.388,1.434-1.767,2.591-3.789,3.166A37.523,37.523,0,0,1,80.86,73.272Z" transform="translate(6.546 6.172)" fill="#231f20"/>
        <path id="Path_3263" data-name="Path 3263" d="M174.182,40.085a.339.339,0,0,1-.291-.236.353.353,0,0,1,.187-.45l3.145-1.3a.349.349,0,0,1,.27.644l-3.152,1.3A.284.284,0,0,1,174.182,40.085Z" transform="translate(28.7 0.149)" fill="#231f20"/>
        <path id="Path_3264" data-name="Path 3264" d="M177.659,38.37a.339.339,0,0,1-.312-.2.353.353,0,0,1,.173-.464l.582-.263a.349.349,0,0,1,.284.637l-.582.263A.36.36,0,0,1,177.659,38.37Z" transform="translate(29.483)" fill="#231f20"/>
        <rect id="Rectangle_224" data-name="Rectangle 224" width="45.951" height="44.835" transform="translate(133.876 90.528)" fill="#68e1fd"/>
        <path id="Path_3265" data-name="Path 3265" d="M163.966,80.827v44.835H118.015V80.827h45.951m0-.693H118.015a.693.693,0,0,0-.693.693v44.835a.693.693,0,0,0,.693.693h45.951a.693.693,0,0,0,.693-.693V80.827A.693.693,0,0,0,163.966,80.135Z" transform="translate(15.861 9.701)" fill="#231f20"/>
        <path id="Path_3266" data-name="Path 3266" d="M156.258,61.546c-1.51-1.753-3.859-2.515-6.131-2.93a34.355,34.355,0,0,1-6.775-1.427c-1.566-.63-3.034-1.642-4.718-1.78s-3.651,1.185-3.318,2.84a3.8,3.8,0,0,0,1.7,2.078,56.443,56.443,0,0,0,4.732,3.131c-1.455-.236-3.131-.4-4.226.582A4.665,4.665,0,0,0,136.4,67.5a31.624,31.624,0,0,0,1.739,11.084,6.179,6.179,0,0,0,1.96,3.131,6.844,6.844,0,0,0,4.066.831l22.168-.152c.928,0,.312-14.548-.97-16.01-1.157-1.3-2.383-.949-3.949-1.115C158.683,64.955,157.914,63.465,156.258,61.546Z" transform="translate(19.938 4.084)" fill="#fff"/>
        <path id="Path_3267" data-name="Path 3267" d="M143.851,82.94a6.647,6.647,0,0,1-3.886-.894,6.457,6.457,0,0,1-2.078-3.3,31.694,31.694,0,0,1-1.76-11.188,4.861,4.861,0,0,1,1.226-3.706,3.976,3.976,0,0,1,2.944-.845c-1.171-.734-2.314-1.517-3.422-2.335a4.052,4.052,0,0,1-1.829-2.3,2.314,2.314,0,0,1,.6-2.03,3.852,3.852,0,0,1,3.083-1.219,9.629,9.629,0,0,1,3.429,1.164c.457.222.921.45,1.385.637a21.746,21.746,0,0,0,4.849,1.108c.623.09,1.24.187,1.864.3,3,.547,5.016,1.51,6.332,3.048.256.291.492.582.693.852,1.233,1.51,2.044,2.5,4.233,2.736.36.042.693.049,1.032.062a3.641,3.641,0,0,1,3.138,1.171c1.309,1.469,1.961,14.479,1.185,16.224a.513.513,0,0,1-.464.36l-22.168.152Zm-3.879-19.252a3.145,3.145,0,0,0-2.161.693,4.443,4.443,0,0,0-1,3.207,31.111,31.111,0,0,0,1.718,10.946,5.847,5.847,0,0,0,1.843,2.958,6.636,6.636,0,0,0,3.859.769h.076l21.967-.152c.575-1.386.076-14.125-1.088-15.435a3.105,3.105,0,0,0-2.646-.935,6.655,6.655,0,0,1-1.088-.062c-2.466-.27-3.464-1.469-4.69-2.986-.222-.27-.457-.554-.693-.845-1.212-1.386-3.1-2.3-5.93-2.82-.61-.111-1.226-.2-1.843-.291a21.947,21.947,0,0,1-4.995-1.15,13.766,13.766,0,0,1-1.441-.693,9.075,9.075,0,0,0-3.18-1.1,3.194,3.194,0,0,0-2.515.991,1.642,1.642,0,0,0-.436,1.434,3.512,3.512,0,0,0,1.559,1.884c1.51,1.108,3.1,2.154,4.711,3.11a.346.346,0,0,1-.236.637,11.823,11.823,0,0,0-1.794-.159Z" transform="translate(19.876 4.02)" fill="#231f20"/>
        <path id="Path_3268" data-name="Path 3268" d="M149.771,89.472a.339.339,0,0,1-.346-.339c0-.277-.45-27.156-10.7-27.156s-10.7,26.879-10.7,27.156a.346.346,0,0,1-.346.339h0a.346.346,0,0,1-.339-.353c0-1.136.464-27.835,11.4-27.835,4.628,0,7.953,4.718,9.879,14.021a84.3,84.3,0,0,1,1.517,13.814.346.346,0,0,1-.346.353Z" transform="translate(18.134 5.42)" fill="#231f20"/>
        <path id="Path_3269" data-name="Path 3269" d="M187.586,91,158.711,81.71s2.265-10.9,0-18.912L179.8,60.9s6.716,6.212,5.753,14.255A37.67,37.67,0,0,0,187.586,91Z" transform="translate(25.259 5.575)" fill="#231f20"/>
        <path id="Path_3270" data-name="Path 3270" d="M177.184,86.367h-.076l-18.413-4.254a.346.346,0,0,1-.263-.409c0-.1,2.224-10.911,0-18.746a.346.346,0,0,1,.055-.3.36.36,0,0,1,.263-.145l20.429-.831a.381.381,0,0,1,.326.187c.1.194,2.383,4.725,1.441,12.781s-3.395,11.43-3.5,11.576a.374.374,0,0,1-.263.139Zm-18.012-4.849,17.845,4.115c.513-.8,2.452-4.233,3.249-11.049.8-6.928-.866-11.243-1.282-12.186l-19.764.8c1.87,7.156.3,16.446-.042,18.31Z" transform="translate(25.192 5.511)" fill="#231f20"/>
        <path id="Path_3271" data-name="Path 3271" d="M149.287,76.47h-.1c-6.477-1.967-7.482-5.791-7.482-5.951a.346.346,0,0,1,.249-.416.353.353,0,0,1,.423.256s.963,3.609,7.031,5.431a.346.346,0,0,1,.229.43A.339.339,0,0,1,149.287,76.47Z" transform="translate(21.396 7.421)" fill="#231f20"/>
        <path id="Path_3272" data-name="Path 3272" d="M137.8,62.088a37.845,37.845,0,0,1,6.235-.333c1.385.035,3.055.374,3.464,1.69a2.383,2.383,0,0,1-.693,2.286,6.629,6.629,0,0,1-2.078,1.316c1.24,0,2.771.236,3.194,1.386a2.127,2.127,0,0,1-.755,2.272,6.415,6.415,0,0,1-2.286,1.067c1.386.249,3.09.831,3.2,2.231s-1.344,2.2-2.619,2.6c.388.693,1.531.554,2.148,1.1a1.524,1.524,0,0,1-.145,2.134,3.8,3.8,0,0,1-2.2.845,24.425,24.425,0,0,1-4.849.132,4.205,4.205,0,0,1-2.813-.949c-.693-.734-.617-2.217.353-2.515a3.007,3.007,0,0,1-1.877-5.168,2.729,2.729,0,0,1-1.67-2.175,2.951,2.951,0,0,1,1.067-2.48C131.722,65.649,135.11,62.462,137.8,62.088Z" transform="translate(19.604 5.524)" fill="#fff"/>
        <path id="Path_3273" data-name="Path 3273" d="M142.4,81.3q-.935,0-1.933-.062a4.468,4.468,0,0,1-3.041-1.06,2.161,2.161,0,0,1-.492-1.988,1.835,1.835,0,0,1,.27-.575,3.346,3.346,0,0,1-1.607-5.251,3.055,3.055,0,0,1-1.455-2.245,3.159,3.159,0,0,1,.838-2.438,2.329,2.329,0,0,1-1.386-2.529c.284-1.663,2.466-3.1,4.24-3.339a37.77,37.77,0,0,1,6.318-.339c2.078.055,3.408.727,3.8,1.926a2.7,2.7,0,0,1-.741,2.632,4.7,4.7,0,0,1-1.088.838,2.709,2.709,0,0,1,2.251,1.517,2.5,2.5,0,0,1-.852,2.653,4.884,4.884,0,0,1-1.282.748c1.78.575,2.251,1.51,2.314,2.258.09,1.122-.769,2.134-2.314,2.771a3.013,3.013,0,0,0,.582.194,2.709,2.709,0,0,1,1.143.52,1.517,1.517,0,0,1,.492,1.122,2.113,2.113,0,0,1-.623,1.517,4.157,4.157,0,0,1-2.4.942,21.862,21.862,0,0,1-3.034.187Zm-4.5-18.8c-1.538.208-3.422,1.441-3.651,2.771-.139.776.353,1.462,1.455,2.03a.333.333,0,0,1,.18.263.346.346,0,0,1-.111.3,2.6,2.6,0,0,0-.949,2.182,2.355,2.355,0,0,0,1.455,1.891.353.353,0,0,1,.215.256.36.36,0,0,1-.1.319,2.667,2.667,0,0,0,1.663,4.579.348.348,0,0,1,.076.693.8.8,0,0,0-.526.6,1.5,1.5,0,0,0,.319,1.337,3.831,3.831,0,0,0,2.584.845,23.553,23.553,0,0,0,4.808-.125,3.505,3.505,0,0,0,2-.755,1.386,1.386,0,0,0,.416-1,.859.859,0,0,0-.256-.617,2.2,2.2,0,0,0-.866-.367,1.967,1.967,0,0,1-1.385-.831.374.374,0,0,1,0-.3.353.353,0,0,1,.215-.194c.589-.194,2.487-.908,2.376-2.251-.09-1.171-1.635-1.69-2.917-1.919a.339.339,0,0,1-.284-.319.346.346,0,0,1,.242-.353,6.124,6.124,0,0,0,2.168-1,1.815,1.815,0,0,0,.693-1.884c-.284-.755-1.226-1.143-2.882-1.171a.339.339,0,0,1-.332-.277.346.346,0,0,1,.194-.388,6.152,6.152,0,0,0,2-1.24,2.016,2.016,0,0,0,.582-1.94c-.367-1.136-1.919-1.386-3.159-1.448a37.1,37.1,0,0,0-6.2.333Zm-.049-.346Z" transform="translate(19.546 5.459)" fill="#231f20"/>
        <path id="Path_3274" data-name="Path 3274" d="M136.548,66.948a.346.346,0,1,1,0-.693l7.676-.478a.346.346,0,0,1,.367.326.36.36,0,0,1-.326.367l-7.669.471Z" transform="translate(20.148 6.441)" fill="#231f20"/>
        <path id="Path_3275" data-name="Path 3275" d="M137.394,70.692a.339.339,0,0,1-.339-.326A.346.346,0,0,1,137.38,70l6.782-.36a.339.339,0,0,1,.367.326.346.346,0,0,1-.333.36l-6.782.367Z" transform="translate(20.341 7.317)" fill="#231f20"/>
        <path id="Path_3276" data-name="Path 3276" d="M138.6,74.737a.346.346,0,1,1,0-.693l5.9-.464a.339.339,0,0,1,.374.319.346.346,0,0,1-.319.374l-5.9.457Z" transform="translate(20.613 8.212)" fill="#231f20"/>
        <text id="Rp." transform="translate(109.47 79.684)" fill="#605e5f" font-size="11" font-family="Poppins-Regular, Poppins"><tspan x="-8.217" y="0">Rp.</tspan></text>
      </g>
    </g>
    <g id="Group_124" data-name="Group 124" transform="translate(113.758 768)">
      <path id="Subtraction_1" data-name="Subtraction 1" d="M-13047.155,41.891h0a20.948,20.948,0,0,1-13.393-6.773A20.954,20.954,0,0,1-13066,21a20.865,20.865,0,0,1,6.15-14.849A20.861,20.861,0,0,1-13045,0a20.885,20.885,0,0,1,14.673,5.976,20.882,20.882,0,0,1,6.32,14.489,78.93,78.93,0,0,0-23.146,21.425Z" transform="translate(13266 722)" fill="#483d7f"/>
      <text id="_7" data-name="7" transform="translate(221 749)" fill="#fff" font-size="17" font-family="Poppins-Regular, Poppins"><tspan x="-4.641" y="0">7</tspan></text>
    </g>
  </g>
</svg>
