<svg xmlns="http://www.w3.org/2000/svg" xmlns:xlink="http://www.w3.org/1999/xlink" width="176" height="179" viewBox="0 0 176 179">
  <defs>
    <filter id="Ellipse_50" x="-2" y="2" width="176" height="176" filterUnits="userSpaceOnUse">
      <feOffset dy="3" input="SourceAlpha"/>
      <feGaussianBlur stdDeviation="3" result="blur"/>
      <feFlood flood-opacity="0.161"/>
      <feComposite operator="in" in2="blur"/>
      <feComposite in="SourceGraphic"/>
    </filter>
    <filter id="Ellipse_52" x="0" y="3" width="176" height="176" filterUnits="userSpaceOnUse">
      <feOffset dy="3" input="SourceAlpha"/>
      <feGaussianBlur stdDeviation="3" result="blur-2"/>
      <feFlood flood-opacity="0.161"/>
      <feComposite operator="in" in2="blur-2"/>
      <feComposite in="SourceGraphic"/>
    </filter>
    <clipPath id="clip-path">
      <g transform="matrix(1, 0, 0, 1, 0, 0)" filter="url(#Ellipse_50)">
        <circle id="Ellipse_50-2" data-name="Ellipse 50" cx="79" cy="79" r="79" transform="translate(194 1140)" fill="#ba70a3"/>
      </g>
    </clipPath>
  </defs>
  <g id="Group_178" data-name="Group 178" transform="translate(-702.75 -1220.5)">
    <g transform="matrix(1, 0, 0, 1, 702.75, 1220.5)" filter="url(#Ellipse_52)">
      <circle id="Ellipse_52-2" data-name="Ellipse 52" cx="79" cy="79" r="79" transform="translate(9 9)" fill="#ba70a3"/>
    </g>
    <g id="Mask_Group_3" data-name="Mask Group 3" transform="translate(515.75 88.5)" clip-path="url(#clip-path)">
      <g id="_251_money_transfer_flatline" data-name="#251_money_transfer_flatline" transform="translate(160.308 1134.496)">
        <path id="Path_2688" data-name="Path 2688" d="M37.572,147.948l45.319-9.579c1.42-.3,2.558-2.113,2.558-4.051V34.7c0-1.938-1.127-3.747-2.558-4.051L37.572,21.068c-1.995-.423-3.629,1.127-3.629,3.454V144.494C33.943,146.827,35.577,148.37,37.572,147.948Z" fill="#231f20"/>
        <path id="Path_2689" data-name="Path 2689" d="M36.924,148.269a2.981,2.981,0,0,1-1.9-.642,3.944,3.944,0,0,1-1.33-3.1V24.544a3.944,3.944,0,0,1,1.33-3.1,3.037,3.037,0,0,1,2.6-.563l45.319,9.551c1.544.327,2.755,2.214,2.755,4.294v99.609c0,2.079-1.211,3.944-2.755,4.294L37.622,148.19A3.321,3.321,0,0,1,36.924,148.269Zm.6-.563.051.242-.051-.242,45.319-9.579c1.3-.276,2.361-1.983,2.361-3.809V34.7c0-1.826-1.059-3.533-2.361-3.809L37.521,21.31a2.569,2.569,0,0,0-2.186.5,3.448,3.448,0,0,0-1.127,2.716V144.494a3.437,3.437,0,0,0,1.127,2.716,2.569,2.569,0,0,0,2.186.5Z" fill="#231f20"/>
        <path id="Path_2690" data-name="Path 2690" d="M41.476,146.917l44.232-9.308c1.392-.293,2.507-2.079,2.507-4V35.07c0-1.916-1.127-3.708-2.507-4L41.476,21.7c-1.944-.411-3.539,1.127-3.539,3.42V143.5C37.938,145.8,39.532,147.328,41.476,146.917Z" fill="#fff"/>
        <path id="Path_2691" data-name="Path 2691" d="M40.857,147.266a2.941,2.941,0,0,1-1.871-.659,3.944,3.944,0,0,1-1.33-3.11V25.125a3.944,3.944,0,0,1,1.33-3.11,2.992,2.992,0,0,1,2.547-.563L85.77,30.816c1.527.321,2.727,2.2,2.727,4.277v98.515c0,2.079-1.2,3.944-2.727,4.277l-44.237,9.308h0A3.145,3.145,0,0,1,40.857,147.266Zm.62-.349Zm-.62-125a2.4,2.4,0,0,0-1.516.563,3.381,3.381,0,0,0-1.127,2.671V143.5a3.381,3.381,0,0,0,1.127,2.671,2.417,2.417,0,0,0,2.074.473l44.232-9.308c1.257-.265,2.282-1.933,2.282-3.724V35.07c0-1.792-1.026-3.46-2.282-3.724l-44.232-9.37A2.727,2.727,0,0,0,40.857,21.919Z" fill="#231f20"/>
        <path id="Path_2692" data-name="Path 2692" d="M44.7,138.916a2.389,2.389,0,0,1-1.533-.563,3.24,3.24,0,0,1-1.065-2.524V33.2a3.24,3.24,0,0,1,1.065-2.524,2.4,2.4,0,0,1,2-.513l37.96,7.026c1.268.237,2.254,1.747,2.254,3.443v87.787c0,1.69-1,3.206-2.254,3.443l-37.96,7.009A2.255,2.255,0,0,1,44.7,138.916Zm0-108.235a1.8,1.8,0,0,0-1.166.428,2.682,2.682,0,0,0-.862,2.09v102.64a2.682,2.682,0,0,0,.862,2.09,1.809,1.809,0,0,0,1.538.389l37.955-7.032c.992-.186,1.8-1.482,1.8-2.891V40.609c0-1.409-.811-2.7-1.8-2.891h0l-37.949-7a1.741,1.741,0,0,0-.383-.039Z" fill="#d1d3d4"/>
        <path id="Path_2693" data-name="Path 2693" d="M72.467,32.484H72.41l-8.074-1.589a.287.287,0,1,1,.113-.564l8.069,1.595a.282.282,0,0,1,.225.327A.287.287,0,0,1,72.467,32.484Z" fill="#d1d3d4"/>
        <path id="Path_2694" data-name="Path 2694" d="M63.153,30.647h-.045l-1.476-.287a.287.287,0,0,1-.225-.332.276.276,0,0,1,.332-.22l1.476.287a.282.282,0,0,1,.22.332A.276.276,0,0,1,63.153,30.647Z" fill="#d1d3d4"/>
        <path id="Path_2695" data-name="Path 2695" d="M35.774,49.173a.282.282,0,0,1-.282-.282V36.563a.282.282,0,0,1,.282-.282.287.287,0,0,1,.282.282V48.891A.287.287,0,0,1,35.774,49.173Z" fill="#d1d3d4"/>
        <path id="Path_2696" data-name="Path 2696" d="M187.813,147.948l-45.319-9.579c-1.42-.3-2.558-2.113-2.558-4.051V34.7c0-1.938,1.127-3.747,2.558-4.051l45.319-9.579c1.995-.423,3.629,1.127,3.629,3.454V144.494C191.441,146.827,189.807,148.37,187.813,147.948Z" fill="#231f20"/>
        <path id="Path_2697" data-name="Path 2697" d="M188.461,148.269a3.319,3.319,0,0,1-.7-.079l-45.319-9.579c-1.544-.327-2.755-2.214-2.755-4.294V34.7c0-2.079,1.211-3.944,2.755-4.294l45.319-9.579a3.037,3.037,0,0,1,2.6.563,3.944,3.944,0,0,1,1.33,3.1v120a3.944,3.944,0,0,1-1.33,3.1A2.981,2.981,0,0,1,188.461,148.269Zm-.6-.563a2.569,2.569,0,0,0,2.186-.5,3.437,3.437,0,0,0,1.127-2.716V24.544a3.448,3.448,0,0,0-1.127-2.716,2.569,2.569,0,0,0-2.186-.5l-45.308,9.556c-1.3.276-2.361,1.983-2.361,3.809v99.631c0,1.826,1.059,3.533,2.361,3.809Z" fill="#231f20"/>
        <path id="Path_2698" data-name="Path 2698" d="M183.908,146.917l-44.232-9.308c-1.392-.293-2.507-2.079-2.507-4V35.07c0-1.916,1.127-3.708,2.507-4L183.908,21.7c1.944-.411,3.539,1.127,3.539,3.42V143.5C187.446,145.8,185.852,147.328,183.908,146.917Z" fill="#fff"/>
        <path id="Path_2699" data-name="Path 2699" d="M184.528,147.266a3.145,3.145,0,0,1-.676-.073h0l-44.237-9.308c-1.527-.321-2.727-2.2-2.727-4.277V35.07c0-2.074,1.2-3.944,2.727-4.277l44.237-9.382a2.986,2.986,0,0,1,2.547.563,3.944,3.944,0,0,1,1.33,3.11V143.5a3.944,3.944,0,0,1-1.33,3.11A2.941,2.941,0,0,1,184.528,147.266Zm-.563-.625a2.417,2.417,0,0,0,2.074-.473,3.381,3.381,0,0,0,1.127-2.671V25.125a3.381,3.381,0,0,0-1.127-2.671,2.417,2.417,0,0,0-2.068-.479l-44.232,9.37c-1.257.265-2.282,1.933-2.282,3.724v98.538c0,1.792,1.025,3.46,2.282,3.724Z" fill="#231f20"/>
        <path id="Path_2700" data-name="Path 2700" d="M180.685,138.916a2.253,2.253,0,0,1-.468-.045l-37.96-7.021c-1.268-.237-2.254-1.747-2.254-3.443v-87.8c0-1.69,1-3.206,2.254-3.443l37.96-7a2.4,2.4,0,0,1,2,.513,3.24,3.24,0,0,1,1.065,2.524v102.64a3.24,3.24,0,0,1-1.065,2.524,2.389,2.389,0,0,1-1.533.552ZM142.37,37.718c-.992.186-1.8,1.482-1.8,2.891v87.81c0,1.409.811,2.7,1.8,2.891l37.938,7.009a1.814,1.814,0,0,0,1.538-.389,2.682,2.682,0,0,0,.862-2.09V33.2a2.682,2.682,0,0,0-.862-2.09,1.814,1.814,0,0,0-1.538-.389l-37.949,7Zm-.051-.276Z" fill="#d1d3d4"/>
        <path id="Path_2701" data-name="Path 2701" d="M152.918,32.484a.287.287,0,0,1-.276-.231.282.282,0,0,1,.225-.327l8.069-1.595a.287.287,0,1,1,.113.564l-8.074,1.589Z" fill="#d1d3d4"/>
        <path id="Path_2702" data-name="Path 2702" d="M162.232,30.647a.276.276,0,0,1-.276-.225.282.282,0,0,1,.22-.332l1.476-.287a.276.276,0,0,1,.332.22.287.287,0,0,1-.225.332l-1.476.287Z" fill="#d1d3d4"/>
        <path id="Path_2703" data-name="Path 2703" d="M189.61,49.173a.287.287,0,0,1-.282-.282V36.563a.287.287,0,0,1,.282-.282.282.282,0,0,1,.282.282V48.891A.282.282,0,0,1,189.61,49.173Z" fill="#d1d3d4"/>
        <path id="Path_2704" data-name="Path 2704" d="M150.551,118.794s-3.274-.1-3.877-6.84.631-14.8,2.062-14.909,5.685,9.286,5.184,12.8S154.952,119,150.551,118.794Z" fill="#231f20"/>
        <path id="Path_2705" data-name="Path 2705" d="M150.765,119.048h-.225c-.18,0-3.5-.225-4.113-7.066-.524-5.854.316-13.2,1.69-14.825a.9.9,0,0,1,.6-.355,1.285,1.285,0,0,1,.93.53c1.854,1.989,4.953,9.472,4.508,12.554a21.33,21.33,0,0,0-.118,2.936c0,2.147,0,4.367-1.166,5.494a2.941,2.941,0,0,1-2.1.732Zm-2.012-21.755h0a.473.473,0,0,0-.259.18c-1.166,1.38-2.124,8.322-1.578,14.458.563,6.4,3.606,6.615,3.634,6.615h0a2.547,2.547,0,0,0,1.972-.6c1.02-.98,1.014-3.093,1.014-5.133a21.56,21.56,0,0,1,.124-3c.417-2.907-2.631-10.266-4.389-12.143C148.962,97.321,148.8,97.293,148.754,97.293Z" fill="#231f20"/>
        <path id="Path_2706" data-name="Path 2706" d="M68.032,75.5s4.141,1.809,6.8-4.88S78.772,52.813,76,52.03,61.13,65.728,68.032,75.5Z" fill="#231f20"/>
        <path id="Path_2707" data-name="Path 2707" d="M69.306,75.966a3.73,3.73,0,0,1-1.386-.242.293.293,0,0,1-.1-.085C63.727,69.83,66.207,62.15,69.869,56.91c2.316-3.3,4.908-5.443,6.2-5.071a1.775,1.775,0,0,1,1.087,1.014c1.544,3.1.118,12.317-2.09,17.884-1.025,2.581-2.389,4.237-4.051,4.925a4.384,4.384,0,0,1-1.707.3Zm-1.127-.676a3.815,3.815,0,0,0,2.637-.13c1.533-.637,2.817-2.2,3.77-4.643,2.378-5.984,3.443-14.8,2.107-17.467a1.3,1.3,0,0,0-.772-.761c-.885-.237-3.291,1.555-5.635,4.9C66.725,62.274,64.3,69.7,68.179,75.29Z" fill="#231f20"/>
        <path id="Path_2708" data-name="Path 2708" d="M157.279,97.625c-.676,0-23.327-1.386-28.984,1.127s-16.971,4.3-21.721,4.3-15.614-3.189-16.983-1.628,1.3,3.848,2.006,5.883,18.279,12.019,31.9,13.839,18.662-5.973,23.586-5.206c8.452,1.318,4.975-.225,4.975-.225Z" fill="#fff"/>
        <path id="Path_2709" data-name="Path 2709" d="M127.489,121.708a30.332,30.332,0,0,1-4.029-.276c-13.7-1.82-31.39-11.895-32.117-13.991a10.277,10.277,0,0,0-1.127-2.028c-.924-1.437-1.882-2.919-.84-4.13.851-.992,4.153-.49,9.5.462a53.451,53.451,0,0,0,7.686,1.026c4.789,0,15.974-1.8,21.609-4.277,3.381-1.488,13.168-1.888,28.32-1.166l.778.039h.378l-5.263,18.205c.5.259.716.53.637.8s-.22.755-6-.141c-1.781-.282-3.623.637-5.95,1.8C137.9,119.606,133.721,121.708,127.489,121.708ZM91.376,101.3a2.266,2.266,0,0,0-1.561.349c-.766.9.034,2.141.885,3.454a10.875,10.875,0,0,1,1.178,2.158c.563,1.69,17.89,11.788,31.655,13.613,8.367,1.127,13.523-1.465,17.3-3.347,2.423-1.206,4.333-2.158,6.288-1.854a23.546,23.546,0,0,0,5.2.513,2.631,2.631,0,0,0-.378-.2l-.225-.1,5.189-17.969h-.434c-14.847-.71-24.792-.31-28.066,1.127-5.7,2.507-17,4.322-21.834,4.322a52.758,52.758,0,0,1-7.787-1.037,46.6,46.6,0,0,0-7.41-1.048Z" fill="#231f20"/>
        <path id="Path_2710" data-name="Path 2710" d="M138.966,103.423s-32.365,11.714-56.5,5.742l-1.8-11.833L90.948,85.347s21.124,4.451,39.042-5.1L140.91,91.7Z" fill="#68e1fd"/>
        <path id="Path_2711" data-name="Path 2711" d="M97.749,111.126a64.2,64.2,0,0,1-15.349-1.69l-.18-.045L80.372,97.259l10.469-12.21.163.034c.208.045,21.237,4.322,38.879-5.071l.186-.1,11.168,11.714-1.995,12.013-.158.056C138.8,103.784,118.214,111.126,97.749,111.126Zm-15.027-2.192c22.9,5.573,53.529-4.863,56-5.719l1.893-11.41L129.906,80.6c-16.9,8.925-36.867,5.449-38.879,5.071L80.941,97.445Z" fill="#231f20"/>
        <path id="Path_2712" data-name="Path 2712" d="M103.164,100.3A102.206,102.206,0,0,1,80.575,97.62l.141-.563c.186.051,18.482,4.694,34.551,1.6,17.27-3.33,25.418-7.178,25.5-7.218l.242.507c-.079.039-8.283,3.916-25.637,7.263A65.36,65.36,0,0,1,103.164,100.3Z" fill="#231f20"/>
        <path id="Path_2713" data-name="Path 2713" d="M103.9,97.839a118.687,118.687,0,0,1-19.067-1.488.287.287,0,0,1-.22-.186.276.276,0,0,1,.062-.282l8.041-8.779a.293.293,0,0,1,.265-.085c18.132,3.646,38.366-1.38,38.569-1.431a.27.27,0,0,1,.237.045l6.762,5.032a.276.276,0,0,1,.113.254.265.265,0,0,1-.158.225C127.522,96.481,114.411,97.839,103.9,97.839ZM85.443,95.9c4.074.665,31.83,4.671,52.4-5.043l-6.288-4.649c-1.769.428-21.079,4.9-38.529,1.431Z" fill="#fff"/>
        <path id="Path_2714" data-name="Path 2714" d="M135.912,104.313s-7.19,3.015-12.4,1.809c-1.307-.3-11.912-1.026-11.945,1.358-.068,5.28,16.07,8.294,21.8,5.883" fill="#fff"/>
        <path id="Path_2715" data-name="Path 2715" d="M127.787,114.5c-4.925,0-10.925-1.341-14.148-3.51-1.589-1.071-2.383-2.254-2.372-3.516a1.172,1.172,0,0,1,.507-.918c2.051-1.611,10.706-.958,11.788-.71,5.071,1.172,12.176-1.764,12.244-1.8a.284.284,0,1,1,.22.524c-.3.124-7.325,3.031-12.593,1.826-1.262-.293-9.539-.789-11.314.6a.642.642,0,0,0-.287.479c0,1.065.7,2.085,2.124,3.043,4.48,3.015,14.932,4.412,19.287,2.581a.276.276,0,0,1,.366.152.282.282,0,0,1-.146.366,15.309,15.309,0,0,1-5.674.879Z" fill="#231f20"/>
        <path id="Path_2716" data-name="Path 2716" d="M85.764,74.433s18.16,8.5,19.755,4.958C98.5,76.659,92.182,66.68,92.182,66.68" fill="#fff"/>
        <path id="Path_2717" data-name="Path 2717" d="M103.412,80.53c-5.212,0-17.2-5.578-17.766-5.843l.242-.507c.146.068,15.033,7,18.746,5.635a1.279,1.279,0,0,0,.456-.276c-6.885-2.9-12.892-12.283-13.146-12.689l.473-.3c.062.1,6.35,9.934,13.2,12.6l.276.107-.124.27a1.561,1.561,0,0,1-.941.817,4.158,4.158,0,0,1-1.42.186Z" fill="#231f20"/>
        <path id="Path_2718" data-name="Path 2718" d="M103.778,67.689,89.218,78.851s17.946,18.876,55.028,6.232l-6.553-12.4s-12.864,5.071-23.254,2.3C106.015,72.715,103.778,67.689,103.778,67.689Z" fill="#68e1fd"/>
        <path id="Path_2719" data-name="Path 2719" d="M119.966,89.709a52.734,52.734,0,0,1-17.231-2.733c-9.083-3.127-13.675-7.888-13.72-7.928l-.214-.231,15.089-11.568.146.321c0,.051,2.3,4.936,10.475,7.122,10.187,2.722,22.95-2.254,23.1-2.288l.231-.1,6.846,12.96-.316.107A75.952,75.952,0,0,1,119.966,89.709ZM89.647,78.884a37.537,37.537,0,0,0,13.309,7.579c8.232,2.817,21.975,4.846,40.9-1.516l-6.3-11.923c-1.809.665-13.6,4.778-23.192,2.22-7.325-1.966-10.035-5.961-10.706-7.122Z" fill="#231f20"/>
        <path id="Path_2720" data-name="Path 2720" d="M121.662,87.038a53.422,53.422,0,0,1-15.213-2.169,42.655,42.655,0,0,1-12.96-6.074.287.287,0,0,1-.107-.225.3.3,0,0,1,.107-.225l10.79-8.283a.282.282,0,0,1,.366,0c13.523,13.348,31.4,5.46,31.554,5.375a.282.282,0,0,1,.366.13l4.147,7.888a.287.287,0,0,1,0,.237.27.27,0,0,1-.175.158,59.507,59.507,0,0,1-18.876,3.189ZM94.132,78.586c2.513,1.747,20.437,13.253,45.95,4.885l-3.871-7.4c-2.22.907-18.9,7.117-31.785-5.42Z" fill="#fff"/>
        <path id="Path_2721" data-name="Path 2721" d="M88.1,75.5a14.622,14.622,0,0,1-9.015.868c-6.8-1.166-13.81-6.694-13.81-6.694S67.153,57.349,72.6,52.041c0,0,4.711,3.308,8.959.332,3.009-2.107,15.873-9.832,19.09-12.267,1.555-1.178,3.274-3.065,5.122-3.747,1.223-.451,2.66,0,2.338,1.527a12.086,12.086,0,0,1-3.093,5.635,35.673,35.673,0,0,1-4.93,4.226c4.564-1.95,8.452-4.936,12.5-7.764a1.623,1.623,0,0,1,.907-.383c1.73.034.563,3.9.22,4.688-1.69,3.657-5.268,5.837-8.722,7.579,3.7-.462,6.762-2.783,10-4.468,1.471-.772,3.1-1.262,2.845,1.127-.18,1.634-1.848,2.817-3.093,3.679-4.068,2.783-8.649,5.071-12.571,8.012.417,1.082,3.262,1.392,4.327,2.028a5.635,5.635,0,0,1,2.767,3.764c1.1,5.556-.958,10.289-3.612,9.545s-1.69-8.813-6.238-10.283c-2.586-.84-4.378.817-5.854,3.279" fill="#fff"/>
        <path id="Path_2722" data-name="Path 2722" d="M82.479,76.941a20.116,20.116,0,0,1-3.448-.321c-6.762-1.166-13.872-6.694-13.94-6.762a.293.293,0,0,1-.107-.259c.079-.507,1.961-12.486,7.381-17.8a.282.282,0,0,1,.361,0c.045.034,4.6,3.155,8.632.332,1.273-.9,4.361-2.817,7.629-4.863,4.508-2.817,9.579-6,11.455-7.4.456-.349.93-.755,1.431-1.189a13.317,13.317,0,0,1,3.764-2.6,2.333,2.333,0,0,1,2.254.225,1.583,1.583,0,0,1,.439,1.628A12.261,12.261,0,0,1,105.17,43.7a26.753,26.753,0,0,1-2.891,2.648,73.683,73.683,0,0,0,8.356-5.387l1.735-1.223a2,2,0,0,1,1.071-.434,1.076,1.076,0,0,1,.93.513c.71,1.127-.163,3.944-.456,4.575-1.409,3.076-4.1,5.1-7.021,6.762a27.7,27.7,0,0,0,5.567-2.693c.766-.439,1.561-.9,2.355-1.313s2.023-.964,2.744-.468c.445.3.614.907.513,1.843-.2,1.826-2.085,3.116-3.212,3.888-1.786,1.217-3.7,2.367-5.544,3.471-2.3,1.38-4.677,2.817-6.824,4.384a5.811,5.811,0,0,0,2.355,1.054,8.514,8.514,0,0,1,1.747.659,5.837,5.837,0,0,1,2.9,3.944c.761,3.832.079,7.635-1.69,9.241a2.338,2.338,0,0,1-2.3.631c-1.307-.366-1.8-2.136-2.361-4.181-.682-2.5-1.465-5.325-3.888-6.114-2.107-.682-3.809.293-5.528,3.155a.282.282,0,1,1-.485-.287c1.166-1.944,3.076-4.412,6.2-3.381,2.71.879,3.533,3.865,4.26,6.5.518,1.876.964,3.5,1.961,3.781a1.786,1.786,0,0,0,1.769-.5c1.352-1.251,2.3-4.649,1.493-8.722a5.325,5.325,0,0,0-2.637-3.578,8.565,8.565,0,0,0-1.623-.6c-1.234-.372-2.507-.761-2.817-1.566a.293.293,0,0,1,.1-.332c2.22-1.651,4.682-3.133,7.066-4.558,1.843-1.127,3.747-2.254,5.516-3.46,1.352-.924,2.817-2.034,2.969-3.482.056-.479.051-1.127-.27-1.318-.237-.163-.806-.208-2.164.5-.783.411-1.572.868-2.333,1.307-2.412,1.392-4.9,2.817-7.759,3.189a.276.276,0,0,1-.3-.2.282.282,0,0,1,.146-.332c3.5-1.764,6.964-3.888,8.593-7.443.3-.648,1.031-3.178.49-4.04a.513.513,0,0,0-.462-.248,1.38,1.38,0,0,0-.738.332L111,41.4a59.615,59.615,0,0,1-10.818,6.57.282.282,0,0,1-.282-.485,35.995,35.995,0,0,0,4.891-4.192,11.647,11.647,0,0,0,3.026-5.494,1.054,1.054,0,0,0-.254-1.082,1.792,1.792,0,0,0-1.69-.124,13,13,0,0,0-3.584,2.49c-.513.439-.992.856-1.465,1.217-1.865,1.414-6.981,4.609-11.495,7.426-3.262,2.034-6.339,3.944-7.607,4.846-3.854,2.7-8.114.389-9.077-.2-4.834,4.93-6.762,15.7-7.032,17.157.992.749,7.41,5.482,13.557,6.536a14.42,14.42,0,0,0,8.863-.851.276.276,0,0,1,.366.152.282.282,0,0,1-.146.366A13.782,13.782,0,0,1,82.479,76.941Z" fill="#231f20"/>
        <path id="Path_2723" data-name="Path 2723" d="M76,52.041s-5.026,2.378-7.967,11.833a19.2,19.2,0,0,0,0,11.63L57.062,72.162S52.351,64.274,53.9,55.49c1.888-10.864,12.03-9.928,12.03-9.928C67.086,45.854,76,52.041,76,52.041Z" fill="#231f20"/>
        <path id="Path_2724" data-name="Path 2724" d="M68.032,75.746h-.073L56.988,72.4a.248.248,0,0,1-.141-.113c-.045-.079-4.739-8.041-3.2-16.842C55.568,44.5,65.852,45.3,65.959,45.3c1.2.338,9.263,5.9,10.182,6.536a.237.237,0,0,1,.1.225.242.242,0,0,1-.141.2c-.045,0-4.958,2.462-7.832,11.675a19.158,19.158,0,0,0,0,11.466.237.237,0,0,1-.051.254.231.231,0,0,1-.186.085Zm-10.807-3.8,10.424,3.178A20.008,20.008,0,0,1,67.8,63.789c2.519-8.08,6.508-11.027,7.731-11.771-2.676-1.854-8.784-6-9.652-6.2-.366-.034-9.894-.778-11.737,9.72-1.426,8.131,2.6,15.546,3.088,16.4Z" fill="#231f20"/>
        <path id="Path_2725" data-name="Path 2725" d="M164.869,92.689c-.456-.146-15.98,4.333-16.132,4.356s6.8,7.269,1.814,21.75l15.213,4.074a29.185,29.185,0,0,0,4.818-14.943A21.227,21.227,0,0,0,164.869,92.689Z" fill="#231f20"/>
        <path id="Path_2726" data-name="Path 2726" d="M165.776,123.116h-.062L150.5,119.042a.237.237,0,0,1-.152-.118.242.242,0,0,1,0-.2c1.347-3.91,3.877-13.816-1.645-21.327-.163-.214-.22-.293-.163-.434a.242.242,0,0,1,.2-.152l1.831-.518c12.931-3.674,14.177-3.91,14.413-3.826a.192.192,0,0,1,.09.056,21.564,21.564,0,0,1,5.8,15.422,29.542,29.542,0,0,1-4.863,15.078.248.248,0,0,1-.237.09Zm-14.909-4.508,14.808,3.944a29.581,29.581,0,0,0,4.671-14.65,21.071,21.071,0,0,0-5.584-14.966c-1.082.124-10.492,2.817-14.087,3.82l-1.533.434c5.454,7.533,3.11,17.3,1.724,21.428Z" fill="#231f20"/>
        <path id="Path_2727" data-name="Path 2727" d="M99.44,102.674a81.656,81.656,0,0,1-18.369-1.95.29.29,0,1,1,.141-.563c.2.051,19.569,4.964,40.276-1.076a.282.282,0,0,1,.349.192.287.287,0,0,1-.192.349,79.764,79.764,0,0,1-22.206,3.048Z" fill="#231f20"/>
        <path id="Path_2728" data-name="Path 2728" d="M105.519,105.3a.282.282,0,0,1,0-.563c17.6,0,34-9.331,34.163-9.421a.282.282,0,1,1,.282.485C139.8,95.9,123.274,105.283,105.519,105.3Z" fill="#231f20"/>
        <path id="Path_2729" data-name="Path 2729" d="M98.651,109.075a56.7,56.7,0,0,1-16.729-2.637.282.282,0,0,1-.175-.355.287.287,0,0,1,.361-.175c.113.039,11.2,3.854,22.617,2.175a.285.285,0,1,1,.085.563,42.823,42.823,0,0,1-6.159.428Z" fill="#231f20"/>
      </g>
    </g>
    <g id="Group_122" data-name="Group 122" transform="translate(504.254 498.5)">
      <path id="Subtraction_1" data-name="Subtraction 1" d="M-13047.155,41.891h0a20.948,20.948,0,0,1-13.393-6.773A20.954,20.954,0,0,1-13066,21a20.865,20.865,0,0,1,6.15-14.849A20.861,20.861,0,0,1-13045,0a20.885,20.885,0,0,1,14.673,5.976,20.882,20.882,0,0,1,6.32,14.489,78.93,78.93,0,0,0-23.146,21.425Z" transform="translate(13266 722)" fill="#483d7f"/>
      <text id="_3" data-name="3" transform="translate(221 749)" fill="#fff" font-size="17" font-family="Poppins-Regular, Poppins"><tspan x="-5.007" y="0">3</tspan></text>
    </g>
  </g>
</svg>
