<svg xmlns="http://www.w3.org/2000/svg" width="275" height="152" viewBox="0 0 275 152">
  <g id="Group_192" data-name="Group 192" transform="translate(-135 -569)">
    <rect id="Rectangle_5" data-name="Rectangle 5" width="275" height="152" rx="23" transform="translate(135 569)" fill="#c59cb8"/>
    <path id="Intersection_2" data-name="Intersection 2" d="M0,58C.256,25.922,26.573,0,59,0s58.743,25.922,59,58Z" transform="translate(189 663)" fill="#dbb4cf"/>
    <path id="Intersection_1" data-name="Intersection 1" d="M1.443,134A114.848,114.848,0,0,1,0,115.814C0,51.852,52.69,0,117.685,0A119.274,119.274,0,0,1,155,5.943V111a23,23,0,0,1-23,23Z" transform="translate(255 587)" fill="rgba(233,188,219,0.7)"/>
    <path id="Path_7" data-name="Path 7" d="M180.56,665.29s46.987-7.739,72.238,11.017,28.221,64.143,28.221,64.143H196.881a24.413,24.413,0,0,1-11.563-7.439,23.931,23.931,0,0,1-4.443-12.478c-.365-8-.1-23.7-.536-32.793C180.56,676.144,180.56,665.29,180.56,665.29Z" transform="translate(-45.015 -20.264)" fill="rgba(218,172,203,0.56)"/>
    <text id="Menunggu_Konfirmasi" data-name="Menunggu Konfirmasi" transform="translate(151 699)" fill="#fff" font-size="16" font-family="SegoeUI-Semilight, Segoe UI" font-weight="300"><tspan x="0" y="0">Menunggu Konfirmasi</tspan></text>
    <g id="stopwatch" transform="translate(147.892 589.881)">
      <path id="Path_3986" data-name="Path 3986" d="M77.9,28.555q-.841-.838-1.728-1.614l4.193-4.193,1.67,1.672a1.293,1.293,0,1,0,1.828-1.828L78.69,17.423a1.293,1.293,0,0,0-1.828,1.828l1.672,1.67L74.152,25.3A34.519,34.519,0,0,0,57.1,18.552V14.461h2.584a1.292,1.292,0,0,0,1.292-1.292V9.292A1.292,1.292,0,0,0,59.686,8H46.764a1.292,1.292,0,0,0-1.292,1.292v3.876a1.292,1.292,0,0,0,1.292,1.292h2.584v4.091a34.521,34.521,0,0,0-17.14,6.821l-4.453-4.451,1.672-1.67A1.293,1.293,0,1,0,27.6,17.423L22.43,22.592a1.293,1.293,0,0,0,1.828,1.828l1.67-1.672L30.2,27.017c-.56.494-1.11,1-1.643,1.538a34.665,34.665,0,0,0-10.218,24.67,35.138,35.138,0,0,0,.6,6.461H11.23A3.234,3.234,0,0,0,8,62.916V84.883a3.234,3.234,0,0,0,3.23,3.23H33.2a3.234,3.234,0,0,0,3.23-3.23V83.809A34.892,34.892,0,0,0,77.9,28.555ZM48.057,11.876V10.584H58.394v1.292Zm6.461,2.584v3.876H51.933V14.461ZM18.337,62.27H26.09V71.81l-3.3-1.651a1.3,1.3,0,0,0-1.156,0l-3.3,1.651ZM33.843,84.883a.646.646,0,0,1-.646.646H11.23a.646.646,0,0,1-.646-.646V62.916a.646.646,0,0,1,.646-.646h4.523V73.9a1.292,1.292,0,0,0,1.87,1.156l4.59-2.3,4.59,2.3a1.292,1.292,0,0,0,1.87-1.156V62.27H33.2a.646.646,0,0,1,.646.646Zm-4.308-25.2H28.2a25.864,25.864,0,1,1,8.231,13.177V71.131a24.5,24.5,0,1,0-6.892-11.445Zm3.662,0h-.974a22,22,0,1,1,4.2,7.692V62.916A3.234,3.234,0,0,0,33.2,59.686ZM53.225,85.529a32.2,32.2,0,0,1-16.8-4.707V76.158a28.379,28.379,0,1,0-10.89-16.472H21.569A32.306,32.306,0,1,1,53.225,85.529Z" fill="#fff"/>
      <path id="Path_3987" data-name="Path 3987" d="M267.883,204.674a3.883,3.883,0,0,0,3.654-2.584h4.1a1.292,1.292,0,0,0,0-2.584h-4.1a3.9,3.9,0,0,0-2.362-2.362V185.292a1.292,1.292,0,1,0-2.584,0v11.852a3.876,3.876,0,0,0,1.292,7.531Zm0-5.169a1.292,1.292,0,1,1-1.292,1.292A1.292,1.292,0,0,1,267.883,199.506Z" transform="translate(-214.657 -147.573)" fill="#fff"/>
    </g>
  </g>
</svg>
