<svg xmlns="http://www.w3.org/2000/svg" width="72.95" height="68.961" viewBox="0 14 72.95 68.961"><path d="M69.079 34.514H56.708a3.877 3.877 0 0 0-3.872 3.873v14.24H48.21c.257-.936.353-2.038.29-3.322-.1-5.422-1.084-9.993-2.925-13.583-1.429-2.788-3.097-4.46-4.528-5.459 1.68-1.727 2.651-4.184 2.651-7.017 0-5.099-4.067-9.246-9.065-9.246-5 0-9.066 4.147-9.066 9.246 0 .59.478 1.068 1.069 1.068h.726a7.524 7.524 0 0 0-.103 1.232c0 3.592 2.567 6.595 5.962 7.268-.356 1.321-.533 2.88-.532 4.649l-2.665 2.292-6.486.525-7.48-2.473c-.686-.228-1.463-.486-2.137 0-.665.48-.665 1.319-.665 1.595v5.561c0 .59.479 1.07 1.07 1.07h1.271l-1.951 6.742a1.069 1.069 0 0 0 2.053.594l2.123-7.337h3.038c-3.778 11.523-1.622 19.214 1.692 26.998H20.63l-8-8.946 1.69-5.844a1.068 1.068 0 1 0-2.052-.594l-1.618 5.59c-5.005-.083-9.482 3.367-10.623 8.332a1.069 1.069 0 0 0 .802 1.28l1.517.35C1.96 77.222 4.61 81.02 8.652 81.95a8.118 8.118 0 0 0 6.172-1.04 8.122 8.122 0 0 0 3.323-4.077l1.197.275c.357.083.695.124 1.033-.058.315-.169.524-.475.602-.82.075-.35.132-.705.172-1.064h22.35c.714 4.444 4.495 7.794 9.01 7.794 4.516 0 8.297-3.35 9.011-7.794h.816l.199.002c.305 0 .747-.034 1.11-.402.18-.185.393-.515.377-1.04a12.114 12.114 0 0 0-.438-2.894c.852-5.168.033-8.315-1.182-10.778a2.813 2.813 0 0 0 1.277-2.355v-2.937h5.398a3.877 3.877 0 0 0 3.871-3.874V38.387a3.877 3.877 0 0 0-3.871-3.873ZM13.689 79.1a5.994 5.994 0 0 1-4.557.768C6.24 79.203 4.31 76.55 4.45 73.684l11.591 2.667a6.007 6.007 0 0 1-2.352 2.75Zm5.348-4.256L2.414 71.02c1.283-3.512 4.735-5.838 8.508-5.638l8.143 9.105a8.74 8.74 0 0 1-.028.358Zm16.14-18.621c-.31.818-.31 1.827-.31 3.223v4.032h-3.912v-5.532c0-6.255 3.413-7.37 4.945-7.553h10.477c-.042 1.42-.363 2.428-.97 3.069-.71.746-1.922 1.11-3.708 1.111l-3.836.004c-1.368 0-2.271.554-2.685 1.646Zm-.31 9.392v2.552h-7.62c.086-.791.332-1.404.737-1.828.602-.63 1.45-.724 1.902-.724h4.982Zm11.463-17.36H36.61a39.901 39.901 0 0 1-1.024-3.954l2.955-1.918c1.613-1.047 2.452-2.527 2.302-4.06-.133-1.36-1.057-2.574-2.354-3.093-1.185-.475-2.46-.326-3.587.395.093-1.022.266-1.935.516-2.71a7.533 7.533 0 0 0 1.352-.266 8.853 8.853 0 0 0 2.495-.989c2.058 1.23 6.585 5.218 7.064 16.596ZM27.78 22.178c.504-3.414 3.384-6.04 6.85-6.04 3.82 0 6.929 3.19 6.929 7.109 0 3.188-1.529 5.757-3.994 6.888V24.51c0-.974-.372-2.168-2.147-2.33a1.047 1.047 0 0 0-.097-.004h-7.54Zm1.615 3.369c0-.422.048-.834.142-1.232h5.732c.066.007.114.015.148.022.006.04.01.097.01.175v6.252c-.254.037-.51.056-.766.056h-.007c-2.9-.003-5.26-2.367-5.26-5.273ZM28.01 42.062l2.531-.204a1.07 1.07 0 0 0 .611-.255l4.568-3.93h.001c.442-.38.913-.576 1.372-.576.205 0 .407.039.602.117.565.226.966.743 1.022 1.317.07.722-.405 1.454-1.339 2.06l-5.09 3.304h-4.277v-1.833Zm-4.516.366 2.379-.193v1.66h-2.764c-.359 0-.446-.297-.456-.547-.006-.142.007-.852.841-.92Zm-2.529-.738a3.126 3.126 0 0 0-.394 2.196v.01h-5.178v-4.058l5.576 1.844-.004.008Zm2.15 4.342h9.49c.206 0 .408-.06.58-.172l.485-.314c.232 1.029.497 2.03.786 2.975-2.18.643-5.639 2.722-5.639 9.426v5.64c-.75.15-1.636.5-2.378 1.277-.782.818-1.23 1.927-1.336 3.304h-2.156c-2.172-6.26-2.998-12.922.168-22.136Zm1.761 26.995a86.07 86.07 0 0 1-1.134-2.722h11.096c1.438 0 2.167-.655 2.167-1.946v-7.844h8.434a1.068 1.068 0 1 0 0-2.137h-8.427c.014-.607.053-1.103.164-1.397.054-.142.101-.265.688-.265l3.837-.004c2.403-.003 4.122-.584 5.255-1.778.052-.055.102-.113.152-.17h14.437V57.7c0 .368-.31.678-.677.678H50.23a1.068 1.068 0 1 0 0 2.137h10.01c.845 1.568 1.604 3.519 1.56 6.6a11.556 11.556 0 0 0-9.422-4.824c-3.12 0-6.046 1.223-8.242 3.445a11.772 11.772 0 0 0-3.36 7.294l-15.9-.003Zm27.636 7.797c-3.341 0-6.159-2.407-6.84-5.656h13.68c-.683 3.248-3.5 5.656-6.84 5.656Zm8.053-7.794H42.923c.525-4.831 4.565-8.602 9.455-8.602 4.294 0 7.9 2.831 9.094 6.795l.012.037c.169.569.288 1.16.352 1.77h-1.27Zm10.248-22.14c0 .957-.778 1.736-1.734 1.736H54.973v-5.518h15.84v3.782Zm0-5.92h-15.84v-2.272h15.84v2.272Zm0-4.41h-15.84v-2.173c0-.957.779-1.736 1.735-1.736h12.37c.957 0 1.735.779 1.735 1.736v2.174Z" fill="#fff" fill-rule="evenodd" data-name="Path 3984"/></svg>