<svg xmlns="http://www.w3.org/2000/svg" xmlns:xlink="http://www.w3.org/1999/xlink" width="148" height="148" viewBox="0 0 148 148">
  <defs>
    <linearGradient id="linear-gradient" x1="0.5" x2="0.5" y2="1" gradientUnits="objectBoundingBox">
      <stop offset="0" stop-color="#ba70a3"/>
      <stop offset="1" stop-color="#bb9cb2"/>
    </linearGradient>
    <filter id="Ellipse_40" x="0" y="0" width="148" height="148" filterUnits="userSpaceOnUse">
      <feOffset dy="3" input="SourceAlpha"/>
      <feGaussianBlur stdDeviation="3" result="blur"/>
      <feFlood flood-opacity="0.161"/>
      <feComposite operator="in" in2="blur"/>
      <feComposite in="SourceGraphic"/>
    </filter>
  </defs>
  <g id="Component_2_1" data-name="Component 2 – 1" transform="translate(9 6)">
    <g transform="matrix(1, 0, 0, 1, -9, -6)" filter="url(#Ellipse_40)">
      <circle id="Ellipse_40-2" data-name="Ellipse 40" cx="65" cy="65" r="65" transform="translate(9 6)" fill="url(#linear-gradient)"/>
    </g>
    <path id="Icon_awesome-whatsapp" data-name="Icon awesome-whatsapp" d="M39.96,9.08A23.3,23.3,0,0,0,3.3,37.185L0,49.25l12.348-3.242a23.219,23.219,0,0,0,11.131,2.833h.01A23.514,23.514,0,0,0,47,25.551,23.382,23.382,0,0,0,39.96,9.08ZM23.49,44.917a19.324,19.324,0,0,1-9.862-2.7l-.7-.42L5.6,43.721l1.951-7.144-.462-.734A19.4,19.4,0,1,1,43.066,25.551,19.574,19.574,0,0,1,23.49,44.917Zm10.617-14.5c-.577-.294-3.441-1.7-3.976-1.888s-.923-.294-1.311.294-1.5,1.888-1.846,2.287-.682.441-1.259.147c-3.42-1.71-5.665-3.053-7.921-6.924-.6-1.028.6-.955,1.71-3.179a1.078,1.078,0,0,0-.052-1.018c-.147-.294-1.311-3.158-1.794-4.322-.472-1.133-.955-.976-1.311-1-.336-.021-.724-.021-1.112-.021a2.156,2.156,0,0,0-1.553.724,6.539,6.539,0,0,0-2.035,4.857c0,2.864,2.088,5.634,2.371,6.022s4.1,6.263,9.946,8.792c3.693,1.595,5.141,1.731,6.987,1.458,1.123-.168,3.441-1.406,3.924-2.77a4.867,4.867,0,0,0,.336-2.77C35.072,30.849,34.683,30.7,34.106,30.419Z" transform="translate(41.5 37.741)" fill="#fff"/>
  </g>
</svg>
