<svg xmlns="http://www.w3.org/2000/svg" xmlns:xlink="http://www.w3.org/1999/xlink" width="148" height="148" viewBox="0 0 148 148">
  <defs>
    <linearGradient id="linear-gradient" x1="0.5" x2="0.5" y2="1" gradientUnits="objectBoundingBox">
      <stop offset="0" stop-color="#ba70a3"/>
      <stop offset="1" stop-color="#bb9cb2"/>
    </linearGradient>
    <filter id="Ellipse_40" x="0" y="0" width="148" height="148" filterUnits="userSpaceOnUse">
      <feOffset dy="3" input="SourceAlpha"/>
      <feGaussianBlur stdDeviation="3" result="blur"/>
      <feFlood flood-opacity="0.161"/>
      <feComposite operator="in" in2="blur"/>
      <feComposite in="SourceGraphic"/>
    </filter>
  </defs>
  <g id="Component_6_1" data-name="Component 6 – 1" transform="translate(9 6)">
    <g transform="matrix(1, 0, 0, 1, -9, -6)" filter="url(#Ellipse_40)">
      <circle id="Ellipse_40-2" data-name="Ellipse 40" cx="65" cy="65" r="65" transform="translate(9 6)" fill="url(#linear-gradient)"/>
    </g>
    <path id="Icon_awesome-facebook" data-name="Icon awesome-facebook" d="M41.08,20.821A20.259,20.259,0,1,0,17.656,40.835V26.677H12.509V20.821h5.146V16.358c0-5.077,3.022-7.881,7.652-7.881a31.178,31.178,0,0,1,4.535.4v4.983H27.288c-2.516,0-3.3,1.562-3.3,3.164v3.8h5.619l-.9,5.856h-4.72V40.835A20.266,20.266,0,0,0,41.08,20.821Z" transform="translate(44.269 42.806)" fill="#fff"/>
  </g>
</svg>
