<svg xmlns="http://www.w3.org/2000/svg" xmlns:xlink="http://www.w3.org/1999/xlink" width="148" height="148" viewBox="0 0 148 148">
  <defs>
    <linearGradient id="linear-gradient" x1="0.5" x2="0.5" y2="1" gradientUnits="objectBoundingBox">
      <stop offset="0" stop-color="#ba70a3"/>
      <stop offset="1" stop-color="#bb9cb2"/>
    </linearGradient>
    <filter id="Ellipse_40" x="0" y="0" width="148" height="148" filterUnits="userSpaceOnUse">
      <feOffset dy="3" input="SourceAlpha"/>
      <feGaussianBlur stdDeviation="3" result="blur"/>
      <feFlood flood-opacity="0.161"/>
      <feComposite operator="in" in2="blur"/>
      <feComposite in="SourceGraphic"/>
    </filter>
  </defs>
  <g id="Component_4_1" data-name="Component 4 – 1" transform="translate(9 6)">
    <g transform="matrix(1, 0, 0, 1, -9, -6)" filter="url(#Ellipse_40)">
      <circle id="Ellipse_40-2" data-name="Ellipse 40" cx="65" cy="65" r="65" transform="translate(9 6)" fill="url(#linear-gradient)"/>
    </g>
    <path id="Icon_awesome-twitter" data-name="Icon awesome-twitter" d="M41.287,12.7c.029.409.029.818.029,1.226,0,12.468-9.49,26.834-26.834,26.834A26.652,26.652,0,0,1,0,36.522a19.51,19.51,0,0,0,2.278.117,18.888,18.888,0,0,0,11.709-4.029,9.448,9.448,0,0,1-8.818-6.541,11.894,11.894,0,0,0,1.781.146,9.975,9.975,0,0,0,2.482-.321,9.433,9.433,0,0,1-7.563-9.256V16.52a9.5,9.5,0,0,0,4.263,1.2A9.445,9.445,0,0,1,3.212,5.1a26.808,26.808,0,0,0,19.446,9.869,10.647,10.647,0,0,1-.234-2.161A9.44,9.44,0,0,1,38.747,6.359a18.568,18.568,0,0,0,5.986-2.278,9.406,9.406,0,0,1-4.146,5.2,18.907,18.907,0,0,0,5.431-1.46,20.273,20.273,0,0,1-4.73,4.876Z" transform="translate(41.673 41.524)" fill="#fff"/>
  </g>
</svg>
