<svg xmlns="http://www.w3.org/2000/svg" width="80.113" height="80.119" viewBox="8 8 80.113 80.119"><path d="M77.896 28.555a35.847 35.847 0 0 0-1.729-1.614l4.193-4.193 1.67 1.672a1.293 1.293 0 0 0 1.829-1.828l-5.169-5.169a1.293 1.293 0 0 0-1.828 1.828l1.672 1.67-4.382 4.382a34.519 34.519 0 0 0-17.05-6.751v-4.091h2.584c.714 0 1.292-.579 1.292-1.292V9.292C60.978 8.58 60.4 8 59.686 8H46.764c-.713 0-1.292.579-1.292 1.292v3.877c0 .713.579 1.292 1.292 1.292h2.585v4.091a34.521 34.521 0 0 0-17.14 6.82l-4.454-4.45 1.672-1.67a1.293 1.293 0 0 0-1.828-1.829l-5.169 5.169a1.293 1.293 0 1 0 1.828 1.828l1.67-1.672 4.27 4.27c-.561.493-1.11 1.004-1.643 1.537a34.665 34.665 0 0 0-10.218 24.67c.001 2.168.203 4.33.603 6.461h-7.71A3.234 3.234 0 0 0 8 62.916v21.967a3.234 3.234 0 0 0 3.23 3.23h21.967a3.234 3.234 0 0 0 3.23-3.23v-1.074c15.223 8.359 34.276 4.25 44.7-9.64 10.425-13.89 9.048-33.333-3.231-45.614Zm-29.84-16.679v-1.292h10.338v1.292H48.057Zm6.461 2.585v3.876h-2.584v-3.876h2.584Zm-36.18 47.81h7.753v9.539l-3.298-1.651a1.3 1.3 0 0 0-1.157 0l-3.298 1.65V62.27Zm15.506 22.612c0 .357-.29.646-.646.646H11.23a.646.646 0 0 1-.646-.646V62.916c0-.356.29-.646.646-.646h4.523V73.9a1.292 1.292 0 0 0 1.87 1.156l4.59-2.297 4.591 2.297a1.292 1.292 0 0 0 1.87-1.156V62.27h4.523c.357 0 .646.29.646.646v21.967Zm-4.308-25.197h-1.339a25.954 25.954 0 0 1-.814-6.46c0-14.25 11.594-25.844 25.843-25.844 14.25 0 25.843 11.594 25.843 25.843 0 14.25-11.594 25.843-25.843 25.843a25.786 25.786 0 0 1-16.798-6.205V71.13a24.44 24.44 0 0 0 16.798 6.645c13.537 0 24.551-11.014 24.551-24.55 0-13.538-11.014-24.552-24.55-24.552-13.538 0-24.552 11.014-24.552 24.551a24.515 24.515 0 0 0 .861 6.461Zm3.662 0h-.974a21.988 21.988 0 0 1-.964-6.46c0-12.113 9.854-21.967 21.966-21.967 12.113 0 21.967 9.854 21.967 21.966 0 12.113-9.854 21.967-21.967 21.967a21.879 21.879 0 0 1-16.798-7.814v-4.462a3.234 3.234 0 0 0-3.23-3.23Zm20.028 25.843a32.204 32.204 0 0 1-16.798-4.707v-4.664a28.364 28.364 0 0 0 16.798 5.495c15.676 0 28.428-12.752 28.428-28.428 0-15.675-12.752-28.427-28.428-28.427-15.675 0-28.427 12.752-28.427 28.427a28.465 28.465 0 0 0 .74 6.461h-3.969a32.515 32.515 0 0 1-.648-6.46c0-17.813 14.492-32.305 32.304-32.305 17.813 0 32.304 14.492 32.304 32.304 0 17.813-14.491 32.304-32.304 32.304Z" fill="#fff" fill-rule="evenodd" data-name="Path 3986"/></svg>