<svg xmlns="http://www.w3.org/2000/svg" width="66.927" height="66.926"><path d="m58.841 24.836 7.703-7.703a1.307 1.307 0 0 0-.539-2.173L47.248 9.17A13.044 13.044 0 0 0 34.77 0a13.076 13.076 0 0 0-12.126 8.186L.918 14.961a1.307 1.307 0 0 0-.535 2.172l7.905 7.906-4.986 8.31a1.307 1.307 0 0 0 .708 1.913l7.232 2.41v20.105c0 .544.338 1.032.848 1.223 4.422 1.658 20.85 7.82 20.939 7.851.26.092.551.104.836.012l.012-.003 23.529-7.843c.533-.178.893-.678.893-1.24V37.134l7.712-2.424a1.307 1.307 0 0 0 .533-2.171l-7.703-7.703ZM47.842 13.072c0-.333-.014-.664-.039-.994l15.359 4.74-6.523 6.522-10.657-3.551a13.11 13.11 0 0 0 1.86-6.717ZM24.88 9.669a10.461 10.461 0 0 1 9.891-7.055 10.436 10.436 0 0 1 10.458 10.458 10.33 10.33 0 0 1-2.33 6.581 10.42 10.42 0 0 1-8.128 3.876c-3.424 0-6.636-1.68-8.592-4.497a10.38 10.38 0 0 1-1.865-5.96c0-1.168.19-2.312.566-3.403ZM3.76 16.813l18.078-5.637a13.18 13.18 0 0 0-.14 1.896c0 2.104.5 4.143 1.45 5.982l-12.86 4.286-6.528-6.527Zm2.623 16.484 4.133-6.89 20.988 6.997-4.133 6.889-20.988-6.996Zm25.773 30.436-18.3-6.862V38.544c14.398 4.774 13.695 4.628 14.096 4.628.45 0 .88-.233 1.121-.635l3.083-5.139v26.335Zm1.307-32.432-19.395-6.465 10.561-3.52a13.08 13.08 0 0 0 10.141 4.827c3.653 0 7.086-1.503 9.555-4.151l8.534 2.844-19.396 6.465Zm22.222 25.533L34.77 63.806v-27.4l4.635 5.791c.337.422.898.592 1.412.43l14.868-4.672v18.88ZM40.887 39.866l-5.232-6.54 20.984-6.994 6.531 6.53-22.283 7.004Z" fill="#fff" fill-rule="evenodd" data-name="Path 3989"/></svg>