<svg xmlns="http://www.w3.org/2000/svg" width="65.938" height="59.64"><path d="m65.938 8.159-.002-.022a.928.928 0 0 0-.005-.085l-.005-.03a.916.916 0 0 0-.048-.187l-.005-.015-2.62-6.707A1.74 1.74 0 0 0 61.623 0h-4.77a.942.942 0 1 0 0 1.883h4.68l2.084 5.338H43.904l-1.235-5.338h7.28a.942.942 0 1 0 0-1.883H11.858c-.726 0-1.365.437-1.63 1.113L7.609 7.82l-.005.015a.922.922 0 0 0-.047.186l-.005.031a.977.977 0 0 0-.006.085l-.001.022v13.836a.942.942 0 1 0 1.883 0V9.105h19.958v14.31a1.427 1.427 0 0 0 1.423 1.425c.342 0 .68-.123.946-.358l4.987-4.418 4.986 4.418a1.426 1.426 0 0 0 2.37-1.066V9.104h19.958v42.232c0 .675-.55 1.225-1.226 1.225H45.565l-.001-.032a3.433 3.433 0 0 0-.011-.253 3.393 3.393 0 0 0 4.002-1.996 3.365 3.365 0 0 0-.122-2.823l-.021-.041a3.387 3.387 0 0 0-.12-.21l-.025-.039a3.367 3.367 0 0 0-.141-.205l-.003-.003a3.365 3.365 0 0 0-.155-.19l-.03-.034a3.367 3.367 0 0 0-.165-.171l-.034-.032a3.31 3.31 0 0 0-.185-.163l-.007-.005a3.352 3.352 0 0 0-.194-.144l-.036-.026a3.428 3.428 0 0 0-.205-.127l-.017-.01c.398-.345.712-.78.916-1.282a3.366 3.366 0 0 0-.014-2.593 3.363 3.363 0 0 0-1.843-1.823L32.5 34.383l6.82-2.111a3.093 3.093 0 0 0 2.038-3.858 3.023 3.023 0 0 0-1.033-1.492 3.17 3.17 0 0 0-2.6-.61c-.005 0-.01.002-.014.003-.052.012-5.282 1.187-10.743 2.252a297.073 297.073 0 0 1-1.261.243l-.155.03a234.088 234.088 0 0 1-1.284.24c-6.858 1.263-8.785 1.286-9.32 1.214l-.006-.001a1.933 1.933 0 0 1-.023-.004l-.016-.002a.73.73 0 0 1-.09-.02l-.154-.063.192-.472a1.862 1.862 0 0 0-.184-1.76 1.861 1.861 0 0 0-.844-.683l-5.057-2.062a1.862 1.862 0 0 0-1.435.008c-.461.194-.82.556-1.008 1.02L.139 41.42a1.877 1.877 0 0 0 1.028 2.444l5.057 2.062a1.878 1.878 0 0 0 2.443-1.028l.047-.114 1.166.475.002.001a10.343 10.343 0 0 1 4.155 3.1 12.234 12.234 0 0 0 4.912 3.666l1.312.535h-9.609c-.675 0-1.225-.55-1.225-1.226v-2.382a.942.942 0 1 0-1.883 0v2.382a3.112 3.112 0 0 0 3.108 3.109H24.88l12.129 4.946a3.394 3.394 0 0 0 4.416-1.858c.22-.538.29-1.101.23-1.642.631.09 1.286.008 1.879-.248a3.357 3.357 0 0 0 1.456-1.198h17.84a3.112 3.112 0 0 0 3.108-3.109V8.16ZM32.746 1.883h7.99l1.235 5.338h-10.46l1.235-5.338Zm-3.168 5.338H9.864l2.085-5.338h18.864l-1.235 5.338Zm12.636 15.176-4.528-4.011a1.421 1.421 0 0 0-1.89 0l-4.528 4.011V9.104h10.946v13.293ZM6.927 44.18l-5.041-2.056 6.177-15.15 5.041 2.056-6.177 15.15Zm37.616 5.682-1.08-.44-.002-.001-.002-.001-11.254-4.589a.942.942 0 1 0-.71 1.744l11.253 4.589c.047.02.093.04.137.064l.036.021c.03.018.062.035.09.055.015.009.028.02.042.03.025.018.052.036.076.056l.043.039c.022.02.044.038.065.059l.04.044c.02.02.039.04.057.062l.038.05c.016.021.033.042.047.064.013.018.024.038.035.056.014.022.028.043.04.065.011.02.02.042.03.062l.033.066c.01.022.017.044.025.066.009.023.018.044.025.067.008.023.014.046.02.07l.019.068c.005.023.008.047.012.07.005.023.01.047.013.07l.006.072c.002.024.005.048.005.072v.07c0 .025 0 .05-.002.074-.001.023-.005.047-.007.07l-.009.075-.014.069c-.006.025-.01.05-.017.076l-.021.066c-.008.026-.015.051-.025.076a1.545 1.545 0 0 0-.023.052l-.004.012c-.147.34-.419.609-.773.762-.39.168-.837.174-1.226.016l-1.994-.813-.028-.01c-.01-.004-.018-.01-.028-.013l-9.153-3.732a.941.941 0 1 0-.711 1.743l9.153 3.733.03.01c.009.004.017.009.026.012a1.506 1.506 0 0 1-1.136 2.787l-12.298-5.015h-.002l-5.76-2.349a10.34 10.34 0 0 1-4.154-3.1 12.235 12.235 0 0 0-4.913-3.666l-1.168-.476 2.326-5.703 2.197-5.39.162.067c.153.062.37.15.956.172.732.033 1.943-.043 4.111-.35 1.476-.208 3.285-.51 5.398-.898l.156-.029.299-.055.235-.044.27-.05.293-.056.236-.045.364-.07.188-.035.57-.11a436.08 436.08 0 0 0 10.931-2.29l.071-.012c.605-.09 1.197.26 1.37.825a1.205 1.205 0 0 1-.794 1.506l-9.334 2.89a.941.941 0 0 0-.077 1.77l17.09 6.97c.372.151.663.439.819.81.156.37.158.779.006 1.15a1.506 1.506 0 0 1-1.385.937h-.008c-.046 0-.092-.001-.137-.006-.014 0-.027-.004-.04-.005l-.105-.015c-.022-.004-.044-.01-.066-.016-.026-.006-.052-.012-.078-.02-.026-.007-.052-.017-.079-.027-.02-.007-.042-.013-.062-.022L34.052 40.3a.941.941 0 1 0-.71 1.745l13.645 5.564a1.493 1.493 0 0 1 .819.81 1.493 1.493 0 0 1-.258 1.575 1.488 1.488 0 0 1-.15.148l-.025.023a1.509 1.509 0 0 1-1.522.23l-1.308-.533Z" fill="#fff" fill-rule="evenodd" data-name="Path 3985"/></svg>