<svg xmlns="http://www.w3.org/2000/svg" xmlns:xlink="http://www.w3.org/1999/xlink" width="487.664" height="387" viewBox="0 0 487.664 387">
  <defs>
    <linearGradient id="linear-gradient" y1="0.5" x2="1" y2="0.5" gradientUnits="objectBoundingBox">
      <stop offset="0.01"/>
      <stop offset="0.08" stop-opacity="0.69"/>
      <stop offset="0.21" stop-opacity="0.322"/>
      <stop offset="1" stop-opacity="0"/>
    </linearGradient>
    <linearGradient id="linear-gradient-2" x1="-37.662" y1="0.386" x2="-12.5" y2="4.164" xlink:href="#linear-gradient"/>
    <linearGradient id="linear-gradient-3" x1="-57.98" y1="-1.84" x2="-36.921" y2="29.035" xlink:href="#linear-gradient"/>
    <linearGradient id="linear-gradient-4" x1="-49.233" y1="1.916" x2="-43.022" y2="1.331" xlink:href="#linear-gradient"/>
    <linearGradient id="linear-gradient-5" x1="-149.835" y1="8.571" x2="-144.936" y2="15.723" xlink:href="#linear-gradient"/>
    <linearGradient id="linear-gradient-6" x1="-125.512" y1="6.403" x2="-121.409" y2="11.917" xlink:href="#linear-gradient"/>
    <linearGradient id="linear-gradient-7" x1="71.668" y1="5.442" x2="72.983" y2="8.793" xlink:href="#linear-gradient"/>
    <linearGradient id="linear-gradient-8" x1="-209.344" y1="84.51" x2="-211.237" y2="85.738" gradientUnits="objectBoundingBox">
      <stop offset="0.01"/>
      <stop offset="0.13" stop-opacity="0.69"/>
      <stop offset="0.25" stop-opacity="0.322"/>
      <stop offset="1" stop-opacity="0"/>
    </linearGradient>
  </defs>
  <g id="Information_flow_Monochromatic" data-name="Information flow_Monochromatic" transform="translate(0.004 0.032)">
    <path id="Path_2485" data-name="Path 2485" d="M97.42,389.64a105.136,105.136,0,0,1-48.392-21.45c-16.51-13-34.482-30.517-33.929-52.259.585-23.042,9.2-45.239,18.525-66.006,12.61-28.047,30.16-57.622,25.512-88.854S60.728,92.464,77.173,66.01c26-41.664,71.5-51.772,117-52.747,30.062-.617,61,1.17,88.4,13.552,28.795,13,52,37.049,81.249,48.2,19.5,7.345,40.819,8.807,59.9,17.062,24.017,10.432,42.542,31.1,54.534,54.372s18.1,49.107,22.75,74.749c7.6,43.354-10.465,97.5-36.5,132.988-17.355,23.595-46.409,50.927-76.276,45.207C236.16,370.53,265.377,416.907,97.42,389.64Z" transform="translate(-15.09 -13.19)" fill="#68e1fd" opacity="0.18"/>
    <path id="Path_2486" data-name="Path 2486" d="M88.5,21.24,190.386,34.792l-71.6,7.6Z" transform="translate(199.129 47.862)" fill="#7370ba"/>
    <path id="Path_2487" data-name="Path 2487" d="M97.82,33.015l5.427,31.979,8.677-26.552L169.416,25.41Z" transform="translate(220.099 57.244)" fill="#68e1fd"/>
    <path id="Path_2488" data-name="Path 2488" d="M97.82,33.015l5.427,31.979,8.677-26.552L169.416,25.41Z" transform="translate(220.099 57.244)" fill="url(#linear-gradient)"/>
    <path id="Path_2489" data-name="Path 2489" d="M123.837,67.724,102.16,38.442,159.652,25.41Z" transform="translate(229.863 57.244)" fill="#7370ba"/>
    <path id="Path_2490" data-name="Path 2490" d="M99.49,55.972,120.322,45.8,108.167,29.42Z" transform="translate(223.856 66.267)" fill="#fff"/>
    <path id="Path_2491" data-name="Path 2491" d="M99.49,55.972,120.322,45.8,108.167,29.42Z" transform="translate(223.856 66.267)" fill="#68e1fd" opacity="0.59"/>
    <path id="Path_2492" data-name="Path 2492" d="M109.942,55.262,109,51a28.082,28.082,0,0,0,3.25-.845l1.495,4.062a30.285,30.285,0,0,1-3.8,1.04Z" transform="translate(196.211 70.064)" fill="#68e1fd"/>
    <path id="Path_2493" data-name="Path 2493" d="M122.354,270.984c-2.372-.78-4.68-1.56-6.922-2.4l1.495-4.062c2.177.812,4.452,1.592,6.76,2.34Zm-20.475-8.092c-2.275-1.1-4.485-2.242-6.5-3.25l2.047-3.932c1.982,1.1,4.095,2.21,6.3,3.25Zm175.5-2.665h-7.312v-4.355l7.182.2Zm14.625-.26-.227-4.322c2.437,0,4.842-.292,7.15-.52l.357,4.322c-2.275.228-4.712.39-7.215.52Zm-36.464-1.007-7.247-.748.488-4.322c2.4.292,4.777.52,7.15.747Zm58.5-1.56-.747-4.257c2.372-.422,4.745-.91,6.987-1.43l.975,4.225a72.2,72.2,0,0,1-7.345,1.592Zm21.352-5.72-1.527-4.03c2.275-.877,4.452-1.787,6.5-2.762l1.885,3.9a65.7,65.7,0,0,1-6.987,3.022Zm-252.228-.585a59.8,59.8,0,0,1-5.525-5.07l3.25-2.99a55.933,55.933,0,0,0,5.135,4.712Zm271.826-10.075-2.665-3.445a38.613,38.613,0,0,0,3.25-2.795l1.853-1.82,3.022,3.087-2.015,1.917a25.785,25.785,0,0,1-3.575,3.185Zm-286-7.41a37.6,37.6,0,0,1-2.6-7.15l4.225-.943a31,31,0,0,0,2.177,6.5Zm80.924-1.04-6.987-2.86,1.755-3.965c2.177.942,4.387,1.885,6.5,2.795ZM370.325,224.8l-3.542-2.5a52.462,52.462,0,0,0,3.607-5.915l3.835,1.982a56.612,56.612,0,0,1-4.062,6.565Zm-240.5-1.235c-2.21-1.073-4.387-2.177-6.5-3.25l1.95-3.607c2.112,1.1,4.257,2.21,6.5,3.25Zm-19.4-10.107c-2.112-1.235-4.225-2.5-6.24-3.8l2.307-3.672c1.982,1.267,4.062,2.535,6.142,3.77Zm-39.974-1.267-4.257-.812a48.165,48.165,0,0,1,2.08-7.28l4.062,1.495a44,44,0,0,0-1.82,6.435Zm308.1-8.06-4.322-.455a30.041,30.041,0,0,0,.2-3.25,28.888,28.888,0,0,0-.195-3.25l4.322-.455a37.251,37.251,0,0,1,.2,3.8q.013,1.724-.13,3.445ZM92.064,201.467c-1.982-1.462-3.965-2.925-5.85-4.42l2.665-3.412c1.852,1.462,3.77,2.892,5.72,4.322ZM78.9,193.115l-3.607-2.4c1.365-1.982,2.86-3.965,4.452-5.947l3.25,2.73C81.6,189.345,80.169,191.263,78.9,193.115Zm-3.77-5.655c-1.82-1.69-3.575-3.445-5.232-5.167l3.25-3.022c1.625,1.69,3.25,3.25,5.07,5.037Zm295.063-3.477a49.734,49.734,0,0,0-3.672-5.85l3.51-2.567a57.1,57.1,0,0,1,4,6.5ZM92.844,177.158l-2.957-3.25c1.755-1.625,3.607-3.25,5.525-4.875l2.762,3.25C96.322,173.973,94.534,175.565,92.844,177.158Zm-32.5-6.24c-1.495-2.015-2.925-4.062-4.192-6.11l3.672-2.307c1.2,1.95,2.567,3.9,4,5.817Zm296.72-3.25c-1.657-1.527-3.477-3.055-5.395-4.55l2.665-3.25c2.015,1.56,3.9,3.25,5.655,4.777Zm-247.516-3.9-2.372-3.575c1.982-1.365,4.062-2.73,6.11-4.062l2.34,3.672C113.676,161.071,111.5,162.4,109.549,163.768Zm230.389-8.807c-1.982-1.235-4.062-2.437-6.175-3.607l2.112-3.8c2.177,1.2,4.322,2.47,6.337,3.7Zm-212.059-2.4-2.047-3.8c2.112-1.17,4.322-2.307,6.5-3.25l1.95,3.9a55.377,55.377,0,0,0-6.4,3.12Zm-78.519-.845c-.91-2.34-1.722-4.745-2.372-7.085l4.192-1.137a63.708,63.708,0,0,0,2.21,6.5Zm271.631-6.792-6.5-2.892,1.69-4c2.242.975,4.517,1.95,6.695,2.957Zm-173.71-1.657-1.69-4c2.21-.942,4.517-1.885,6.76-2.762l1.592,4.03c-2.21.747-4.517,1.69-6.662,2.632Zm153.755-6.5c-2.242-.78-4.517-1.56-6.825-2.307l1.333-4.127c2.34.747,4.68,1.56,6.922,2.34Zm-133.573-1.3-1.365-4.127c2.34-.747,4.68-1.495,7.02-2.177l1.235,4.16C172.175,134.1,169.738,134.811,167.463,135.461ZM280.4,130.294c-2.307-.585-4.68-1.17-6.987-1.69l.975-4.225c2.34.52,4.745,1.1,7.117,1.722ZM44.81,129.676v-7.41l4.322.195v7.02Zm143.42,0-.975-3.965c2.372-.552,4.777-1.072,7.15-1.56l.845,4.257c-2.34.293-4.712.813-7.02,1.332Zm71.109-3.77-2.665-.195-4.355-.52.455-4.322,4.517.552,2.762.422Zm-49.919,0-.585-4.29c2.437-.325,4.875-.585,7.28-.812l.422,4.29c-2.372.2-4.745.617-7.117.78Zm21.417-1.69v-4.322h7.312v4.355c-2.535-.13-4.94-.1-7.312-.065ZM50.952,108.584l-4.225-.942c.52-2.437,1.2-4.842,1.95-7.182l4.127,1.365A64.579,64.579,0,0,0,50.952,108.584Zm7.54-19.5-3.737-2.177a73.671,73.671,0,0,1,4.095-6.24l3.51,2.567a62.755,62.755,0,0,0-3.932,5.817ZM239.384,74.037a64.314,64.314,0,0,1-7.442-.812l.715-4.29a63.245,63.245,0,0,0,6.955.78ZM71.752,72.8l-2.925-3.25c1.82-1.625,3.737-3.25,5.752-4.745l2.6,3.477C75.294,69.747,73.442,71.242,71.752,72.8ZM217.675,69a67.08,67.08,0,0,1-6.727-3.25l2.08-3.8a69.908,69.908,0,0,0,6.3,3.022ZM89.139,60.712l-2.047-3.835c2.145-1.1,4.387-2.21,6.5-3.25l1.755,3.965C93.332,58.632,91.154,59.672,89.139,60.712ZM198.6,57.462a35.492,35.492,0,0,0-5.882-3.25l1.82-3.932a40.884,40.884,0,0,1,6.5,3.8Zm-89.731-4.745-1.267-4.16c2.307-.682,4.712-1.332,7.117-1.95l1.007,4.225C113.416,51.385,111.109,52.035,108.866,52.717Zm70.524-3.022c-2.21-.52-4.55-.975-6.955-1.365l.682-4.257c2.5.39,4.94.877,7.28,1.43Zm-49.464-1.56-.617-4.29c2.4-.325,4.875-.617,7.312-.845l.39,4.322C134.476,47.712,132.1,47.712,129.926,48.135Zm28.5-1.267c-2.34,0-4.745-.2-7.15-.2V42.35c2.47,0,4.94,0,7.345.2Z" transform="translate(51.787 52.492)" fill="#68e1fd"/>
    <path id="Path_2494" data-name="Path 2494" d="M76.64,117.737,73,116.925l1.072-4.225c1.17.325,2.307.617,3.477.877Z" transform="translate(115.213 210.775)" fill="#68e1fd"/>
    <path id="Path_2495" data-name="Path 2495" d="M101.518,65.848a13.389,13.389,0,0,1-1.007,4.257,6.045,6.045,0,0,1-4.452,2.7c-1.788.292-3.607.162-5.395.325s-3.737,1.2-3.542,2.86a3.25,3.25,0,0,0,.617,1.4l2.177,3.672a1.853,1.853,0,0,1,.39,1.267c0,.617-.812.942-1.4,1.2A11.927,11.927,0,0,0,82.83,90.97a18.2,18.2,0,0,0,0,9.75,1.69,1.69,0,0,0,.65,1.137,1.885,1.885,0,0,0,.975.227,7.7,7.7,0,0,1,5.07,3.25,47.683,47.683,0,0,1,3.022,5.525,30.517,30.517,0,0,0,24.83,16.087,5.914,5.914,0,0,0,2.5-.292,4.94,4.94,0,0,0,2.21-2.242c2.242-4.095,1.592-9,1.755-13.487a17.321,17.321,0,0,1,1.235-6.5c.52-1.17,1.007-1.235,1.755-1.917a2.6,2.6,0,0,0,1.17-2.145,18.653,18.653,0,0,0-.813-3.25,8.742,8.742,0,0,1,1.3-5.85A56.485,56.485,0,0,0,131.515,86a19.109,19.109,0,0,0,1.17-5.232,19.11,19.11,0,0,0-2.177-13.357,11.147,11.147,0,0,0-7.9-4.647,21.679,21.679,0,0,1-3.835-.455c-1.917-.617-2.567-2.6-4.582-3.25a9.977,9.977,0,0,0-5.427-.325,9.49,9.49,0,0,0-7.247,7.117Z" transform="translate(135.835 88.825)" fill="#473f47"/>
    <path id="Path_2496" data-name="Path 2496" d="M98.577,132.358a15.145,15.145,0,0,1,3.022,3.607,1.3,1.3,0,0,1,.195.845c0,.455-.617.715-1.1.845a9.327,9.327,0,0,1-10.53-4.582,13,13,0,0,1-2.34-7.345l.552-4.225a7.506,7.506,0,0,1,.455-1.917,6.5,6.5,0,0,1,1.2-1.625,9.3,9.3,0,0,1,2.86-2.177.585.585,0,0,1,.39,0c.26,0,.39.325.455.553a7.28,7.28,0,0,1-.195,3.25,13.26,13.26,0,0,0,2.047,8.84,19.078,19.078,0,0,0,2.99,3.932Z" transform="translate(148.557 217.637)" fill="#f89659"/>
    <path id="Path_2497" data-name="Path 2497" d="M95.081,118.921a2.275,2.275,0,0,0,.39.91,1.723,1.723,0,0,0,.65.52,6.76,6.76,0,0,0,3.51.455,27.538,27.538,0,0,0,4.322-.52,2.4,2.4,0,0,0,2.047-1.1,1.755,1.755,0,0,0-.877-2.015,6.11,6.11,0,0,0-2.275-.65,3.64,3.64,0,0,1-2.112-1.04c-.812-1.007-.455-2.6-1.3-3.575a4.063,4.063,0,0,0-3.672-.618C93.131,112.1,94.528,117.069,95.081,118.921Z" transform="translate(162.941 207.154)" fill="#f89659"/>
    <path id="Path_2498" data-name="Path 2498" d="M134.652,138.017c-.163.682-.292,1.365-.422,2.047-1.462,8.45-3.25,16.867-4.907,25.285a9.522,9.522,0,0,1-2.145,5.037,3.25,3.25,0,0,1-2.73,1.2h-.292c-1.365-.455-2.145-2.372-2.145-4.29l.715-34.449a2.307,2.307,0,0,0,0-1.235,2.665,2.665,0,0,0-1.04-.845c-.975-.52-1.917-1.073-2.86-1.625-2.892-1.657-5.72-3.445-8.482-5.3-3.7-2.5-7.312-5.135-10.79-7.962a14.723,14.723,0,0,1-5.752-6.5,104.362,104.362,0,0,0-3.965-9.75,80.174,80.174,0,0,0-6.11-11.57c-.292-.422-1.4-2.567-2.015-2.665L105.337,88a8.125,8.125,0,0,1,5.72,2.015,79.431,79.431,0,0,1,7.02,9.555c4.907,6.5,9.75,13.227,14.755,19.825a14.365,14.365,0,0,1,3.737,7.995A53.464,53.464,0,0,1,134.652,138.017Z" transform="translate(134.81 149.352)" fill="#473f47"/>
    <path id="Path_2499" data-name="Path 2499" d="M111.889,189.758a5.526,5.526,0,0,1-1.137,1.17,10.043,10.043,0,0,1-2.21,1.463h-.228a3.705,3.705,0,0,1-2.827,0c-2.372-1.007-1.657-6.825-1.787-9.1-.227-3.575-.422-7.117-.65-10.692-.39-6.955-.812-13.91-1.2-20.9-.195-3.25-.422-6.5-.585-9.75l-1.2-2.112-.552-.943-.65-1.137-.682-1.267c-.39-.65-.78-1.365-1.2-2.112-.682-1.267-1.332-2.6-2.015-3.9a24.172,24.172,0,0,0-1.43-2.535,6.108,6.108,0,0,0-.585-.78,40,40,0,0,0-4.192-3.932,27.982,27.982,0,0,1-8.515-15.795,26,26,0,0,1-.325-5,26.649,26.649,0,0,1,1.235-7.67,29.253,29.253,0,0,1,2.34-5.1,13.65,13.65,0,0,1,2.925-3.835,7.377,7.377,0,0,1,1.885-1.267c4.485-2.047,9.035,3.055,12.155,5.752s8.515,6.5,10.2,10.562,4.875,38.187,4.875,38.187c0,8.385,0,16.77-.487,25.122-.2,4.972-.422,9.945-.91,14.885a27.4,27.4,0,0,1-2.242,10.692Z" transform="translate(130.729 146.392)" fill="#473f47"/>
    <path id="Path_2500" data-name="Path 2500" d="M108.541,191.186h-.227a3.705,3.705,0,0,1-2.827,0c-2.372-1.007-1.657-6.825-1.787-9.1-.227-3.575-.422-7.117-.65-10.692-.39-6.955-.812-13.91-1.2-20.9-.195-3.25-.422-6.5-.585-9.75l-1.2-2.112-.552-.943-.65-1.137-.682-1.267c-.39-.65-.78-1.365-1.2-2.112l-2.307-4.127-1.722-3.25a40.014,40.014,0,0,0-4.192-3.932,27.982,27.982,0,0,1-8.515-15.632,26,26,0,0,1-.325-5,26.649,26.649,0,0,1,1.235-7.67,29.253,29.253,0,0,1,2.34-5.1,13.65,13.65,0,0,1,2.925-3.835,4.127,4.127,0,0,1,.682.813c2.47,3.542,2.34,8.19,2.6,12.512a46.54,46.54,0,0,0,3.25,15.73h0l.877,1.788h0a8.229,8.229,0,0,0,.39.747,136.3,136.3,0,0,1,9,16.77c5.1,13,3.25,27.235,3.9,41.014a103.113,103.113,0,0,0,1.235,11.375,17.842,17.842,0,0,1,.2,5.817Z" transform="translate(130.729 147.597)" fill="url(#linear-gradient-2)"/>
    <path id="Path_2501" data-name="Path 2501" d="M213.006,123.93h-3.965a12.676,12.676,0,0,1-3.965-.975c-1.2-.552-2.21-1.4-3.445-1.917-2.535-1.1-5.3-1.625-7.767-2.892-3.737-1.885-7.345-4.03-10.92-6.142l-8.645-5.135a96.561,96.561,0,0,1-8.482-5.46l-1.592-1.235c-.78-.65-1.755-1.365-2.73-1.072a3.25,3.25,0,0,0-1.04.78,11.245,11.245,0,0,0-2.08,5.265,19.5,19.5,0,0,1-1.917,4.745c-1.592,2.925-3.087,5.915-4.81,8.742a24.018,24.018,0,0,1-5.2,7.377,7.67,7.67,0,0,1-4.68.813,54.338,54.338,0,0,0-10.367-.39,34.483,34.483,0,0,1-4.81.78,11.9,11.9,0,0,1-6.922-2.4c-1.755-1.365-.975-3.25-.26-5.037,2.73-7.117,5.427-11.277,2.242-18.59.617,1.43-12.61,6.5-14.267,6.5-6.922,0-11.05-5.07-16.25-9a75.989,75.989,0,0,0-9.75-6.077,18.654,18.654,0,0,0-3.25-1.495c-1.072-.357-2.47-.325-3.25-1.072a4.973,4.973,0,0,1-.845-1.007A10.009,10.009,0,0,1,73,86.88a5.037,5.037,0,0,0-1.332-2.372,4.42,4.42,0,0,0-3.25-.488,8.255,8.255,0,0,1-1.787,0,.78.78,0,0,1-.585-.292.617.617,0,0,1,0-.748,2.178,2.178,0,0,1,.747-.325l4.452-.942c-1.267-1.1-3.25-.812-4.81-1.332a1.2,1.2,0,0,1-.552-.325.747.747,0,0,1,.39-.975,2.015,2.015,0,0,1,1.17,0l4.81.553c-1.43-1.755-4.485-1.235-5.947-2.957a4.1,4.1,0,0,1,3.9-.357,16.737,16.737,0,0,1,5.362,1.722,13.878,13.878,0,0,1,2.795,2.145A101.5,101.5,0,0,0,88.7,89.935a34.416,34.416,0,0,0,8.255,3.932c1.267.455,2.6.747,3.867,1.17s2.86,1.2,4.257,1.787a3.608,3.608,0,0,0,1.69.422,3.932,3.932,0,0,0,1.332-.52,29.412,29.412,0,0,0,7.67-6.792c2.307-2.73,5-5.135,7.442-7.735a10.14,10.14,0,0,1,3.445-2.632c2.47-.845,5.1.39,7.735.488a7.833,7.833,0,0,0,5.947-2.307c1.527-1.787,1.462-4.452,3.25-6.24a7.443,7.443,0,0,1,3.607-1.885,29.516,29.516,0,0,0,4.322-1.788c1.1-.52,2.5-1.007,3.477-.26a1.072,1.072,0,0,1,.487.91,1.56,1.56,0,0,1-.292.878,42.769,42.769,0,0,0-1.852,4.16,8.255,8.255,0,0,0-.78,4.615c.455,2.243,3.25,3.51,5.135,4.322,2.73,1.17,5.752,1.365,8.482,2.47a22.425,22.425,0,0,1,7.182,5.265c3.25,3.25,5.947,6.5,8.9,9.75,1.495,1.625,3.022,3.25,4.68,4.777a48.978,48.978,0,0,0,6.955,4.095,62.659,62.659,0,0,0,8.417,4.647,32.045,32.045,0,0,0,6.5,2.112,28.288,28.288,0,0,0,2.763.65,3.979,3.979,0,0,0,2.307-.812,5.752,5.752,0,0,1,4.03-.487,19.759,19.759,0,0,1,8.027,3.835c.682.455,1.43,1.138,1.3,1.95a.52.52,0,0,1,0,.325c-.26.228-.65,0-.942-.227a5.1,5.1,0,0,0-3.477-.942c.91.715,1.885,1.592,1.788,2.73a.358.358,0,0,1,0,.26.325.325,0,0,1-.292,0c-1.007,0-1.755-.943-2.7-1.4a5.948,5.948,0,0,0-2.925-.52c-.455,0-1.917,0-1.917.585a.52.52,0,0,0,0,.292,5.169,5.169,0,0,0,.943.942,1.138,1.138,0,0,1,.422,1.17c-.228.455-.845.52-1.365.487C215.411,124.352,214.241,124.06,213.006,123.93Z" transform="translate(99.063 108.385)" fill="#f89659"/>
    <path id="Path_2502" data-name="Path 2502" d="M139.684,103.383a2.99,2.99,0,0,1-1.17.422,5.915,5.915,0,0,1-3.607-1.56,82.347,82.347,0,0,0-10.335-4.29c-3.737-1.885-7.345-4.03-10.92-6.142l-8.58-5.037a96.561,96.561,0,0,1-8.482-5.46c.747.552,3.835-4.127,4.355-4.55,3.022-2.47,1.95,2.827,1.885,4.615a2.955,2.955,0,0,0,0,1.072,2.437,2.437,0,0,0,1.073,1.073q8.19,5.362,16.867,9.945c2.925,1.527,5.947,2.925,8.9,4.42,2.437,1.235,5.07,1.95,7.6,2.957,1.072.422,2.275,1.072,2.307,2.21a1.105,1.105,0,0,1,.1.325Z" transform="translate(168.289 128.476)" fill="#d57439"/>
    <path id="Path_2503" data-name="Path 2503" d="M89.849,70.485a5.59,5.59,0,0,1-.78,3.25c-.845,1.137,4.81,2.632,6.5,1.007a59.469,59.469,0,0,0,4.875-6.272Z" transform="translate(151.176 111.26)" fill="#d57439"/>
    <path id="Path_2504" data-name="Path 2504" d="M98.593,87.294a9.75,9.75,0,0,1-5.687.423,6.5,6.5,0,0,1-4.322-3.542,9.392,9.392,0,0,1-.488-3.7,29.412,29.412,0,0,1,5.98-16.8,6.727,6.727,0,0,1,2.08-1.982,5.135,5.135,0,0,1,3.607-.325,11.05,11.05,0,0,1,5.85,3.835,29.9,29.9,0,0,1,3.7,6.012c.715,1.333,2.047,3.445,1.43,5a18.687,18.687,0,0,1-3.25,3.9,21.222,21.222,0,0,1-8.9,7.182Z" transform="translate(149.127 94.841)" fill="#f89659"/>
    <path id="Path_2505" data-name="Path 2505" d="M116.614,119.257a7.832,7.832,0,0,1-7.247,3.64c-5.622.455-11.277-1.007-16.867,0a48.052,48.052,0,0,1-5.135.943h-.487a6.11,6.11,0,0,1-5.1-1.983c-1.755-2.307-.65-5.622.488-8.32,2.112-4.842,6.077-10.4,3.8-15.795h0c-.292-.585-.682-1.1-.942-1.69a8.159,8.159,0,0,1-.552-1.982l-.845-4.16c-.585-2.762-1.137-5.525-1.722-8.32a3.705,3.705,0,0,1,0-1.69,3.64,3.64,0,0,1,1.462-1.755l5.882-4.68a10.043,10.043,0,0,1,4.03-2.307,16.932,16.932,0,0,1,4.777.26,25.026,25.026,0,0,0,6.175-1.007h.748a1.073,1.073,0,0,1,.325.747,6.5,6.5,0,0,0,1.235,2.5A14.527,14.527,0,0,0,108,75.122l.618.585,3.542,3.25a9.944,9.944,0,0,0,2.567,1.95c3.25,1.462,5.557-2.437,5.395-5.33a13.293,13.293,0,0,0-1.43-4.647c1.495.585,2.99,1.235,4.485,1.917A32.01,32.01,0,0,0,127.4,74.96c2.275.617,4.452,0,6.5,1.43a40.882,40.882,0,0,1,7.41,6.175l-1.495,3.445c-1.982,4.16-4.29,8.645-8.515,10.465-1.1.455-2.242.747-3.25,1.267-1.82.91-2.015,2.34-2.827,3.965-1.4,2.827-2.795,5.655-4.062,8.515A62.431,62.431,0,0,1,116.614,119.257Z" transform="translate(132.893 115.625)" fill="#fff"/>
    <path id="Path_2506" data-name="Path 2506" d="M96.816,78.127a2.7,2.7,0,0,1,.975-.748,1.853,1.853,0,0,1,.943,0c4.095.325,8.19.78,12.252,1.332-5.037-4.485-13-4.29-18.395-8.092-.747,1.4,0,3.022.39,4.55a12.741,12.741,0,0,1,0,4.16,3.965,3.965,0,0,0,3.835-1.2Z" transform="translate(158.573 116.098)" fill="url(#linear-gradient-3)"/>
    <path id="Path_2507" data-name="Path 2507" d="M74.98,79.551a4.062,4.062,0,0,1-2.7-.227,9.327,9.327,0,0,1-1.04-2.145,5.038,5.038,0,0,0-1.332-2.372,4.452,4.452,0,0,0-3.25-.488,4,4,0,0,1,2.047-.618,2.4,2.4,0,0,0,1.95-1.1.868.868,0,0,1,.325-.812,1.924,1.924,0,0,1,1.3-.228,13.714,13.714,0,0,1,2.665.942A5.038,5.038,0,0,1,76.6,73.506a2.145,2.145,0,0,1,.845,1.462,2.876,2.876,0,0,1-1.007-.488,5.784,5.784,0,0,0-1.17-.455,7.475,7.475,0,0,0-2.535-.227h-.292c-.032,0,0,.292.195.39,1.2.942,2.73,1.4,3.9,2.4a1.007,1.007,0,0,1,.422.488,1.105,1.105,0,0,1,0,.845A2.567,2.567,0,0,1,74.98,79.551Z" transform="translate(100.948 118.151)" fill="#d57439"/>
    <path id="Path_2508" data-name="Path 2508" d="M108.015,113.4a3.9,3.9,0,0,0-3.25-.26,14.494,14.494,0,0,0-1.4,1.072,5.915,5.915,0,0,1-4.355,0A26.223,26.223,0,0,0,94.3,113.21s0,3.25.585,3.542a8.286,8.286,0,0,0,2.372.455,38.156,38.156,0,0,0,9.75,0c.91-.195,3.965-.682,4.387-1.69S108.86,113.7,108.015,113.4Z" transform="translate(163.137 211.24)" fill="#68e1fd"/>
    <path id="Path_2509" data-name="Path 2509" d="M104.538,129.18a4.322,4.322,0,0,1,1.073,2.34,1.3,1.3,0,0,1-.26.845,1.5,1.5,0,0,1-.748.292,17.517,17.517,0,0,1-6.5.2,9.392,9.392,0,0,1-5.525-2.99c-.943-1.137-1.56-2.5-2.437-3.672s-1.69-1.917-2.372-2.99,0-2.99.52-4.16c.585,0,.39,1.137.65,1.657a15.7,15.7,0,0,0,3.7,5.037,7.41,7.41,0,0,0,5.33,2.535,2.308,2.308,0,0,0,1.885-.975c.325-.52,0-1.722.552-1.917S104.018,128.66,104.538,129.18Z" transform="translate(147.796 225.04)" fill="#68e1fd"/>
    <path id="Path_2510" data-name="Path 2510" d="M105.925,154.489h-.292c-1.365-.455-2.145-2.372-2.145-4.29l.585-34.449a2.307,2.307,0,0,0,0-1.235,2.665,2.665,0,0,0-1.04-.845c-.975-.52-1.917-1.073-2.86-1.625-2.892-1.657-5.72-3.445-8.482-5.3L90,93s17.127,11.342,18.915,16.672S105.925,154.489,105.925,154.489Z" transform="translate(153.462 166.451)" fill="url(#linear-gradient-4)"/>
    <path id="Path_2511" data-name="Path 2511" d="M94.646,74.561A27.655,27.655,0,0,0,98.61,75.7c1.333.455,2.665,1.462,2.7,2.827,1.137,0,1.755-1.3,2.08-2.372a23.435,23.435,0,0,0,1.3-5.557,8.58,8.58,0,0,0-1.3-5.427c-1.853-2.632-8.71-7.572-10.887-2.957C90.843,65.786,90.648,72.481,94.646,74.561Z" transform="translate(156.584 92.917)" fill="#473f47"/>
    <path id="Path_2512" data-name="Path 2512" d="M107.995,112c-2.4-.39-4.81-.78-7.215-1.235l.78-4.257c2.372.422,4.745.845,7.117,1.2Z" transform="translate(177.717 196.848)" fill="#68e1fd"/>
    <path id="Path_2513" data-name="Path 2513" d="M101.255,110.99c-2.372-.52-4.712-1.073-7.085-1.658l1.007-4.192,7.02,1.625Z" transform="translate(162.844 193.766)" fill="#68e1fd"/>
    <path id="Path_2514" data-name="Path 2514" d="M94.68,109.6l-7.02-2.047,1.267-4.16c2.307.715,4.615,1.365,6.922,2.015Z" transform="translate(148.197 189.828)" fill="#68e1fd"/>
    <path id="Path_2515" data-name="Path 2515" d="M88.137,107.79c-2.275-.78-4.582-1.592-6.857-2.437l1.495-4.062,6.792,2.4Z" transform="translate(133.843 185.104)" fill="#68e1fd"/>
    <path id="Path_2516" data-name="Path 2516" d="M101.06,121.274,134.5,50.49l59.734,14.235-34.027,71.564Z" transform="translate(227.388 113.673)" fill="#7370ba"/>
    <path id="Path_2517" data-name="Path 2517" d="M24.07,48.112l102.7-32.792,25.675,106.143-85.961,44Z" transform="translate(54.165 34.542)" fill="#fff"/>
    <path id="Path_2518" data-name="Path 2518" d="M22.24,132.062l48.847,30.582L87.5,108.207,33.615,71.45Z" transform="translate(50.047 160.832)" fill="#7370ba"/>
    <path id="Path_2519" data-name="Path 2519" d="M101.31,153.369,110.6,92.5l70.654-4.647-15.177,58.889Z" transform="translate(227.951 197.731)" fill="#fff"/>
    <path id="Path_2520" data-name="Path 2520" d="M112.7,76.755l-6.175-1.4,4.842-9.587,6.207,1.4Z" transform="translate(239.696 148.052)" fill="#fff"/>
    <path id="Path_2521" data-name="Path 2521" d="M115.077,84.137l-6.207-1.365,9.912-19.532L124.99,64.6Z" transform="translate(244.96 142.36)" fill="#68e1fd"/>
    <path id="Path_2522" data-name="Path 2522" d="M117.427,79.4,111.22,78l6.045-11.895,6.175,1.4Z" transform="translate(250.248 148.817)" fill="#fff"/>
    <path id="Path_2523" data-name="Path 2523" d="M119.745,89.495l-6.175-1.4L126.635,62.39l6.175,1.4Z" transform="translate(255.535 140.447)" fill="#68e1fd"/>
    <path id="Path_2524" data-name="Path 2524" d="M115.077,84.137l-6.207-1.365,9.912-19.532L124.99,64.6Z" transform="translate(244.96 142.36)" fill="url(#linear-gradient-5)"/>
    <path id="Path_2525" data-name="Path 2525" d="M119.745,89.495l-6.175-1.4L126.635,62.39l6.175,1.4Z" transform="translate(255.535 140.447)" fill="url(#linear-gradient-6)"/>
    <path id="Path_2526" data-name="Path 2526" d="M122.095,95l-6.175-1.4,16.7-32.889,6.175,1.4Z" transform="translate(260.823 136.667)" fill="#fff"/>
    <path id="Path_2527" data-name="Path 2527" d="M64.71,59.552a19.207,19.207,0,0,1,1.787-8.19L54.408,44.7A33.084,33.084,0,0,0,50.93,59.552a33.637,33.637,0,0,0,25.382,32.5L78.782,78.3A19.727,19.727,0,0,1,64.71,59.552Z" transform="translate(65.557 57.779)" fill="#473f47"/>
    <path id="Path_2528" data-name="Path 2528" d="M95.837,59.292a33.669,33.669,0,0,1-28.892,16.25A33.214,33.214,0,0,1,58.69,74.5l2.47-13.747a20.084,20.084,0,0,0,5.785.845,19.7,19.7,0,0,0,16.64-9.1Z" transform="translate(83.016 75.329)" fill="#68e1fd" opacity="0.18"/>
    <path id="Path_2529" data-name="Path 2529" d="M115.666,72.576a33.507,33.507,0,0,1-4.777,17.29L98.637,83.2A19.727,19.727,0,1,0,64.09,64.386L52,57.723a33.637,33.637,0,0,1,63.829,14.852Z" transform="translate(67.964 44.756)" fill="#7370ba"/>
    <g id="G8KHDO" transform="translate(348.391 298.998)">
      <path id="Path_2530" data-name="Path 2530" d="M124.605,130.535a1.333,1.333,0,0,1,.39-1.007,5.038,5.038,0,0,0,1.267-2.21,2.6,2.6,0,0,0-1.073-2.828,5.491,5.491,0,0,0-1.852-.91,1.43,1.43,0,0,1-1.04-1.56c0-.422,0-.877,0-1.3a1.495,1.495,0,0,1,1.592-1.4,4.55,4.55,0,0,0,1.852-.422,2.665,2.665,0,0,0,1.592-3.25,10.173,10.173,0,0,0-.618-1.658,1.462,1.462,0,0,1,.455-1.82,11.373,11.373,0,0,0,.975-.78,1.657,1.657,0,0,1,2.015,0,5.363,5.363,0,0,0,1.658,1.137,2.7,2.7,0,0,0,3.25-.91,6.045,6.045,0,0,0,.943-1.95,1.43,1.43,0,0,1,1.625-.943h1.3a1.4,1.4,0,0,1,1.267,1.4,5.655,5.655,0,0,0,.65,2.4,2.762,2.762,0,0,0,2.86,1.3,7.15,7.15,0,0,0,1.82-.65,1.5,1.5,0,0,1,2.015.488c.228.39.585.715.845,1.1a1.462,1.462,0,0,1-.163,1.787,5.264,5.264,0,0,0-1.138,1.755,2.665,2.665,0,0,0,1.3,3.51,7.8,7.8,0,0,0,1.495.682,1.43,1.43,0,0,1,1.04,1.43,4.557,4.557,0,0,1-.195,1.592,1.4,1.4,0,0,1-1.43,1.2,5.687,5.687,0,0,0-2.21.552,2.632,2.632,0,0,0-1.462,2.86,6.5,6.5,0,0,0,.617,1.917,1.43,1.43,0,0,1-.455,2.015l-.91.682a1.43,1.43,0,0,1-2.015,0,5.2,5.2,0,0,0-1.853-1.137,2.7,2.7,0,0,0-3.25,1.04,5.719,5.719,0,0,0-.877,1.852,1.4,1.4,0,0,1-1.527.975l-1.527-.195a1.43,1.43,0,0,1-1.17-1.3,5.558,5.558,0,0,0-.52-2.275,2.665,2.665,0,0,0-3.25-1.462,11.76,11.76,0,0,0-1.788.65,1.5,1.5,0,0,1-1.788-.325c-.325-.423-.65-.812-.942-1.267a3.022,3.022,0,0,1-.325-.812Zm12.155-12.187a4.789,4.789,0,1,1-.1,0Z" transform="translate(-122.286 -97.218)" fill="#7370ba"/>
      <path id="Path_2531" data-name="Path 2531" d="M144.264,124.706a3.249,3.249,0,0,1,0,.552,1.007,1.007,0,0,1-.812.942l-.975.26a1.1,1.1,0,0,1-1.3-.618c-.228-.39-.455-.78-.715-1.137a2.08,2.08,0,0,0-3.022-.325,7.088,7.088,0,0,0-.91.813,1.1,1.1,0,0,1-1.4.228l-.78-.455a1.17,1.17,0,0,1-.552-1.527,5.363,5.363,0,0,0,.292-1.4A2.015,2.015,0,0,0,132.3,119.9a12.062,12.062,0,0,0-1.528,0,1.04,1.04,0,0,1-1.007-.942,5.952,5.952,0,0,0-.2-.812,1.137,1.137,0,0,1,.617-1.365,5.362,5.362,0,0,0,1.332-.91,1.95,1.95,0,0,0,.292-2.567,12.613,12.613,0,0,0-.845-1.008,1.137,1.137,0,0,1-.26-1.69l.39-.715a1.138,1.138,0,0,1,1.43-.455,3.575,3.575,0,0,0,1.755.26,1.853,1.853,0,0,0,1.755-1.43,6.728,6.728,0,0,0,.163-1.625,1.137,1.137,0,0,1,.747-1.17l1.138-.26a1.04,1.04,0,0,1,1.267.682,3.9,3.9,0,0,0,1.138,1.495,2.015,2.015,0,0,0,2.6,0,5.981,5.981,0,0,0,.813-.748,1.17,1.17,0,0,1,1.43-.292l.942.552a1.072,1.072,0,0,1,.423,1.332,4.258,4.258,0,0,0-.293,1.657,2.047,2.047,0,0,0,1.755,2.015h1.365a1.072,1.072,0,0,1,1.17.91,5.29,5.29,0,0,0,.228.975.975.975,0,0,1-.617,1.2,4.16,4.16,0,0,0-1.4.975,1.918,1.918,0,0,0-.325,2.34,6.208,6.208,0,0,0,1.007,1.235,1.17,1.17,0,0,1,.26,1.56l-.455.747a1.073,1.073,0,0,1-1.462.487,3.478,3.478,0,0,0-2.145,0,2.015,2.015,0,0,0-1.4,1.56,6.048,6.048,0,0,0,0,1.105Zm-4.03-12.48a3.575,3.575,0,1,0,3.306,2.214A3.542,3.542,0,0,0,140.234,112.226Z" transform="translate(-106 -105.168)" fill="#7370ba"/>
    </g>
    <circle id="Ellipse_35" data-name="Ellipse 35" cx="15.372" cy="15.372" r="15.372" transform="translate(85.027 262.279)" fill="#473f47"/>
    <path id="Path_2532" data-name="Path 2532" d="M46,93.119V111.9L62.542,99.977S54.9,91.657,46,93.119Z" transform="translate(54.464 166.332)" fill="#fff"/>
    <path id="Path_2533" data-name="Path 2533" d="M78,101.49,57.62,107.21l7.052,13.617,14.462-4.062Z" transform="translate(129.651 228.42)" fill="#68e1fd"/>
    <path id="Path_2534" data-name="Path 2534" d="M78,101.49,57.62,107.21l7.052,13.617,14.462-4.062Z" transform="translate(129.651 228.42)" fill="url(#linear-gradient-7)"/>
    <path id="Path_2535" data-name="Path 2535" d="M68.859,105.92a7.085,7.085,0,0,0,.325,3.477,46.052,46.052,0,0,0,6.11,14.755c4.517,6.5,11.57,10.562,18.395,14.495-.585-.487-.487-4.095-.585-4.907l-.487-4.81a16.932,16.932,0,0,0-2.892-7.052,36.172,36.172,0,0,0-11.96-12.025A34.514,34.514,0,0,0,68.859,105.92Z" transform="translate(105.704 195.521)" fill="#68e1fd"/>
    <path id="Path_2536" data-name="Path 2536" d="M68.859,105.92a7.085,7.085,0,0,0,.325,3.477,46.052,46.052,0,0,0,6.11,14.755c4.517,6.5,11.57,10.562,18.395,14.495-.585-.487-.487-4.095-.585-4.907l-.487-4.81a16.932,16.932,0,0,0-2.892-7.052,36.172,36.172,0,0,0-11.96-12.025A34.514,34.514,0,0,0,68.859,105.92Z" transform="translate(105.704 195.521)" fill="url(#linear-gradient-8)"/>
    <path id="Path_2537" data-name="Path 2537" d="M86.327,125.74a49.171,49.171,0,0,0,.358-13,16.737,16.737,0,0,0-6.24-11.18l-5.1,17.94a34.547,34.547,0,0,0-1.852,10.562,25.48,25.48,0,0,0,9.75,18.167c1.625-2.568,1.267-7.182,1.625-10.2Z" transform="translate(116.316 185.711)" fill="#68e1fd"/>
    <path id="Path_2538" data-name="Path 2538" d="M86.327,125.74a49.171,49.171,0,0,0,.358-13,16.737,16.737,0,0,0-6.24-11.18l-5.1,17.94a34.547,34.547,0,0,0-1.852,10.562,25.48,25.48,0,0,0,9.75,18.167c1.625-2.568,1.267-7.182,1.625-10.2Z" transform="translate(116.316 185.711)" fill="#7370ba"/>
    <rect id="Rectangle_175" data-name="Rectangle 175" width="29.607" height="6.857" rx="1.06" transform="translate(181.837 331.803) rotate(-15.73)" fill="#7370ba"/>
  </g>
</svg>
