<svg id="Layer_2" data-name="Layer 2" xmlns="http://www.w3.org/2000/svg" width="401.26" height="447.477" viewBox="0 0 401.26 447.477">
  <g id="vector">
    <path id="Path_2539" data-name="Path 2539" d="M391.823,110.931c23.936,28.894,21.218,80.573,11.423,122.032-9.9,41.563-26.987,73.031-50.923,110.6s-54.7,81.332-95.423,91.448-91.186-13.525-135.577-51.095S38.513,294.64,28.289,232.629C18.072,170.5,35.9,97.928,80.3,69.034s115.442-14.117,176.27-3.667C317.284,75.922,367.88,82.037,391.823,110.931Z" transform="translate(-9.14 -18.706)" fill="#f1f1f1"/>
    <path id="Path_2540" data-name="Path 2540" d="M275.332,201.69c-.872,4.265.077,34.8-1.187,39.621S258.86,305,258.86,305l22.3-6.164s7.819-17.184,10.654-32.655C294.312,252.562,293.952,201.927,275.332,201.69Z" transform="translate(-82.008 -59.936)" fill="#d18c65"/>
    <path id="Path_2541" data-name="Path 2541" d="M238.068,205.14H223.6l-8.287-31.43h14.477Z" transform="translate(-68.496 -53.608)"/>
    <rect id="Rectangle_176" data-name="Rectangle 176" width="157.22" height="157.22" transform="translate(213.493 260.315)" fill="#e0e0e0"/>
    <circle id="Ellipse_36" data-name="Ellipse 36" cx="15.843" cy="15.843" r="15.843" transform="translate(217.528 264.935)" fill="#a4a4a4"/>
    <line id="Line_5" data-name="Line 5" x2="80.326" transform="translate(271.767 273.183)" fill="none" stroke="#fff" stroke-linecap="round" stroke-linejoin="round" stroke-width="2.04"/>
    <line id="Line_6" data-name="Line 6" x2="35.612" transform="translate(265.626 287.74)" fill="none" stroke="#fff" stroke-linecap="round" stroke-linejoin="round" stroke-width="2.04"/>
    <line id="Line_7" data-name="Line 7" x2="80.326" transform="translate(271.767 323.827)" fill="none" stroke="#fff" stroke-linecap="round" stroke-linejoin="round" stroke-width="2.04"/>
    <line id="Line_8" data-name="Line 8" x2="35.612" transform="translate(265.626 338.384)" fill="none" stroke="#fff" stroke-linecap="round" stroke-linejoin="round" stroke-width="2.04"/>
    <line id="Line_9" data-name="Line 9" x2="80.326" transform="translate(271.767 379.37)" fill="none" stroke="#fff" stroke-linecap="round" stroke-linejoin="round" stroke-width="2.04"/>
    <line id="Line_10" data-name="Line 10" x2="35.612" transform="translate(265.626 392.949)" fill="none" stroke="#fff" stroke-linecap="round" stroke-linejoin="round" stroke-width="2.04"/>
    <circle id="Ellipse_37" data-name="Ellipse 37" cx="15.843" cy="15.843" r="15.843" transform="translate(217.528 315.851)" fill="#fff"/>
    <circle id="Ellipse_38" data-name="Ellipse 38" cx="15.843" cy="15.843" r="15.843" transform="translate(217.528 370.32)" fill="#fff"/>
    <path id="Path_2542" data-name="Path 2542" d="M63.83,584.8l14.785-8.512,9.352,17.126-17.222,8.505Z" transform="translate(-22.888 -176.574)" fill="#e49d75"/>
    <path id="Path_2543" data-name="Path 2543" d="M232.94,572.962l3.3,18.929,19.993-3.4-6.594-21.481Z" transform="translate(-74.091 -173.246)" fill="#e49d75"/>
    <path id="Path_2544" data-name="Path 2544" d="M251.4,341.25c-5.888.321-102.507,21.3-103.764,26.222C137.285,407.83,196.38,492.55,200.723,495.116c4.682-1.129,20.66-6.7,20.66-6.7l-3.669-56.491Z" transform="translate(-44.802 -92.295)" fill="#5fc5d1"/>
    <path id="Path_2545" data-name="Path 2545" d="M52.212,589.42l-11.8-24.669L8.294,534.02,0,538.587l31.8,60.936Z" transform="translate(0 -161.417)"/>
    <path id="Path_2546" data-name="Path 2546" d="M235.208,593.43l-26.927,4.8L170.09,620.979l2.2,9.217L239.5,615.8Z" transform="translate(-53.073 -182.72)"/>
    <path id="Path_2547" data-name="Path 2547" d="M302.933,302.23c3.759,3.008,7.7,16.568,8.153,21.167,4.92,53.354-82.9,84.771-95.06,90.044-11.546,9.653-112.25,83.892-118.388,85.65s-16.177-21.809-15.3-24.958S230.817,322.608,230.817,322.608Z" transform="translate(-29.505 -78.304)" fill="#6bd5e1"/>
    <path id="Path_2548" data-name="Path 2548" d="M303.4,152.083c-12.424-6.138-23.912,27.53-22.809,31.385s12.508,4.958,15.394,4.958S303.4,152.083,303.4,152.083Z" transform="translate(-89.236 -46.591)" fill="#ffc78e"/>
    <path id="Path_2549" data-name="Path 2549" d="M330.13,122.39c45.349,0,49.627,108.113,49.114,115.489-4.58,15.035-59.512,33.1-76.42,23.213C275.993,198.181,288.353,122.39,330.13,122.39Z" transform="translate(-89.07 -35.33)" fill="#ffd98e"/>
    <path id="Path_2550" data-name="Path 2550" d="M350.64,205.49c2.534,4.323,7.986,32.495,7.441,36.17s-8.98,12.95-11.982,13.156c-42.681,2.9-88.972-14.156-97.625-18.948-18.1-1.443-28.813-7.979-28.813-17.537,0-5.645,3.13-9.711,4.856-9.711,3.271,0,9.083,5.638,9.788,7.287-1.411-2.9-5.837-8.223-2.194-8.223,1.013,0,9.237,11.494,13.7,14.285s68.9,5.131,81.814,9.827c-1.648-3.284-6.267-15.189-6.344-16.908S350.64,205.49,350.64,205.49Z" transform="translate(-65.603 -62.906)" fill="#e49d75"/>
    <rect id="Rectangle_177" data-name="Rectangle 177" width="34.458" height="34.458" rx="7.68" transform="translate(124.826 65.98) rotate(-11.24)" fill="#6bd5e1"/>
    <path id="Path_2551" data-name="Path 2551" d="M210.237,114.662l-.77-3.849A2.938,2.938,0,0,0,206,108.5l-2.136,9.448,2.11,10.6,10.9-2.162a1.963,1.963,0,0,0,1.6-2.02l-.391-8.98a1.969,1.969,0,0,0-2.059-1.873,2.631,2.631,0,0,0-.314.038Zm-4.259,13.874-2.893.577a1.963,1.963,0,0,1-2.309-1.546l-1.347-6.748a1.969,1.969,0,0,1,1.546-2.316l2.893-.571" transform="translate(-63.514 -33.611)" fill="none" stroke="#fff" stroke-linecap="round" stroke-linejoin="round" stroke-width="2.04"/>
    <path id="Path_2552" data-name="Path 2552" d="M218.338,157.719l3-8.839-9.16,1.822Z" transform="translate(-67.816 -46.356)" fill="#6bd5e1"/>
    <path id="Path_2553" data-name="Path 2553" d="M368.164,135.389c19.634-7.2,35.157,38.165,34.522,43.912s-32.071,15.811-35.612,13.733S348.7,142.521,368.164,135.389Z" transform="translate(-113.059 -41.032)" fill="#ffe4ad"/>
    <path id="Path_2554" data-name="Path 2554" d="M344.684,91.72c-.212,2.726,1.45,17.96,4.047,22.931-1.148,2.258-12.95,8.82-18.6,7.415-.77-4.221-2.816-15.555-4.49-19.005C328.661,101.483,344.684,91.72,344.684,91.72Z" transform="translate(-103.583 -32.888)" fill="#d18c65"/>
    <ellipse id="Ellipse_39" data-name="Ellipse 39" cx="25.747" cy="32.27" rx="25.747" ry="32.27" transform="translate(184.335 16.277) rotate(-14.86)" fill="#e49d75"/>
    <path id="Path_2555" data-name="Path 2555" d="M307.6,40.442c-1.424.077-6.857-2.694-8.063-11.007-3.919-.641-21.2,1.2-30.256,8.339a26.946,26.946,0,0,1-11.148,2.354,4.855,4.855,0,0,1-4.445-4.24c0-4.753,2.04-9.358,8-9.666-5.016-.109-9.666-3.207-9.666-5.491,0-3.034,6.9-12.341,18.922-8.262-2.822-2.04-6.01-4.028-6.01-5.959,0-3.3,4.753-6.51,13.066-6.51,12.861,0,26.876,5.33,29.9,9.147a12.228,12.228,0,0,1,6.645-2.091c8.569,0,11.443,27.761,7.736,37.068a8.14,8.14,0,0,1-3.021,1.174" transform="translate(-78.545)" fill="#fd8369"/>
    <path id="Path_2556" data-name="Path 2556" d="M338.27,61.634a6.331,6.331,0,1,1,3.207,7.793" transform="translate(-108.003 -20.583)" fill="#e49d75"/>
  </g>
</svg>
