<svg xmlns="http://www.w3.org/2000/svg" width="222" height="73" viewBox="0 0 222 73">
  <g id="Group_190" data-name="Group 190" transform="translate(-570 -1289)">
    <rect id="Rectangle_188" data-name="Rectangle 188" width="222" height="73" rx="10" transform="translate(570 1289)" fill="#ee4d2d"/>
    <path id="path2" d="M31.13,42.942a5.537,5.537,0,0,1-3.419,4.519,8.585,8.585,0,0,1-3.653.628,11.8,11.8,0,0,1-4.99-1.291,12.45,12.45,0,0,1-2-1.376c-.16-.134-.178-.219-.073-.369.057-.086.162-.241.394-.581.337-.494.379-.556.417-.613a.285.285,0,0,1,.456-.044l.032.025.1.074.124.1a9.652,9.652,0,0,0,5.549,2.126c2.717-.037,4.671-1.259,5.021-3.135.385-2.065-1.236-3.848-4.407-4.842a37.678,37.678,0,0,1-3.961-1.585q-3.256-1.91-3.041-5c.221-2.856,2.872-4.986,6.223-5a11.323,11.323,0,0,1,4.43.913,11.672,11.672,0,0,1,1.73.943.309.309,0,0,1,.113.454c-.058.1-.153.25-.355.569l0,0c-.265.421-.273.434-.334.532-.105.16-.229.175-.418.055a9.3,9.3,0,0,0-5.114-1.589c-2.333.046-4.081,1.435-4.2,3.326-.031,1.708,1.251,2.955,4.018,3.906,5.618,1.805,7.767,3.922,7.363,7.258M24.192,13.453c3.657,0,6.638,3.471,6.778,7.815H17.414c.139-4.345,3.121-7.815,6.778-7.815M43.12,22.085a.814.814,0,0,0-.811-.817H33.522c-.216-5.737-4.31-10.311-9.33-10.311s-9.114,4.574-9.33,10.311h-8.8a.814.814,0,0,0-.8.817c0,.021,0,.042,0,.063H5.263L6.517,49.8q0,.115.009.233c0,.018,0,.035,0,.053l0,.058,0,0a3.745,3.745,0,0,0,3.486,3.545l0,0H38.077a3.853,3.853,0,0,0,3.662-3.572h0v-.026c0-.021,0-.041,0-.061q0-.074.006-.147L43.12,22.127h0c0-.014,0-.028,0-.042m93.048,18.02a4.179,4.179,0,0,1,4.061-2.924,4.489,4.489,0,0,1,4.131,2.92l.041.116h-8.268Zm10.074,2.541h.061a.757.757,0,0,0,.709-.766c0-.02,0-.037,0-.065,0-.005,0-.015,0-.047a6.786,6.786,0,1,0-13.565,0,7.342,7.342,0,0,0,.051.863l0,.015.011.076a6.838,6.838,0,0,0,1.721,3.708l.005.006a7.211,7.211,0,0,0,4.024,2.219l.021,0v0l.1.017.182.029a9.425,9.425,0,0,0,5.446-.83,6.744,6.744,0,0,0,1.023-.629c.1-.072.182-.142.256-.207.038-.034.069-.062.085-.078.35-.36.372-.488.161-.817q-.349-.555-.613-.946-.092-.137-.16-.234l-.041-.058-.01-.014,0,0c-.191-.238-.322-.26-.534-.072-.023.02-.1.078-.112.093a6.3,6.3,0,0,1-5.562,1.325,6.156,6.156,0,0,1-1.059-.387,4.481,4.481,0,0,1-2.438-3.1l-.021-.1Zm-26.213-2.541a4.179,4.179,0,0,1,4.061-2.924,4.489,4.489,0,0,1,4.131,2.92l.041.116h-8.268ZM130.1,42.647h.061a.757.757,0,0,0,.709-.766c0-.02,0-.037,0-.065,0-.005,0-.015,0-.047a6.786,6.786,0,1,0-13.565,0,7.375,7.375,0,0,0,.051.863l0,.015.011.076a6.838,6.838,0,0,0,1.721,3.708l.005.006a7.211,7.211,0,0,0,4.024,2.219l.021,0v0l.1.017.182.029a9.424,9.424,0,0,0,5.446-.83,6.745,6.745,0,0,0,1.023-.629c.1-.072.182-.142.256-.207.038-.034.069-.062.085-.078.35-.36.372-.488.161-.817q-.349-.555-.613-.946c-.061-.091-.115-.169-.16-.234l-.041-.058-.01-.014v0c-.191-.238-.322-.26-.534-.072-.023.02-.1.078-.112.093a6.3,6.3,0,0,1-5.562,1.325,6.156,6.156,0,0,1-1.059-.387,4.48,4.48,0,0,1-2.438-3.1l-.021-.1Zm-22.391,3.863A4.638,4.638,0,0,1,103.062,42v-.236a4.65,4.65,0,1,1,4.649,4.742m0-11.7a7.117,7.117,0,0,0-4.506,1.6l-.144.117V35.233c0-.345-.074-.421-.423-.421h-1.624c-.354,0-.423.07-.423.421V55.854c0,.339.079.421.423.421h1.624c.346,0,.423-.08.423-.421v-8.6l.144.117a7.1,7.1,0,1,0,4.506-12.56M90.989,46.351a4.583,4.583,0,1,1,4.659-4.583,4.621,4.621,0,0,1-4.659,4.583m0-11.6a7.018,7.018,0,1,0,7.134,7.017,7.076,7.076,0,0,0-7.134-7.017m-15.9.156A6.689,6.689,0,0,0,71.1,36.228l-.14.1V26.755c0-.317-.1-.421-.422-.421h-1.7c-.343,0-.422.082-.422.421V48.6c0,.331.085.421.422.421h1.7c.315,0,.422-.109.422-.421V41.466a4.126,4.126,0,0,1,8.251.016V48.6c0,.361.06.421.422.421h1.7c.359,0,.422-.062.422-.421v-7.14a6.649,6.649,0,0,0-6.664-6.551M51.4,45.06l0,.006c-.242.367-.344.522-.4.61-.191.284-.167.411.124.658a13.119,13.119,0,0,0,2.147,1.414,12.525,12.525,0,0,0,5.3,1.266,9.168,9.168,0,0,0,3.877-.734,5.945,5.945,0,0,0,3.6-4.909c.372-3.569-1.95-5.8-7.932-7.6h0c-2.787-.9-4.1-2.094-4.1-3.762.082-1.844,1.792-3.221,4.1-3.307a9.163,9.163,0,0,1,5.115,1.537c.34.206.5.168.726-.129.026-.044.1-.15.405-.589h0c.286-.41.38-.547.4-.588.193-.363.165-.5-.183-.749a12.3,12.3,0,0,0-1.86-.968,12.031,12.031,0,0,0-4.7-.879c-3.6.078-6.4,2.417-6.585,5.485-.117,2.216,1.007,4,3.357,5.315a36.6,36.6,0,0,0,4.192,1.587c3.2.936,4.863,2.658,4.519,4.69-.313,1.846-2.247,3.074-4.961,3.158a9.849,9.849,0,0,1-5.673-2.056l-.133-.1-.13-.1c-.351-.242-.558-.222-.772.1l-.424.644" transform="translate(604.383 1292.043)" fill="#fff" fill-rule="evenodd"/>
  </g>
</svg>
