<svg xmlns="http://www.w3.org/2000/svg" width="222" height="73" viewBox="0 0 222 73">
  <g id="Group_113" data-name="Group 113" transform="translate(-810 -1289)">
    <rect id="Rectangle_189" data-name="Rectangle 189" width="222" height="73" rx="10" transform="translate(810 1289)" fill="#d71d48"/>
    <g id="Layer_x0020_1" transform="translate(827.003 1299.368)">
      <g id="_2423616447568" transform="translate(-0.003 0.004)">
        <path id="Path_2603" data-name="Path 2603" d="M186.982,44.475c-.624,3.626-2.983,6.663-6.664,6.663H11.679A6.482,6.482,0,0,1,5.228,45.3l-5.1-30.89C-.6,9.984,1.755,5.9,6.609,5.9L186.485.007c4-.131,7.48,3.873,6.679,8.527Z" transform="translate(0.003 -0.004)" fill="#d71d48" fill-rule="evenodd"/>
        <path id="Logo_x0020_BukaLapak_x0020__x0028_CDR-2019_x0029__x0020_-_x0020_FileVector69.cdr" d="M464.442,319.745v1.145l-.879-.135-.339-.063-.135-.063-.068-.063-.068-.189-.068-8.965c-.425-4.755-3.149-6.377-8.2-6.377a67.608,67.608,0,0,0-7.856.884c-.021.01.068,3.761.068,5.177h.2c2.235-.26,4.457-.374,6.705-.5,2.188,0,2.98-.138,2.98,1.768-1.507.128-3.043.147-4.538.379-3.772.439-6.608,1.669-6.976,6.124v.884c.125,1.633.774,4.275,2.574,5.114H469.59l.948-.063V318.23h.88l4.334,6.566.068.063h6.84l-5.96-9.6V315.2l6.569-9.47h-6.908l-5.08,6.819-.068.063-.677.063V298.91H464.51Zm-122.3-5.813c.046,4.331,2.67,8.206,6.827,8.525h.879c3.054-.2,7.346-1.942,10.072-3.256l.068-.065v-17.85h-6.016L353.9,316.2c-1.533.492-4.985,1.693-5.543-.456a11.822,11.822,0,0,1-.2-1.433c-.15-4.34-.067-8.687-.067-13.028H342ZM319.72,324.844h11.929l.876-.063.741-.063a8.425,8.425,0,0,0,7.563-8.071v-.821c-.2-2.633-1.159-3.747-2.858-5.339l.067-.063a4.794,4.794,0,0,0,1.563-3.384v-1.7c-.431-4.038-3.616-5.889-8.155-6.314H319.72Zm12.131-15.784-.4.063-.539.063-5.19.063V304.2l5.257.065c1.323.155,2,.249,2.427,1.452v1.515C333.146,308.183,332.946,308.8,331.851,309.06Zm.135,10.417-.809.063-5.459.063v-5.177h5.392l.674.063c1.513.236,2.108.739,2.359,2.146v.442C333.939,318.416,333.547,319.234,331.986,319.477Zm66.565,5.367h17.1v-3.409a14.993,14.993,0,0,0,4.123-.947h.068l.068.063c.7.65,2.781.923,3.717,1.01h2.231v3.283h6.015l0-6.134.6.136.946.063h2.636c4.926-.383,7.688-3.058,8.178-7.639l.068-.568v-3.473l-.068-.568c-.447-4.18-1.967-6.925-6.556-7.639h-2.906c-2.979.4-5.944.866-8.922,1.263l-.068,16.163c-.393-.033-.992.02-1.284-.252l-.068-.063-.068-8.649-.068-.821c-.383-3.576-2.2-5.351-5.948-5.935l-.947-.063h-1.487l-1.284.063c-2.255.234-4.532.4-6.759.821v5.114h.406c2.323-.135,4.634-.347,6.961-.442h1.893a1.115,1.115,0,0,1,1.081,1.01v.758c-1.6.149-3.2.243-4.8.378-3.61.422-5.84,1.767-6.556,5.114l-.068.568v1.7l.068.632a6.533,6.533,0,0,0,1.96,3.725l.067.063-4.19.063V299.021l-.068-.063h-6.084c-.023,6.075-.013,12.262-.006,18.321-.563-.04-1.287.063-1.292-.606l-.065-8.419-.068-1.073c-.508-3.319-2.377-5.143-5.948-5.619a19.37,19.37,0,0,0-3.109,0c-2.092.122-4.217.309-6.286.631l-.135.063-.067.063c-.486,1.362-1.137,2.68-1.623,4.041v.189h-5.745l-5.2,6.928-.676.017V298.91h-5.948v25.823h5.948v-5.682h.611l4.053,5.619.068.063h6.827v-.19l-.068-.063-5.272-8.4v-.126l5.745-8.145.068-.063.135-.063a52.271,52.271,0,0,1,9.463-.631c.71.166.9.347,1.081,1.01l.068.821a43.439,43.439,0,0,0-5.678.442l-.27.063c-2.841.442-4.834,1.933-5.407,4.609l-.067.252-.068.632a8.678,8.678,0,0,0,.473,3.788,5.787,5.787,0,0,0,4.394,3.662l.473.063h2.636a35.081,35.081,0,0,0,4.867-1.01h.27l.067.063.068.063a10.743,10.743,0,0,0,2.771.821l.676.063h2.242Q398.551,323.626,398.551,324.844Zm39.541-14.458c-.288,2.153-1.092,2.892-3.042,3.094-1.067,0-2.117-.126-3.177-.126v-8.46a27.808,27.808,0,0,0,3.042-.758c2.714,0,3.062,2.1,3.244,4.483v1.136Zm-25.144,4.041c.157-.733.353-.988,1.149-1.136,1.387-.185,2.8-.234,4.19-.379v2.9h-.2a24.289,24.289,0,0,1-3.65.569h-.676c-.576-.134-.7-.562-.811-1.073ZM390.9,316.652a15.116,15.116,0,0,1-4.191.568c-.649-.121-.819-.415-.946-1.01a2.731,2.731,0,0,1,0-1.073c.226-.845.657-.934,1.555-1.073,1.195-.08,2.387-.178,3.582-.252l.2-.064v2.9Zm60.536,2.083c.23-.856.654-.968,1.557-1.136a35.472,35.472,0,0,0,3.861-.316v2.9c-.972,0-2.107.4-3.116.505l-.881.063a1.631,1.631,0,0,1-1.016-.189c-.462-.43-.406-1.306-.406-1.831Z" transform="translate(-304.581 -284.757)" fill="#fefefe" fill-rule="evenodd"/>
      </g>
    </g>
  </g>
</svg>
