<svg xmlns="http://www.w3.org/2000/svg" width="341.038" height="278.324" viewBox="0 0 341.038 278.324">
  <g id="_332_online_shopping_outline" data-name="#332_online_shopping_outline" transform="translate(-104.26 -71.86)">
    <rect id="Rectangle_179" data-name="Rectangle 179" width="293.605" height="229.331" rx="11.2" transform="translate(127.964 73.641)" fill="#ba7ba7"/>
    <path id="Path_2557" data-name="Path 2557" d="M392.009,304.753H138.3a21.763,21.763,0,0,1-21.727-21.727V93.587A21.745,21.745,0,0,1,138.3,71.86H392.009a21.745,21.745,0,0,1,21.727,21.727V283.025A21.763,21.763,0,0,1,392.009,304.753ZM138.3,75.422a18.166,18.166,0,0,0-18.166,18.166V283.025A18.183,18.183,0,0,0,138.3,301.191H392.009a18.183,18.183,0,0,0,18.166-18.165V93.587a18.166,18.166,0,0,0-18.166-18.166Z" transform="translate(9.613)" fill="#093f68"/>
    <rect id="Rectangle_180" data-name="Rectangle 180" width="293.605" height="170.239" transform="translate(127.964 93.587)" fill="#fff"/>
    <path id="Path_2558" data-name="Path 2558" d="M411.955,256.843h-293.6a1.781,1.781,0,0,1-1.781-1.781V84.841a1.781,1.781,0,0,1,1.781-1.781h293.6a1.781,1.781,0,0,1,1.781,1.781V255.063A1.781,1.781,0,0,1,411.955,256.843Zm-291.824-3.562H410.175V86.622H120.132Z" transform="translate(9.613 8.746)" fill="#093f68"/>
    <rect id="Rectangle_181" data-name="Rectangle 181" width="95.066" height="74.71" rx="3.35" transform="translate(149.638 175.35)" fill="#fff"/>
    <path id="Path_2559" data-name="Path 2559" d="M219.621,207.242H136.487a7.747,7.747,0,0,1-7.747-7.747v-62.76a7.765,7.765,0,0,1,7.747-7.765h83.134a7.765,7.765,0,0,1,7.747,7.765v62.76A7.747,7.747,0,0,1,219.621,207.242Zm-83.134-74.657a4.2,4.2,0,0,0-4.185,4.2v62.76a4.185,4.185,0,0,0,4.185,4.185h83.134a4.185,4.185,0,0,0,4.185-4.185V136.735a4.2,4.2,0,0,0-4.185-4.2Z" transform="translate(19.117 44.599)" fill="#dfeaef"/>
    <path id="Path_2560" data-name="Path 2560" d="M277.061,233.081H169.92l15.494-31.451h76.153Z" transform="translate(51.276 101.342)" fill="#093f68"/>
    <path id="Path_2561" data-name="Path 2561" d="M277.829,235.667H170.688a1.728,1.728,0,0,1-1.514-2.618l15.494-31.469a1.781,1.781,0,0,1,1.6-.979h76.153a1.781,1.781,0,0,1,1.6.98l15.494,31.469a1.739,1.739,0,0,1-1.692,2.618ZM173.556,232.1H274.962l-13.731-27.889H187.287Z" transform="translate(50.508 100.537)" fill="#093f68"/>
    <rect id="Rectangle_182" data-name="Rectangle 182" width="155.76" height="13.98" rx="3.66" transform="translate(196.886 334.423)" fill="#ba70a3"/>
    <path id="Path_2562" data-name="Path 2562" d="M306.293,235.793H163.569a8.3,8.3,0,0,1-8.3-8.3v-.855a8.3,8.3,0,0,1,8.3-8.3H306.293a8.3,8.3,0,0,1,8.3,8.3v.944a8.3,8.3,0,0,1-8.3,8.21Zm-142.724-13.98a4.737,4.737,0,0,0-4.737,4.737v.944a4.737,4.737,0,0,0,4.737,4.737H306.293a4.737,4.737,0,0,0,4.737-4.737v-.855a4.737,4.737,0,0,0-4.737-4.737Z" transform="translate(39.835 114.391)" fill="#093f68"/>
    <path id="Path_2563" data-name="Path 2563" d="M153.47,125.866H105.26L127.646,83.8h41.816Z" transform="translate(0.781 9.324)" fill="#f56132"/>
    <path id="Path_2564" data-name="Path 2564" d="M154.246,128.427h-48.21a1.746,1.746,0,0,1-1.532-2.636l22.44-42.048a1.781,1.781,0,0,1,1.567-.944h41.816a1.771,1.771,0,0,1,1.656,2.4l-16.028,42.083A1.781,1.781,0,0,1,154.246,128.427Zm-45.254-3.562h44.025l14.639-38.5H129.491Z" transform="translate(0.005 8.543)" fill="#093f68"/>
    <path id="Path_2565" data-name="Path 2565" d="M105.26,107.42h48.21v4.328a24.1,24.1,0,0,1-24.1,24.1h0a24.1,24.1,0,0,1-24.1-24.1V107.42Z" transform="translate(0.781 27.77)" fill="#f56132"/>
    <path id="Path_2566" data-name="Path 2566" d="M130.137,138.423a25.913,25.913,0,0,1-25.877-25.877V108.2a1.781,1.781,0,0,1,1.781-1.781h48.21a1.781,1.781,0,0,1,1.781,1.781v4.345A25.913,25.913,0,0,1,130.137,138.423Zm-22.315-28.495v2.565a22.333,22.333,0,0,0,44.648,0v-2.565Z" transform="translate(0 26.989)" fill="#093f68"/>
    <path id="Path_2567" data-name="Path 2567" d="M180.54,125.866H132.33L148.323,83.8h41.8Z" transform="translate(21.921 9.324)" fill="#fff"/>
    <path id="Path_2568" data-name="Path 2568" d="M181.322,128.428h-48.21a1.79,1.79,0,0,1-1.674-2.4L147.466,83.94a1.781,1.781,0,0,1,1.674-1.14h41.8a1.779,1.779,0,0,1,1.745,2.173l-9.6,42.083A1.781,1.781,0,0,1,181.322,128.428Zm-45.627-3.562h44.2l8.78-38.5H150.334Z" transform="translate(21.139 8.543)" fill="#093f68"/>
    <path id="Path_2569" data-name="Path 2569" d="M132.33,107.42h48.21v4.328a24.1,24.1,0,0,1-24.1,24.1h0a24.1,24.1,0,0,1-24.1-24.1V107.42Z" transform="translate(21.921 27.77)" fill="#fff"/>
    <path id="Path_2570" data-name="Path 2570" d="M157.207,138.423a25.913,25.913,0,0,1-25.877-25.877V108.2a1.781,1.781,0,0,1,1.781-1.781h48.21A1.781,1.781,0,0,1,183.1,108.2v4.345A25.913,25.913,0,0,1,157.207,138.423Zm-22.315-28.495v2.565a22.333,22.333,0,0,0,44.648,0v-2.565Z" transform="translate(21.14 26.989)" fill="#093f68"/>
    <path id="Path_2571" data-name="Path 2571" d="M207.61,125.866H159.4L168.981,83.8H210.8Z" transform="translate(43.061 9.324)" fill="#f56132"/>
    <path id="Path_2572" data-name="Path 2572" d="M208.394,128.428h-48.21a1.784,1.784,0,0,1-1.745-2.173l9.6-42.066a1.781,1.781,0,0,1,1.781-1.389h41.816a1.771,1.771,0,0,1,1.781,1.923l-3.206,42.066A1.781,1.781,0,0,1,208.394,128.428Zm-45.984-3.562h44.327l2.921-38.5H171.19Z" transform="translate(42.276 8.543)" fill="#093f68"/>
    <path id="Path_2573" data-name="Path 2573" d="M159.4,107.42h48.21v4.328a24.1,24.1,0,0,1-24.1,24.1h0a24.1,24.1,0,0,1-24.1-24.1V107.42Z" transform="translate(43.061 27.77)" fill="#f56132"/>
    <path id="Path_2574" data-name="Path 2574" d="M184.277,138.423A25.913,25.913,0,0,1,158.4,112.546V108.2a1.781,1.781,0,0,1,1.781-1.781h48.21a1.781,1.781,0,0,1,1.781,1.781v4.345A25.913,25.913,0,0,1,184.277,138.423Zm-22.315-28.495v2.565a22.333,22.333,0,0,0,44.648,0v-2.565Z" transform="translate(42.28 26.989)" fill="#093f68"/>
    <path id="Path_2575" data-name="Path 2575" d="M234.662,125.866H186.47L189.658,83.8h41.816Z" transform="translate(64.2 9.324)" fill="#fff"/>
    <path id="Path_2576" data-name="Path 2576" d="M235.445,128.427H187.253a1.769,1.769,0,0,1-1.781-1.906l3.188-42.083a1.781,1.781,0,0,1,1.781-1.638h41.816a1.781,1.781,0,0,1,1.781,1.638l3.188,42.083a1.769,1.769,0,0,1-1.781,1.906Zm-46.3-3.562h44.381l-2.921-38.5H192.1Z" transform="translate(63.417 8.543)" fill="#093f68"/>
    <path id="Path_2577" data-name="Path 2577" d="M186.47,107.42h48.21v4.328a24.1,24.1,0,0,1-24.114,24.114h0a24.1,24.1,0,0,1-24.1-24.1v-4.328Z" transform="translate(64.2 27.77)" fill="#fff"/>
    <path id="Path_2578" data-name="Path 2578" d="M211.347,138.423a25.913,25.913,0,0,1-25.877-25.877V108.2a1.781,1.781,0,0,1,1.781-1.781h48.192a1.781,1.781,0,0,1,1.781,1.781v4.345A25.913,25.913,0,0,1,211.347,138.423Zm-22.315-28.495v2.565a22.315,22.315,0,1,0,44.63,0v-2.565Z" transform="translate(63.42 26.989)" fill="#093f68"/>
    <path id="Path_2579" data-name="Path 2579" d="M263.138,125.866h-48.21L211.74,83.8h41.816Z" transform="translate(83.935 9.324)" fill="#f56132"/>
    <path id="Path_2580" data-name="Path 2580" d="M263.929,128.428h-48.21a1.781,1.781,0,0,1-1.781-1.638l-3.206-42.066a1.771,1.771,0,0,1,1.781-1.923H254.33a1.781,1.781,0,0,1,1.781,1.389l9.6,42.066a1.784,1.784,0,0,1-1.781,2.173Zm-46.554-3.562H261.7l-8.78-38.5H214.455Z" transform="translate(83.143 8.543)" fill="#093f68"/>
    <path id="Path_2581" data-name="Path 2581" d="M213.53,107.42h48.21v4.328a24.1,24.1,0,0,1-24.1,24.1h0a24.1,24.1,0,0,1-24.1-24.1V107.42Z" transform="translate(85.333 27.77)" fill="#f56132"/>
    <path id="Path_2582" data-name="Path 2582" d="M238.425,138.423a25.913,25.913,0,0,1-25.895-25.877V108.2a1.781,1.781,0,0,1,1.781-1.781h48.21A1.781,1.781,0,0,1,264.3,108.2v4.345A25.913,25.913,0,0,1,238.425,138.423Zm-22.333-28.495v2.565a22.333,22.333,0,0,0,44.648,0v-2.565Z" transform="translate(84.552 26.989)" fill="#093f68"/>
    <path id="Path_2583" data-name="Path 2583" d="M293.011,125.866H244.8L235.22,83.8h41.8Z" transform="translate(102.271 9.324)" fill="#fff"/>
    <path id="Path_2584" data-name="Path 2584" d="M293.8,128.443h-48.21a1.781,1.781,0,0,1-1.781-1.371l-9.546-42.119A1.779,1.779,0,0,1,236,82.78h41.8a1.781,1.781,0,0,1,1.674,1.14L295.506,126a1.832,1.832,0,0,1-1.71,2.44Zm-46.785-3.562h44.2l-14.639-38.5H238.231Z" transform="translate(101.486 8.528)" fill="#093f68"/>
    <path id="Path_2585" data-name="Path 2585" d="M240.6,107.42h48.21v4.328a24.1,24.1,0,0,1-24.1,24.1h0a24.1,24.1,0,0,1-24.1-24.1V107.42Z" transform="translate(106.472 27.77)" fill="#fff"/>
    <path id="Path_2586" data-name="Path 2586" d="M265.495,138.423A25.913,25.913,0,0,1,239.6,112.546V108.2a1.781,1.781,0,0,1,1.781-1.781h48.21a1.781,1.781,0,0,1,1.781,1.781v4.345A25.913,25.913,0,0,1,265.495,138.423Zm-22.333-28.495v2.565a22.333,22.333,0,0,0,44.648,0v-2.565Z" transform="translate(105.691 26.989)" fill="#093f68"/>
    <path id="Path_2587" data-name="Path 2587" d="M322.893,125.866h-48.21L258.69,83.8h41.816Z" transform="translate(120.599 9.324)" fill="#f56132"/>
    <path id="Path_2588" data-name="Path 2588" d="M323.685,128.427h-48.21a1.781,1.781,0,0,1-1.656-1.14L257.791,85.2a1.771,1.771,0,0,1,1.656-2.4h41.816a1.781,1.781,0,0,1,1.567.944L325.253,125.9a1.648,1.648,0,0,1-1.567,2.529ZM276.7,124.866h44.025l-20.5-38.5H262.065Z" transform="translate(119.807 8.543)" fill="#093f68"/>
    <path id="Path_2589" data-name="Path 2589" d="M267.67,107.42h48.21v4.328a24.1,24.1,0,0,1-24.1,24.1h0a24.1,24.1,0,0,1-24.1-24.1V107.42Z" transform="translate(127.612 27.77)" fill="#f56132"/>
    <path id="Path_2590" data-name="Path 2590" d="M292.565,138.423a25.913,25.913,0,0,1-25.895-25.877V108.2a1.781,1.781,0,0,1,1.781-1.781h48.21a1.781,1.781,0,0,1,1.781,1.781v4.345A25.913,25.913,0,0,1,292.565,138.423Zm-22.333-28.495v2.565a22.333,22.333,0,0,0,44.648,0v-2.565Z" transform="translate(126.831 26.989)" fill="#093f68"/>
    <rect id="Rectangle_183" data-name="Rectangle 183" width="116.028" height="27.907" rx="7.84" transform="translate(274.375 220.105)" fill="#ba70a3"/>
    <path id="Path_2591" data-name="Path 2591" d="M302.876,185.573H214.756a15.743,15.743,0,1,1,0-31.469h88.121a15.743,15.743,0,1,1,0,31.469Zm-88.121-27.907a12.182,12.182,0,1,0,0,24.345h88.121a12.182,12.182,0,1,0,0-24.345Z" transform="translate(73.582 64.22)" fill="#093f68"/>
    <path id="Path_2592" data-name="Path 2592" d="M315.4,134.412H202.1a1.781,1.781,0,1,1,0-3.562H315.4a1.781,1.781,0,1,1,0,3.562Z" transform="translate(75.016 46.067)" fill="#dfeaef"/>
    <path id="Path_2593" data-name="Path 2593" d="M315.4,141.682H202.1a1.781,1.781,0,1,1,0-3.562H315.4a1.781,1.781,0,1,1,0,3.562Z" transform="translate(75.016 51.745)" fill="#dfeaef"/>
    <path id="Path_2594" data-name="Path 2594" d="M288.084,148.942H202.1a1.781,1.781,0,1,1,0-3.562h85.983a1.781,1.781,0,1,1,0,3.562Z" transform="translate(75.016 57.414)" fill="#dfeaef"/>
    <rect id="Rectangle_184" data-name="Rectangle 184" width="69.724" height="9.92" rx="2.66" transform="translate(162.301 196.579)" fill="#fff"/>
    <path id="Path_2595" data-name="Path 2595" d="M202.635,154.372H142.368a6.536,6.536,0,0,1-6.518-6.518v-.445a6.536,6.536,0,0,1,6.518-6.518h60.267a6.518,6.518,0,0,1,6.5,6.518v.445a6.518,6.518,0,0,1-6.5,6.518Zm-60.267-9.92a2.956,2.956,0,0,0-2.956,2.956v.445a2.956,2.956,0,0,0,2.956,2.956h60.267a2.939,2.939,0,0,0,2.938-2.956v-.445a2.938,2.938,0,0,0-2.939-2.956Z" transform="translate(24.67 53.908)" fill="#dfeaef"/>
    <path id="Path_2596" data-name="Path 2596" d="M189.417,181.425h-39.75a4.4,4.4,0,0,1-4.274-3.669L139.64,147.48h59.8l-5.752,30.276a4.4,4.4,0,0,1-4.274,3.669Z" transform="translate(27.629 59.054)" fill="#fff"/>
    <path id="Path_2597" data-name="Path 2597" d="M190.2,183.994h-39.75a6.18,6.18,0,0,1-6.02-5.129l-5.752-30.276a1.781,1.781,0,0,1,1.781-2.119h59.8a1.781,1.781,0,0,1,1.781,2.119l-5.752,30.276A6.2,6.2,0,0,1,190.2,183.994Zm-47.622-33.98,5.343,28.192a2.636,2.636,0,0,0,2.529,2.226H190.2a2.654,2.654,0,0,0,2.529-2.226l5.343-28.192Z" transform="translate(26.85 58.265)" fill="#dfeaef"/>
    <rect id="Rectangle_185" data-name="Rectangle 185" width="4.63" height="23.01" rx="1.3" transform="translate(181.463 211.04)" fill="#dfeaef"/>
    <rect id="Rectangle_186" data-name="Rectangle 186" width="4.63" height="23.01" rx="1.3" transform="translate(194.856 211.04)" fill="#dfeaef"/>
    <rect id="Rectangle_187" data-name="Rectangle 187" width="4.63" height="23.01" rx="1.3" transform="translate(208.249 211.04)" fill="#dfeaef"/>
    <path id="Path_2598" data-name="Path 2598" d="M142.525,154.584a2.4,2.4,0,0,1-1.959-1.015,2.369,2.369,0,0,1,.588-3.295l22.458-15.69a2.386,2.386,0,0,1,2.725,3.9l-22.458,15.672A2.387,2.387,0,0,1,142.525,154.584Z" transform="translate(28.021 48.727)" fill="#dfeaef"/>
    <path id="Path_2599" data-name="Path 2599" d="M182.2,154.584a2.369,2.369,0,0,0,1.353-4.31l-22.44-15.69a2.386,2.386,0,0,0-2.725,3.9l22.458,15.672A2.387,2.387,0,0,0,182.2,154.584Z" transform="translate(41.594 48.727)" fill="#dfeaef"/>
    <path id="Path_2600" data-name="Path 2600" d="M285.9,169.783l-32.057-6.8a1.941,1.941,0,0,0-2.315,2.315l6.8,32.057a1.959,1.959,0,0,0,3.295.979l6.607-6.607,16.883,16.883a3.3,3.3,0,0,0,4.648,0l7.462-7.462a3.3,3.3,0,0,0,0-4.648l-16.9-16.883,6.625-6.607a1.959,1.959,0,0,0-1.051-3.223Z" transform="translate(114.972 71.123)" fill="#ffbc0e"/>
    <path id="Path_2601" data-name="Path 2601" d="M288.161,212.187a5.094,5.094,0,0,1-3.562-1.478L268.98,195.072l-5.343,5.343a3.74,3.74,0,0,1-6.287-1.87l-6.8-32.057a3.74,3.74,0,0,1,4.435-4.452l32.057,6.8h0a3.74,3.74,0,0,1,2.8,2.6,3.669,3.669,0,0,1-.944,3.687l-5.343,5.343,15.619,15.637a5.058,5.058,0,0,1,0,7.124l-7.462,7.462a5.058,5.058,0,0,1-3.544,1.5Zm-19.2-21.371a1.781,1.781,0,0,1,1.264.516l16.883,16.883a1.5,1.5,0,0,0,2.119,0l7.462-7.462a1.5,1.5,0,0,0,0-2.119l-16.883-16.883a1.781,1.781,0,0,1,0-2.529l6.607-6.607.285-2.03-.374,1.781-32.057-6.8-1.941.57,1.781-.374,6.8,32.057h.285l6.607-6.607a1.781,1.781,0,0,1,1.158-.427Z" transform="translate(114.174 70.357)" fill="#093f68"/>
    <path id="Path_2602" data-name="Path 2602" d="M204.4,205.3a10.044,10.044,0,1,1,10.044-10.027A10.044,10.044,0,0,1,204.4,205.3Zm0-16.509a6.483,6.483,0,1,0,6.483,6.483A6.483,6.483,0,0,0,204.4,188.79Z" transform="translate(70.362 88.519)" fill="#093f68"/>
  </g>
</svg>
