<svg xmlns="http://www.w3.org/2000/svg" width="454.185" height="435.486" viewBox="0 0 454.185 435.486">
  <g id="Printer-amico" transform="translate(-16.029 -34.01)">
    <g id="freepik--Floor--inject-33" transform="translate(16.029 208.353)">
      <path id="freepik--floor--inject-33-2" data-name="freepik--floor--inject-33" d="M403.707,251.8c-88.683-50.988-232.47-50.988-321.163,0s-88.683,133.67,0,184.658,232.47,51,321.153,0S492.39,302.8,403.707,251.8Z" transform="translate(-16.029 -213.558)" fill="#f5f5f5"/>
    </g>
    <g id="freepik--Shadows--inject-33" transform="translate(32.469 216.677)">
      <path id="freepik--Shadow--inject-33" d="M236.131,364.7,138.7,308.366,288.061,222.13l97.432,56.338Z" transform="translate(-36.025 -222.13)" fill="#e0e0e0"/>
      <path id="freepik--shadow--inject-33-2" data-name="freepik--shadow--inject-33" d="M211.063,362.879,105.524,423.81,32.96,381.921,138.509,320.98Z" transform="translate(-32.96 -224.995)" fill="#e0e0e0"/>
      <ellipse id="freepik--shadow--inject-33-3" data-name="freepik--shadow--inject-33" cx="59.203" cy="34.18" rx="59.203" ry="34.18" transform="translate(303.84 110.793)" fill="#e0e0e0"/>
      <path id="freepik--shadow--inject-33-4" data-name="freepik--shadow--inject-33" d="M264.37,445.349l79.021-45.638c1.321-.767,1.321-2,0-2.758l-59.572-34.821a5.282,5.282,0,0,0-4.768,0L200.03,407.771c-1.321.757-1.321,1.991,0,2.748l59.572,34.83a5.282,5.282,0,0,0,4.768,0Z" transform="translate(-37.774 -226.172)" fill="#e6e6e6"/>
    </g>
    <g id="freepik--Desk--inject-33" transform="translate(145.913 49.137)">
      <g id="freepik--desk--inject-33-2" data-name="freepik--desk--inject-33">
        <g id="freepik--Table--inject-33" transform="translate(0 72.371)">
          <path id="Path_1483" data-name="Path 1483" d="M290.18,159.326l.01-3.321h0V130.661l2.923-1.631V157.7L373.27,204.05v3.389l-80.157-46.414v64.4l-2.923,1.622V159.326Z" transform="translate(-153.859 -124.262)" fill="#ba68c8"/>
          <path id="Path_1484" data-name="Path 1484" d="M290.18,159.326l.01-3.321h0V130.661l2.923-1.631V157.7L373.27,204.05v3.389l-80.157-46.414v64.4l-2.923,1.622V159.326Z" transform="translate(-153.859 -124.262)" opacity="0.4"/>
          <path id="Path_1485" data-name="Path 1485" d="M287.17,125.61v99.713l2.913,1.622V162.5l83.07,48.1V275l2.913,1.748V180.365h0v-3.321Zm2.913,11.312,83.07,47.852V207.33l-83.07-48.1Z" transform="translate(-153.772 -124.163)" fill="#ba68c8"/>
          <path id="Path_1486" data-name="Path 1486" d="M287.17,125.61v99.713l2.913,1.622V162.5l83.07,48.1V275l2.913,1.748V180.365h0v-3.321Zm2.913,11.312,83.07,47.852V207.33l-83.07-48.1Z" transform="translate(-153.772 -124.163)" opacity="0.2"/>
          <path id="Path_1487" data-name="Path 1487" d="M152.8,238.9v-3.321h0V210.231l2.923-1.631v28.664L235.88,283.62V287l-80.157-46.414v64.4l-2.923,1.631V238.9Z" transform="translate(-149.877 -126.569)" fill="#ba68c8"/>
          <path id="Path_1488" data-name="Path 1488" d="M152.8,238.9v-3.321h0V210.231l2.923-1.631v28.664L235.88,283.62V287l-80.157-46.414v64.4l-2.923,1.631V238.9Z" transform="translate(-149.877 -126.569)" opacity="0.4"/>
          <path id="Path_1489" data-name="Path 1489" d="M374.778,178.77v-.243l.214.117,2.709-1.563v99.471l-2.923,1.69V188.829L244.3,263.918v89.9l-2.923,1.69V255.781Z" transform="translate(-152.445 -125.655)" fill="#ba68c8"/>
          <path id="Path_1490" data-name="Path 1490" d="M149.79,205.18v99.7l2.913,1.631V242.059l83.08,48.1v64.378l2.913,1.748V256.6ZM152.7,238.8V216.463l83.08,47.842v22.566Z" transform="translate(-149.79 -126.47)" fill="#ba68c8"/>
          <path id="Path_1491" data-name="Path 1491" d="M149.79,205.18v99.7l2.913,1.631V242.059l83.08,48.1v64.378l2.913,1.748V256.6ZM152.7,238.8V216.463l83.08,47.842v22.566Z" transform="translate(-149.79 -126.47)" opacity="0.2"/>
          <path id="Path_1492" data-name="Path 1492" d="M238.725,254.255,149.79,202.83l136.33-78.71,88.925,51.425Z" transform="translate(-149.79 -124.12)" fill="#ba68c8"/>
          <path id="Path_1493" data-name="Path 1493" d="M238.725,254.255,149.79,202.83l136.33-78.71,88.925,51.425Z" transform="translate(-149.79 -124.12)" opacity="0.1"/>
          <path id="Path_1494" data-name="Path 1494" d="M238.725,254.255,149.79,202.83l136.33-78.71,88.925,51.425Z" transform="translate(-149.79 -124.12)" fill="#fff" opacity="0.5"/>
        </g>
        <g id="freepik--Keyboard--inject-33" transform="translate(86.836 115.104)">
          <path id="freepik--shadow--inject-33-5" data-name="freepik--shadow--inject-33" d="M239.754,211.419l24.275,14.167a2.913,2.913,0,0,0,2.6,0l68.408-39.443a.8.8,0,0,0,0-1.505l-24.324-14.157a2.913,2.913,0,0,0-2.593,0l-68.369,39.433a.8.8,0,0,0,0,1.505Z" transform="translate(-239.218 -168.188)" opacity="0.2"/>
          <g id="freepik--keyboard--inject-33-2" data-name="freepik--keyboard--inject-33" transform="translate(2.618)">
            <path id="Path_1495" data-name="Path 1495" d="M333.274,181.676a.971.971,0,0,0-.534-.748l-21.654-12.5a2.913,2.913,0,0,0-2.583,0L242.474,206.64a.9.9,0,0,0-.534.748v2.262a.9.9,0,0,0,.534.748l21.634,12.5a2.913,2.913,0,0,0,2.583,0l66.078-38.141a.971.971,0,0,0,.534-.748Z" transform="translate(-241.915 -168.129)" fill="#263238"/>
            <path id="Path_1496" data-name="Path 1496" d="M264.1,220.565l-21.634-12.439a.777.777,0,0,1,0-1.486l66.029-38.209a2.913,2.913,0,0,1,2.583,0l21.654,12.5a.8.8,0,0,1,0,1.5l-66.077,38.141A2.845,2.845,0,0,1,264.1,220.565Z" transform="translate(-241.914 -168.129)" fill="#37474f"/>
            <path id="Path_1497" data-name="Path 1497" d="M265.3,222.047v2.321a2.612,2.612,0,0,1-1.214-.3l-21.634-12.5a.9.9,0,0,1-.534-.738V208.55a.913.913,0,0,0,.534.748l21.634,12.448a2.738,2.738,0,0,0,1.214.3Z" transform="translate(-241.914 -169.301)" fill="#263238"/>
            <path id="Path_1498" data-name="Path 1498" d="M265.594,218.678h0l-2.146-1.243,2.913-1.68,2.214,1.253-2.913,1.67Zm-3.35-1.942H262.2l-2.136-1.233,2.282-1.321,2.214,1.243-2.282,1.321Zm7.419-.408h-.049l-2.146-1.233,2.282-1.321,2.214,1.243-2.272,1.321ZM258.894,214.8h0l-2.214-1.253,3.69-2.127,2.214,1.243-3.68,2.127Zm6.8-.049h0l-2.214-1.253,1.816-1.039,2.214,1.243-1.806,1.049Zm7.419-.408h-.049l-2.146-1.243,2.272-1.33,2.214,1.243-2.272,1.311Zm-4.447-1.311h-.049l-2.156-1.262,1.816-1.049,2.214,1.243-1.806,1.049Zm-13.118-.175h0l-2.136-1.233,2.913-1.68,2.214,1.243-2.913,1.68Zm21-.5H276.5l-2.146-1.233,16.507-9.526,2.214,1.253-16.507,9.516Zm-12.808-.35h-.049l-2.156-1.2,1.816-1.039,2.214,1.243-1.816,1.039Zm7.885-.68h-.049l-2.136-1.233,1.816-1.049,2.214,1.243-1.816,1.049Zm-19.42-.4h-.049l-2.146-1.243,1.816-1.039,2.214,1.243-1.806,1.049Zm7.419-.408h-.029l-2.146-1.243,1.816-1.039,2.214,1.243-1.884,1.039Zm7.1-.233h-.049l-2.146-1.233,1.816-1.049,2.214,1.243-1.806,1.049Zm7.885-.68h-.049l-2.146-1.233,1.816-1.049,2.214,1.253-1.806,1.039Zm-19.42-.4h-.058l-2.136-1.233,1.748-1.058,2.214,1.243-1.816,1.049Zm7.409-.408h-.087l-2.136-1.233,1.806-1.049,2.224,1.243-1.816,1.049Zm7.108-.223h-.049l-2.146-1.233,1.816-1.049,2.214,1.243-1.816,1.049Zm-21.557,0H248.1l-2.146-1.243,2.282-1.311,2.214,1.243-2.282,1.311Zm29.441-.68h-.049l-2.146-1.233,1.816-1.049,2.214,1.243-1.845,1.029Zm-19.42-.4h-.049l-2.136-1.233,1.806-1.049L260,206.462l-1.806,1.049Zm7.419-.408h-.049l-2.146-1.233,1.816-1.049,2.156,1.233-1.806,1.049Zm7.1-.233h-.049l-2.136-1.233,1.816-1.049,2.214,1.253-1.816,1.039Zm7.885-.68h-.049l-2.185-1.2,1.806-1.049,2.224,1.253-1.816,1.039Zm-27.771-.33h0l-2.146-1.243,1.816-1.049,2.214,1.253-1.816,1.039Zm8.254-.068H261l-2.146-1.233,1.816-1.049,2.214,1.253-1.806,1.039Zm7.419-.408h-.049l-2.146-1.233,1.816-1.049,2.214,1.243-1.816,1.049Zm7.1-.223h-.049l-2.146-1.233,1.816-1.049,2.214,1.243-1.806,1.049Zm7.885-.68H283.4l-2.146-1.233,1.816-1.049,2.214,1.243-1.806,1.049Zm-27.684-.34h-.049l-2.136-1.233,1.806-1.049,2.214,1.243-1.806,1.049Zm8.244-.058h0l-2.146-1.233,1.816-1.049,2.214,1.243-1.816,1.049Zm7.419-.408h-.049l-2.136-1.233,1.806-1.049,2.214,1.243-1.806,1.049Zm7.108-.233h-.049l-2.146-1.243,1.816-1.049,2.214,1.253-1.816,1.039Zm7.885-.67h-.049l-2.146-1.243,1.816-1.049,2.214,1.253-1.816,1.039Zm-27.684-.34h-.049l-2.146-1.243,1.816-1.039,2.214,1.243-1.806,1.049Zm8.244-.068h0l-2.156-1.262,1.816-1.049,2.214,1.253-1.806,1.039Zm27.188-.184h-.049l-2.136-1.233,2.282-1.321,2.214,1.243L294.2,202.18Zm-19.741-.223h-.049l-2.165-1.243,1.816-1.049,2.214,1.253-1.816,1.039Zm7.1-.223h-.049l-2.136-1.233,1.806-1.049,2.224,1.243-1.816,1.049Zm7.885-.68h-.049l-2.146-1.233,1.816-1.049,2.224,1.243-1.806,1.088Zm-27.684-.34h0l-2.136-1.233,1.816-1.049,2.214,1.243-1.816,1.049Zm8.254-.058h0l-2.146-1.233,1.816-1.049,2.214,1.243-1.816,1.049Zm7.409-.408h0l-2.136-1.233,1.816-1.049,2.214,1.243-1.816,1.049Zm20.217-.049h-.049l-2.136-1.243,2.282-1.311,2.214,1.243-2.282,1.311Zm-13.109-.175h-.049l-2.146-1.243,1.816-1.049,2.214,1.253-1.806,1.039Zm7.885-.68h0l-2.146-1.243,1.816-1.039,2.214,1.243-1.806,1.039Zm-19.42-.4h-.049l-2.136-1.243,1.806-1.049,2.224,1.253-1.816,1.039Zm7.419-.418h0l-2.146-1.243,1.748-1.039,2.214,1.253-1.806,1.039Zm7.108-.223h-.049l-2.146-1.233,1.816-1.049,2.214,1.243-1.816,1.049Zm-21.479-.049h-.049l-2.146-1.233,1.816-1.049,2.214,1.243-1.806,1.049Zm35.054,0h-.049l-2.136-1.233,2.282-1.321,2.214,1.253-2.292,1.233Zm-5.7-.583h-.049l-2.136-1.233L295,195.383l2.214,1.243-1.816,1.049Zm-19.42-.4H275.9l-2.146-1.233,1.816-1.049,2.214,1.243-1.826.981Zm7.419-.408h0l-2.146-1.233,1.816-1.049,2.214,1.243-1.816,1.049Zm7.1-.223h0l-2.146-1.243,1.816-1.039,2.214,1.243-1.806,1.039Zm-21.469-.049h-.049l-2.165-1.321,1.816-1.049,2.214,1.253-1.816,1.039Zm35.52-.32h-.049l-2.146-1.291,2.913-1.68,2.214,1.243-2.913,1.68Zm-6.166-.311H298.3l-2.146-1.243,5.719-3.3,2.214,1.253-5.71,3.292Zm-19.42-.4h0L276.7,194.3l1.816-1.039,2.214,1.243-1.816,1.039Zm7.419-.408H286.3l-2.136-1.243,1.806-1.049,2.224,1.253-1.816,1.039Zm7.108-.233H293.4l-2.146-1.233,1.816-1.049,2.214,1.243-1.806,1.049Zm-21.479-.049h0l-2.136-1.233,1.806-1.049,2.224,1.243-1.816,1.049Zm9.924-1.029h-.049l-2.136-1.233,1.806-1.049,2.224,1.243-1.816.99Zm27.324-.282h-.107l-2.146-1.243,1.816-1.049L311,192.519l-1.816,1.039Zm-19.906-.126h-.049l-2.146-1.233,1.816-1.049,2.214,1.243-1.806,1.049Zm7.1-.223h0l-2.146-1.243,1.651-.971a.369.369,0,0,0,.194-.3.388.388,0,0,0-.2-.32l-2.816-1.622,2.136-1.223,5.564,3.175-4.311,2.486Zm-21.469-.049h0l-2.146-1.243,1.816-1.049,2.214,1.253-1.806,1.039Zm9.895-1.078h-.049l-2.146-1.243,1.816-1.039,2.214,1.243-1.835,1.029Zm27.315-.282h-.049l-2.136-1.233,1.806-1.049L314,190.761l-1.816,1.049Zm-19.9-.126h-.049l-2.156-1.262,1.816-1.039,2.214,1.243-1.816,1.039Zm-13.08-1.029h-.049l-2.156-1.2,1.816-1.049L281,189.644l-1.816,1.039Zm8.574-.233h0l-2.136-1.233,1.816-1.049,2.214,1.243-1.826,1.039Zm27.324-.272h-.049l-2.146-1.243,1.816-1.049,2.214,1.253-1.806,1.039Zm-6.321-.223h-.049l-2.146-1.243,1.816-1.049,2.214,1.253-1.806,1.039Zm-26.664-.971h0l-2.107-1.253,1.816-1.049,2.214,1.243-1.806,1.049Zm8.632-.282h-.049l-2.136-1.233,3.214-1.864,2.214,1.243-3.214,1.864Zm27.946-.641h-.049l-2.146-1.233,4.787-2.767,2.214,1.253-4.777,2.758Zm-19.6-.311h-.049l-2.136-1.233,1.816-1.049,2.214,1.243-1.816,1.049Zm-14.012-.486h0l-2.165-1.253,1.816-1.049,2.214,1.253-1.806,1.039Zm30.247-1.146h-.049l-2.136-1.233,1.816-1.049,2.214,1.243-1.816,1.049ZM302.045,186H302l-2.146-1.243,1.816-1.049,2.214,1.253L302.075,186Zm-6.321-.223h-.049l-2.1-1.262,1.816-1.049,2.214,1.253L295.8,185.76Zm-7.7-.262h-.049l-2.136-1.233,1.816-1.049,2.214,1.243-1.777,1.078Zm36.627-.932H324.6l-2.136-1.233,1.806-1.049,2.214,1.243Zm-6.321-.223h-.049l-2.146-1.233,1.816-1.049,2.214,1.243-1.806,1.049Zm-13.264-.087h-.058l-2.136-1.233,1.816-1.049,2.214,1.243-1.816,1.049Zm6.943-.136h-.049l-2.146-1.233,1.816-1.049,2.214,1.243-1.816,1.039Zm-13.264-.087h-.058l-2.136-1.233,1.816-1.049,2.214,1.243-1.816,1.049Zm-7.04-.631h-.068l-2.146-1.243,1.816-1.049,2.214,1.253L291.7,183.42Zm35.927-.553h-.068l-5.5-3.136,1.806-1.049,5.574,3.185-1.806,1.039Zm-6.321-.223h-.049l-2.146-1.243,1.816-1.049,2.214,1.253-1.835,1.039Zm-6.321-.223h0l-2.146-1.243,1.816-1.049,2.214,1.253-1.816,1.039Zm-13.274-.078h-.049L299.53,181.1l1.806-1.039,2.214,1.243-1.806,1.039Zm6.952-.136h0l-2.146-1.243,1.816-1.049,2.214,1.253-1.816,1.039Zm-14.012-.534h-.049l-2.136-1.233,1.806-1.049,2.214,1.311-1.806.971Zm23.3-.971h-.107l-2.136-1.233,1.806-1.049,2.224,1.243Zm-6.321-.223h-.049l-2.146-1.233,1.816-1.049,2.214,1.243-1.806,1.049Zm-6.321-.223h-.087l-2.136-1.233,1.806-1.049,2.214,1.243-1.806,1.049Zm-7.661-.272h-.049l-2.175-1.223,1.816-1.049,2.214,1.253L297.656,180Zm23.3-.971h-.049l-5.554-3.166,1.816-1.049,5.564,3.185-1.806,1.039Zm-6.321-.223h-.049l-2.146-1.243,1.816-1.039,2.214,1.243-1.864,1.01Zm-6.321-.223h-.049l-2.146-1.243,1.816-1.039,2.214,1.243-1.806,1.039Zm-7.943-1.146h-.049l-.971-.524,1.816-1.049.971.534Zm10.866-.583h-.049l-2.136-1.233,1.816-1.049,2.214,1.243-1.835,1.02Zm-7.953-1.136h0l-.971-.524,1.816-1.049.971.544-1.8,1.039Zm10.866-.573h-.049l-2.078-1.223,1.816-1.039,2.214,1.243-1.806,1.039Zm-7.9-1.136h0l-.971-.524,1.806-1.049.971.534L306.25,174Zm2.971-1.709h0l-.971-.534,1.835-1.049.971.534-1.806,1.039Z" transform="translate(-242.031 -168.204)" fill="#ba68c8"/>
          </g>
        </g>
        <g id="freepik--Device--inject-33" transform="translate(29.558)">
          <path id="freepik--shadow--inject-33-6" data-name="freepik--shadow--inject-33" d="M195.184,205.423l-13.439-7.768c-2.02-1.165-2.02-3.059,0-4.224l96.47-55.7a8.089,8.089,0,0,1,7.312,0l13.449,7.768c2.02,1.165,2.02,3.049,0,4.214l-96.47,55.707a8.108,8.108,0,0,1-7.321,0Z" transform="translate(-180.23 -52.118)" opacity="0.2"/>
          <g id="freepik--Monitor--inject-33" transform="translate(11.688)">
            <path id="Path_1499" data-name="Path 1499" d="M259.207,188.28l14.818-8.574a3.884,3.884,0,0,0,2.292-3.185v-2.068l-13.944-7.914a3.253,3.253,0,0,1-1.476-2.554V145.72L235,160.674v18.265a3.282,3.282,0,0,0,1.476,2.563l11.652,6.8A12.215,12.215,0,0,0,259.207,188.28Z" transform="translate(-193.505 -52.375)" fill="#37474f"/>
            <path id="Path_1500" data-name="Path 1500" d="M241.234,182.543v2.049l-4.748-2.738a3.263,3.263,0,0,1-1.476-2.554V161.035l4.933-2.845c.107,1.253.214,2.544.32,3.806l-3.457,2v14.274a3.224,3.224,0,0,0,1.466,2.554Z" transform="translate(-193.506 -52.736)" fill="#263238"/>
            <path id="Path_1501" data-name="Path 1501" d="M236.859,178a3.3,3.3,0,0,0,1.466,2.563l9.866,5.748a12.254,12.254,0,0,0,11.06,0l14.827-8.574c3.059-1.758,3.059-4.622,0-6.38l-9.895-5.758a3.253,3.253,0,0,1-1.476-2.554V148.77L236.83,163.724Z" transform="translate(-193.558 -52.463)" fill="#455a64"/>
            <path id="Path_1502" data-name="Path 1502" d="M267.223,167.336h0l-3.039-1.738a3.253,3.253,0,0,1-1.476-2.554V148.77L236.83,163.724V178a3.3,3.3,0,0,0,1.466,2.563l2.913,1.7Z" transform="translate(-193.558 -52.463)" fill="#37474f"/>
            <path id="Path_1503" data-name="Path 1503" d="M194.008,194.834a3.962,3.962,0,0,0,3.573-.058l100.092-57.795a4.088,4.088,0,0,0,1.845-3.195V53.192a3.457,3.457,0,0,0-5.3-3.068l-100.1,57.843a4.088,4.088,0,0,0-1.835,3.195v80.594A3.933,3.933,0,0,0,194.008,194.834Z" transform="translate(-192.267 -49.589)" fill="#37474f"/>
            <path id="Path_1504" data-name="Path 1504" d="M197.685,194.835,297.777,137.05a4.088,4.088,0,0,0,1.845-3.195V53.261c0-1.175-.825-1.651-1.845-1.058L197.685,110.026a4.088,4.088,0,0,0-1.845,3.195v80.594C195.84,194.951,196.665,195.427,197.685,194.835Z" transform="translate(-192.37 -49.657)" fill="#455a64"/>
            <path id="Path_1505" data-name="Path 1505" d="M199.4,183.149V114.538a2.447,2.447,0,0,1,1.107-1.942L295.142,58c.612-.35,1.107-.068,1.107.641v68.6a2.457,2.457,0,0,1-1.107,1.942l-94.654,54.639C199.9,184.14,199.4,183.849,199.4,183.149Z" transform="translate(-192.473 -49.828)" fill="#fafafa"/>
            <path id="Path_1506" data-name="Path 1506" d="M286.481,71l-76.71,44.317a2.2,2.2,0,0,0-.971,1.748v55.892c0,.641.447.9.971.583l76.71-44.317a2.214,2.214,0,0,0,.971-1.748V71.6C287.491,71,287.044,70.7,286.481,71Z" transform="translate(-192.746 -50.206)" fill="#455a64"/>
            <path id="Path_1507" data-name="Path 1507" d="M217.752,121.323v35.131a.728.728,0,0,1-.34.583l-5.622,3.253a.211.211,0,0,1-.34-.194V124.954a.767.767,0,0,1,.34-.583l5.622-3.243C217.606,121,217.752,121.109,217.752,121.323Z" transform="translate(-192.823 -51.661)" fill="#263238"/>
            <path id="Path_1508" data-name="Path 1508" d="M217.067,123.109l-1.855,1.078a.553.553,0,0,0-.252.427v2.156a.155.155,0,0,0,.252.146l1.855-1.078a.534.534,0,0,0,.252-.437v-2.146C217.319,123.089,217.213,123,217.067,123.109Z" transform="translate(-192.924 -51.718)" fill="#37474f"/>
            <path id="Path_1509" data-name="Path 1509" d="M214.107,124.819l-1.855,1.078a.553.553,0,0,0-.252.427v2.156a.155.155,0,0,0,.252.146l1.855-1.078a.534.534,0,0,0,.252-.437v-2.117C214.359,124.809,214.253,124.741,214.107,124.819Z" transform="translate(-192.839 -51.768)" fill="#37474f"/>
            <path id="Path_1510" data-name="Path 1510" d="M217.067,126.459l-1.855,1.078a.553.553,0,0,0-.252.437v2.146a.155.155,0,0,0,.252.146l1.855-1.078a.534.534,0,0,0,.252-.437V126.6C217.319,126.449,217.213,126.381,217.067,126.459Z" transform="translate(-192.924 -51.816)" fill="#37474f"/>
            <path id="Path_1511" data-name="Path 1511" d="M214.107,128.169l-1.855,1.078a.553.553,0,0,0-.252.437v2.146c0,.165.117.223.252.146l1.855-1.078a.524.524,0,0,0,.252-.427v-2.156C214.36,128.159,214.253,128.091,214.107,128.169Z" transform="translate(-192.839 -51.865)" fill="#37474f"/>
            <path id="Path_1512" data-name="Path 1512" d="M217.067,129.819l-1.855,1.068a.592.592,0,0,0-.252.437v2.146c0,.165.117.233.252.146l1.855-1.068a.544.544,0,0,0,.252-.437v-2.117C217.32,129.8,217.213,129.741,217.067,129.819Z" transform="translate(-192.924 -51.913)" fill="#37474f"/>
            <path id="Path_1513" data-name="Path 1513" d="M214.107,131.529l-1.855,1.068a.592.592,0,0,0-.252.437v2.146c0,.165.117.233.252.146l1.855-1.068a.544.544,0,0,0,.252-.437v-2.146C214.36,131.51,214.253,131.451,214.107,131.529Z" transform="translate(-192.839 -51.963)" fill="#37474f"/>
            <path id="Path_1514" data-name="Path 1514" d="M217.067,133.169l-1.855,1.078a.554.554,0,0,0-.252.437v2.146a.155.155,0,0,0,.252.146l1.855-1.078a.534.534,0,0,0,.252-.437v-2.146C217.319,133.159,217.213,133.091,217.067,133.169Z" transform="translate(-192.924 -52.01)" fill="#37474f"/>
            <path id="Path_1515" data-name="Path 1515" d="M214.107,134.879l-1.855,1.088a.554.554,0,0,0-.252.437v2.146a.155.155,0,0,0,.252.146l1.855-1.078a.534.534,0,0,0,.252-.437V135C214.359,134.869,214.253,134.8,214.107,134.879Z" transform="translate(-192.839 -52.06)" fill="#37474f"/>
            <path id="Path_1516" data-name="Path 1516" d="M217.067,136.529l-1.855,1.068a.553.553,0,0,0-.252.437v2.146c0,.165.117.223.252.146l1.855-1.068a.563.563,0,0,0,.252-.437v-2.156C217.32,136.509,217.213,136.441,217.067,136.529Z" transform="translate(-192.924 -52.108)" fill="#37474f"/>
            <path id="Path_1517" data-name="Path 1517" d="M214.107,138.239l-1.855,1.068a.554.554,0,0,0-.252.437v2.146c0,.165.117.223.252.146l1.855-1.068a.563.563,0,0,0,.252-.437v-2.146C214.36,138.219,214.253,138.151,214.107,138.239Z" transform="translate(-192.839 -52.157)" fill="#37474f"/>
            <path id="Path_1518" data-name="Path 1518" d="M217.067,139.879l-1.855,1.068a.592.592,0,0,0-.252.437v2.146c0,.165.117.233.252.146l1.855-1.068a.534.534,0,0,0,.252-.437V140C217.32,139.86,217.213,139.8,217.067,139.879Z" transform="translate(-192.924 -52.205)" fill="#37474f"/>
            <path id="Path_1519" data-name="Path 1519" d="M214.107,141.589l-1.855,1.068a.592.592,0,0,0-.252.437v2.146c0,.165.117.233.252.146l1.855-1.068a.534.534,0,0,0,.252-.437v-2.146C214.36,141.57,214.253,141.511,214.107,141.589Z" transform="translate(-192.839 -52.254)" fill="#37474f"/>
            <path id="Path_1520" data-name="Path 1520" d="M217.067,143.229l-1.855,1.078a.553.553,0,0,0-.252.437v2.146a.155.155,0,0,0,.252.146l1.855-1.078a.534.534,0,0,0,.252-.437v-2.146C217.319,143.219,217.213,143.151,217.067,143.229Z" transform="translate(-192.924 -52.302)" fill="#37474f"/>
            <path id="Path_1521" data-name="Path 1521" d="M214.107,144.939l-1.855,1.078a.553.553,0,0,0-.252.437V148.6a.155.155,0,0,0,.252.146l1.855-1.078a.534.534,0,0,0,.252-.437v-2.146C214.359,144.929,214.253,144.861,214.107,144.939Z" transform="translate(-192.839 -52.351)" fill="#37474f"/>
            <path id="Path_1522" data-name="Path 1522" d="M217.067,146.589l-1.855,1.068a.573.573,0,0,0-.252.437v2.146c0,.165.117.223.252.146l1.855-1.068a.563.563,0,0,0,.252-.437v-2.146C217.32,146.569,217.213,146.5,217.067,146.589Z" transform="translate(-192.924 -52.399)" fill="#37474f"/>
            <path id="Path_1523" data-name="Path 1523" d="M214.107,148.3l-1.855,1.068a.573.573,0,0,0-.252.437v2.146c0,.165.117.223.252.146l1.855-1.068a.563.563,0,0,0,.252-.437v-2.146C214.36,148.279,214.253,148.211,214.107,148.3Z" transform="translate(-192.839 -52.449)" fill="#37474f"/>
            <path id="Path_1524" data-name="Path 1524" d="M216.906,150.938l-2.777,1.592a.864.864,0,0,0-.379.66v3.195c0,.243.175.34.379.223l2.777-1.6a.825.825,0,0,0,.369-.651v-3.2C217.284,150.909,217.119,150.812,216.906,150.938Z" transform="translate(-192.889 -52.525)" fill="#e0e0e0"/>
            <path id="Path_1525" data-name="Path 1525" d="M212.533,156.583l2.272-1.321s.087,0,.087.058v2.622l-2.272,1.311a.058.058,0,0,1-.087-.049v-2.622m-.379-.418a.884.884,0,0,0-.2.515v3.156c0,.243.165.34.379.223l2.767-1.6a.777.777,0,0,0,.165-.146.806.806,0,0,0,.214-.5v-3.2c0-.243-.165-.34-.379-.214l-2.767,1.6a.572.572,0,0,0-.175.136Z" transform="translate(-192.837 -52.625)" fill="#ba68c8"/>
            <path id="Path_1526" data-name="Path 1526" d="M276.451,89.472l-49.939,28.839a4.214,4.214,0,0,0-1.942,3.311v37c0,1.214.854,1.709,1.942,1.1l49.939-28.849a4.234,4.234,0,0,0,1.942-3.311V90.579C278.393,89.356,277.51,88.86,276.451,89.472Z" transform="translate(-193.203 -50.737)" fill="#fafafa"/>
            <path id="Path_1527" data-name="Path 1527" d="M227.367,126.375a.442.442,0,0,1-.223-.825l17.935-10.361a.447.447,0,0,1,.447.767L227.58,126.317A.447.447,0,0,1,227.367,126.375Z" transform="translate(-193.271 -51.489)" fill="#e0e0e0"/>
            <path id="Path_1528" data-name="Path 1528" d="M227.366,130.665a.437.437,0,0,1-.223-.825l17.935-10.351a.437.437,0,0,1,.6.165.447.447,0,0,1-.155.6L227.58,130.577a.447.447,0,0,1-.214.087Z" transform="translate(-193.271 -51.613)" fill="#e0e0e0"/>
            <path id="Path_1529" data-name="Path 1529" d="M227.366,134.9a.437.437,0,0,1-.223-.825l17.935-10.361a.447.447,0,0,1,.447.767L227.58,134.847a.446.446,0,0,1-.214.058Z" transform="translate(-193.271 -51.736)" fill="#e0e0e0"/>
            <path id="Path_1530" data-name="Path 1530" d="M227.367,139.175a.466.466,0,0,1-.388-.223.447.447,0,0,1,.165-.6L245.078,128a.447.447,0,0,1,.447.767L227.58,139.107a.369.369,0,0,1-.214.068Z" transform="translate(-193.271 -51.86)" fill="#e0e0e0"/>
            <path id="Path_1531" data-name="Path 1531" d="M249.54,113.017l25.12-14.5V115.1l-25.12,14.5Z" transform="translate(-193.927 -51.007)" fill="#ba68c8"/>
            <path id="Path_1532" data-name="Path 1532" d="M249.54,113.017l25.12-14.5V115.1l-25.12,14.5Z" transform="translate(-193.927 -51.007)" fill="#fff" opacity="0.5"/>
            <path id="Path_1533" data-name="Path 1533" d="M251.4,126.86l21.557-12.419-4.748-3.321-4.729,5.612-5.185-4.787Z" transform="translate(-193.981 -51.372)" fill="#fff"/>
            <path id="Path_1534" data-name="Path 1534" d="M265.069,108c.573-.33,1.039-.058,1.039.6a2.292,2.292,0,0,1-1.039,1.8c-.573.33-1.039.058-1.039-.6a2.292,2.292,0,0,1,1.039-1.8Z" transform="translate(-194.347 -51.277)" fill="#fff"/>
            <path id="Path_1535" data-name="Path 1535" d="M227.38,146.776l46.638-26.926V124L227.38,150.922Z" transform="translate(-193.285 -51.625)" fill="#ba68c8"/>
            <path id="Path_1536" data-name="Path 1536" d="M227.366,143.435a.437.437,0,0,1-.223-.825l17.935-10.351a.44.44,0,1,1,.447.757L227.58,143.376A.447.447,0,0,1,227.366,143.435Z" transform="translate(-193.271 -51.983)" fill="#e0e0e0"/>
            <path id="Path_1537" data-name="Path 1537" d="M227.357,155.74a.447.447,0,0,1-.379-.223.437.437,0,0,1,.165-.6L273.839,128a.437.437,0,0,1,.6.155.456.456,0,0,1-.155.612L227.58,155.653a.447.447,0,0,1-.223.087Z" transform="translate(-193.271 -51.86)" fill="#e0e0e0"/>
            <path id="Path_1538" data-name="Path 1538" d="M208.719,117.071a2.224,2.224,0,0,1,.971-1.738L286.478,71c.563-.32.971-.058.971.583v4.272L208.68,121.333Z" transform="translate(-192.742 -50.205)" fill="#37474f"/>
            <path id="Path_1539" data-name="Path 1539" d="M251.348,161.083a3.816,3.816,0,0,0-1.728,2.991c0,1.107.777,1.554,1.728.971a3.787,3.787,0,0,0,1.728-3C253.077,161,252.31,160.53,251.348,161.083Z" transform="translate(-193.929 -52.814)" fill="#ba68c8"/>
            <path id="Path_1540" data-name="Path 1540" d="M192.814,111.12l3.467,1.942a3.884,3.884,0,0,0-.553,1.826v80.779c0,1.078.689,1.563,1.583,1.2a3.447,3.447,0,0,1-5.04-3.2v-80.72a3.884,3.884,0,0,1,.544-1.826Z" transform="translate(-192.267 -51.372)" fill="#263238"/>
          </g>
        </g>
        <g id="freepik--Mouse--inject-33" transform="translate(156.896 100.824)">
          <path id="Path_1541" data-name="Path 1541" d="M337.966,165.96l-6.719,3.884a7.39,7.39,0,0,1-7.409-.388l-11.07-8.089c-1.942-1.437-1.864-3.593.252-4.855l3.369-1.942a9.127,9.127,0,0,1,7.768-.243l13.682,7.428C340.025,162.863,340.083,164.737,337.966,165.96Z" transform="translate(-311.37 -153.427)" opacity="0.2"/>
          <path id="Path_1542" data-name="Path 1542" d="M312.62,157.867l7.661,5.991,5.651,4.428a4.971,4.971,0,0,0,1.806.427,4.855,4.855,0,0,0,2.68-.563l6.011-3.467h0a4.253,4.253,0,0,0,1.214-6.079c-.058-.087-.126-.165-.185-.243a7.953,7.953,0,0,0-4.855-3.068l-3.049-.612c-4.923-.971-8.972-1.486-9.438-1.165l-7.448,4.35Z" transform="translate(-311.406 -153.422)" fill="#37474f"/>
          <path id="Path_1543" data-name="Path 1543" d="M316.987,161.214l-.427-.34,6.8-3.884-5.913-1.835.592-.34,5.913,1.826,4.03-2.321.767.136Z" transform="translate(-311.52 -153.448)" fill="#ba68c8"/>
          <path id="Path_1544" data-name="Path 1544" d="M325.272,168.018h0l-5.379-3.884-7.263-5.253V158a.068.068,0,0,1,0-.058h.049c.534-.184,3.69.767,7.487,2.272l2.525.971a7.768,7.768,0,0,1,2.146,1.282,8,8,0,0,1,2.913,6.185v.126a4.972,4.972,0,0,1-1.806-.427Z" transform="translate(-311.406 -153.552)" fill="#263238"/>
        </g>
        <g id="freepik--Palettes--inject-33" transform="translate(51.411 159.274)">
          <path id="freepik--shadow--inject-33-7" data-name="freepik--shadow--inject-33" d="M256.563,222.716a.884.884,0,0,0-.651-.418l-45.89-7.1h-.175a.884.884,0,0,0-.835.466l-1.942,4.272-2.457,2.457a.767.767,0,0,0-.146.243l-1.359.787a.68.68,0,0,0,0,1.214l33.6,19.42a1.058,1.058,0,0,0,.524.126,1.078,1.078,0,0,0,.524-.126l6.962-4.02a.68.68,0,0,0,0-1.214l-8.176-4.719,9.564,3.185a1.068,1.068,0,0,0,1.049-.2l4.923-4.923a.67.67,0,0,0,.184-.621.777.777,0,0,0-.534-.534l-10.866-3.661,12.2,1.884h.175a.884.884,0,0,0,.835-.466l2.544-5.486a.651.651,0,0,0-.049-.563Z" transform="translate(-202.735 -213.663)" opacity="0.15"/>
          <g id="freepik--Palette--inject-33" transform="translate(0.468 4.042)">
            <path id="Path_1545" data-name="Path 1545" d="M244.527,237.414a.185.185,0,0,0-.107-.155l-33.6-19.42a.641.641,0,0,0-.534,0l-6.962,4.039a.184.184,0,0,0-.107.155v1.039a.184.184,0,0,0,.107.155l33.6,19.42a.641.641,0,0,0,.534,0l6.962-4.02a.185.185,0,0,0,.107-.155Z" transform="translate(-203.217 -217.78)" fill="#f0f0f0"/>
            <path id="Path_1546" data-name="Path 1546" d="M237.186,241.794v1.049a.505.505,0,0,1-.262-.068l-33.6-19.42c-.068,0-.107-.1-.107-.146V222.16c0,.068,0,.107.107.146l33.6,19.42a.583.583,0,0,0,.262.068Z" transform="translate(-203.217 -217.907)" fill="#e0e0e0"/>
            <path id="Path_1547" data-name="Path 1547" d="M210.823,217.878l33.6,19.42a.165.165,0,0,1,0,.311l-6.962,4.01a.573.573,0,0,1-.534,0l-33.6-19.42a.165.165,0,0,1,0-.311l6.962-4.02A.641.641,0,0,1,210.823,217.878Z" transform="translate(-203.217 -217.781)" fill="#fafafa"/>
            <path id="Path_1548" data-name="Path 1548" d="M210.646,219.7l-4.156,2.408,4.166,2.4,4.156-2.4Z" transform="translate(-203.312 -217.836)" fill="#f28f8f"/>
            <path id="Path_1549" data-name="Path 1549" d="M210.646,219.7l-4.156,2.408,4.166,2.4,4.156-2.4Z" transform="translate(-203.312 -217.836)" fill="#f0f0f0" opacity="0.9"/>
            <path id="Path_1550" data-name="Path 1550" d="M221.626,226.04l-4.166,2.4,4.166,2.408,4.156-2.408Z" transform="translate(-203.63 -218.019)" fill="#f28f8f"/>
            <path id="Path_1551" data-name="Path 1551" d="M221.626,226.04l-4.166,2.4,4.166,2.408,4.156-2.408Z" transform="translate(-203.63 -218.019)" fill="#f0f0f0" opacity="0.6"/>
            <path id="Path_1552" data-name="Path 1552" d="M227.106,229.21l-4.156,2.4,4.166,2.408,4.156-2.408Z" transform="translate(-203.789 -218.111)" fill="#f28f8f"/>
            <path id="Path_1553" data-name="Path 1553" d="M227.106,229.21l-4.156,2.4,4.166,2.408,4.156-2.408Z" transform="translate(-203.789 -218.111)" fill="#f0f0f0" opacity="0.5"/>
            <path id="Path_1554" data-name="Path 1554" d="M232.6,232.38l-4.156,2.4,4.156,2.4,4.166-2.4Z" transform="translate(-203.949 -218.203)" fill="#f28f8f"/>
            <path id="Path_1555" data-name="Path 1555" d="M232.6,232.38l-4.156,2.4,4.156,2.4,4.166-2.4Z" transform="translate(-203.949 -218.203)" fill="#f0f0f0" opacity="0.4"/>
            <path id="Path_1556" data-name="Path 1556" d="M238.086,235.54l-4.166,2.408,4.166,2.4,4.156-2.4Z" transform="translate(-204.107 -218.295)" fill="#f28f8f"/>
            <path id="Path_1557" data-name="Path 1557" d="M216.136,222.87l-4.156,2.408,4.156,2.4,4.166-2.4Z" transform="translate(-203.471 -217.928)" fill="#f28f8f"/>
            <path id="Path_1558" data-name="Path 1558" d="M216.136,222.87l-4.156,2.408,4.156,2.4,4.166-2.4Z" transform="translate(-203.471 -217.928)" fill="#f0f0f0" opacity="0.8"/>
            <path id="Path_1559" data-name="Path 1559" d="M211.179,219.1a.971.971,0,0,1-.845,0,.252.252,0,0,1,0-.485.971.971,0,0,1,.845,0,.252.252,0,0,1,0,.486Z" transform="translate(-203.418 -217.801)" fill="#263238"/>
          </g>
          <g id="freepik--palette--inject-33-2" data-name="freepik--palette--inject-33" transform="translate(2.15 2.019)">
            <path id="Path_1560" data-name="Path 1560" d="M251.772,229.634c0-.078-.068-.155-.194-.194l-41.142-13.711a.544.544,0,0,0-.515.078L205,220.73a.126.126,0,0,0-.049.107v1.039c0,.078.058.146.185.194l41.152,13.711a.553.553,0,0,0,.515-.078l4.913-4.923a.136.136,0,0,0,.058-.107C251.763,230.556,251.772,229.663,251.772,229.634Z" transform="translate(-204.949 -215.696)" fill="#f0f0f0"/>
            <path id="Path_1561" data-name="Path 1561" d="M246.577,234.9v1.049a.5.5,0,0,1-.291,0l-41.152-13.711a.194.194,0,0,1-.185-.2V221c0,.078.078.146.185.184l41.152,13.72a.5.5,0,0,0,.291,0Z" transform="translate(-204.949 -215.85)" fill="#e0e0e0"/>
            <path id="Path_1562" data-name="Path 1562" d="M210.437,215.729l41.171,13.711c.184.058.243.194.136.3l-4.913,4.923a.583.583,0,0,1-.515.078l-41.152-13.72c-.175-.058-.243-.194-.136-.291l4.923-4.923A.544.544,0,0,1,210.437,215.729Z" transform="translate(-204.95 -215.696)" fill="#fafafa"/>
            <path id="Path_1563" data-name="Path 1563" d="M211.062,217.53l-2.942,2.942,5.1,1.7,2.942-2.942Z" transform="translate(-205.041 -215.749)" fill="#ba68c8"/>
            <path id="Path_1564" data-name="Path 1564" d="M224.5,222.01l-2.942,2.942,5.1,1.7,2.942-2.942Z" transform="translate(-205.431 -215.879)" fill="#ba68c8"/>
            <path id="Path_1565" data-name="Path 1565" d="M224.5,222.01l-2.942,2.942,5.1,1.7,2.942-2.942Z" transform="translate(-205.431 -215.879)" opacity="0.25"/>
            <path id="Path_1566" data-name="Path 1566" d="M231.222,224.25l-2.942,2.942,5.1,1.7,2.942-2.942Z" transform="translate(-205.625 -215.944)" fill="#ba68c8"/>
            <path id="Path_1567" data-name="Path 1567" d="M231.222,224.25l-2.942,2.942,5.1,1.7,2.942-2.942Z" transform="translate(-205.625 -215.944)" opacity="0.35"/>
            <path id="Path_1568" data-name="Path 1568" d="M237.942,226.49,235,229.432l5.1,1.7,2.942-2.942Z" transform="translate(-205.82 -216.009)" fill="#ba68c8"/>
            <path id="Path_1569" data-name="Path 1569" d="M237.942,226.49,235,229.432l5.1,1.7,2.942-2.942Z" transform="translate(-205.82 -216.009)" opacity="0.35"/>
            <path id="Path_1570" data-name="Path 1570" d="M244.662,228.73l-2.942,2.942,5.1,1.7,2.942-2.942Z" transform="translate(-206.015 -216.074)" fill="#ba68c8"/>
            <path id="Path_1571" data-name="Path 1571" d="M244.662,228.73l-2.942,2.942,5.1,1.7,2.942-2.942Z" transform="translate(-206.015 -216.074)" opacity="0.5"/>
            <path id="Path_1572" data-name="Path 1572" d="M217.782,219.77l-2.942,2.942,5.1,1.7,2.942-2.942Z" transform="translate(-205.236 -215.814)" fill="#ba68c8"/>
            <path id="Path_1573" data-name="Path 1573" d="M217.782,219.77l-2.942,2.942,5.1,1.7,2.942-2.942Z" transform="translate(-205.236 -215.814)" opacity="0.15"/>
            <path id="Path_1574" data-name="Path 1574" d="M211.277,216.884a.864.864,0,0,1-.816.126c-.291-.1-.388-.311-.223-.476a.893.893,0,0,1,.816-.126C211.345,216.506,211.442,216.719,211.277,216.884Z" transform="translate(-205.1 -215.715)" fill="#263238"/>
          </g>
          <g id="freepik--palette--inject-33-3" data-name="freepik--palette--inject-33" transform="translate(4.18)">
            <path id="Path_1575" data-name="Path 1575" d="M256.242,220.941c0-.1-.117-.184-.282-.214l-45.89-7.1a.466.466,0,0,0-.466.155l-2.544,5.486a.127.127,0,0,0,0,.058v1.039c0,.1.107.184.272.214l45.9,7.1c.194,0,.408,0,.456-.155l2.554-5.486a.127.127,0,0,0,0-.058Z" transform="translate(-207.04 -213.617)" fill="#f0f0f0"/>
            <path id="Path_1576" data-name="Path 1576" d="M253.445,226.783v1.039a.621.621,0,0,1-.233,0l-45.89-7.1a.264.264,0,0,1-.282-.214V219.5c0,.1.117.175.282.2l45.89,7.079Z" transform="translate(-207.04 -213.787)" fill="#e0e0e0"/>
            <path id="Path_1577" data-name="Path 1577" d="M210.07,213.63l45.89,7.1c.2,0,.32.155.272.272l-2.554,5.486c0,.117-.262.184-.456.155l-45.9-7.1c-.194,0-.32-.155-.262-.272l2.544-5.486a.466.466,0,0,1,.466-.155Z" transform="translate(-207.04 -213.617)" fill="#fafafa"/>
            <path id="Path_1578" data-name="Path 1578" d="M211.454,215.29l-1.525,3.282,5.68.874,1.525-3.282Z" transform="translate(-207.124 -213.665)" fill="#ba68c8"/>
            <path id="Path_1579" data-name="Path 1579" d="M211.454,215.29l-1.525,3.282,5.68.874,1.525-3.282Z" transform="translate(-207.124 -213.665)" fill="#fff" opacity="0.9"/>
            <path id="Path_1580" data-name="Path 1580" d="M226.444,217.61l-1.525,3.282,5.68.874,1.524-3.282Z" transform="translate(-207.558 -213.733)" fill="#ba68c8"/>
            <path id="Path_1581" data-name="Path 1581" d="M226.444,217.61l-1.525,3.282,5.68.874,1.524-3.282Z" transform="translate(-207.558 -213.733)" fill="#fff" opacity="0.75"/>
            <path id="Path_1582" data-name="Path 1582" d="M233.934,218.77l-1.524,3.282,5.69.874,1.524-3.282Z" transform="translate(-207.775 -213.766)" fill="#ba68c8"/>
            <path id="Path_1583" data-name="Path 1583" d="M233.934,218.77l-1.524,3.282,5.69.874,1.524-3.282Z" transform="translate(-207.775 -213.766)" fill="#fff" opacity="0.7"/>
            <path id="Path_1584" data-name="Path 1584" d="M241.434,219.93l-1.524,3.282,5.68.874,1.525-3.282Z" transform="translate(-207.993 -213.8)" fill="#ba68c8"/>
            <path id="Path_1585" data-name="Path 1585" d="M241.434,219.93l-1.524,3.282,5.68.874,1.525-3.282Z" transform="translate(-207.993 -213.8)" fill="#fff" opacity="0.6"/>
            <path id="Path_1586" data-name="Path 1586" d="M248.924,221.09l-1.525,3.282,5.69.874,1.525-3.282Z" transform="translate(-208.21 -213.834)" fill="#ba68c8"/>
            <path id="Path_1587" data-name="Path 1587" d="M218.944,216.45l-1.524,3.282,5.69.874,1.524-3.282Z" transform="translate(-207.341 -213.699)" fill="#ba68c8"/>
            <path id="Path_1588" data-name="Path 1588" d="M218.944,216.45l-1.524,3.282,5.69.874,1.524-3.282Z" transform="translate(-207.341 -213.699)" fill="#fff" opacity="0.8"/>
            <path id="Path_1589" data-name="Path 1589" d="M211.335,214.647a.719.719,0,0,1-.728.243c-.32,0-.515-.243-.427-.427a.719.719,0,0,1,.728-.243C211.228,214.268,211.422,214.462,211.335,214.647Z" transform="translate(-207.13 -213.634)" fill="#263238"/>
          </g>
        </g>
      </g>
    </g>
    <g id="freepik--Furniture--inject-33" transform="translate(40.101 208.365)">
      <g id="freepik--Cabinet--inject-33">
        <path id="Path_1590" data-name="Path 1590" d="M103.46,405.755l2.8,13.885,2.719,1.573,2.7-1.554,2.826-13.9-5.525-3.185Z" transform="translate(-42.636 -219.048)" fill="#455a64"/>
        <path id="Path_1591" data-name="Path 1591" d="M108.975,421.309V409.035l-5.515-3.185,2.8,13.885Z" transform="translate(-42.636 -219.143)" fill="#37474f"/>
        <path id="Path_1592" data-name="Path 1592" d="M103.46,405.755l1.806,8.972,3.709,2.146,3.7-2.136,1.826-8.982-5.525-3.185Z" transform="translate(-42.636 -219.048)" opacity="0.2"/>
        <path id="Path_1593" data-name="Path 1593" d="M193.85,353.575l2.8,13.885,2.719,1.573,2.7-1.563,2.826-13.9-5.525-3.195Z" transform="translate(-45.256 -217.536)" fill="#455a64"/>
        <path id="Path_1594" data-name="Path 1594" d="M199.365,369.129V356.855l-5.515-3.185,2.8,13.885Z" transform="translate(-45.256 -217.631)" fill="#37474f"/>
        <path id="Path_1595" data-name="Path 1595" d="M193.85,353.575l1.806,8.962,3.709,2.146,3.7-2.136,1.826-8.972-5.525-3.195Z" transform="translate(-45.256 -217.536)" opacity="0.2"/>
        <path id="Path_1596" data-name="Path 1596" d="M41.35,369.895l2.8,13.9,2.719,1.563,2.7-1.554,2.826-13.9-5.525-3.185Z" transform="translate(-40.835 -218.009)" fill="#455a64"/>
        <path id="Path_1597" data-name="Path 1597" d="M46.865,385.449V373.175L41.35,369.99l2.8,13.9Z" transform="translate(-40.835 -218.104)" fill="#37474f"/>
        <path id="Path_1598" data-name="Path 1598" d="M41.35,369.895l1.806,8.972,3.709,2.146,3.7-2.136,1.826-8.982-5.525-3.185Z" transform="translate(-40.835 -218.009)" opacity="0.2"/>
        <g id="freepik--cabinet--inject-33-2" data-name="freepik--cabinet--inject-33">
          <path id="Path_1599" data-name="Path 1599" d="M107.16,408.494,40.82,370.188V270.95l66.34,38.306Z" transform="translate(-40.82 -215.233)" fill="#263238"/>
          <path id="Path_1600" data-name="Path 1600" d="M109.14,308.737l96.5-55.717v99.238l-96.5,55.717Z" transform="translate(-42.8 -214.714)" fill="#37474f"/>
          <path id="Path_1601" data-name="Path 1601" d="M203.659,251.876l-96.5,55.717L40.82,269.287l96.5-55.717Z" transform="translate(-40.82 -213.57)" fill="#455a64"/>
          <path id="Path_1602" data-name="Path 1602" d="M118.28,358.913l78.759-45.473-.01,31.655,1.641.942-78.759,45.473-1.631-.942Z" transform="translate(-43.065 -216.465)" fill="#263238"/>
          <path id="Path_1603" data-name="Path 1603" d="M119.96,359.883l78.759-45.473v31.655L119.96,391.538Z" transform="translate(-43.114 -216.493)" fill="#455a64"/>
          <path id="Path_1604" data-name="Path 1604" d="M157.325,347.977l12.06-6.991c1.563-.913,2.835-.5,2.835.971a5.69,5.69,0,0,1-2.835,4.195l-12.07,6.962c-1.563.9-2.835.5-2.835-.971A5.68,5.68,0,0,1,157.325,347.977Z" transform="translate(-44.115 -217.249)" fill="#263238"/>
          <path id="Path_1605" data-name="Path 1605" d="M118.28,315.783l78.759-45.473-.01,31.655,1.641.942L119.911,348.37l-1.631-.942Z" transform="translate(-43.065 -215.215)" fill="#263238"/>
          <path id="Path_1606" data-name="Path 1606" d="M119.96,316.753l78.759-45.473v31.655L119.96,348.4Z" transform="translate(-43.114 -215.243)" fill="#455a64"/>
          <path id="Path_1607" data-name="Path 1607" d="M157.325,304.838l12.06-6.962c1.563-.9,2.835-.5,2.835.922a5.671,5.671,0,0,1-2.835,4.195l-12.07,6.972c-1.563.9-2.835.486-2.835-.922A5.69,5.69,0,0,1,157.325,304.838Z" transform="translate(-44.115 -216)" fill="#263238"/>
        </g>
      </g>
    </g>
    <g id="freepik--Printer--inject-33" transform="translate(53.686 134.937)">
      <g id="freepik--printer--inject-33-2" data-name="freepik--printer--inject-33">
        <path id="Path_1608" data-name="Path 1608" d="M54.86,266.842l52.5,30.315L189.035,250l-52.5-30.305Z" transform="translate(-54.811 -140.319)" fill="#263238"/>
        <path id="Path_1609" data-name="Path 1609" d="M107.363,298.565,54.86,268.25v2.67a3.457,3.457,0,0,0,1.554,2.69l49.4,28.519a3.117,3.117,0,0,0,3.107,0h0l-1.554-.893Z" transform="translate(-54.811 -141.727)" fill="#263238"/>
        <path id="Path_1610" data-name="Path 1610" d="M190.562,250.9v2.68a3.437,3.437,0,0,1-1.554,2.7l-78.565,45.356c-.854.5-1.554.1-1.554-.893v-2.68Z" transform="translate(-56.378 -141.224)" fill="#37474f"/>
        <path id="Path_1611" data-name="Path 1611" d="M189.5,248.271a3.593,3.593,0,0,0,1.631-2.816l-.049-8.739L139.21,206.77l-13.73,7.991v10.565l51.969,29.927Z" transform="translate(-56.858 -139.945)" fill="#ba68c8"/>
        <path id="Path_1612" data-name="Path 1612" d="M189.5,248.271a3.593,3.593,0,0,0,1.631-2.816l-.049-8.739L139.21,206.77l-13.73,7.991v10.565l51.969,29.927Z" transform="translate(-56.858 -139.945)" fill="#fff" opacity="0.7"/>
        <path id="Path_1613" data-name="Path 1613" d="M125.48,214.98l.049,10.565L177.4,255.491l-.039-10.565Z" transform="translate(-56.858 -140.183)" fill="#ba68c8"/>
        <path id="Path_1614" data-name="Path 1614" d="M125.48,214.98l.049,10.565L177.4,255.491l-.039-10.565Z" transform="translate(-56.858 -140.183)" opacity="0.3"/>
        <path id="Path_1615" data-name="Path 1615" d="M125.48,214.743l13.73-7.923,51.872,29.946-13.72,7.923Z" transform="translate(-56.858 -139.946)" fill="#ba68c8"/>
        <path id="Path_1616" data-name="Path 1616" d="M125.48,214.743l13.73-7.923,51.872,29.946-13.72,7.923Z" transform="translate(-56.858 -139.946)" opacity="0.15"/>
        <path id="Path_1617" data-name="Path 1617" d="M61.1,268.29l33.568,19.381v-7.05L61.1,261.24Z" transform="translate(-54.992 -141.524)" fill="#ba68c8"/>
        <path id="Path_1618" data-name="Path 1618" d="M61.1,268.29l33.568,19.381v-7.05L61.1,261.24Z" transform="translate(-54.992 -141.524)" opacity="0.15"/>
        <path id="Path_1619" data-name="Path 1619" d="M108.313,294.221l63.883-36.9a3.573,3.573,0,0,0,1.631-2.816v-8.739L121.994,215.88,54.81,254.643v8.691a3.573,3.573,0,0,0,1.631,2.816l4.476,2.583V263.45l33.568,19.42v5.282l10.574,6.108a3.563,3.563,0,0,0,3.253-.039Z" transform="translate(-54.81 -140.209)" fill="#ba68c8"/>
        <path id="Path_1620" data-name="Path 1620" d="M108.313,294.221l63.883-36.9a3.573,3.573,0,0,0,1.631-2.816v-8.739L121.994,215.88,54.81,254.643v8.691a3.573,3.573,0,0,0,1.631,2.816l4.476,2.583V263.45l33.568,19.42v5.282l10.574,6.108a3.563,3.563,0,0,0,3.253-.039Z" transform="translate(-54.81 -140.209)" fill="#fff" opacity="0.5"/>
        <path id="Path_1621" data-name="Path 1621" d="M106.691,284.589l67.136-38.753L121.946,215.88,54.81,254.643Z" transform="translate(-54.81 -140.209)" fill="#ba68c8"/>
        <path id="Path_1622" data-name="Path 1622" d="M106.691,284.589l67.136-38.753L121.946,215.88,54.81,254.643Z" transform="translate(-54.81 -140.209)" opacity="0.15"/>
        <path id="Path_1623" data-name="Path 1623" d="M175.376,246.73v10.565l-65.514,37.821c-.893.524-1.622.1-1.622-.971v-8.739Z" transform="translate(-56.359 -141.103)" fill="#ba68c8"/>
        <path id="Path_1624" data-name="Path 1624" d="M175.376,246.73v10.565l-65.514,37.821c-.893.524-1.622.1-1.622-.971v-8.739Z" transform="translate(-56.359 -141.103)" fill="#fff" opacity="0.7"/>
        <path id="Path_1625" data-name="Path 1625" d="M61.1,270.152l1.524-.874v-3.525L61.1,264.87Z" transform="translate(-54.992 -141.629)" fill="#ba68c8"/>
        <path id="Path_1626" data-name="Path 1626" d="M61.1,270.152l1.524-.874v-3.525L61.1,264.87Z" transform="translate(-54.992 -141.629)" opacity="0.35"/>
        <path id="Path_1627" data-name="Path 1627" d="M116.044,285.734c.845-.486,1.534-.1,1.534.874a3.389,3.389,0,0,1-1.534,2.651c-.835.486-1.524.087-1.524-.884a3.389,3.389,0,0,1,1.524-2.641Z" transform="translate(-56.541 -142.228)" fill="#455a64"/>
        <path id="Path_1628" data-name="Path 1628" d="M169.725,254v1.767c0,.971-1.457,2.6-3.253,3.641L127.2,282.062c-1.8,1.068-3.2,1.068-3.2.1v-1.748Z" transform="translate(-56.816 -141.314)" fill="#455a64"/>
        <path id="Path_1629" data-name="Path 1629" d="M106.691,277.28v5.282L54.81,252.616V229.71l36.617,21.139A30.519,30.519,0,0,1,106.691,277.28Z" transform="translate(-54.81 -140.61)" fill="#37474f"/>
        <path id="Path_1630" data-name="Path 1630" d="M173.817,201.859,137.2,180.72l-9.157,5.292L54.81,228.29l36.617,21.139a30.538,30.538,0,0,1,15.264,26.431v5.282l73.234-42.278h0l9.157-5.273v-5.282A30.519,30.519,0,0,0,173.817,201.859Z" transform="translate(-54.81 -139.19)" fill="#455a64"/>
        <path id="Path_1631" data-name="Path 1631" d="M177.322,235.58a30.5,30.5,0,0,0-15.255-26.431L125.45,188,70.52,219.694l36.617,21.139a30.509,30.509,0,0,1,15.313,26.431Z" transform="translate(-55.265 -139.401)" fill="#ba68c8"/>
        <path id="Path_1632" data-name="Path 1632" d="M177.322,235.58a30.5,30.5,0,0,0-15.255-26.431L125.45,188,70.52,219.694l36.617,21.139a30.509,30.509,0,0,1,15.313,26.431Z" transform="translate(-55.265 -139.401)" fill="#fff" opacity="0.5"/>
        <path id="Path_1633" data-name="Path 1633" d="M120.725,216.956c-3.369,1.942-3.369,5.1,0,7.05a13.536,13.536,0,0,0,12.215,0c3.369-1.942,3.369-5.108,0-7.05a13.478,13.478,0,0,0-12.215,0Z" transform="translate(-56.647 -140.198)" fill="#fafafa"/>
        <path id="Path_1634" data-name="Path 1634" d="M118.09,265.015l68.175-39.355V232.1L118.09,271.453Z" transform="translate(-56.644 -140.492)" fill="#ba68c8"/>
        <path id="Path_1635" data-name="Path 1635" d="M120.9,265.189v3.146l62.718-36.209V228.97Z" transform="translate(-56.726 -140.588)" fill="#263238"/>
        <path id="Path_1636" data-name="Path 1636" d="M118.049,264.991l-1.379-.8,68.175-39.365,1.379.806Z" transform="translate(-56.603 -140.468)" fill="#ba68c8"/>
        <path id="Path_1637" data-name="Path 1637" d="M118.049,264.991l-1.379-.8,68.175-39.365,1.379.806Z" transform="translate(-56.603 -140.468)" opacity="0.15"/>
        <path id="Path_1638" data-name="Path 1638" d="M116.67,265.37l1.379.8V272.6l-1.379-.8Z" transform="translate(-56.603 -141.643)" fill="#ba68c8"/>
        <path id="Path_1639" data-name="Path 1639" d="M116.67,265.37l1.379.8V272.6l-1.379-.8Z" transform="translate(-56.603 -141.643)" opacity="0.3"/>
        <path id="Path_1640" data-name="Path 1640" d="M69.9,227.937l68.087-39.307,3.331,1.932L73.25,229.869Z" transform="translate(-55.247 -139.419)" fill="#263238"/>
        <path id="Path_1641" data-name="Path 1641" d="M71.238,227.605,61.46,184.347l68.078-39.307,9.778,43.259Z" transform="translate(-55.003 -138.156)" fill="#37474f"/>
        <path id="Path_1642" data-name="Path 1642" d="M61.413,185.492l-1.583-.922,9.778,43.249,1.583.932Z" transform="translate(-54.956 -139.301)" fill="#263238"/>
        <path id="Path_1643" data-name="Path 1643" d="M59.83,183.4l1.583.922,68.078-39.307-1.573-.922Z" transform="translate(-54.956 -138.128)" fill="#455a64"/>
        <path id="Path_1644" data-name="Path 1644" d="M73.207,226.254,61.39,173.945l62.349-36,11.827,52.309Z" transform="translate(-55.001 -137.95)" fill="#e0e0e0"/>
        <path id="Path_1645" data-name="Path 1645" d="M75,227.3,63.17,175l62.358-36,11.817,52.308Z" transform="translate(-55.052 -137.98)" fill="#fafafa"/>
        <path id="Path_1646" data-name="Path 1646" d="M63.118,176.04l-1.728-1.02,12.225,54.1,1.33-.777Z" transform="translate(-55.001 -139.025)" fill="#e0e0e0"/>
        <path id="Path_1647" data-name="Path 1647" d="M61.39,173.945l1.728,1.02,62.358-36-1.738-1.02Z" transform="translate(-55.001 -137.95)" fill="#ebebeb"/>
        <path id="Path_1648" data-name="Path 1648" d="M109.12,248.551v-.524a.651.651,0,0,0-.408-.573l-1.107-.641a2.2,2.2,0,0,0-1.942,0l-4.185,2.418a.7.7,0,0,0-.408.573h0v.544h0a.689.689,0,0,0,.408.553l1.107.641a2.146,2.146,0,0,0,1.942,0l4.185-2.418a.689.689,0,0,0,.408-.563h0Z" transform="translate(-56.151 -141.099)" fill="#263238"/>
        <path id="Path_1649" data-name="Path 1649" d="M102.555,251.008l-1.107-.641a.6.6,0,0,1,0-1.136l4.185-2.418a2.2,2.2,0,0,1,1.942,0l1.107.641a.6.6,0,0,1,0,1.136l-4.185,2.418A2.146,2.146,0,0,1,102.555,251.008Z" transform="translate(-56.15 -141.099)" fill="#37474f"/>
        <path id="Path_1650" data-name="Path 1650" d="M103.644,250.637a1.806,1.806,0,0,1-.845-.194.767.767,0,0,1-.359-.418.524.524,0,0,1,.058-.379.087.087,0,0,1,.126,0,.078.078,0,0,1,0,.117.359.359,0,0,0,0,.243.524.524,0,0,0,.282.3,1.622,1.622,0,0,0,1.5,0,.466.466,0,0,0,.282-.379.5.5,0,0,0-.282-.379,1.719,1.719,0,0,0-1.1-.146.09.09,0,1,1-.039-.175,1.845,1.845,0,0,1,1.223.165.641.641,0,0,1,.379.534.651.651,0,0,1-.379.544,1.8,1.8,0,0,1-.845.165Z" transform="translate(-56.19 -141.174)" fill="#fafafa"/>
        <path id="Path_1651" data-name="Path 1651" d="M103.689,249.978h0l-1.029-.6a.087.087,0,0,1,0-.117.1.1,0,0,1,.126,0l1.029.6a.087.087,0,0,1,0,.117.1.1,0,0,1-.126,0Z" transform="translate(-56.196 -141.176)" fill="#fafafa"/>
        <path id="Path_1652" data-name="Path 1652" d="M96.735,249.658l9.205-5.341c.282-.155.272-.418,0-.583l-5.341-3.088a1.146,1.146,0,0,0-.971,0l-9.205,5.331c-.282.165-.282.427,0,.583l5.341,3.088a1.107,1.107,0,0,0,.971.01Z" transform="translate(-55.836 -140.924)" fill="#263238"/>
        <path id="Path_1653" data-name="Path 1653" d="M100.611,241.437a1.107,1.107,0,0,0-.971,0l-9.05,5.243,5.185,3a1.107,1.107,0,0,0,1.02,0l9.05-5.243Z" transform="translate(-55.847 -140.946)" fill="#ba68c8"/>
        <g id="Group_41" data-name="Group 41" transform="translate(36.879 101.413)" opacity="0.4">
          <path id="Path_1654" data-name="Path 1654" d="M93.635,247.093a1.651,1.651,0,0,1,1.612-.068c.476.282.456.66-.058.971l-.447.262.592.34-.388.223-2.156-1.243Zm.971,1.049.33-.175c.35-.2.311-.437-.1-.68a1.088,1.088,0,0,0-1.126,0l-.359.2Z" transform="translate(-92.79 -242.519)"/>
          <path id="Path_1655" data-name="Path 1655" d="M94.89,246.358l.893-.515a1.476,1.476,0,0,1,1.4-.1.388.388,0,0,1,.087.7,1.6,1.6,0,0,1,.418,0l1.058.078-.243.32-.971-.117a1.175,1.175,0,0,0-.806.087l-.126.068.884.5-.4.233Zm.573-.126.971.534.456-.262c.243-.146.214-.35-.068-.515a.825.825,0,0,0-.884,0Z" transform="translate(-92.851 -242.483)"/>
          <path id="Path_1656" data-name="Path 1656" d="M97.418,244.91l2.156,1.243-.4.233L97,245.143Z" transform="translate(-92.912 -242.463)"/>
          <path id="Path_1657" data-name="Path 1657" d="M98.212,244.437l2.622.252h.1l-.651-.369c-.291-.165-.825-.408-.971-.5l.282-.165,2.156,1.243-.272.155L98.8,244.8h-.146l.709.418.971.534-.262.146c-.155-.087-.6-.388-.884-.553l-1.233-.709Z" transform="translate(-92.94 -242.427)"/>
          <path id="Path_1658" data-name="Path 1658" d="M101.756,242.39l.214.126c-.136.078-.544.262-.748.379l1.942,1.146-.4.223-1.942-1.136c-.2.117-.515.35-.66.427l-.214-.126Z" transform="translate(-92.998 -242.39)"/>
        </g>
        <path id="Path_1659" data-name="Path 1659" d="M138.672,332.87V294.864a32.646,32.646,0,0,0-2.563-12.7,33.617,33.617,0,0,0-1.816-3.651A32.694,32.694,0,0,0,122.32,266.54V268.1a31.441,31.441,0,0,1,15.012,26.761V332.87a34.17,34.17,0,0,0,17.022,29.49l.68.388v-1.573a32.7,32.7,0,0,1-16.362-28.305Z" transform="translate(-56.767 -141.677)" fill="#e0e0e0"/>
        <path id="Path_1660" data-name="Path 1660" d="M122.31,265.507a32.684,32.684,0,0,1,16.352,28.324v38.005a32.7,32.7,0,0,0,16.362,28.305l59.989-34.617a32.713,32.713,0,0,1-16.362-28.334V259.224A32.694,32.694,0,0,0,182.3,230.89Z" transform="translate(-56.767 -140.644)" fill="#fafafa"/>
        <path id="Path_1661" data-name="Path 1661" d="M134.61,266.958a.34.34,0,0,1-.165-.631l48.793-28.159a.34.34,0,1,1,.34.583L134.785,266.91a.4.4,0,0,1-.175.049Z" transform="translate(-57.114 -140.853)" opacity="0.4"/>
        <path id="Path_1662" data-name="Path 1662" d="M136.7,269.2a.33.33,0,0,1-.175-.621L185.4,240.369a.333.333,0,0,1,.34.573l-48.871,28.2A.368.368,0,0,1,136.7,269.2Z" transform="translate(-57.174 -140.917)" opacity="0.4"/>
        <path id="Path_1663" data-name="Path 1663" d="M138.63,272a.34.34,0,0,1-.165-.631l48.871-28.159a.33.33,0,0,1,.456.126.34.34,0,0,1-.126.456L138.8,272a.33.33,0,0,1-.165,0Z" transform="translate(-57.23 -141)" opacity="0.4"/>
        <path id="Path_1664" data-name="Path 1664" d="M140.31,274.93a.33.33,0,0,1-.165-.621l48.871-28.159a.33.33,0,0,1,.456.126.34.34,0,0,1-.126.456l-48.871,28.208a.32.32,0,0,1-.165-.01Z" transform="translate(-57.278 -141.085)" opacity="0.4"/>
        <path id="Path_1665" data-name="Path 1665" d="M141.73,278.018a.35.35,0,0,1-.291-.175.34.34,0,0,1,.126-.456l48.871-28.208a.335.335,0,1,1,.33.583L141.9,277.921a.4.4,0,0,1-.175.1Z" transform="translate(-57.32 -141.173)" opacity="0.4"/>
        <path id="Path_1666" data-name="Path 1666" d="M142.9,281.24a.33.33,0,0,1-.165-.621l48.871-28.159a.331.331,0,1,1,.33.573L143.065,281.24A.252.252,0,0,1,142.9,281.24Z" transform="translate(-57.354 -141.268)" opacity="0.4"/>
        <path id="Path_1667" data-name="Path 1667" d="M143.81,284.608a.34.34,0,0,1-.291-.165.33.33,0,0,1,.126-.456l48.891-28.218a.35.35,0,0,1,.456.126.33.33,0,0,1-.126.456l-48.881,28.208a.252.252,0,0,1-.175.049Z" transform="translate(-57.38 -141.364)" opacity="0.4"/>
        <path id="Path_1668" data-name="Path 1668" d="M144.46,288.139a.35.35,0,0,1-.291-.165.34.34,0,0,1,.126-.456l48.871-28.159a.33.33,0,0,1,.456.117.34.34,0,0,1-.117.466l-48.871,28.208A.379.379,0,0,1,144.46,288.139Z" transform="translate(-57.399 -141.468)" opacity="0.4"/>
        <path id="Path_1669" data-name="Path 1669" d="M144.86,291.78a.33.33,0,0,1-.291-.165.32.32,0,0,1,.126-.456L193.537,263a.331.331,0,1,1,.33.573l-48.881,28.169a.32.32,0,0,1-.126.039Z" transform="translate(-57.41 -141.573)" opacity="0.4"/>
        <path id="Path_1670" data-name="Path 1670" d="M144.99,295.588a.34.34,0,0,1-.291-.175.33.33,0,0,1,.117-.456l48.871-28.208a.32.32,0,0,1,.456.126.33.33,0,0,1-.117.456l-48.871,28.159A.4.4,0,0,1,144.99,295.588Z" transform="translate(-57.414 -141.682)" opacity="0.4"/>
        <path id="Path_1671" data-name="Path 1671" d="M144.87,299.528a.34.34,0,0,1-.291-.165.33.33,0,0,1,.126-.456L193.537,270.7a.33.33,0,0,1,.456.117.34.34,0,0,1-.126.466L145,299.489a.32.32,0,0,1-.126.039Z" transform="translate(-57.411 -141.797)" opacity="0.4"/>
        <path id="Path_1672" data-name="Path 1672" d="M146.246,339.2a.466.466,0,0,1-.408-.243.456.456,0,0,1,.175-.641l19.993-11.545a.486.486,0,0,1,.651.175.466.466,0,0,1-.175.651l-19.993,11.536A.437.437,0,0,1,146.246,339.2Z" transform="translate(-57.447 -143.421)" opacity="0.4"/>
        <path id="Path_1673" data-name="Path 1673" d="M147.2,342.147a.476.476,0,0,1-.233-.893l19.993-11.536a.466.466,0,0,1,.651.175.485.485,0,0,1-.175.651l-19.993,11.536a.457.457,0,0,1-.243.068Z" transform="translate(-57.474 -143.507)" opacity="0.4"/>
        <path id="Path_1674" data-name="Path 1674" d="M175.586,323.246a.48.48,0,0,1-.243-.893l20.051-11.536a.476.476,0,1,1,.476.816l-20,11.545a.5.5,0,0,1-.282.068Z" transform="translate(-58.297 -142.958)" opacity="0.4"/>
        <path id="Path_1675" data-name="Path 1675" d="M176.536,326.187a.476.476,0,0,1-.418-.233.485.485,0,0,1,.175-.651l20-11.536a.466.466,0,0,1,.641.165.476.476,0,0,1-.165.651l-20,11.545a.515.515,0,0,1-.233.058Z" transform="translate(-58.325 -143.044)" opacity="0.4"/>
        <path id="Path_1676" data-name="Path 1676" d="M152.809,345.059l45.589-26.3a3.505,3.505,0,0,1,4.573.816,2.68,2.68,0,0,1-1.029,4.01L156.3,349.9a3.768,3.768,0,0,1-4.787-.651,2.913,2.913,0,0,1,1.291-4.185Z" transform="translate(-57.601 -143.176)" fill="#ba68c8"/>
        <path id="Path_1677" data-name="Path 1677" d="M145.117,306.076a.418.418,0,0,1-.379-.223.427.427,0,0,1,.155-.6L165.12,293.6a.441.441,0,0,1,.437.767L145.34,306.018A.446.446,0,0,1,145.117,306.076Z" transform="translate(-57.415 -142.46)" fill="#e0e0e0"/>
        <path id="Path_1678" data-name="Path 1678" d="M145.117,310.336a.427.427,0,0,1-.379-.214.447.447,0,0,1,.155-.612l20.226-11.652a.441.441,0,0,1,.437.767L145.34,310.278A.447.447,0,0,1,145.117,310.336Z" transform="translate(-57.415 -142.583)" fill="#e0e0e0"/>
        <path id="Path_1679" data-name="Path 1679" d="M145.117,314.626a.418.418,0,0,1-.379-.223.437.437,0,0,1,.155-.6l20.226-11.652a.437.437,0,1,1,.437.757L145.34,314.558A.447.447,0,0,1,145.117,314.626Z" transform="translate(-57.415 -142.708)" fill="#e0e0e0"/>
        <path id="Path_1680" data-name="Path 1680" d="M145.117,318.876a.437.437,0,0,1-.379-.223.427.427,0,0,1,.155-.6L165.12,306.4a.441.441,0,0,1,.437.767L145.34,318.818A.379.379,0,0,1,145.117,318.876Z" transform="translate(-57.415 -142.831)" fill="#e0e0e0"/>
        <path id="Path_1681" data-name="Path 1681" d="M169.65,291.4l25.11-14.5v16.575l-25.11,14.5Z" transform="translate(-58.139 -141.978)" fill="#ba68c8"/>
        <path id="Path_1682" data-name="Path 1682" d="M169.65,291.4l25.11-14.5v16.575l-25.11,14.5Z" transform="translate(-58.139 -141.978)" fill="#fff" opacity="0.5"/>
        <path id="Path_1683" data-name="Path 1683" d="M171.51,305.24l21.557-12.419-4.748-3.321-4.729,5.612-5.195-4.777Z" transform="translate(-58.193 -142.343)" fill="#fff"/>
        <path id="Path_1684" data-name="Path 1684" d="M185.179,286.336c.573-.34,1.039-.068,1.039.592a2.292,2.292,0,0,1-1.039,1.8c-.573.33-1.039.068-1.039-.592A2.282,2.282,0,0,1,185.179,286.336Z" transform="translate(-58.559 -142.247)" fill="#fff"/>
        <path id="Path_1685" data-name="Path 1685" d="M145.13,326.477l48.92-28.237v4.137l-48.92,28.247Z" transform="translate(-57.428 -142.596)" fill="#ba68c8"/>
        <path id="Path_1686" data-name="Path 1686" d="M145.117,323.136a.427.427,0,0,1-.379-.214.456.456,0,0,1,.155-.612l20.226-11.652a.447.447,0,0,1,.6.155.456.456,0,0,1-.165.612L145.34,323.078A.447.447,0,0,1,145.117,323.136Z" transform="translate(-57.415 -142.954)" fill="#e0e0e0"/>
        <path id="Path_1687" data-name="Path 1687" d="M145.116,335.443a.437.437,0,0,1-.223-.825l48.988-28.159a.441.441,0,0,1,.437.767L145.34,335.433A.476.476,0,0,1,145.116,335.443Z" transform="translate(-57.414 -142.833)" fill="#e0e0e0"/>
        <path id="Path_1688" data-name="Path 1688" d="M156.01,364.54,216,329.924V328.37L156.01,362.987Z" transform="translate(-57.743 -143.47)" fill="#f0f0f0"/>
      </g>
    </g>
    <g id="freepik--Sheets--inject-33" transform="translate(206.222 276.268)">
      <g id="freepik--sheets--inject-33-2" data-name="freepik--sheets--inject-33">
        <g id="freepik--sheets--inject-33-3" data-name="freepik--sheets--inject-33" transform="translate(0 43.094)">
          <g id="freepik--Character--inject-33">
            <path id="Path_1689" data-name="Path 1689" d="M331.89,399.668l-70.01,40.5V397.231l70.01-40.491Z" transform="translate(-213.349 -328.717)" fill="#fafafa"/>
            <path id="Path_1690" data-name="Path 1690" d="M265.45,395.221V405.9l66.544-38.481V356.74Z" transform="translate(-213.452 -328.717)" opacity="0.1"/>
            <path id="Path_1691" data-name="Path 1691" d="M211.91,412.518l48.522,28.023V397.6L211.9,369.58Z" transform="translate(-211.9 -329.089)" fill="#f0f0f0"/>
            <path id="Path_1692" data-name="Path 1692" d="M330.441,355.9,281.91,327.88,211.9,368.371l48.531,28.023Z" transform="translate(-211.9 -327.88)" fill="#fff"/>
            <path id="Path_1693" data-name="Path 1693" d="M221.01,369.561l43.152,24.916L330.705,356,287.554,331.08Z" transform="translate(-212.164 -327.973)" opacity="0.1"/>
          </g>
          <path id="Path_1694" data-name="Path 1694" d="M294.809,393.3,261.28,412.652l-20.11-11.613,20.11,12.808Z" transform="translate(-212.748 -329.776)" opacity="0.1"/>
          <path id="Path_1695" data-name="Path 1695" d="M314.318,392.48l-53.639,30.966L220.45,400.219l40.229,24.4Z" transform="translate(-212.148 -329.753)" opacity="0.1"/>
          <path id="Path_1696" data-name="Path 1696" d="M326.312,373.14s1.107,6.263.553,9.438c0,0-8.739-.223-23.6,3.884Z" transform="translate(-214.548 -329.192)" opacity="0.1"/>
          <path id="Path_1697" data-name="Path 1697" d="M326.352,373.14l-23.042,13.3,25.5-7.36Z" transform="translate(-214.55 -329.192)" fill="#fff"/>
          <path id="Path_1698" data-name="Path 1698" d="M295.491,411.37l-25.246,23.217s-.7-3.185-5.554-5.428Z" transform="translate(-213.43 -330.3)" opacity="0.1"/>
          <path id="Path_1699" data-name="Path 1699" d="M295.49,411.37l-23.732,19.974-7.079-2.185Z" transform="translate(-213.43 -330.3)" fill="#fff"/>
          <path id="Path_1700" data-name="Path 1700" d="M220.173,387.16l.214-.32,15.963,9.225-17.964-1.476C217.765,391.248,219.542,388.131,220.173,387.16Z" transform="translate(-212.084 -329.589)" opacity="0.1"/>
          <path id="Path_1701" data-name="Path 1701" d="M236.255,396.055l-15.963-9.215-5.311,2.806Z" transform="translate(-211.989 -329.589)" fill="#fafafa"/>
          <g id="Group_42" data-name="Group 42" transform="translate(11.679 6.543)" opacity="0.3">
            <path id="Path_1702" data-name="Path 1702" d="M320.06,359.08a.621.621,0,0,0,.3-1.155L280.132,334.7a.631.631,0,0,0-.845.223.621.621,0,0,0,.233.845l40.268,23.227A.6.6,0,0,0,320.06,359.08Z" transform="translate(-225.53 -334.618)" fill="#455a64"/>
            <path id="Path_1703" data-name="Path 1703" d="M313.149,363.069a.631.631,0,0,0,.534-.311.612.612,0,0,0-.223-.845L273.23,338.686a.621.621,0,1,0-.621,1.068l40.229,23.227a.6.6,0,0,0,.311.087Z" transform="translate(-225.328 -334.733)" fill="#455a64"/>
            <path id="Path_1704" data-name="Path 1704" d="M306.25,367.05a.621.621,0,0,0,.3-1.155l-40.219-23.227a.631.631,0,0,0-.855.233.621.621,0,0,0,.233.845l40.229,23.227a.592.592,0,0,0,.311.078Z" transform="translate(-225.129 -334.849)" fill="#455a64"/>
            <path id="Path_1705" data-name="Path 1705" d="M299.341,371.04a.612.612,0,0,0,.534-.311.621.621,0,0,0-.223-.845l-40.229-23.227a.631.631,0,0,0-.845.223.612.612,0,0,0,.223.845l40.229,23.227A.6.6,0,0,0,299.341,371.04Z" transform="translate(-224.929 -334.965)" fill="#455a64"/>
            <path id="Path_1706" data-name="Path 1706" d="M292.44,375.03a.641.641,0,0,0,.534-.311.621.621,0,0,0-.233-.845l-40.219-23.227a.631.631,0,0,0-.854.223.621.621,0,0,0,.233.845l40.229,23.227A.6.6,0,0,0,292.44,375.03Z" transform="translate(-224.729 -335.081)" fill="#455a64"/>
            <path id="Path_1707" data-name="Path 1707" d="M285.531,379.01a.612.612,0,0,0,.534-.311.621.621,0,0,0-.223-.845l-40.229-23.227a.622.622,0,0,0-.621,1.078l40.229,23.227a.592.592,0,0,0,.311.078Z" transform="translate(-224.529 -335.196)" fill="#455a64"/>
            <path id="Path_1708" data-name="Path 1708" d="M278.631,383a.612.612,0,0,0,.534-.311.621.621,0,0,0-.233-.845l-40.219-23.227a.622.622,0,1,0-.621,1.078l40.229,23.227a.7.7,0,0,0,.311.078Z" transform="translate(-224.329 -335.312)" fill="#455a64"/>
            <path id="Path_1709" data-name="Path 1709" d="M271.722,386.991a.631.631,0,0,0,.534-.311.612.612,0,0,0-.223-.845L231.8,362.608a.621.621,0,0,0-.621,1.068L271.412,386.9A.6.6,0,0,0,271.722,386.991Z" transform="translate(-224.13 -335.428)" fill="#455a64"/>
            <path id="Path_1710" data-name="Path 1710" d="M264.78,390.97a.612.612,0,0,0,.534-.311.621.621,0,0,0-.223-.845l-40.229-23.227a.641.641,0,0,0-.854.233.621.621,0,0,0,.233.845l40.229,23.227a.592.592,0,0,0,.311.078Z" transform="translate(-223.927 -335.543)" fill="#455a64"/>
          </g>
        </g>
        <g id="freepik--sheets--inject-33-4" data-name="freepik--sheets--inject-33" transform="translate(11.225)">
          <g id="freepik--character--inject-33-2" data-name="freepik--character--inject-33">
            <path id="Path_1711" data-name="Path 1711" d="M343.44,355.288l-70,40.491V352.841l70-40.491Z" transform="translate(-224.909 -284.336)" fill="#fafafa"/>
            <path id="Path_1712" data-name="Path 1712" d="M223.46,368.138l48.531,28.014V353.214L223.46,325.2Z" transform="translate(-223.46 -284.709)" fill="#f5f5f5"/>
            <path id="Path_1713" data-name="Path 1713" d="M341.992,311.514,293.46,283.5l-70,40.491L271.991,352Z" transform="translate(-223.46 -283.5)" fill="#fff"/>
          </g>
          <path id="Path_1714" data-name="Path 1714" d="M306.359,348.91l-33.519,19.362L252.72,356.649l20.119,12.817Z" transform="translate(-224.308 -285.396)" opacity="0.1"/>
          <path id="Path_1715" data-name="Path 1715" d="M325.878,348.09l-53.639,30.975L232.01,355.839l40.229,24.392Z" transform="translate(-223.708 -285.372)" opacity="0.1"/>
          <path id="Path_1716" data-name="Path 1716" d="M337.912,328.76s1.107,6.263.553,9.429c0,0-8.788-.214-23.6,3.884Z" transform="translate(-226.11 -284.812)" opacity="0.1"/>
          <path id="Path_1717" data-name="Path 1717" d="M337.912,328.76l-23.042,13.3,25.489-7.36Z" transform="translate(-226.11 -284.812)" fill="#fff"/>
          <path id="Path_1718" data-name="Path 1718" d="M307.081,367l-25.246,23.207s-.709-3.195-5.554-5.438Z" transform="translate(-224.991 -285.92)" opacity="0.1"/>
          <path id="Path_1719" data-name="Path 1719" d="M307.04,366.98l-23.722,19.974-7.088-2.185Z" transform="translate(-224.99 -285.92)" fill="#fafafa"/>
          <path id="Path_1720" data-name="Path 1720" d="M231.733,342.771a3.178,3.178,0,0,1,.214-.311l15.963,9.263-17.973-1.476C229.324,346.868,231.1,343.751,231.733,342.771Z" transform="translate(-223.644 -285.209)" opacity="0.1"/>
          <path id="Path_1721" data-name="Path 1721" d="M247.815,351.675l-15.963-9.215-5.321,2.806Z" transform="translate(-223.549 -285.209)" fill="#fafafa"/>
          <g id="Group_43" data-name="Group 43" transform="translate(14.769 4.926)" opacity="0.3">
            <path id="Path_1722" data-name="Path 1722" d="M333.541,311.195a.29.29,0,0,0,.136-.544l-38.19-22.032a.282.282,0,0,0-.4.1.291.291,0,0,0,.107.4l38.2,22.042a.233.233,0,0,0,.146.039Z" transform="translate(-240.304 -288.573)" fill="#455a64"/>
            <path id="Path_1723" data-name="Path 1723" d="M330.311,313.055a.262.262,0,0,0,.243-.146.272.272,0,0,0-.107-.388l-38.19-22.042a.291.291,0,1,0-.291.5l38.2,22.032A.252.252,0,0,0,330.311,313.055Z" transform="translate(-240.21 -288.627)" fill="#455a64"/>
            <path id="Path_1724" data-name="Path 1724" d="M327.08,314.925a.29.29,0,0,0,.136-.544l-38.229-22.032a.282.282,0,0,0-.4.1.291.291,0,0,0,.107.4l38.2,22.042A.359.359,0,0,0,327.08,314.925Z" transform="translate(-240.116 -288.681)" fill="#455a64"/>
            <path id="Path_1725" data-name="Path 1725" d="M323.851,316.785a.262.262,0,0,0,.243-.146.272.272,0,0,0-.107-.388L285.8,294.209a.291.291,0,0,0-.291.5l38.2,22.032a.233.233,0,0,0,.146.039Z" transform="translate(-240.023 -288.736)" fill="#455a64"/>
            <path id="Path_1726" data-name="Path 1726" d="M320.621,318.655a.29.29,0,0,0,.136-.544l-38.19-22.032a.282.282,0,0,0-.4.1.291.291,0,0,0,.107.4l38.2,22.042a.359.359,0,0,0,.146.039Z" transform="translate(-239.93 -288.79)" fill="#455a64"/>
            <path id="Path_1727" data-name="Path 1727" d="M317.391,320.515a.262.262,0,0,0,.243-.146.272.272,0,0,0-.107-.388l-38.19-22.042a.291.291,0,0,0-.291.5l38.2,22.032a.233.233,0,0,0,.146.039Z" transform="translate(-239.836 -288.844)" fill="#455a64"/>
            <path id="Path_1728" data-name="Path 1728" d="M314.161,322.385a.29.29,0,0,0,.136-.544l-38.19-22.032a.282.282,0,0,0-.4.1.291.291,0,0,0,.107.4l38.2,22.023A.359.359,0,0,0,314.161,322.385Z" transform="translate(-239.742 -288.898)" fill="#455a64"/>
            <path id="Path_1729" data-name="Path 1729" d="M310.931,324.245a.262.262,0,0,0,.243-.146.272.272,0,0,0-.107-.388l-38.19-22.042a.291.291,0,0,0-.291.5l38.2,22.032a.233.233,0,0,0,.146.039Z" transform="translate(-239.649 -288.952)" fill="#455a64"/>
            <path id="Path_1730" data-name="Path 1730" d="M307.7,326.115a.291.291,0,0,0,.146-.544l-38.2-22.032a.282.282,0,0,0-.4.1.291.291,0,0,0,.107.4l38.2,22.042a.359.359,0,0,0,.146.039Z" transform="translate(-239.555 -289.006)" fill="#455a64"/>
            <path id="Path_1731" data-name="Path 1731" d="M286.029,341a.291.291,0,0,0,.252-.146.282.282,0,0,0-.107-.388L245.557,317a.289.289,0,1,0-.282.5l40.608,23.421a.272.272,0,0,0,.146.078Z" transform="translate(-238.857 -289.396)" fill="#455a64"/>
            <path id="Path_1732" data-name="Path 1732" d="M282.78,342.873a.311.311,0,0,0,.252-.146.3.3,0,0,0-.107-.4l-40.6-23.431a.289.289,0,1,0-.282.5l40.608,23.431a.409.409,0,0,0,.126.039Z" transform="translate(-238.763 -289.451)" fill="#455a64"/>
            <path id="Path_1733" data-name="Path 1733" d="M279.569,344.733a.291.291,0,0,0,.252-.146.281.281,0,0,0-.107-.388l-40.608-23.431a.291.291,0,1,0-.291.5l40.608,23.421A.272.272,0,0,0,279.569,344.733Z" transform="translate(-238.67 -289.505)" fill="#455a64"/>
          </g>
          <path id="Path_1734" data-name="Path 1734" d="M281.131,315.989a.32.32,0,0,1-.165,0l-16.381-9.458a.33.33,0,0,1-.117-.456.32.32,0,0,1,.447-.117l16.381,9.448a.33.33,0,0,1,.117.456.311.311,0,0,1-.282.126Z" transform="translate(-224.647 -284.15)" fill="#e0e0e0"/>
          <path id="Path_1735" data-name="Path 1735" d="M278.881,317.289a.4.4,0,0,1-.165,0l-16.371-9.458a.32.32,0,0,1-.126-.447.34.34,0,0,1,.456-.126l16.381,9.458a.33.33,0,0,1-.175.621Z" transform="translate(-224.582 -284.187)" fill="#e0e0e0"/>
          <path id="Path_1736" data-name="Path 1736" d="M276.641,318.578a.32.32,0,0,1-.165,0l-16.381-9.5a.333.333,0,1,1,.34-.573l16.371,9.448a.331.331,0,0,1-.165.621Z" transform="translate(-224.517 -284.224)" fill="#e0e0e0"/>
          <path id="Path_1737" data-name="Path 1737" d="M274.4,319.878a.4.4,0,0,1-.175-.049l-16.371-9.448a.335.335,0,1,1,.33-.583l16.381,9.458a.335.335,0,0,1-.165.621Z" transform="translate(-224.452 -284.261)" fill="#e0e0e0"/>
          <path id="Path_1738" data-name="Path 1738" d="M284.36,317.68,304.7,329.42l-8.72,5.03L275.64,322.71Z" transform="translate(-224.972 -284.491)" fill="#ba68c8"/>
          <path id="Path_1739" data-name="Path 1739" d="M284.36,317.68,304.7,329.42l-8.72,5.03L275.64,322.71Z" transform="translate(-224.972 -284.491)" fill="#fff" opacity="0.5"/>
          <path id="Path_1740" data-name="Path 1740" d="M278.26,323.087,295.7,333.166l-.651-4.059-5.35-1.33-.107-4.8Z" transform="translate(-225.048 -284.644)" fill="#fff"/>
          <path id="Path_1741" data-name="Path 1741" d="M295.34,325.993c.466.272.553.651.2.845a1.661,1.661,0,0,1-1.466-.117c-.466-.272-.553-.651-.214-.845a1.651,1.651,0,0,1,1.476.116Z" transform="translate(-225.495 -284.725)" fill="#fff"/>
          <path id="Path_1742" data-name="Path 1742" d="M253.475,312.69,293.1,335.567l-2.185,1.253L251.3,313.952Z" transform="translate(-224.267 -284.346)" fill="#ba68c8"/>
          <path id="Path_1743" data-name="Path 1743" d="M234.565,324.07l39.617,22.877-2.175,1.253L232.38,325.323Z" transform="translate(-223.719 -284.676)" fill="#ba68c8"/>
          <path id="Path_1744" data-name="Path 1744" d="M272.151,321.178a.33.33,0,0,1-.165-.049l-16.371-9.458a.331.331,0,0,1,.33-.573l16.371,9.458a.32.32,0,0,1,.126.447A.34.34,0,0,1,272.151,321.178Z" transform="translate(-224.387 -284.299)" fill="#e0e0e0"/>
          <path id="Path_1745" data-name="Path 1745" d="M288.677,338.527a.32.32,0,0,1-.165,0L248.875,315.6a.333.333,0,1,1,.34-.573L288.8,337.915a.32.32,0,0,1,.126.447.34.34,0,0,1-.253.165Z" transform="translate(-224.192 -284.412)" fill="#e0e0e0"/>
        </g>
      </g>
    </g>
    <g id="freepik--speech-bubble--inject-33" transform="translate(56.57 48.088)">
      <g id="freepik--speech-bubble--inject-33-2" data-name="freepik--speech-bubble--inject-33">
        <g id="freepik--speech-bubble--inject-33-3" data-name="freepik--speech-bubble--inject-33">
          <path id="Path_1746" data-name="Path 1746" d="M92.339,136.514l-3.515-6.671,2.855-8.244V116.55L82.94,121.6v5.1L86.7,133.2a.553.553,0,0,0,.252.223h0Z" transform="translate(-58.509 -50.48)" fill="#ba68c8"/>
          <path id="Path_1747" data-name="Path 1747" d="M92.339,136.514l-3.515-6.671,2.855-8.244V116.55L82.94,121.6v5.1L86.7,133.2a.553.553,0,0,0,.252.223h0Z" transform="translate(-58.509 -50.48)" opacity="0.3"/>
          <path id="Path_1748" data-name="Path 1748" d="M116.507,54.9a5.826,5.826,0,0,0-2.622-4.535l-2.127-1.233a5.826,5.826,0,0,0-5.243,0L60.4,75.727a5.826,5.826,0,0,0-2.622,4.535v53.28a5.826,5.826,0,0,0,2.622,4.544l2.136,1.233a5.826,5.826,0,0,0,5.243,0l19.877-11.468,3.748,6.5a.563.563,0,0,0,.971-.1l4.01-11.468,17.478-10.089a5.826,5.826,0,0,0,2.622-4.544Z" transform="translate(-57.78 -48.508)" fill="#ba68c8"/>
          <path id="Path_1749" data-name="Path 1749" d="M57.78,134.413a5.826,5.826,0,0,0,2.622,4.544l2.136,1.233a5.826,5.826,0,0,0,4.8.2c-1.233.466-2.175-.223-2.175-1.719V85.4a5.35,5.35,0,0,1,.767-2.583l-7.37-4.253a5.3,5.3,0,0,0-.777,2.573Z" transform="translate(-57.78 -49.379)" opacity="0.3"/>
          <path id="Path_1750" data-name="Path 1750" d="M116.443,54.161c-.3-1.117-1.321-1.466-2.525-.777L67.8,79.99a5.117,5.117,0,0,0-1.845,1.942l-7.38-4.253a5.2,5.2,0,0,1,1.845-1.942l46.143-26.606a5.826,5.826,0,0,1,5.243,0l2.146,1.233a5.768,5.768,0,0,1,2.486,3.8Z" transform="translate(-57.803 -48.508)" fill="#fff" opacity="0.3"/>
        </g>
        <ellipse id="Ellipse_31" data-name="Ellipse 31" cx="16.439" cy="9.497" rx="16.439" ry="9.497" transform="translate(16.605 48.127) rotate(-60)" fill="#fafafa"/>
        <path id="Path_1751" data-name="Path 1751" d="M91.529,77.1V87.975L82.11,93.413A24.44,24.44,0,0,1,91.529,77.1Z" transform="translate(-58.485 -49.337)" fill="#ba68c8"/>
        <path id="Path_1752" data-name="Path 1752" d="M101.3,81.2a9.583,9.583,0,0,1-.058,1.282L91.81,87.916V77.041a10.679,10.679,0,0,1,1.078-.689A8.458,8.458,0,0,1,97,75.05C100.986,75.05,101.3,79.759,101.3,81.2Z" transform="translate(-58.766 -49.278)" fill="#ba68c8"/>
        <path id="Path_1753" data-name="Path 1753" d="M101.3,81.2a9.583,9.583,0,0,1-.058,1.282L91.81,87.916V77.041a10.679,10.679,0,0,1,1.078-.689A8.458,8.458,0,0,1,97,75.05C100.986,75.05,101.3,79.759,101.3,81.2Z" transform="translate(-58.766 -49.278)" fill="#fff" opacity="0.5"/>
        <path id="Path_1754" data-name="Path 1754" d="M101.239,82.7A24.5,24.5,0,0,1,91.81,99.023V88.138Z" transform="translate(-58.766 -49.499)" fill="#263238"/>
        <path id="Path_1755" data-name="Path 1755" d="M91.527,88.3V99.185c-.35.243-.709.476-1.068.68a8.525,8.525,0,0,1-4.117,1.3c-3.981,0-4.292-4.709-4.292-6.156a9.369,9.369,0,0,1,.058-1.272Z" transform="translate(-58.483 -49.662)" fill="#ba68c8"/>
        <path id="Path_1756" data-name="Path 1756" d="M91.527,88.3V99.185c-.35.243-.709.476-1.068.68a8.525,8.525,0,0,1-4.117,1.3c-3.981,0-4.292-4.709-4.292-6.156a9.369,9.369,0,0,1,.058-1.272Z" transform="translate(-58.483 -49.662)" opacity="0.3"/>
        <path id="Path_1757" data-name="Path 1757" d="M91.8,104.973a.35.35,0,0,1-.35-.359V70.988a.359.359,0,1,1,.709,0v33.558a.35.35,0,0,1-.359.427Z" transform="translate(-58.756 -49.148)" fill="#263238"/>
        <path id="Path_1758" data-name="Path 1758" d="M76.839,96.787a.359.359,0,0,1-.311-.175.35.35,0,0,1,.126-.5l29.072-16.779a.375.375,0,1,1,.388.641l-29.13,16.76A.4.4,0,0,1,76.839,96.787Z" transform="translate(-58.322 -49.4)" fill="#263238"/>
        <path id="Path_1759" data-name="Path 1759" d="M85.728,115.656v1.107l-1.165.757v-.971c0-.971-.243-1.282-.689-1.029a1.806,1.806,0,0,0-.68,1.641v6.71c0,.816.243,1.117.68.854s.689-.835.689-1.816v-1.369l1.165-.583v1.476a4.486,4.486,0,0,1-1.884,4.039c-1.175.67-1.864,0-1.864-1.884v-6.8a4.457,4.457,0,0,1,1.864-4.02C85.028,113.1,85.728,113.792,85.728,115.656Z" transform="translate(-58.481 -50.393)" fill="#fafafa"/>
        <path id="Path_1760" data-name="Path 1760" d="M92.61,121.162l-1.214.7v-8.535h0l-.971,7.36-.719.418-.971-6.2h0v8.545l-1.146.651V111.821l1.592-.913.971,6.059h0l.971-7.147,1.631-.971Z" transform="translate(-58.644 -50.257)" fill="#fafafa"/>
        <path id="Path_1761" data-name="Path 1761" d="M96.774,113.211v5.554l-1.2.7V113.89l-1.68-5.758,1.272-.738.971,3.777h0l.971-4.913,1.262-.728Z" transform="translate(-58.827 -50.161)" fill="#fafafa"/>
        <path id="Path_1762" data-name="Path 1762" d="M102.224,108.207l1.651,6.428-1.291.748-1.156-4.632-.524,1.884v3.8l-1.214.7V104.789l1.214-.7v5.137h0l1.68-6.1,1.262-.728Z" transform="translate(-58.995 -50.07)" fill="#fafafa"/>
      </g>
    </g>
    <g id="freepik--character--inject-33-3" data-name="freepik--character--inject-33" transform="translate(339.096 34.01)">
      <g id="freepik--character--inject-33-4" data-name="freepik--character--inject-33">
        <path id="Path_1763" data-name="Path 1763" d="M393.169,350.1c.748,2.913.1,10.895.1,10.895s-1.224,2.767-5.7,4.651l-2.146-11.079Z" transform="translate(-349.803 -43.173)" fill="#263238"/>
        <path id="Path_1764" data-name="Path 1764" d="M387.259,365.755l-9.943-3.136-2.486-8.768,11.2,5.506Z" transform="translate(-349.496 -43.281)"/>
        <path id="Path_1765" data-name="Path 1765" d="M376.061,339.725l-.078-2.078c-1.33.67-4.175,11.545-8.089,19.022-3.583,6.8-10.788,10.681-13.109,13.672-3.1,3.981,3.078,9.011,12.866,6.8,4.855-1.1,12.206-4.3,14.167-7.6s2.573-9.361,4.185-11.8,5.457-5.263,6.253-8.021a14.934,14.934,0,0,0-.107-7.6c-.8-2.5-1.505-5.515-2.35-5.234v1.942c-.641,1.34-3,2.913-7.953,3.253C379.459,342.2,377.168,341.851,376.061,339.725Z" transform="translate(-348.892 -42.789)" fill="#37474f"/>
        <path id="Path_1766" data-name="Path 1766" d="M446.9,341.45c2.36,0,.913,9.176,1.583,15.06.728,6.3,2.845,10.885,3.5,16.051.748,5.9.252,8.39-1.816,13.274-1.6,3.8-9.836,9.069-13.041,3.7s-3.952-11.536-3.661-17.478c.311-6.088.621-10.536.7-15.167.058-4.078-3.195-13.594-.136-14.245l.175,1.592c1.117,2.185,11.652,3.583,12.827-.66Z" transform="translate(-351.174 -42.922)" fill="#37474f"/>
        <path id="Path_1767" data-name="Path 1767" d="M444.874,336.029s.874-42.579-1.544-58.8c-2.078-13.924-4.777-20.226-5.214-23.392,0,0-2.534-32.791-3.127-60.63-.291-13.4-1.641-22.926-9.166-38.782l-46.045,11.011c-.874,7.088-4.651,55.027-4.942,96.888-.252,36.656,1.8,68.039-1.486,76.487a139.031,139.031,0,0,1-6.244,13.449c-.66,1.262-2.369,3.593-3.243,4.855-2.855,3.408,1.427,5.059,5.875,4.418,4.69-.68,6.389-2.369,8.1-4.418,1.515-1.806,4.156-8.38,5.554-10.322,4.7-6.574,5.69-8.147,6.486-10.069a7.069,7.069,0,0,0,.185-5.127c.33-4.438,8.234-42.317,8.254-55.251,0-6.156-.5-14.633-.5-14.633l6.952-42.725c2.991,10.623,7.545,31.121,9.361,41.249,2.214,12.38,10.089,46.249,14.352,62.708,1.389,5.35,2.981,10.322,3.515,14.352l.175,1.592c.117,1.835,1.544,21.246,2.311,25.373,1.622,8.613,9.283,7.438,10.429.447.971-5.962.136-24.217.087-26.48Z" transform="translate(-349.152 -37.5)" fill="#ffa8a7"/>
        <path id="Path_1768" data-name="Path 1768" d="M381.3,150.564l.078,3.428c-5.428,16.682-7.768,51.959-7.438,77.021.388,33.985.272,102.927.272,102.927s-.757,3.758,6.214,3.991,10.807-5.826,10.807-5.826,7.836-44.463,8.39-54.26a99.449,99.449,0,0,0-.175-15.925l5.758-41.045s7.894,38.753,8.846,43.618,16.954,81.769,16.954,81.769,1.855,2.826,8.516,1.855,7.943-3.836,7.943-3.836-1.7-59.115-3.1-68.942-4.719-17.391-5.253-23.838,1.223-34.956,1.068-48.91c-.107-9.545.437-16.342-.884-23.3-2.661-14.08-8.166-21.207-10.458-26.693l-.272-2.913C420.839,155.739,394.932,159.322,381.3,150.564Z" transform="translate(-349.47 -37.363)" fill="#455a64"/>
        <path id="Path_1769" data-name="Path 1769" d="M424.577,152.6c6.729,14.264,11.9,27.1,12.38,49.9.107,4.913.155,9.71.2,14.429.165,16.371.311,30.5,2.631,37.384.5,1.466,1.039,2.913,1.612,4.515.719,1.942,1.486,4.049,2.253,6.37A89.033,89.033,0,0,1,445.8,275.4c.223,1.573.408,3.36.554,5.243a114.059,114.059,0,0,0-6.03-21.421c-.573-1.573-1.126-3.068-1.622-4.544-2.379-7.059-2.525-21.275-2.69-37.743-.049-4.671-.1-9.506-.2-14.42C435.336,179.9,430.19,167.175,423.49,153Z" transform="translate(-350.907 -37.448)" fill="#37474f"/>
        <path id="Path_1770" data-name="Path 1770" d="M405.579,222l-5.467-25.6s-9.06-2.253-13.342-7.768c0,0,.738,6.71,10.069,10.516l5.69,24.207-.9,27.188Z" transform="translate(-349.842 -38.492)" fill="#37474f"/>
        <path id="Path_1771" data-name="Path 1771" d="M430.537,55.916c1.515,4.214,1.175,8.817,1.1,13.293a9.6,9.6,0,0,0,.67,4.486,3.486,3.486,0,0,0,3.709,2.059c1.476-.369,2.253-2.593,1.049-3.535a3.253,3.253,0,0,1,1.67,6.166c2.758.5,4.214,4.175,2.835,6.613a5.729,5.729,0,0,1-7.351,2.01c1.029,2.33,1.709,5.476-1.34,8.215-2.69,2.408-6.962,2.806-8.962,1.233-1.738,3.185-3.806,2.7-7.428,2.758a10.506,10.506,0,0,1-9.04-5.117c0,4-4.777,6.2-8.224,5.933a8.953,8.953,0,0,1-6-3.01,8.457,8.457,0,0,1-13.953-7.846,7.351,7.351,0,0,1-4.146-13c-2.505-1.078-4.1-3.6-2.913-6.37.612,1.845,2.049,2.311,3.991,1.942,3.768-.651,4.554-4.2,4.8-6.37.223-1.942,2.156-1.311,3.554-2.709a17.837,17.837,0,0,1,5.331-3.612,22.563,22.563,0,0,1,3.059-1.117,24.275,24.275,0,0,0,2.913-.738c2.029-.893,3.991-2.049,6.049-2.913q3.311-1.408,6.7-2.612c4.768-1.67,11.468-4.855,16.381-2.321A11.982,11.982,0,0,1,430.537,55.916Z" transform="translate(-349.409 -34.428)" fill="#263238"/>
        <path id="Path_1772" data-name="Path 1772" d="M387.627,96.131c-8.875-3.622-12.39-1.34-16.022,8.021-3.738,9.642-11.361,32.4-13.9,39.491,1.223,3.952,7.477,8.137,11.594,6.457s17.245-32.3,17.245-32.3Z" transform="translate(-349 -35.764)" fill="#ba68c8"/>
        <path id="Path_1773" data-name="Path 1773" d="M387.627,96.131c-8.875-3.622-12.39-1.34-16.022,8.021-3.738,9.642-11.361,32.4-13.9,39.491,1.223,3.952,7.477,8.137,11.594,6.457s17.245-32.3,17.245-32.3Z" transform="translate(-349 -35.764)" opacity="0.15"/>
        <path id="Path_1774" data-name="Path 1774" d="M413.015,96.06l13.449,1.389c-2.233,14.254,4.807,28.519,4.807,28.519.32,9.118,1.311,19.673-2.661,21.79a17.217,17.217,0,0,1-.447,3.544c-10.031,5.195-32.344,8.331-45.8,1.117l-.971-3.884c-3.379-2.165-2.641-11.652-3.263-18.546-8.856-12.041,3.185-27.48,10.06-33.772l8.535-.1Z" transform="translate(-349.501 -35.809)" fill="#ba68c8"/>
        <path id="Path_1775" data-name="Path 1775" d="M413.015,96.06l13.449,1.389c-2.233,14.254,4.807,28.519,4.807,28.519.32,9.118,1.311,19.673-2.661,21.79a17.217,17.217,0,0,1-.447,3.544c-10.031,5.195-32.344,8.331-45.8,1.117l-.971-3.884c-3.379-2.165-2.641-11.652-3.263-18.546-8.856-12.041,3.185-27.48,10.06-33.772l8.535-.1Z" transform="translate(-349.501 -35.809)" opacity="0.3"/>
        <path id="Path_1776" data-name="Path 1776" d="M381.6,153.98l-.078-3.942c13.594,8.739,39.5,5.331,47.23-.738l.311,3.263s-3.505,6.234-23.042,6.982S381.6,153.98,381.6,153.98Z" transform="translate(-349.69 -37.352)" fill="#37474f"/>
        <path id="Path_1777" data-name="Path 1777" d="M374.5,56a4.6,4.6,0,0,1,.34-2.476c.32-.728,1.1-1.291,1.359-1.942.534-1.359-1.039-3.321-1.165-4.748a5.117,5.117,0,0,1,2.136-4.37,8.943,8.943,0,0,1,4.739-1.67,14.488,14.488,0,0,1,5,.534c4.573-10.448,29.548-10.934,34.345,6.583a16.284,16.284,0,0,1,5.224,4.855c4.01,6.37,2.34,15.6-1.563,21.644s-11.827,12.837-11.866,15.226l-29.13-29.927s-2.466,3.884-5.292,4.049S375.5,61.7,375.5,61.7a1.282,1.282,0,0,0,2.185-1.165C377.4,59.247,374.887,58.615,374.5,56Z" transform="translate(-349.485 -34.01)" fill="#263238"/>
        <path id="Path_1778" data-name="Path 1778" d="M381.113,57.132c-1.049,4.408-.913,9.079-.845,13.594.194,13.128,4.253,16.41,6.3,17.362s6.011.408,9.866-.223l.068,6.952H392.4s-8.331,10.38,2.195,11.39c15.594,1.5,23.829-10.914,23.829-10.914l-5.253-.544.1-17.235a5.457,5.457,0,0,0,6.117-.388c3.428-2.593,4.3-7.768,1.855-10.351s-5.6-2.282-8.38.728c-4.282,5.467-4.651-.359-4.573-2.913.155-4.583-1.874-13.06-10.264-12.244a6.6,6.6,0,0,0-3.447,1.486,3.709,3.709,0,0,1-4.855-.165C387.066,51.034,382.424,51.675,381.113,57.132Z" transform="translate(-349.653 -34.537)" fill="#ffa8a7"/>
        <path id="Path_1779" data-name="Path 1779" d="M386.606,65.854a1.573,1.573,0,1,1-1.651-1.554,1.592,1.592,0,0,1,1.651,1.554Z" transform="translate(-349.746 -34.888)" fill="#263238"/>
        <path id="Path_1780" data-name="Path 1780" d="M400.7,66.19a1.69,1.69,0,1,1-1.748-1.67,1.719,1.719,0,0,1,1.748,1.67Z" transform="translate(-350.148 -34.895)" fill="#263238"/>
        <path id="Path_1781" data-name="Path 1781" d="M397.152,77.83l-6.292,2.029a3.224,3.224,0,0,0,4.02,2.379A3.622,3.622,0,0,0,397.152,77.83Z" transform="translate(-349.961 -35.28)" fill="#b16668"/>
        <path id="Path_1782" data-name="Path 1782" d="M393.72,82.406a3.136,3.136,0,0,1,3.088-3.136,4.575,4.575,0,0,1,.524,0A3.515,3.515,0,0,1,395,82.231a3.049,3.049,0,0,1-1.282.175Z" transform="translate(-350.044 -35.322)" fill="#f28f8f"/>
        <path id="Path_1783" data-name="Path 1783" d="M382.162,61.123l4.282-2.224a2.321,2.321,0,0,0-3.233-1.058,2.5,2.5,0,0,0-1.049,3.282Z" transform="translate(-349.701 -34.693)" fill="#263238"/>
        <path id="Path_1784" data-name="Path 1784" d="M397.92,59.631l4.729.971a2.321,2.321,0,0,0-1.826-2.913,2.515,2.515,0,0,0-2.9,1.942Z" transform="translate(-350.166 -34.695)" fill="#263238"/>
        <path id="Path_1785" data-name="Path 1785" d="M392.626,64.31l-.01,10.4-5.486-.777Z" transform="translate(-349.853 -34.889)" fill="#f28f8f"/>
        <path id="Path_1786" data-name="Path 1786" d="M396.92,88.73c4.059-.524,12.429-2.913,13.75-6.38a8.9,8.9,0,0,1-2.991,4.36c-2.505,2.2-10.768,4.564-10.768,4.564Z" transform="translate(-350.136 -35.411)" fill="#f28f8f"/>
        <path id="Path_1787" data-name="Path 1787" d="M405,62.33l12.283,3.127a8.04,8.04,0,0,0-3.175,1.835L405,64.728Z" transform="translate(-350.371 -34.831)" fill="#455a64"/>
        <path id="Path_1788" data-name="Path 1788" d="M378.42,62.227a2.913,2.913,0,0,0,.631,1.554,1.224,1.224,0,0,1,.262.553,27.106,27.106,0,0,0,.825,4.175A4.593,4.593,0,0,0,384.5,71.6a6.8,6.8,0,0,0,1.515-.078h.117a4.535,4.535,0,0,0,1.253-.447h.078l.107-.058.136-.087.117-.087.146-.107.126-.107.252-.233a5.759,5.759,0,0,0,1.039-1.631c.689-1.427.592-3.457,1.651-3.651h.262c1.437.068,1.2,2.272,1.942,3.884a5.37,5.37,0,0,0,5.146,3.331h.728a5.9,5.9,0,0,0,.748-.078h.243l.223-.058h.146a4.049,4.049,0,0,0,.845-.515l.291-.184a4.029,4.029,0,0,0,.5-.408,5.039,5.039,0,0,0,.971-1.437,26.08,26.08,0,0,0,.971-4.069,1.815,1.815,0,0,1,.252-.592,2.913,2.913,0,0,0,.757-1.457,1.292,1.292,0,0,0-.825-1.33l-.767-.126a23.412,23.412,0,0,0-7.593-.155c-2.428.583-3.282,1.321-4.622,1.262s-2.039-.9-4.3-1.719a20.546,20.546,0,0,0-7.088-.6l-.719.049A1.224,1.224,0,0,0,378.42,62.227ZM394.2,64.256a2.049,2.049,0,0,1,.7-.544l.126-.058h.068l.35-.146.311-.117a8.109,8.109,0,0,1,1.039-.291l.418-.078a9.554,9.554,0,0,1,1.058-.136h.252c2.321-.117,3.748.476,4.253.971s.214,2.641,0,3.719v.087a.185.185,0,0,0,0,.078.982.982,0,0,1-.117.437l-.087.272h0a1.291,1.291,0,0,1-.175.447h0a.752.752,0,0,1-.068.155v.1l-.058.1a.524.524,0,0,1-.068.126,1.059,1.059,0,0,1-.078.146l-.1.146-.107.155a3.651,3.651,0,0,1-3.292,1.418,4.476,4.476,0,0,1-3.379-1.418h0a4.855,4.855,0,0,1-1.049-2.233C393.839,66.324,393.723,64.878,394.2,64.256ZM380.6,62.673a1.806,1.806,0,0,1,.583-.34h0a1.107,1.107,0,0,1,.253-.087l.155-.049h.34l.534-.068h1.262a9.187,9.187,0,0,1,1.068.136c1.641.291,3.34,1.117,3.768,1.806s.282,2.107,0,3.3a5.639,5.639,0,0,1-.243.806.241.241,0,0,1,0,.068v.078h0q0,.049,0,.1l-.1.2-.1.165v.058l-.078.117-.058.1h0a3.622,3.622,0,0,1-3.5,1.457,3.991,3.991,0,0,1-1.719-.466,4.923,4.923,0,0,1-2.136-3.612C380.352,65.285,380.1,63.13,380.6,62.673Z" transform="translate(-349.6 -34.786)" fill="#455a64"/>
        <path id="Path_1789" data-name="Path 1789" d="M395.988,159.816c.379-.5,1.554.544,4.059,1.1,3.195.719,4.438.6,7.836,1.486a16.507,16.507,0,0,0,4.719.874l-12.332,2.544a13.759,13.759,0,0,1-3.467-2.107A2.961,2.961,0,0,1,395.988,159.816Z" transform="translate(-350.098 -37.653)" fill="#ffa8a7"/>
        <path id="Path_1790" data-name="Path 1790" d="M349.488,129.97l43.8,10.167L404.865,191.2l-.757,1.01L362.2,181.744,348.74,130.98Z" transform="translate(-348.74 -36.792)" fill="#fafafa"/>
        <path id="Path_1791" data-name="Path 1791" d="M393.449,139.975s-12.478-3.709-20.488-6.234c-4.709-1.486-15.624-6.865-17.643-9.351a11.448,11.448,0,0,0-.971,6.428Z" transform="translate(-348.899 -36.63)" fill="#e0e0e0"/>
        <path id="Path_1792" data-name="Path 1792" d="M348.74,131.01l43.793,10.176,11.574,51.056L362.2,181.775Z" transform="translate(-348.74 -36.822)" fill="#ebebeb"/>
        <path id="Path_1793" data-name="Path 1793" d="M353.588,149.54c-2.486,3.02-2.379,5.409-1.466,9.38s3.505,8.739,4.962,10,4.175,3.107,7.234,2.486,3.156-4.525,4.525-6.156c2.195-2.612-.757-4.554-3.6-4.942-6.719-.922-9.933-4.3-9.933-4.3Z" transform="translate(-348.821 -37.359)" fill="#ffa8a7"/>
        <path id="Path_1794" data-name="Path 1794" d="M393.84,141.46l11.574,51.056.757-1.01L394.6,140.44Z" transform="translate(-350.047 -37.095)" fill="#e0e0e0"/>
        <path id="Path_1795" data-name="Path 1795" d="M391.2,164.089a47,47,0,0,0,8.739-.087l12.351-2.534c2.379,0,7.768-1.515,13.808-3.884a98.349,98.349,0,0,0,11.312-5.224,255.616,255.616,0,0,0-9.535-26.441c-5.175-7.253-7.71-21.877-1.942-28.49,10.273-.524,13.866,4.758,17.857,14.789,2.758,6.9,10.681,31.4,12.847,39.812,1.243,4.855,1.719,9.108-3.554,12.128-4.7,2.68-19.42,7.38-29.83,10.332a88.508,88.508,0,0,1-15.837,3.263c-12.371,1.107-15.905.243-19.09-4.03-1.379-1.855-1.748-4.661-2.913-6.185-1.039-1.359-1.515-2.165-1.1-2.981C385.151,162.9,387.248,163.759,391.2,164.089Z" transform="translate(-349.767 -35.847)" fill="#ffa8a7"/>
        <path id="Path_1796" data-name="Path 1796" d="M427.069,97.351c4.855-1.049,8.739-3.534,12.293.845,3.729,4.573,4.467,7.467,8.865,20.459,4.564,13.468,8.739,30.48,8.739,30.48s-11.759-1.165-18.449,3.146l-10.4-25.829s-5.447-8.807-5.088-17.226S427.069,97.351,427.069,97.351Z" transform="translate(-350.893 -35.798)" fill="#ba68c8"/>
        <path id="Path_1797" data-name="Path 1797" d="M427.069,97.351c4.855-1.049,8.739-3.534,12.293.845,3.729,4.573,4.467,7.467,8.865,20.459,4.564,13.468,8.739,30.48,8.739,30.48s-11.759-1.165-18.449,3.146l-10.4-25.829s-5.447-8.807-5.088-17.226S427.069,97.351,427.069,97.351Z" transform="translate(-350.893 -35.798)" opacity="0.15"/>
        <path id="Path_1798" data-name="Path 1798" d="M438.981,153.823s6.545-2.185,12.264-1.33,7.283,2.486,7.283,2.486,0-4.68-1.719-6.681a24.8,24.8,0,0,0-18.449,3.942Z" transform="translate(-351.338 -37.311)" fill="#ba68c8"/>
        <path id="Path_1799" data-name="Path 1799" d="M438.981,153.823s6.545-2.185,12.264-1.33,7.283,2.486,7.283,2.486,0-4.68-1.719-6.681a24.8,24.8,0,0,0-18.449,3.942Z" transform="translate(-351.338 -37.311)" opacity="0.3"/>
      </g>
    </g>
  </g>
</svg>
